<svg width="80" height="16" viewBox="0 0 80 16" fill="none" xmlns="http://www.w3.org/2000/svg">
<path d="M3.53695 6.36038V2.68501H6.84861C7.16401 2.68501 7.46439 2.71435 7.74975 2.77304C8.05012 2.81706 8.31296 2.90509 8.53824 3.03714C8.76352 3.16919 8.94375 3.35259 9.07892 3.58735C9.21409 3.8221 9.28167 4.12288 9.28167 4.48968C9.28167 5.14993 9.07892 5.62678 8.67341 5.92022C8.2679 6.21366 7.74975 6.36038 7.11895 6.36038H3.53695ZM0 0V15.7139H7.7948C8.51571 15.7139 9.21409 15.6259 9.88994 15.4498C10.5808 15.2737 11.1891 15.0023 11.7147 14.6355C12.2554 14.2687 12.6835 13.7992 12.9988 13.227C13.3142 12.6401 13.4719 11.9505 13.4719 11.1582C13.4719 10.1751 13.2241 9.33884 12.7285 8.64924C12.2479 7.94498 11.512 7.45346 10.5207 7.17469C11.2416 6.83723 11.7823 6.4044 12.1428 5.8762C12.5182 5.34801 12.706 4.68776 12.706 3.89546C12.706 3.16185 12.5783 2.54562 12.323 2.04677C12.0827 1.54791 11.7373 1.15177 11.2867 0.858323C10.8361 0.550207 10.2954 0.330124 9.66465 0.198074C9.03386 0.0660248 8.33548 0 7.56952 0H0ZM3.53695 13.0289V8.71527H7.38929C8.15526 8.71527 8.77103 8.89133 9.23662 9.24347C9.7022 9.58093 9.935 10.1531 9.935 10.9601C9.935 11.3709 9.8599 11.7084 9.70971 11.9725C9.57454 12.2366 9.38681 12.4493 9.1465 12.6107C8.9062 12.7574 8.62835 12.8675 8.31296 12.9409C7.99756 12.9995 7.66714 13.0289 7.32171 13.0289H3.53695Z" fill="black"/>
<path d="M18.3629 10.0358C18.3629 9.58093 18.4079 9.13343 18.498 8.69326C18.5882 8.2531 18.7384 7.86428 18.9486 7.52682C19.1739 7.18936 19.4668 6.91793 19.8272 6.71252C20.1877 6.49243 20.6382 6.38239 21.1789 6.38239C21.7196 6.38239 22.1702 6.49243 22.5306 6.71252C22.9061 6.91793 23.199 7.18936 23.4092 7.52682C23.6345 7.86428 23.7922 8.2531 23.8823 8.69326C23.9724 9.13343 24.0175 9.58093 24.0175 10.0358C24.0175 10.4906 23.9724 10.9381 23.8823 11.3783C23.7922 11.8038 23.6345 12.1926 23.4092 12.5447C23.199 12.8822 22.9061 13.1536 22.5306 13.359C22.1702 13.5644 21.7196 13.6671 21.1789 13.6671C20.6382 13.6671 20.1877 13.5644 19.8272 13.359C19.4668 13.1536 19.1739 12.8822 18.9486 12.5447C18.7384 12.1926 18.5882 11.8038 18.498 11.3783C18.4079 10.9381 18.3629 10.4906 18.3629 10.0358ZM15.1639 10.0358C15.1639 10.9454 15.3065 11.7671 15.5919 12.5007C15.8773 13.2343 16.2828 13.8652 16.8084 14.3934C17.3341 14.9069 17.9649 15.3031 18.7008 15.5818C19.4367 15.8606 20.2628 16 21.1789 16C22.0951 16 22.9211 15.8606 23.657 15.5818C24.408 15.3031 25.0463 14.9069 25.5719 14.3934C26.0976 13.8652 26.5031 13.2343 26.7885 12.5007C27.0738 11.7671 27.2165 10.9454 27.2165 10.0358C27.2165 9.12609 27.0738 8.30445 26.7885 7.57084C26.5031 6.82256 26.0976 6.19166 25.5719 5.67813C25.0463 5.14993 24.408 4.74645 23.657 4.46767C22.9211 4.17423 22.0951 4.02751 21.1789 4.02751C20.2628 4.02751 19.4367 4.17423 18.7008 4.46767C17.9649 4.74645 17.3341 5.14993 16.8084 5.67813C16.2828 6.19166 15.8773 6.82256 15.5919 7.57084C15.3065 8.30445 15.1639 9.12609 15.1639 10.0358Z" fill="black"/>
<path d="M40.2228 15.7139V4.33563H37.0237V10.2999C37.0237 11.459 36.8285 12.2953 36.438 12.8088C36.0475 13.3077 35.4167 13.5571 34.5456 13.5571C33.7797 13.5571 33.2465 13.3297 32.9461 12.8748C32.6457 12.4053 32.4955 11.7011 32.4955 10.762V4.33563H29.2965V11.3342C29.2965 12.0385 29.3566 12.6841 29.4767 13.271C29.6119 13.8432 29.8372 14.3347 30.1526 14.7455C30.468 15.1417 30.896 15.4498 31.4367 15.6699C31.9924 15.89 32.6983 16 33.5544 16C34.2302 16 34.891 15.8533 35.5369 15.5598C36.1827 15.2664 36.7083 14.7895 37.1138 14.1293H37.1814V15.7139H40.2228Z" fill="black"/>
<path d="M42.6507 4.33563V15.7139H45.8497V9.74965C45.8497 8.59055 46.045 7.76158 46.4355 7.26272C46.826 6.7492 47.4568 6.49243 48.3278 6.49243C49.0938 6.49243 49.627 6.72719 49.9274 7.1967C50.2277 7.65154 50.3779 8.34846 50.3779 9.28748V15.7139H53.5769V8.71527C53.5769 8.011 53.5094 7.37276 53.3742 6.80055C53.254 6.21366 53.0363 5.72215 52.7209 5.326C52.4055 4.91518 51.9699 4.59973 51.4142 4.37964C50.8735 4.14489 50.1752 4.02751 49.3191 4.02751C48.6432 4.02751 47.9824 4.18157 47.3366 4.48968C46.6908 4.78313 46.1651 5.25997 45.7596 5.92022H45.692V4.33563H42.6507Z" fill="black"/>
<path d="M63.9349 8.34113H67.0663C67.0213 7.60752 66.841 6.97662 66.5256 6.44842C66.2102 5.90555 65.7972 5.45805 65.2866 5.10591C64.791 4.73911 64.2202 4.46767 63.5744 4.29161C62.9436 4.11554 62.2828 4.02751 61.5919 4.02751C60.6457 4.02751 59.8047 4.18157 59.0688 4.48968C58.3328 4.7978 57.7095 5.23063 57.1989 5.78817C56.6883 6.33104 56.2978 6.98395 56.0274 7.7469C55.7721 8.49518 55.6444 9.30949 55.6444 10.1898C55.6444 11.0408 55.7871 11.8258 56.0725 12.5447C56.3578 13.249 56.7558 13.8579 57.2665 14.3714C57.7771 14.8849 58.3929 15.2884 59.1138 15.5818C59.8497 15.8606 60.6533 16 61.5243 16C63.0713 16 64.3404 15.6039 65.3316 14.8116C66.3229 14.0193 66.9236 12.8675 67.1339 11.3563H64.0475C63.9424 12.0605 63.6796 12.6254 63.259 13.0509C62.8535 13.4617 62.2678 13.6671 61.5018 13.6671C61.0062 13.6671 60.5857 13.5571 60.2402 13.337C59.8948 13.1169 59.6169 12.8381 59.4067 12.5007C59.2114 12.1486 59.0688 11.7597 58.9786 11.3342C58.8885 10.9088 58.8435 10.4906 58.8435 10.0798C58.8435 9.65429 58.8885 9.22879 58.9786 8.8033C59.0688 8.36314 59.2189 7.96699 59.4292 7.61486C59.6545 7.24805 59.9399 6.95461 60.2853 6.73452C60.6307 6.49977 61.0588 6.38239 61.5694 6.38239C62.9361 6.38239 63.7246 7.0353 63.9349 8.34113Z" fill="black"/>
<path d="M76.781 8.8033H71.5769C71.5919 8.58322 71.637 8.33379 71.7121 8.05502C71.8022 7.77625 71.9449 7.51215 72.1401 7.26272C72.3504 7.0133 72.6207 6.80789 72.9511 6.64649C73.2966 6.47043 73.7246 6.38239 74.2353 6.38239C75.0162 6.38239 75.5945 6.5878 75.9699 6.99862C76.3604 7.40944 76.6308 8.011 76.781 8.8033ZM71.5769 10.784H79.98C80.0401 9.90371 79.965 9.06006 79.7547 8.25309C79.5444 7.44612 79.199 6.72719 78.7184 6.09629C78.2528 5.46538 77.652 4.96653 76.9161 4.59973C76.1802 4.21825 75.3166 4.02751 74.3254 4.02751C73.4393 4.02751 72.6282 4.18157 71.8923 4.48968C71.1714 4.7978 70.5481 5.22329 70.0225 5.76616C69.4968 6.29436 69.0913 6.92526 68.8059 7.65887C68.5206 8.39248 68.3779 9.18478 68.3779 10.0358C68.3779 10.9161 68.5131 11.7231 68.7834 12.4567C69.0688 13.1903 69.4668 13.8212 69.9774 14.3494C70.488 14.8776 71.1113 15.2884 71.8472 15.5818C72.5832 15.8606 73.4092 16 74.3254 16C75.647 16 76.7734 15.7066 77.7046 15.1197C78.6358 14.5328 79.3267 13.5571 79.7772 12.1926H76.9612C76.8561 12.5447 76.5707 12.8822 76.1051 13.205C75.6395 13.5131 75.0838 13.6671 74.438 13.6671C73.5369 13.6671 72.846 13.4397 72.3654 12.9849C71.8848 12.53 71.622 11.7964 71.5769 10.784Z" fill="black"/>
</svg>
