<svg width="126" height="35" viewBox="0 0 126 35" fill="none" xmlns="http://www.w3.org/2000/svg">
<path fillRule="evenodd" clipRule="evenodd" d="M0.000441688 6.125C0.000441688 5.22754 0.727979 4.5 1.62544 4.5H7.04211C7.93957 4.5 8.66711 5.22754 8.66711 6.125C8.66711 7.02246 7.93957 7.75 7.04211 7.75H1.62544C0.727979 7.75 0.000441688 7.02246 0.000441688 6.125ZM17.2336 7.7299C17.5438 8.57202 17.1127 9.50622 16.2705 9.81647L2.18721 15.0051C1.34508 15.3153 0.410892 14.8842 0.100634 14.042C-0.209624 13.1999 0.221543 12.2657 1.06367 11.9555L15.147 6.76686C15.9891 6.4566 16.9233 6.88777 17.2336 7.7299ZM17.2336 20.958C17.5438 21.8001 17.1127 22.7343 16.2705 23.0445L2.18721 28.2331C1.34508 28.5434 0.410892 28.1122 0.100634 27.2701C-0.209624 26.428 0.221543 25.4938 1.06367 25.1835L15.147 19.9949C15.9891 19.6847 16.9233 20.1158 17.2336 20.958ZM8.66711 28.875C8.66711 27.9775 9.39465 27.25 10.2921 27.25H15.7088C16.6062 27.25 17.3338 27.9775 17.3338 28.875C17.3338 29.7725 16.6062 30.5 15.7088 30.5H10.2921C9.39465 30.5 8.66711 29.7725 8.66711 28.875Z" fill="black"/>
<path fillRule="evenodd" clipRule="evenodd" d="M17.2255 14.2084C17.5476 15.046 17.1298 15.9862 16.2921 16.3084L2.20878 21.7251C1.37114 22.0472 0.430922 21.6293 0.108751 20.7917C-0.213419 19.9541 0.204454 19.0138 1.0421 18.6917L15.1254 13.275C15.9631 12.9528 16.9033 13.3707 17.2255 14.2084Z" fill="black"/>
<path d="M35.1708 10.136L36.4728 6.468H36.5008L37.7608 10.136H35.1708ZM35.3808 4.004L31.6008 14H33.8128L34.5968 11.774H38.3348L39.0908 14H41.3728L37.6348 4.004H35.3808ZM50.7188 10.22V4.004H48.5208V10.22C48.5208 10.9667 48.3715 11.5173 48.0728 11.872C47.7741 12.2173 47.2328 12.39 46.4488 12.39C46.0008 12.39 45.6415 12.3293 45.3708 12.208C45.1095 12.0773 44.9041 11.914 44.7548 11.718C44.6055 11.5127 44.5075 11.2793 44.4608 11.018C44.4141 10.7567 44.3908 10.4907 44.3908 10.22V4.004H42.1928V10.22C42.1928 11.5827 42.5615 12.5907 43.2988 13.244C44.0455 13.8973 45.0955 14.224 46.4488 14.224C47.7835 14.224 48.8288 13.8973 49.5848 13.244C50.3408 12.5813 50.7188 11.5733 50.7188 10.22ZM59.2758 7.364H61.4038C61.3384 6.78533 61.1798 6.272 60.9278 5.824C60.6758 5.376 60.3538 5.00267 59.9618 4.704C59.5791 4.396 59.1404 4.16267 58.6458 4.004C58.1604 3.84533 57.6424 3.766 57.0918 3.766C56.3264 3.766 55.6358 3.90133 55.0198 4.172C54.4131 4.44267 53.8998 4.816 53.4798 5.292C53.0598 5.768 52.7378 6.328 52.5138 6.972C52.2898 7.60667 52.1778 8.29733 52.1778 9.044C52.1778 9.772 52.2898 10.4533 52.5138 11.088C52.7378 11.7133 53.0598 12.2593 53.4798 12.726C53.8998 13.1927 54.4131 13.5613 55.0198 13.832C55.6358 14.0933 56.3264 14.224 57.0918 14.224C57.7078 14.224 58.2724 14.1307 58.7858 13.944C59.2991 13.7573 59.7471 13.4867 60.1298 13.132C60.5124 12.7773 60.8204 12.348 61.0538 11.844C61.2871 11.34 61.4318 10.7753 61.4878 10.15H59.3598C59.2758 10.822 59.0424 11.3633 58.6598 11.774C58.2864 12.1847 57.7638 12.39 57.0918 12.39C56.5971 12.39 56.1771 12.2967 55.8318 12.11C55.4864 11.914 55.2064 11.6573 54.9918 11.34C54.7771 11.0227 54.6184 10.668 54.5158 10.276C54.4224 9.87467 54.3758 9.464 54.3758 9.044C54.3758 8.60533 54.4224 8.18067 54.5158 7.77C54.6184 7.35933 54.7771 6.99533 54.9918 6.678C55.2064 6.35133 55.4864 6.09467 55.8318 5.908C56.1771 5.712 56.5971 5.614 57.0918 5.614C57.3624 5.614 57.6191 5.66067 57.8618 5.754C58.1138 5.838 58.3378 5.95933 58.5338 6.118C58.7298 6.27667 58.8931 6.46333 59.0238 6.678C59.1544 6.88333 59.2384 7.112 59.2758 7.364ZM65.2007 5.852V14H67.3987V5.852H70.3947V4.004H62.2047V5.852H65.2007ZM71.5473 4.004V14H73.7453V4.004H71.5473ZM77.4402 9.044C77.4402 8.60533 77.4869 8.18067 77.5802 7.77C77.6829 7.35933 77.8415 6.99533 78.0562 6.678C78.2709 6.35133 78.5509 6.09467 78.8962 5.908C79.2415 5.712 79.6615 5.614 80.1562 5.614C80.6509 5.614 81.0709 5.712 81.4162 5.908C81.7615 6.09467 82.0415 6.35133 82.2562 6.678C82.4709 6.99533 82.6249 7.35933 82.7182 7.77C82.8209 8.18067 82.8722 8.60533 82.8722 9.044C82.8722 9.464 82.8209 9.87467 82.7182 10.276C82.6249 10.668 82.4709 11.0227 82.2562 11.34C82.0415 11.6573 81.7615 11.914 81.4162 12.11C81.0709 12.2967 80.6509 12.39 80.1562 12.39C79.6615 12.39 79.2415 12.2967 78.8962 12.11C78.5509 11.914 78.2709 11.6573 78.0562 11.34C77.8415 11.0227 77.6829 10.668 77.5802 10.276C77.4869 9.87467 77.4402 9.464 77.4402 9.044ZM75.2422 9.044C75.2422 9.772 75.3542 10.4533 75.5782 11.088C75.8022 11.7133 76.1242 12.2593 76.5442 12.726C76.9642 13.1927 77.4775 13.5613 78.0842 13.832C78.7002 14.0933 79.3909 14.224 80.1562 14.224C80.9309 14.224 81.6215 14.0933 82.2282 13.832C82.8349 13.5613 83.3482 13.1927 83.7682 12.726C84.1882 12.2593 84.5102 11.7133 84.7342 11.088C84.9582 10.4533 85.0702 9.772 85.0702 9.044C85.0702 8.29733 84.9582 7.60667 84.7342 6.972C84.5102 6.328 84.1882 5.768 83.7682 5.292C83.3482 4.816 82.8349 4.44267 82.2282 4.172C81.6215 3.90133 80.9309 3.766 80.1562 3.766C79.3909 3.766 78.7002 3.90133 78.0842 4.172C77.4775 4.44267 76.9642 4.816 76.5442 5.292C76.1242 5.768 75.8022 6.328 75.5782 6.972C75.3542 7.60667 75.2422 8.29733 75.2422 9.044ZM86.5727 4.004V14H88.6307V7.308H88.6587L92.8167 14H95.0147V4.004H92.9567V10.71H92.9287L88.7567 4.004H86.5727Z" fill="black"/>
<path opacity="0.5" d="M33.4102 27.116V24.392H35.6902C35.9382 24.392 36.1702 24.408 36.3862 24.44C36.6102 24.464 36.8062 24.524 36.9742 24.62C37.1422 24.716 37.2742 24.852 37.3702 25.028C37.4662 25.204 37.5142 25.444 37.5142 25.748C37.5142 26.204 37.3702 26.548 37.0822 26.78C36.8022 27.004 36.3382 27.116 35.6902 27.116H33.4102ZM32.2702 23.432V32H36.4102C36.8342 32 37.2062 31.932 37.5262 31.796C37.8542 31.652 38.1262 31.468 38.3422 31.244C38.5662 31.012 38.7342 30.748 38.8462 30.452C38.9582 30.156 39.0142 29.852 39.0142 29.54C39.0142 29.012 38.8742 28.564 38.5942 28.196C38.3142 27.828 37.9102 27.588 37.3822 27.476V27.452C37.7902 27.292 38.1022 27.048 38.3182 26.72C38.5422 26.384 38.6542 25.988 38.6542 25.532C38.6542 25.1 38.5542 24.736 38.3542 24.44C38.1622 24.144 37.9262 23.912 37.6462 23.744C37.5182 23.664 37.3622 23.604 37.1782 23.564C37.0022 23.524 36.8102 23.496 36.6022 23.48C36.3942 23.456 36.1822 23.444 35.9662 23.444C35.7582 23.436 35.5622 23.432 35.3782 23.432H32.2702ZM33.4102 31.04V28.076H36.0142C36.2542 28.076 36.4862 28.1 36.7102 28.148C36.9342 28.188 37.1302 28.264 37.2982 28.376C37.4742 28.48 37.6142 28.624 37.7182 28.808C37.8222 28.992 37.8742 29.224 37.8742 29.504C37.8742 29.984 37.7302 30.36 37.4422 30.632C37.1622 30.904 36.7702 31.04 36.2662 31.04H33.4102ZM41.1451 27.716C41.1451 27.284 41.2011 26.86 41.3131 26.444C41.4251 26.02 41.6011 25.64 41.8411 25.304C42.0811 24.968 42.3891 24.7 42.7651 24.5C43.1411 24.292 43.5891 24.188 44.1091 24.188C44.6291 24.188 45.0771 24.292 45.4531 24.5C45.8291 24.7 46.1371 24.968 46.3771 25.304C46.6171 25.64 46.7931 26.02 46.9051 26.444C47.0171 26.86 47.0731 27.284 47.0731 27.716C47.0731 28.148 47.0171 28.576 46.9051 29C46.7931 29.416 46.6171 29.792 46.3771 30.128C46.1371 30.464 45.8291 30.736 45.4531 30.944C45.0771 31.144 44.6291 31.244 44.1091 31.244C43.5891 31.244 43.1411 31.144 42.7651 30.944C42.3891 30.736 42.0811 30.464 41.8411 30.128C41.6011 29.792 41.4251 29.416 41.3131 29C41.2011 28.576 41.1451 28.148 41.1451 27.716ZM40.0051 27.716C40.0051 28.3 40.0891 28.864 40.2571 29.408C40.4331 29.944 40.6931 30.42 41.0371 30.836C41.3811 31.252 41.8091 31.584 42.3211 31.832C42.8331 32.072 43.4291 32.192 44.1091 32.192C44.7891 32.192 45.3851 32.072 45.8971 31.832C46.4091 31.584 46.8371 31.252 47.1811 30.836C47.5251 30.42 47.7811 29.944 47.9491 29.408C48.1251 28.864 48.2131 28.3 48.2131 27.716C48.2131 27.132 48.1251 26.572 47.9491 26.036C47.7811 25.492 47.5251 25.012 47.1811 24.596C46.8371 24.18 46.4091 23.848 45.8971 23.6C45.3851 23.352 44.7891 23.228 44.1091 23.228C43.4291 23.228 42.8331 23.352 42.3211 23.6C41.8091 23.848 41.3811 24.18 41.0371 24.596C40.6931 25.012 40.4331 25.492 40.2571 26.036C40.0891 26.572 40.0051 27.132 40.0051 27.716ZM56.4423 28.904V23.432H55.3023V28.904C55.3023 29.672 55.1103 30.256 54.7263 30.656C54.3503 31.048 53.7983 31.244 53.0703 31.244C52.3023 31.244 51.7143 31.048 51.3063 30.656C50.8983 30.256 50.6943 29.672 50.6943 28.904V23.432H49.5543V28.904C49.5543 30.048 49.8623 30.884 50.4783 31.412C51.1023 31.932 51.9663 32.192 53.0703 32.192C54.1503 32.192 54.9823 31.92 55.5663 31.376C56.1503 30.824 56.4423 30 56.4423 28.904ZM58.2504 23.432V32H59.3304V25.124H59.3544L63.8304 32H65.0784V23.432H63.9984V30.38H63.9744L59.4624 23.432H58.2504ZM72.9466 26.012H74.0866C74.0226 25.556 73.8866 25.156 73.6786 24.812C73.4706 24.46 73.2106 24.168 72.8986 23.936C72.5866 23.704 72.2306 23.528 71.8306 23.408C71.4306 23.288 71.0066 23.228 70.5586 23.228C69.9026 23.228 69.3186 23.348 68.8066 23.588C68.3026 23.82 67.8786 24.14 67.5346 24.548C67.1986 24.956 66.9426 25.436 66.7666 25.988C66.5906 26.532 66.5026 27.116 66.5026 27.74C66.5026 28.364 66.5826 28.948 66.7426 29.492C66.9106 30.036 67.1586 30.508 67.4866 30.908C67.8146 31.308 68.2266 31.624 68.7226 31.856C69.2186 32.08 69.7986 32.192 70.4626 32.192C71.5586 32.192 72.4226 31.892 73.0546 31.292C73.6866 30.692 74.0586 29.852 74.1706 28.772H73.0306C73.0066 29.124 72.9346 29.452 72.8146 29.756C72.6946 30.06 72.5266 30.324 72.3106 30.548C72.1026 30.764 71.8506 30.936 71.5546 31.064C71.2666 31.184 70.9346 31.244 70.5586 31.244C70.0466 31.244 69.6066 31.148 69.2386 30.956C68.8706 30.764 68.5666 30.508 68.3266 30.188C68.0946 29.86 67.9226 29.48 67.8106 29.048C67.6986 28.608 67.6426 28.144 67.6426 27.656C67.6426 27.208 67.6986 26.776 67.8106 26.36C67.9226 25.944 68.0946 25.576 68.3266 25.256C68.5666 24.928 68.8666 24.668 69.2266 24.476C69.5946 24.284 70.0346 24.188 70.5466 24.188C71.1466 24.188 71.6626 24.34 72.0946 24.644C72.5346 24.948 72.8186 25.404 72.9466 26.012ZM75.5827 23.432V32H81.5347V31.04H76.7227V28.076H81.1747V27.116H76.7227V24.392H81.4987V23.432H75.5827ZM88.2025 24.392V32H89.3425V24.392H92.1985V23.432H85.3465V24.392H88.2025ZM93.8091 27.716C93.8091 27.284 93.8651 26.86 93.9771 26.444C94.0891 26.02 94.2651 25.64 94.5051 25.304C94.7451 24.968 95.0531 24.7 95.4291 24.5C95.8051 24.292 96.2531 24.188 96.7731 24.188C97.2931 24.188 97.7411 24.292 98.1171 24.5C98.4931 24.7 98.8011 24.968 99.0411 25.304C99.2811 25.64 99.4571 26.02 99.5691 26.444C99.6811 26.86 99.7371 27.284 99.7371 27.716C99.7371 28.148 99.6811 28.576 99.5691 29C99.4571 29.416 99.2811 29.792 99.0411 30.128C98.8011 30.464 98.4931 30.736 98.1171 30.944C97.7411 31.144 97.2931 31.244 96.7731 31.244C96.2531 31.244 95.8051 31.144 95.4291 30.944C95.0531 30.736 94.7451 30.464 94.5051 30.128C94.2651 29.792 94.0891 29.416 93.9771 29C93.8651 28.576 93.8091 28.148 93.8091 27.716ZM92.6691 27.716C92.6691 28.3 92.7531 28.864 92.9211 29.408C93.0971 29.944 93.3571 30.42 93.7011 30.836C94.0451 31.252 94.4731 31.584 94.9851 31.832C95.4971 32.072 96.0931 32.192 96.7731 32.192C97.4531 32.192 98.0491 32.072 98.5611 31.832C99.0731 31.584 99.5011 31.252 99.8451 30.836C100.189 30.42 100.445 29.944 100.613 29.408C100.789 28.864 100.877 28.3 100.877 27.716C100.877 27.132 100.789 26.572 100.613 26.036C100.445 25.492 100.189 25.012 99.8451 24.596C99.5011 24.18 99.0731 23.848 98.5611 23.6C98.0491 23.352 97.4531 23.228 96.7731 23.228C96.0931 23.228 95.4971 23.352 94.9851 23.6C94.4731 23.848 94.0451 24.18 93.7011 24.596C93.3571 25.012 93.0971 25.492 92.9211 26.036C92.7531 26.572 92.6691 27.132 92.6691 27.716ZM102.266 23.432V32H103.406V29L104.834 27.668L107.93 32H109.37L105.614 26.888L109.226 23.432H107.75L103.406 27.704V23.432H102.266ZM110.27 23.432V32H116.222V31.04H111.41V28.076H115.862V27.116H111.41V24.392H116.186V23.432H110.27ZM117.594 23.432V32H118.674V25.124H118.698L123.174 32H124.422V23.432H123.342V30.38H123.318L118.806 23.432H117.594Z" fill="black"/>
</svg>
