<svg xmlns="http://www.w3.org/2000/svg" width="110" height="22" viewBox="0 0 110 22" fill="none"><path d="M34.4951 9.9V6.226H37.7291C38.0371 6.226 38.3304 6.25533 38.6091 6.314C38.9024 6.358 39.1591 6.446 39.3791 6.578C39.5991 6.71 39.7751 6.89333 39.9071 7.128C40.0391 7.36267 40.1051 7.66333 40.1051 8.03C40.1051 8.69 39.9071 9.16667 39.5111 9.46C39.1151 9.75333 38.6091 9.9 37.9931 9.9H34.4951ZM31.0411 3.542V19.25H38.6531C39.3571 19.25 40.0391 19.162 40.6991 18.986C41.3738 18.81 41.9678 18.5387 42.4811 18.172C43.0091 17.8053 43.4271 17.336 43.7351 16.764C44.0431 16.1773 44.1971 15.488 44.1971 14.696C44.1971 13.7133 43.9551 12.8773 43.4711 12.188C43.0018 11.484 42.2831 10.9927 41.3151 10.714C42.0191 10.3767 42.5471 9.944 42.8991 9.416C43.2658 8.888 43.4491 8.228 43.4491 7.436C43.4491 6.70267 43.3244 6.08667 43.0751 5.588C42.8404 5.08933 42.5031 4.69333 42.0631 4.4C41.6231 4.092 41.0951 3.872 40.4791 3.74C39.8631 3.608 39.1811 3.542 38.4331 3.542H31.0411ZM34.4951 16.566V12.254H38.2571C39.0051 12.254 39.6064 12.43 40.0611 12.782C40.5158 13.1193 40.7431 13.6913 40.7431 14.498C40.7431 14.9087 40.6698 15.246 40.5231 15.51C40.3911 15.774 40.2078 15.9867 39.9731 16.148C39.7384 16.2947 39.4671 16.4047 39.1591 16.478C38.8511 16.5367 38.5284 16.566 38.1911 16.566H34.4951Z" fill="#121212"></path><path d="M48.9733 13.574C48.9733 13.1193 49.0173 12.672 49.1053 12.232C49.1933 11.792 49.34 11.4033 49.5453 11.066C49.7653 10.7287 50.0513 10.4573 50.4033 10.252C50.7553 10.032 51.1953 9.922 51.7233 9.922C52.2513 9.922 52.6913 10.032 53.0433 10.252C53.41 10.4573 53.696 10.7287 53.9013 11.066C54.1213 11.4033 54.2753 11.792 54.3633 12.232C54.4513 12.672 54.4953 13.1193 54.4953 13.574C54.4953 14.0287 54.4513 14.476 54.3633 14.916C54.2753 15.3413 54.1213 15.73 53.9013 16.082C53.696 16.4193 53.41 16.6907 53.0433 16.896C52.6913 17.1013 52.2513 17.204 51.7233 17.204C51.1953 17.204 50.7553 17.1013 50.4033 16.896C50.0513 16.6907 49.7653 16.4193 49.5453 16.082C49.34 15.73 49.1933 15.3413 49.1053 14.916C49.0173 14.476 48.9733 14.0287 48.9733 13.574ZM45.8493 13.574C45.8493 14.4833 45.9887 15.3047 46.2673 16.038C46.546 16.7713 46.942 17.402 47.4553 17.93C47.9687 18.4433 48.5847 18.8393 49.3033 19.118C50.022 19.3967 50.8287 19.536 51.7233 19.536C52.618 19.536 53.4247 19.3967 54.1433 19.118C54.8767 18.8393 55.5 18.4433 56.0133 17.93C56.5267 17.402 56.9227 16.7713 57.2013 16.038C57.48 15.3047 57.6193 14.4833 57.6193 13.574C57.6193 12.6647 57.48 11.8433 57.2013 11.11C56.9227 10.362 56.5267 9.73133 56.0133 9.218C55.5 8.69 54.8767 8.28667 54.1433 8.008C53.4247 7.71467 52.618 7.568 51.7233 7.568C50.8287 7.568 50.022 7.71467 49.3033 8.008C48.5847 8.28667 47.9687 8.69 47.4553 9.218C46.942 9.73133 46.546 10.362 46.2673 11.11C45.9887 11.8433 45.8493 12.6647 45.8493 13.574Z" fill="#121212"></path><path d="M70.3206 19.25V7.876H67.1966V13.838C67.1966 14.9967 67.0059 15.8327 66.6246 16.346C66.2432 16.8447 65.6272 17.094 64.7766 17.094C64.0286 17.094 63.5079 16.8667 63.2146 16.412C62.9212 15.9427 62.7746 15.2387 62.7746 14.3V7.876H59.6506V14.872C59.6506 15.576 59.7092 16.2213 59.8266 16.808C59.9586 17.38 60.1786 17.8713 60.4866 18.282C60.7946 18.678 61.2126 18.986 61.7406 19.206C62.2832 19.426 62.9726 19.536 63.8086 19.536C64.4686 19.536 65.1139 19.3893 65.7446 19.096C66.3752 18.8027 66.8886 18.326 67.2846 17.666H67.3506V19.25H70.3206Z" fill="#121212"></path><path d="M72.6916 7.876V19.25H75.8156V13.288C75.8156 12.1293 76.0062 11.3007 76.3876 10.802C76.7689 10.2887 77.3849 10.032 78.2356 10.032C78.9836 10.032 79.5042 10.2667 79.7976 10.736C80.0909 11.1907 80.2376 11.8873 80.2376 12.826V19.25H83.3616V12.254C83.3616 11.55 83.2956 10.912 83.1636 10.34C83.0462 9.75333 82.8336 9.262 82.5256 8.866C82.2176 8.45533 81.7922 8.14 81.2496 7.92C80.7216 7.68533 80.0396 7.568 79.2036 7.568C78.5436 7.568 77.8982 7.722 77.2676 8.03C76.6369 8.32333 76.1236 8.8 75.7276 9.46H75.6616V7.876H72.6916Z" fill="#121212"></path><path d="M93.4766 11.88H96.5346C96.4906 11.1467 96.3146 10.516 96.0066 9.988C95.6986 9.44533 95.2953 8.998 94.7966 8.646C94.3126 8.27933 93.7553 8.008 93.1246 7.832C92.5086 7.656 91.8633 7.568 91.1886 7.568C90.2646 7.568 89.4433 7.722 88.7246 8.03C88.0059 8.338 87.3973 8.77067 86.8986 9.328C86.3999 9.87067 86.0186 10.5233 85.7546 11.286C85.5053 12.034 85.3806 12.848 85.3806 13.728C85.3806 14.5787 85.5199 15.3633 85.7986 16.082C86.0773 16.786 86.4659 17.3947 86.9646 17.908C87.4633 18.4213 88.0646 18.8247 88.7686 19.118C89.4873 19.3967 90.2719 19.536 91.1226 19.536C92.6333 19.536 93.8726 19.14 94.8406 18.348C95.8086 17.556 96.3953 16.4047 96.6006 14.894H93.5866C93.4839 15.598 93.2273 16.1627 92.8166 16.588C92.4206 16.9987 91.8486 17.204 91.1006 17.204C90.6166 17.204 90.2059 17.094 89.8686 16.874C89.5313 16.654 89.2599 16.3753 89.0546 16.038C88.8639 15.686 88.7246 15.2973 88.6366 14.872C88.5486 14.4467 88.5046 14.0287 88.5046 13.618C88.5046 13.1927 88.5486 12.7673 88.6366 12.342C88.7246 11.902 88.8713 11.506 89.0766 11.154C89.2966 10.7873 89.5753 10.494 89.9126 10.274C90.2499 10.0393 90.6679 9.922 91.1666 9.922C92.5013 9.922 93.2713 10.5747 93.4766 11.88Z" fill="#121212"></path><path d="M106.021 12.342H100.939C100.954 12.122 100.998 11.8727 101.071 11.594C101.159 11.3153 101.299 11.0513 101.489 10.802C101.695 10.5527 101.959 10.3473 102.281 10.186C102.619 10.01 103.037 9.922 103.535 9.922C104.298 9.922 104.863 10.1273 105.229 10.538C105.611 10.9487 105.875 11.55 106.021 12.342ZM100.939 14.322H109.145C109.204 13.442 109.131 12.5987 108.925 11.792C108.72 10.9853 108.383 10.2667 107.913 9.636C107.459 9.00533 106.872 8.50667 106.153 8.14C105.435 7.75867 104.591 7.568 103.623 7.568C102.758 7.568 101.966 7.722 101.247 8.03C100.543 8.338 99.9347 8.76333 99.4214 9.306C98.9081 9.834 98.5121 10.4647 98.2334 11.198C97.9547 11.9313 97.8154 12.7233 97.8154 13.574C97.8154 14.454 97.9474 15.2607 98.2114 15.994C98.4901 16.7273 98.8787 17.358 99.3774 17.886C99.8761 18.414 100.485 18.8247 101.203 19.118C101.922 19.3967 102.729 19.536 103.623 19.536C104.914 19.536 106.014 19.2427 106.923 18.656C107.833 18.0693 108.507 17.094 108.947 15.73H106.197C106.095 16.082 105.816 16.4193 105.361 16.742C104.907 17.05 104.364 17.204 103.733 17.204C102.853 17.204 102.179 16.9767 101.709 16.522C101.24 16.0673 100.983 15.334 100.939 14.322Z" fill="#121212"></path><path d="M1.37537 0C0.615982 0 0.000373735 0.615608 0.000373735 1.375C0.000373735 2.13439 0.615982 2.75 1.37537 2.75H5.95871C6.7181 2.75 7.33371 2.13439 7.33371 1.375C7.33371 0.615608 6.7181 0 5.95871 0H1.37537Z" fill="#121212"></path><path d="M13.7674 4.49856C14.48 4.23603 14.8448 3.44556 14.5823 2.73299C14.3197 2.02042 13.5293 1.65559 12.8167 1.91811L0.900029 6.30846C0.187459 6.57099 -0.177374 7.36146 0.0851519 8.07403C0.347678 8.7866 1.13815 9.15143 1.85072 8.88891L13.7674 4.49856Z" fill="#121212"></path><path d="M13.7674 15.6915C14.48 15.429 14.8448 14.6385 14.5823 13.926C14.3197 13.2134 13.5293 12.8486 12.8167 13.1111L0.900029 17.5014C0.187459 17.764 -0.177374 18.5544 0.0851519 19.267C0.347678 19.9796 1.13815 20.3444 1.85072 20.0819L13.7674 15.6915Z" fill="#121212"></path><path d="M8.70871 19.25C7.94932 19.25 7.33371 19.8656 7.33371 20.625C7.33371 21.3844 7.94932 22 8.70871 22H13.292C14.0514 22 14.667 21.3844 14.667 20.625C14.667 19.8656 14.0514 19.25 13.292 19.25H8.70871Z" fill="#121212"></path><path d="M13.7856 9.99205C14.4944 9.71945 14.848 8.92388 14.5754 8.21511C14.3028 7.50633 13.5072 7.15275 12.7984 7.42535L0.881776 12.0087C0.173001 12.2813 -0.180584 13.0769 0.0920219 13.7856C0.364628 14.4944 1.16019 14.848 1.86897 14.5754L13.7856 9.99205Z" fill="#121212"></path></svg>