<svg width="309" height="259" viewBox="0 0 309 259" fill="none" xmlns="http://www.w3.org/2000/svg">
<path d="M277 18.9134C277 18.9134 290.504 17.7671 293.299 0C294.416 12.3797 301.681 16.0477 308.2 18.9134C308.2 18.9134 293.299 21.7791 293.299 38.3999C293.299 38.3999 290.504 21.2059 277 18.9134Z" fill="#2B51DA"/>
<g filter="url(#filter0_d_2562_46854)">
<path d="M16 63.2031H293.2V246.05C293.2 249.802 290.158 252.844 286.406 252.844H22.7943C19.0419 252.844 16 249.802 16 246.05V63.2031Z" fill="#D9D9D9"/>
<path d="M16 55.608C16 53.2831 17.8847 51.3984 20.2095 51.3984H288.99C291.315 51.3984 293.2 53.2831 293.2 55.608V63.2049H16V55.608Z" fill="#2F2D2B"/>
<ellipse cx="27.3949" cy="57.6358" rx="2.54788" ry="2.54787" fill="#F4B4D5"/>
<ellipse cx="35.8878" cy="57.6358" rx="2.54788" ry="2.54787" fill="#FAFE7B"/>
<ellipse cx="44.3808" cy="57.6358" rx="2.54788" ry="2.54787" fill="#B6FDCA"/>
<rect x="16" y="63.2031" width="277.2" height="153.484" fill="#E6E8F1"/>
<path d="M16 208.57H89.7234V252.845H20.2095C17.8847 252.845 16 250.96 16 248.635V208.57Z" fill="#2B51DA"/>
<path d="M293.2 208.57H219.477V252.845H288.99C291.315 252.845 293.2 250.96 293.2 248.635V208.57Z" fill="#2B51DA"/>
<g clip-path="url(#clip0_2562_46854)">
<rect x="43.7029" y="111.484" width="221.134" height="239.836" rx="2.58481" fill="white"/>
<rect x="48.1029" y="115.883" width="97.9149" height="67.11" fill="#ECECEC"/>
<rect x="148.219" y="115.883" width="112.217" height="3.30049" fill="#ECECEC"/>
<rect x="48.1038" y="187.396" width="62.7095" height="37.4056" fill="#ECECEC"/>
<rect x="113.014" y="187.396" width="147.422" height="3.30049" fill="#ECECEC"/>
<rect x="113.014" y="193.998" width="147.422" height="3.30049" fill="#ECECEC"/>
<rect x="113.014" y="200.598" width="147.422" height="3.30049" fill="#ECECEC"/>
<rect x="113.014" y="207.201" width="147.422" height="3.30049" fill="#ECECEC"/>
<rect x="113.014" y="213.799" width="147.422" height="3.30049" fill="#ECECEC"/>
<rect x="113.014" y="220.4" width="78.1119" height="3.30049" fill="#ECECEC"/>
<rect x="48.1038" y="228.102" width="62.7095" height="37.4056" fill="#ECECEC"/>
<rect x="113.014" y="228.102" width="147.422" height="3.30049" fill="#ECECEC"/>
<rect x="113.014" y="234.703" width="147.422" height="3.30049" fill="#ECECEC"/>
<rect x="113.014" y="241.303" width="147.422" height="3.30049" fill="#ECECEC"/>
<rect x="113.014" y="247.906" width="147.422" height="3.30049" fill="#ECECEC"/>
<rect x="148.219" y="122.486" width="112.217" height="3.30049" fill="#ECECEC"/>
<rect x="148.219" y="129.088" width="112.217" height="3.30049" fill="#ECECEC"/>
<rect x="148.219" y="135.688" width="112.217" height="3.30049" fill="#ECECEC"/>
<rect x="148.219" y="142.289" width="112.217" height="3.30049" fill="#ECECEC"/>
<rect x="148.219" y="148.889" width="112.217" height="3.30049" fill="#ECECEC"/>
<rect x="148.219" y="155.49" width="112.217" height="3.30049" fill="#ECECEC"/>
<rect x="148.219" y="162.092" width="112.217" height="3.30049" fill="#ECECEC"/>
<rect x="148.219" y="168.693" width="52.808" height="3.30049" fill="#ECECEC"/>
<g filter="url(#filter1_d_2562_46854)">
<path fill-rule="evenodd" clip-rule="evenodd" d="M157.673 242.663C157.428 241.749 156.564 241.151 155.617 241.147C147.175 241.11 139.498 235.57 137.233 227.154C134.51 217.03 140.651 206.578 150.949 203.807C161.247 201.037 171.804 206.998 174.527 217.122C176.845 225.739 172.741 234.595 165.117 238.748C164.263 239.213 163.785 240.186 164.038 241.124L167.567 254.241C167.848 255.289 167.228 256.366 166.18 256.648L163.652 257.328C162.605 257.61 161.527 256.989 161.246 255.942L157.673 242.663Z" fill="#19487C"/>
<path fill-rule="evenodd" clip-rule="evenodd" d="M158.939 242.323C158.693 241.409 157.829 240.811 156.883 240.807C148.44 240.77 140.763 235.231 138.499 226.814C135.775 216.69 141.916 206.238 152.214 203.467C162.513 200.697 173.069 206.658 175.792 216.782C178.111 225.399 174.006 234.255 166.382 238.408C165.529 238.873 165.051 239.846 165.303 240.784L168.832 253.901C169.114 254.948 168.493 256.025 167.446 256.307L164.917 256.987C163.87 257.269 162.793 256.649 162.511 255.601L158.939 242.323Z" fill="#2B51DA"/>
<path d="M172.381 226.106C170.045 234.788 160.988 239.91 152.143 237.53C143.297 235.151 138.032 226.177 140.368 217.494C142.703 208.812 151.76 203.691 160.606 206.07C169.451 208.45 174.716 217.424 172.381 226.106Z" stroke="white" stroke-opacity="0.5" stroke-width="0.654565"/>
<path d="M153.412 227.932C154.388 227.45 155.037 226.943 155.359 226.387C155.671 225.836 155.678 225.236 155.354 224.579L155.349 224.57C155.145 224.156 154.88 223.879 154.562 223.732C154.235 223.59 153.841 223.574 153.368 223.679C153.688 223.381 153.877 223.077 153.935 222.745C153.983 222.417 153.92 222.052 153.72 221.648L153.706 221.62C153.414 221.028 152.962 220.703 152.362 220.648C151.763 220.593 150.98 220.805 150.013 221.282L146.989 222.775L150.294 229.471L153.412 227.932ZM150.616 222.339C151.142 222.08 151.541 221.965 151.817 221.98C152.084 222 152.298 222.151 152.438 222.433L152.447 222.452C152.586 222.733 152.575 222.996 152.424 223.234C152.264 223.476 151.939 223.718 151.451 223.959L149.666 224.84L148.86 223.206L150.616 222.339ZM151.871 225.095C152.472 224.798 152.918 224.66 153.218 224.676C153.517 224.691 153.746 224.847 153.899 225.157L153.903 225.166C154.066 225.495 154.046 225.785 153.866 226.037C153.678 226.294 153.273 226.564 152.672 226.86L151.057 227.657L150.199 225.92L151.871 225.095ZM155.349 218.648L153.968 219.33L157.273 226.026L158.654 225.344L155.349 218.648ZM162.766 223.315C163.856 222.777 164.552 222.106 164.866 221.274C165.184 220.451 165.09 219.528 164.58 218.495L164.404 218.138C163.894 217.105 163.204 216.465 162.344 216.212C161.483 215.959 160.504 216.104 159.395 216.651L156.738 217.963L160.043 224.659L162.766 223.315ZM159.923 217.862C160.637 217.51 161.246 217.419 161.761 217.586C162.275 217.753 162.708 218.181 163.051 218.876L163.163 219.101C163.506 219.796 163.591 220.396 163.416 220.892C163.244 221.397 162.807 221.811 162.112 222.154L160.816 222.794L158.683 218.474L159.923 217.862Z" fill="white"/>
</g>
<g filter="url(#filter2_d_2562_46854)">
<path fill-rule="evenodd" clip-rule="evenodd" d="M210.226 246.21C210.471 245.296 211.335 244.698 212.282 244.694C220.724 244.656 228.401 239.117 230.665 230.701C233.389 220.577 227.248 210.124 216.95 207.354C206.651 204.584 196.095 210.545 193.372 220.669C191.054 229.286 195.158 238.142 202.782 242.295C203.636 242.76 204.114 243.733 203.861 244.671L200.332 257.789C200.051 258.836 200.671 259.913 201.719 260.195L204.247 260.875C205.294 261.157 206.372 260.536 206.653 259.489L210.226 246.21Z" fill="#19487C"/>
<path fill-rule="evenodd" clip-rule="evenodd" d="M208.961 245.87C209.207 244.956 210.071 244.358 211.017 244.354C219.46 244.317 227.137 238.777 229.401 230.361C232.125 220.237 225.984 209.785 215.686 207.014C205.387 204.244 194.831 210.205 192.108 220.329C189.789 228.946 193.894 237.802 201.518 241.955C202.371 242.42 202.849 243.393 202.597 244.331L199.068 257.448C198.787 258.496 199.407 259.573 200.454 259.855L202.983 260.535C204.03 260.817 205.107 260.196 205.389 259.149L208.961 245.87Z" fill="#2B51DA"/>
<path d="M226.761 229.651C224.425 238.333 215.368 243.454 206.523 241.075C197.677 238.696 192.412 229.721 194.748 221.039C197.083 212.357 206.14 207.236 214.986 209.615C223.831 211.995 229.096 220.969 226.761 229.651Z" stroke="white" stroke-opacity="0.5" stroke-width="0.654565"/>
<path d="M204.429 228.009C205.48 228.292 206.303 228.34 206.911 228.135C207.509 227.927 207.911 227.482 208.101 226.774L208.104 226.764C208.224 226.319 208.208 225.935 208.066 225.615C207.914 225.292 207.63 225.02 207.204 224.787C207.642 224.774 207.984 224.671 208.247 224.46C208.499 224.246 208.693 223.929 208.81 223.494L208.818 223.464C208.99 222.827 208.865 222.283 208.451 221.847C208.037 221.41 207.309 221.051 206.267 220.771L203.011 219.895L201.071 227.106L204.429 228.009ZM206.022 221.963C206.589 222.116 206.964 222.293 207.161 222.487C207.349 222.678 207.41 222.933 207.328 223.237L207.323 223.257C207.241 223.56 207.06 223.75 206.79 223.829C206.509 223.905 206.105 223.873 205.579 223.731L203.658 223.214L204.131 221.455L206.022 221.963ZM205.145 224.862C205.792 225.036 206.218 225.226 206.433 225.436C206.648 225.646 206.717 225.914 206.627 226.247L206.624 226.257C206.529 226.611 206.322 226.816 206.021 226.887C205.71 226.955 205.228 226.891 204.581 226.716L202.842 226.248L203.345 224.377L205.145 224.862ZM212.014 222.317L210.527 221.917L208.587 229.128L210.074 229.528L212.014 222.317ZM214.503 230.719C215.676 231.035 216.642 230.991 217.427 230.573C218.209 230.166 218.748 229.41 219.047 228.298L219.151 227.914C219.45 226.801 219.355 225.865 218.876 225.107C218.396 224.349 217.565 223.81 216.372 223.489L213.509 222.719L211.57 229.93L214.503 230.719ZM215.968 224.747C216.737 224.954 217.254 225.289 217.53 225.753C217.807 226.218 217.849 226.826 217.648 227.574L217.582 227.817C217.381 228.565 217.049 229.073 216.59 229.329C216.128 229.595 215.526 229.617 214.777 229.416L213.382 229.04L214.633 224.388L215.968 224.747Z" fill="white"/>
</g>
<g filter="url(#filter3_d_2562_46854)">
<path fill-rule="evenodd" clip-rule="evenodd" d="M101.67 242.608C101.916 241.694 102.78 241.097 103.726 241.092C112.168 241.055 119.846 235.516 122.11 227.099C124.833 216.976 118.693 206.523 108.394 203.753C98.0959 200.982 87.5397 206.943 84.8163 217.067C82.498 225.685 86.6025 234.541 94.2269 238.694C95.0802 239.158 95.5581 240.131 95.3057 241.069L91.7768 254.187C91.4951 255.234 92.1157 256.312 93.163 256.594L95.6913 257.274C96.7386 257.555 97.816 256.935 98.0977 255.888L101.67 242.608Z" fill="#19487C"/>
<path fill-rule="evenodd" clip-rule="evenodd" d="M100.406 242.268C100.652 241.354 101.515 240.757 102.462 240.753C110.904 240.715 118.582 235.176 120.846 226.76C123.569 216.636 117.428 206.183 107.13 203.413C96.8317 200.642 86.2755 206.603 83.5521 216.727C81.2339 225.345 85.3383 234.201 92.9626 238.354C93.8159 238.819 94.2938 239.791 94.0414 240.729L90.5127 253.847C90.231 254.894 90.8516 255.971 91.8989 256.253L94.4272 256.933C95.4745 257.215 96.5519 256.594 96.8336 255.547L100.406 242.268Z" fill="#2B51DA"/>
<path d="M118.205 226.049C115.87 234.732 106.812 239.853 97.9671 237.473C89.1218 235.094 83.8565 226.12 86.1921 217.438C88.5278 208.755 97.5849 203.634 106.43 206.014C115.276 208.393 120.541 217.367 118.205 226.049Z" stroke="white" stroke-opacity="0.5" stroke-width="0.654565"/>
<path d="M95.8731 224.408C96.9249 224.691 97.7471 224.738 98.3554 224.533C98.9536 224.325 99.3553 223.88 99.5458 223.173L99.5485 223.162C99.6682 222.717 99.6522 222.333 99.5105 222.013C99.3588 221.691 99.074 221.419 98.6488 221.185C99.086 221.173 99.4282 221.069 99.6911 220.858C99.9439 220.644 100.138 220.328 100.255 219.893L100.263 219.862C100.434 219.225 100.309 218.682 99.8952 218.245C99.4813 217.808 98.7534 217.45 97.7118 217.17L94.4552 216.294L92.5154 223.505L95.8731 224.408ZM97.467 218.362C98.0333 218.514 98.4087 218.691 98.6059 218.885C98.7931 219.077 98.8546 219.332 98.7729 219.635L98.7675 219.655C98.6859 219.959 98.5047 220.149 98.234 220.228C97.9532 220.304 97.5498 220.271 97.0239 220.13L95.1023 219.613L95.5757 217.853L97.467 218.362ZM96.5897 221.26C97.2369 221.434 97.6629 221.625 97.8776 221.834C98.0924 222.044 98.1613 222.312 98.0715 222.646L98.0688 222.656C97.9735 223.01 97.7667 223.214 97.4656 223.285C97.1545 223.353 96.6729 223.289 96.0257 223.115L94.2861 222.647L94.7895 220.776L96.5897 221.26ZM103.458 218.716L101.972 218.316L100.032 225.527L101.519 225.926L103.458 218.716ZM105.947 227.118C107.12 227.433 108.086 227.39 108.871 226.972C109.653 226.564 110.193 225.809 110.492 224.696L110.595 224.312C110.895 223.2 110.799 222.263 110.32 221.505C109.841 220.747 109.009 220.209 107.816 219.888L104.954 219.118L103.014 226.329L105.947 227.118ZM107.413 221.146C108.181 221.353 108.699 221.687 108.975 222.152C109.251 222.616 109.294 223.224 109.092 223.973L109.027 224.216C108.826 224.964 108.494 225.471 108.035 225.727C107.573 225.993 106.97 226.016 106.222 225.814L104.826 225.439L106.078 220.787L107.413 221.146Z" fill="white"/>
</g>
</g>
<path d="M104.37 84.498L106.964 77.3861H109.621L112.215 84.498H109.797L109.497 83.4954H107.006L106.706 84.498H104.37ZM107.481 81.9034H109.032L108.69 80.7664C108.663 80.6837 108.632 80.5837 108.597 80.4666C108.563 80.3494 108.529 80.2254 108.494 80.0945C108.46 79.9635 108.425 79.836 108.391 79.712C108.356 79.5811 108.325 79.4673 108.298 79.3709H108.215C108.187 79.4949 108.15 79.6362 108.101 79.7947C108.06 79.9532 108.015 80.1186 107.967 80.2909C107.919 80.4563 107.87 80.6148 107.822 80.7664L107.481 81.9034ZM113.077 84.498V77.3861H116.157C116.97 77.3861 117.653 77.5136 118.204 77.7686C118.755 78.0236 119.172 78.413 119.455 78.9367C119.744 79.4605 119.889 80.1289 119.889 80.9421C119.889 81.7484 119.744 82.4169 119.455 82.9475C119.172 83.4712 118.755 83.8606 118.204 84.1156C117.653 84.3706 116.97 84.498 116.157 84.498H113.077ZM115.361 82.7924H116.116C116.364 82.7924 116.578 82.758 116.757 82.6891C116.943 82.6201 117.094 82.5202 117.212 82.3893C117.329 82.2584 117.415 82.0964 117.47 81.9034C117.525 81.7105 117.553 81.4934 117.553 81.2522V80.632C117.553 80.3908 117.525 80.1737 117.47 79.9808C117.415 79.7878 117.329 79.6258 117.212 79.4949C117.094 79.364 116.943 79.264 116.757 79.1951C116.578 79.1262 116.364 79.0918 116.116 79.0918H115.361V82.7924ZM122.853 84.498L120.331 77.3861H122.771L123.753 80.6733C123.78 80.7629 123.818 80.8939 123.866 81.0661C123.915 81.2384 123.966 81.421 124.021 81.614C124.084 81.807 124.135 81.9827 124.177 82.1412H124.259C124.301 81.9965 124.349 81.8311 124.404 81.645C124.459 81.459 124.511 81.2798 124.559 81.1075C124.614 80.9283 124.655 80.7836 124.683 80.6733L125.675 77.3861H128.012L125.5 84.498H122.853ZM128.997 84.498V77.3861H135.147V79.0918H131.281V80.0738H134.589V81.707H131.281V82.7924H135.22V84.498H128.997ZM136.426 84.498V77.3861H140.881C141.412 77.3861 141.853 77.493 142.204 77.7066C142.563 77.9202 142.831 78.1993 143.011 78.5439C143.19 78.8885 143.279 79.2606 143.279 79.6603C143.279 80.1151 143.173 80.5217 142.959 80.8801C142.745 81.2315 142.456 81.5141 142.091 81.7277L143.486 84.498H140.923L139.837 82.1102H138.71V84.498H136.426ZM138.71 80.5286H140.313C140.492 80.5286 140.643 80.4597 140.768 80.3219C140.892 80.1772 140.954 79.9876 140.954 79.7533C140.954 79.6086 140.926 79.4811 140.871 79.3709C140.816 79.2606 140.74 79.1745 140.643 79.1124C140.547 79.0435 140.437 79.0091 140.313 79.0091H138.71V80.5286ZM146.18 84.498V79.2055H143.843V77.3861H150.79V79.2055H148.464V84.498H146.18ZM151.831 84.498V77.3861H154.115V84.498H151.831ZM158.841 84.6221C158.351 84.6221 157.893 84.5842 157.466 84.5084C157.045 84.4395 156.673 84.3189 156.349 84.1466C156.032 83.9674 155.781 83.7228 155.595 83.4127C155.416 83.0957 155.326 82.6994 155.326 82.2239C155.326 82.2101 155.326 82.1929 155.326 82.1722C155.326 82.1446 155.329 82.1171 155.336 82.0895H157.497C157.49 82.1171 157.486 82.1446 157.486 82.1722C157.486 82.1929 157.486 82.2136 157.486 82.2342C157.486 82.441 157.535 82.5995 157.631 82.7097C157.728 82.82 157.862 82.8958 158.034 82.9372C158.213 82.9716 158.413 82.9888 158.634 82.9888C158.717 82.9888 158.803 82.9888 158.892 82.9888C158.989 82.9819 159.078 82.9716 159.161 82.9578C159.251 82.9372 159.33 82.9096 159.399 82.8751C159.475 82.8407 159.533 82.7959 159.575 82.7407C159.616 82.6787 159.637 82.6029 159.637 82.5133C159.637 82.3824 159.578 82.279 159.461 82.2032C159.344 82.1274 159.185 82.0619 158.985 82.0068C158.785 81.9517 158.561 81.9 158.313 81.8518C158.065 81.8035 157.807 81.7484 157.538 81.6864C157.269 81.6175 157.011 81.5313 156.763 81.4279C156.515 81.3246 156.291 81.1936 156.091 81.0351C155.891 80.8697 155.733 80.6664 155.615 80.4252C155.498 80.1772 155.44 79.8808 155.44 79.5363C155.44 79.1228 155.526 78.7713 155.698 78.4819C155.87 78.1924 156.105 77.9581 156.401 77.779C156.704 77.5998 157.045 77.4688 157.424 77.3861C157.81 77.3035 158.213 77.2621 158.634 77.2621C159.061 77.2621 159.461 77.3069 159.833 77.3965C160.212 77.4792 160.546 77.6101 160.836 77.7893C161.125 77.9685 161.352 78.1959 161.518 78.4715C161.683 78.7472 161.769 79.0745 161.776 79.4536V79.5776H159.637V79.5363C159.637 79.4122 159.606 79.2951 159.544 79.1848C159.481 79.0745 159.382 78.9849 159.244 78.916C159.113 78.8471 158.937 78.8127 158.717 78.8127C158.51 78.8127 158.334 78.8333 158.189 78.8747C158.052 78.916 157.948 78.9746 157.879 79.0504C157.81 79.1193 157.776 79.1951 157.776 79.2778C157.776 79.4088 157.834 79.5156 157.952 79.5983C158.069 79.681 158.227 79.7499 158.427 79.805C158.627 79.8602 158.851 79.9118 159.099 79.9601C159.347 80.0083 159.606 80.0634 159.874 80.1255C160.143 80.1806 160.401 80.2564 160.65 80.3529C160.898 80.4494 161.122 80.5769 161.321 80.7354C161.521 80.887 161.68 81.0765 161.797 81.3039C161.914 81.5313 161.973 81.8104 161.973 82.1412C161.973 82.727 161.835 83.2025 161.559 83.5677C161.29 83.933 160.918 84.2017 160.443 84.374C159.974 84.5394 159.44 84.6221 158.841 84.6221ZM163.137 84.498V77.3861H169.288V79.0918H165.422V80.0738H168.73V81.707H165.422V82.7924H169.36V84.498H163.137ZM170.567 84.498V77.3861H173.75L174.402 79.8877C174.429 79.9773 174.467 80.1255 174.515 80.3322C174.57 80.539 174.626 80.7629 174.681 81.0041C174.743 81.2453 174.798 81.4693 174.846 81.676H174.929C174.963 81.5244 175.005 81.3452 175.053 81.1385C175.108 80.9249 175.163 80.7078 175.218 80.4873C175.273 80.2667 175.322 80.0669 175.363 79.8877L176.014 77.3861H179.084V84.498H176.903V81.9345C176.903 81.6588 176.903 81.3763 176.903 81.0868C176.91 80.7905 176.913 80.5114 176.913 80.2495C176.92 79.9876 176.924 79.7706 176.924 79.5983H176.841C176.82 79.7361 176.789 79.8981 176.748 80.0841C176.714 80.2702 176.676 80.4563 176.634 80.6423C176.593 80.8215 176.552 80.98 176.51 81.1178L175.59 84.498H173.885L172.954 81.1178C172.92 80.98 172.879 80.8215 172.83 80.6423C172.789 80.4563 172.751 80.2702 172.717 80.0841C172.682 79.8981 172.651 79.7396 172.624 79.6086H172.541C172.548 79.7809 172.555 79.998 172.562 80.2599C172.568 80.5217 172.572 80.7974 172.572 81.0868C172.579 81.3763 172.582 81.6588 172.582 81.9345V84.498H170.567ZM180.642 84.498V77.3861H186.792V79.0918H182.926V80.0738H186.234V81.707H182.926V82.7924H186.865V84.498H180.642ZM188.071 84.498V77.3861H190.014L192.226 79.9394C192.288 80.0083 192.371 80.1082 192.474 80.2392C192.578 80.3701 192.681 80.5045 192.785 80.6423C192.895 80.7733 192.978 80.8801 193.033 80.9628L193.084 80.9421C193.077 80.7491 193.074 80.5596 193.074 80.3736C193.074 80.1806 193.074 80.0359 193.074 79.9394V77.3861H195.152V84.498H193.219L190.728 81.6554C190.61 81.5175 190.51 81.3935 190.428 81.2832C190.345 81.1661 190.266 81.0558 190.19 80.9524L190.138 80.9731C190.145 81.104 190.149 81.235 190.149 81.3659C190.149 81.4969 190.149 81.5933 190.149 81.6554V84.498H188.071ZM198.491 84.498V79.2055H196.155V77.3861H203.101V79.2055H200.775V84.498H198.491Z" fill="#171717"/>
<path d="M118.509 98.0654C118.108 98.0654 117.762 97.9943 117.47 97.8521C117.179 97.7062 116.954 97.4854 116.797 97.1898C116.643 96.8942 116.567 96.5219 116.567 96.0729C116.567 95.6201 116.643 95.2478 116.797 94.956C116.954 94.6603 117.179 94.4415 117.47 94.2993C117.762 94.1533 118.108 94.0804 118.509 94.0804C118.913 94.0804 119.259 94.1533 119.547 94.2993C119.839 94.4415 120.062 94.6603 120.215 94.956C120.372 95.2478 120.451 95.6201 120.451 96.0729C120.451 96.5219 120.372 96.8942 120.215 97.1898C120.062 97.4854 119.839 97.7062 119.547 97.8521C119.259 97.9943 118.913 98.0654 118.509 98.0654ZM118.509 97.448C118.703 97.448 118.874 97.4199 119.02 97.3638C119.169 97.3077 119.295 97.2254 119.396 97.1168C119.497 97.0046 119.573 96.868 119.626 96.7071C119.678 96.5425 119.704 96.3535 119.704 96.1402V96.0168C119.704 95.7997 119.678 95.6089 119.626 95.4443C119.573 95.2796 119.497 95.143 119.396 95.0345C119.295 94.9223 119.169 94.8381 119.02 94.782C118.874 94.7258 118.703 94.6978 118.509 94.6978C118.314 94.6978 118.142 94.7258 117.992 94.782C117.846 94.8381 117.723 94.9223 117.622 95.0345C117.521 95.143 117.444 95.2796 117.392 95.4443C117.343 95.6089 117.319 95.7997 117.319 96.0168V96.1402C117.319 96.3535 117.343 96.5425 117.392 96.7071C117.444 96.868 117.521 97.0046 117.622 97.1168C117.723 97.2254 117.846 97.3077 117.992 97.3638C118.142 97.4199 118.314 97.448 118.509 97.448ZM121.069 97.998V95.0458H121.642L121.698 95.4386H121.737C121.805 95.3488 121.883 95.2703 121.973 95.2029C122.067 95.1318 122.171 95.0776 122.287 95.0401C122.407 94.999 122.538 94.9784 122.68 94.9784C122.867 94.9784 123.032 95.0121 123.174 95.0794C123.32 95.1468 123.434 95.2553 123.517 95.405C123.599 95.5546 123.64 95.7548 123.64 96.0055V97.998H122.95V96.129C122.95 96.0242 122.937 95.9382 122.91 95.8708C122.888 95.7997 122.852 95.7436 122.804 95.7024C122.759 95.6575 122.703 95.6257 122.635 95.607C122.568 95.5883 122.493 95.579 122.411 95.579C122.287 95.579 122.175 95.6089 122.074 95.6688C121.977 95.7286 121.898 95.811 121.838 95.9157C121.782 96.0205 121.754 96.1421 121.754 96.2806V97.998H121.069ZM124.207 96.7969V96.1683H125.627V96.7969H124.207ZM127.973 98.0654C127.58 98.0654 127.243 97.9962 126.963 97.8577C126.686 97.7193 126.473 97.5041 126.323 97.2123C126.177 96.9167 126.104 96.5369 126.104 96.0729C126.104 95.3956 126.269 94.8942 126.598 94.5687C126.927 94.2431 127.386 94.0804 127.973 94.0804C128.291 94.0804 128.577 94.1346 128.832 94.2431C129.09 94.3516 129.294 94.5163 129.444 94.7371C129.597 94.9541 129.674 95.231 129.674 95.5677H128.927C128.927 95.3806 128.886 95.2235 128.804 95.0963C128.725 94.9653 128.615 94.8661 128.473 94.7988C128.33 94.7314 128.168 94.6978 127.984 94.6978C127.73 94.6978 127.518 94.7483 127.35 94.8493C127.182 94.9466 127.056 95.0925 126.974 95.2871C126.895 95.4817 126.856 95.723 126.856 96.0111V96.1346C126.856 96.4265 126.895 96.6697 126.974 96.8643C127.056 97.0589 127.18 97.2048 127.344 97.3021C127.513 97.3994 127.726 97.448 127.984 97.448C128.179 97.448 128.349 97.4162 128.495 97.3526C128.641 97.2852 128.753 97.1879 128.832 97.0607C128.914 96.9298 128.955 96.7707 128.955 96.5836H129.674C129.674 96.9204 129.599 97.1992 129.449 97.4199C129.3 97.637 129.096 97.7997 128.837 97.9082C128.583 98.013 128.295 98.0654 127.973 98.0654ZM130.261 97.998V93.94H130.946V95.3825H130.985C131.049 95.3039 131.124 95.2347 131.21 95.1748C131.296 95.115 131.393 95.0682 131.502 95.0345C131.614 94.9971 131.738 94.9784 131.872 94.9784C132.059 94.9784 132.224 95.0121 132.366 95.0794C132.512 95.1468 132.626 95.2553 132.709 95.405C132.791 95.5546 132.832 95.7548 132.832 96.0055V97.998H132.142V96.129C132.142 96.0242 132.129 95.9382 132.102 95.8708C132.08 95.7997 132.044 95.7436 131.996 95.7024C131.951 95.6575 131.895 95.6257 131.827 95.607C131.76 95.5883 131.685 95.579 131.603 95.579C131.479 95.579 131.367 95.6089 131.266 95.6688C131.169 95.7286 131.09 95.811 131.03 95.9157C130.974 96.0205 130.946 96.1421 130.946 96.2806V97.998H130.261ZM134.297 98.0654C134.215 98.0654 134.119 98.0542 134.011 98.0317C133.906 98.013 133.803 97.9756 133.702 97.9195C133.605 97.8633 133.524 97.781 133.461 97.6725C133.397 97.5603 133.365 97.4143 133.365 97.2347C133.365 97.0327 133.41 96.8661 133.5 96.7352C133.59 96.6005 133.715 96.4957 133.876 96.4209C134.041 96.3423 134.235 96.288 134.46 96.2581C134.688 96.2244 134.937 96.2076 135.206 96.2076V95.9662C135.206 95.8802 135.193 95.8035 135.167 95.7361C135.141 95.6688 135.092 95.6164 135.021 95.579C134.954 95.5378 134.851 95.5172 134.712 95.5172C134.574 95.5172 134.465 95.5341 134.387 95.5677C134.308 95.6014 134.254 95.6426 134.224 95.6912C134.194 95.7399 134.179 95.7904 134.179 95.8428V95.9213H133.517C133.513 95.9026 133.511 95.8839 133.511 95.8652C133.511 95.8465 133.511 95.8241 133.511 95.7979C133.511 95.6295 133.562 95.4835 133.663 95.3601C133.764 95.2366 133.904 95.143 134.084 95.0794C134.263 95.0121 134.471 94.9784 134.707 94.9784C134.976 94.9784 135.197 95.0158 135.369 95.0907C135.545 95.1655 135.676 95.2721 135.762 95.4106C135.848 95.549 135.891 95.7174 135.891 95.9157V97.3077C135.891 97.3788 135.911 97.4293 135.953 97.4592C135.994 97.4892 136.039 97.5041 136.087 97.5041H136.267V97.9756C136.229 97.9906 136.175 98.0074 136.104 98.0261C136.033 98.0486 135.945 98.0598 135.84 98.0598C135.743 98.0598 135.655 98.0429 135.577 98.0093C135.502 97.9793 135.438 97.9344 135.386 97.8746C135.333 97.8147 135.296 97.7436 135.273 97.6613H135.24C135.176 97.7399 135.099 97.811 135.01 97.8746C134.924 97.9344 134.821 97.9812 134.701 98.0149C134.585 98.0486 134.45 98.0654 134.297 98.0654ZM134.504 97.5041C134.617 97.5041 134.716 97.4873 134.802 97.4536C134.892 97.4199 134.965 97.3732 135.021 97.3133C135.081 97.2534 135.126 97.1805 135.156 97.0944C135.189 97.0083 135.206 96.9148 135.206 96.8138V96.6791C135 96.6791 134.809 96.6922 134.634 96.7183C134.461 96.7445 134.323 96.7932 134.218 96.8643C134.117 96.9354 134.067 97.0364 134.067 97.1674C134.067 97.2347 134.082 97.2946 134.112 97.347C134.145 97.3956 134.194 97.4349 134.258 97.4648C134.325 97.491 134.407 97.5041 134.504 97.5041ZM136.658 94.5911V93.94H137.343V94.5911H136.658ZM136.658 97.998V95.0458H137.343V97.998H136.658ZM138.072 97.998V95.0458H138.645L138.701 95.4386H138.74C138.807 95.3488 138.886 95.2703 138.976 95.2029C139.069 95.1318 139.174 95.0776 139.29 95.0401C139.41 94.999 139.541 94.9784 139.683 94.9784C139.87 94.9784 140.035 95.0121 140.177 95.0794C140.323 95.1468 140.437 95.2553 140.519 95.405C140.602 95.5546 140.643 95.7548 140.643 96.0055V97.998H139.952V96.129C139.952 96.0242 139.939 95.9382 139.913 95.8708C139.891 95.7997 139.855 95.7436 139.806 95.7024C139.761 95.6575 139.705 95.6257 139.638 95.607C139.571 95.5883 139.496 95.579 139.413 95.579C139.29 95.579 139.178 95.6089 139.077 95.6688C138.979 95.7286 138.901 95.811 138.841 95.9157C138.785 96.0205 138.757 96.1421 138.757 96.2806V97.998H138.072ZM142.137 97.998L143.635 94.1477H144.556L146.06 97.998H145.269L144.96 97.1786H143.197L142.889 97.998H142.137ZM143.428 96.5612H144.724L144.337 95.5172C144.322 95.4798 144.303 95.433 144.281 95.3769C144.262 95.317 144.241 95.2534 144.219 95.1861C144.197 95.115 144.174 95.0439 144.152 94.9728C144.129 94.9017 144.109 94.8381 144.09 94.782H144.062C144.039 94.8568 144.011 94.9429 143.978 95.0401C143.948 95.1374 143.918 95.2291 143.888 95.3152C143.858 95.4012 143.834 95.4686 143.815 95.5172L143.428 96.5612ZM147.335 98.0654C147.051 98.0654 146.819 97.9887 146.639 97.8353C146.463 97.6781 146.375 97.4125 146.375 97.0383V95.0458H147.06V96.9148C147.06 97.0196 147.071 97.1075 147.094 97.1786C147.12 97.2459 147.156 97.3021 147.201 97.347C147.249 97.3881 147.307 97.4181 147.375 97.4368C147.442 97.4555 147.517 97.4648 147.599 97.4648C147.723 97.4648 147.833 97.4349 147.93 97.375C148.031 97.3152 148.11 97.2328 148.166 97.1281C148.226 97.0196 148.256 96.898 148.256 96.7632V95.0458H148.941V97.998H148.374L148.317 97.6052H148.278C148.211 97.695 148.13 97.7754 148.037 97.8465C147.947 97.9139 147.842 97.9662 147.723 98.0037C147.607 98.0448 147.477 98.0654 147.335 98.0654ZM150.899 98.0654C150.593 98.0654 150.336 98.0111 150.13 97.9026C149.928 97.7904 149.777 97.6201 149.676 97.3919C149.575 97.1636 149.524 96.8736 149.524 96.5219C149.524 96.1664 149.575 95.8764 149.676 95.6519C149.781 95.4237 149.934 95.2553 150.136 95.1468C150.342 95.0345 150.596 94.9784 150.899 94.9784C151.098 94.9784 151.274 95.0027 151.427 95.0514C151.58 95.1 151.711 95.1748 151.82 95.2759C151.932 95.3732 152.016 95.4948 152.072 95.6407C152.129 95.7866 152.157 95.9569 152.157 96.1515H151.461C151.461 96.013 151.44 95.8989 151.399 95.8091C151.358 95.7193 151.294 95.6519 151.208 95.607C151.126 95.5584 151.019 95.5341 150.888 95.5341C150.735 95.5341 150.609 95.5696 150.512 95.6407C150.415 95.7118 150.342 95.8184 150.293 95.9606C150.248 96.0991 150.226 96.2749 150.226 96.4882V96.5612C150.226 96.7707 150.248 96.9466 150.293 97.0888C150.342 97.231 150.417 97.3376 150.518 97.4087C150.619 97.4761 150.752 97.5097 150.916 97.5097C151.043 97.5097 151.148 97.4873 151.231 97.4424C151.317 97.3937 151.382 97.3226 151.427 97.2291C151.472 97.1356 151.494 97.0233 151.494 96.8923H152.157C152.157 97.0757 152.129 97.2403 152.072 97.3863C152.016 97.5322 151.934 97.6557 151.825 97.7567C151.717 97.8577 151.584 97.9344 151.427 97.9868C151.274 98.0392 151.098 98.0654 150.899 98.0654ZM153.52 98.0654C153.336 98.0654 153.192 98.0299 153.088 97.9588C152.983 97.8839 152.908 97.7904 152.863 97.6781C152.822 97.5621 152.801 97.4443 152.801 97.3245V95.607H152.448V95.0458H152.818L152.942 94.2207H153.486V95.0458H153.997V95.607H153.486V97.2572C153.486 97.3357 153.507 97.3975 153.548 97.4424C153.589 97.4835 153.651 97.5041 153.733 97.5041H153.997V97.9756C153.959 97.9906 153.913 98.0037 153.857 98.0149C153.804 98.0299 153.748 98.0411 153.688 98.0486C153.628 98.0598 153.572 98.0654 153.52 98.0654ZM154.505 94.5911V93.94H155.189V94.5911H154.505ZM154.505 97.998V95.0458H155.189V97.998H154.505ZM157.232 98.0654C156.91 98.0654 156.641 98.0111 156.424 97.9026C156.207 97.7904 156.044 97.6201 155.936 97.3919C155.827 97.1636 155.773 96.8736 155.773 96.5219C155.773 96.1664 155.827 95.8764 155.936 95.6519C156.044 95.4237 156.207 95.2553 156.424 95.1468C156.641 95.0345 156.91 94.9784 157.232 94.9784C157.558 94.9784 157.827 95.0345 158.04 95.1468C158.257 95.2553 158.42 95.4237 158.529 95.6519C158.637 95.8764 158.691 96.1664 158.691 96.5219C158.691 96.8736 158.637 97.1636 158.529 97.3919C158.42 97.6201 158.257 97.7904 158.04 97.9026C157.827 98.0111 157.558 98.0654 157.232 98.0654ZM157.232 97.5041C157.412 97.5041 157.556 97.4705 157.664 97.4031C157.777 97.332 157.857 97.2272 157.906 97.0888C157.958 96.9466 157.984 96.7707 157.984 96.5612V96.4826C157.984 96.2731 157.958 96.0991 157.906 95.9606C157.857 95.8184 157.777 95.7137 157.664 95.6463C157.556 95.5752 157.412 95.5397 157.232 95.5397C157.053 95.5397 156.907 95.5752 156.794 95.6463C156.686 95.7137 156.605 95.8184 156.553 95.9606C156.504 96.0991 156.48 96.2731 156.48 96.4826V96.5612C156.48 96.7707 156.504 96.9466 156.553 97.0888C156.605 97.2272 156.686 97.332 156.794 97.4031C156.907 97.4705 157.053 97.5041 157.232 97.5041ZM159.273 97.998V95.0458H159.846L159.902 95.4386H159.941C160.008 95.3488 160.087 95.2703 160.177 95.2029C160.27 95.1318 160.375 95.0776 160.491 95.0401C160.611 94.999 160.742 94.9784 160.884 94.9784C161.071 94.9784 161.236 95.0121 161.378 95.0794C161.524 95.1468 161.638 95.2553 161.72 95.405C161.803 95.5546 161.844 95.7548 161.844 96.0055V97.998H161.153V96.129C161.153 96.0242 161.14 95.9382 161.114 95.8708C161.092 95.7997 161.056 95.7436 161.008 95.7024C160.963 95.6575 160.907 95.6257 160.839 95.607C160.772 95.5883 160.697 95.579 160.615 95.579C160.491 95.579 160.379 95.6089 160.278 95.6688C160.181 95.7286 160.102 95.811 160.042 95.9157C159.986 96.0205 159.958 96.1421 159.958 96.2806V97.998H159.273ZM164.679 97.998V94.7763H163.45V94.1477H166.644V94.7763H165.409V97.998H164.679ZM167.969 98.0654C167.654 98.0654 167.392 98.0111 167.183 97.9026C166.973 97.7904 166.816 97.6201 166.711 97.3919C166.607 97.1636 166.554 96.8736 166.554 96.5219C166.554 96.1664 166.607 95.8764 166.711 95.6519C166.816 95.4237 166.973 95.2553 167.183 95.1468C167.392 95.0345 167.654 94.9784 167.969 94.9784C168.253 94.9784 168.491 95.0327 168.682 95.1412C168.876 95.2459 169.022 95.4087 169.119 95.6295C169.217 95.8502 169.265 96.1365 169.265 96.4882V96.6903H167.256C167.263 96.8736 167.291 97.0289 167.34 97.1561C167.389 97.2796 167.464 97.3732 167.565 97.4368C167.669 97.4966 167.806 97.5266 167.974 97.5266C168.06 97.5266 168.141 97.5154 168.216 97.4929C168.29 97.4705 168.356 97.4368 168.412 97.3919C168.468 97.3432 168.511 97.2834 168.541 97.2123C168.575 97.1412 168.592 97.0589 168.592 96.9653H169.265C169.265 97.1524 169.232 97.3152 169.164 97.4536C169.101 97.5921 169.009 97.7062 168.889 97.796C168.773 97.8858 168.637 97.9531 168.479 97.998C168.322 98.0429 168.152 98.0654 167.969 98.0654ZM167.267 96.2076H168.552C168.552 96.0841 168.537 95.9793 168.508 95.8933C168.481 95.8072 168.442 95.7361 168.39 95.68C168.341 95.6239 168.281 95.5846 168.21 95.5621C168.139 95.5359 168.059 95.5228 167.969 95.5228C167.823 95.5228 167.699 95.5472 167.598 95.5958C167.501 95.6444 167.426 95.7193 167.374 95.8203C167.321 95.9213 167.286 96.0504 167.267 96.2076ZM171.076 98.0654C170.769 98.0654 170.512 98.0111 170.307 97.9026C170.105 97.7904 169.953 97.6201 169.852 97.3919C169.751 97.1636 169.7 96.8736 169.7 96.5219C169.7 96.1664 169.751 95.8764 169.852 95.6519C169.957 95.4237 170.11 95.2553 170.312 95.1468C170.518 95.0345 170.773 94.9784 171.076 94.9784C171.274 94.9784 171.45 95.0027 171.603 95.0514C171.757 95.1 171.888 95.1748 171.996 95.2759C172.108 95.3732 172.193 95.4948 172.249 95.6407C172.305 95.7866 172.333 95.9569 172.333 96.1515H171.637C171.637 96.013 171.616 95.8989 171.575 95.8091C171.534 95.7193 171.47 95.6519 171.384 95.607C171.302 95.5584 171.195 95.5341 171.064 95.5341C170.911 95.5341 170.786 95.5696 170.688 95.6407C170.591 95.7118 170.518 95.8184 170.469 95.9606C170.425 96.0991 170.402 96.2749 170.402 96.4882V96.5612C170.402 96.7707 170.425 96.9466 170.469 97.0888C170.518 97.231 170.593 97.3376 170.694 97.4087C170.795 97.4761 170.928 97.5097 171.092 97.5097C171.22 97.5097 171.324 97.4873 171.407 97.4424C171.493 97.3937 171.558 97.3226 171.603 97.2291C171.648 97.1356 171.671 97.0233 171.671 96.8923H172.333C172.333 97.0757 172.305 97.2403 172.249 97.3863C172.193 97.5322 172.11 97.6557 172.002 97.7567C171.893 97.8577 171.76 97.9344 171.603 97.9868C171.45 98.0392 171.274 98.0654 171.076 98.0654ZM172.916 97.998V93.94H173.601V95.3825H173.64C173.704 95.3039 173.778 95.2347 173.864 95.1748C173.95 95.115 174.048 95.0682 174.156 95.0345C174.269 94.9971 174.392 94.9784 174.527 94.9784C174.714 94.9784 174.878 95.0121 175.021 95.0794C175.167 95.1468 175.281 95.2553 175.363 95.405C175.445 95.5546 175.487 95.7548 175.487 96.0055V97.998H174.796V96.129C174.796 96.0242 174.783 95.9382 174.757 95.8708C174.734 95.7997 174.699 95.7436 174.65 95.7024C174.605 95.6575 174.549 95.6257 174.482 95.607C174.414 95.5883 174.34 95.579 174.257 95.579C174.134 95.579 174.022 95.6089 173.921 95.6688C173.823 95.7286 173.745 95.811 173.685 95.9157C173.629 96.0205 173.601 96.1421 173.601 96.2806V97.998H172.916ZM176.194 97.998V95.0458H176.766L176.822 95.4386H176.862C176.929 95.3488 177.007 95.2703 177.097 95.2029C177.191 95.1318 177.296 95.0776 177.412 95.0401C177.531 94.999 177.662 94.9784 177.804 94.9784C177.992 94.9784 178.156 95.0121 178.298 95.0794C178.444 95.1468 178.558 95.2553 178.641 95.405C178.723 95.5546 178.764 95.7548 178.764 96.0055V97.998H178.074V96.129C178.074 96.0242 178.061 95.9382 178.035 95.8708C178.012 95.7997 177.977 95.7436 177.928 95.7024C177.883 95.6575 177.827 95.6257 177.76 95.607C177.692 95.5883 177.617 95.579 177.535 95.579C177.412 95.579 177.299 95.6089 177.198 95.6688C177.101 95.7286 177.022 95.811 176.963 95.9157C176.906 96.0205 176.878 96.1421 176.878 96.2806V97.998H176.194ZM180.785 98.0654C180.463 98.0654 180.194 98.0111 179.977 97.9026C179.759 97.7904 179.597 97.6201 179.488 97.3919C179.38 97.1636 179.325 96.8736 179.325 96.5219C179.325 96.1664 179.38 95.8764 179.488 95.6519C179.597 95.4237 179.759 95.2553 179.977 95.1468C180.194 95.0345 180.463 94.9784 180.785 94.9784C181.11 94.9784 181.38 95.0345 181.593 95.1468C181.81 95.2553 181.973 95.4237 182.081 95.6519C182.19 95.8764 182.244 96.1664 182.244 96.5219C182.244 96.8736 182.19 97.1636 182.081 97.3919C181.973 97.6201 181.81 97.7904 181.593 97.9026C181.38 98.0111 181.11 98.0654 180.785 98.0654ZM180.785 97.5041C180.964 97.5041 181.108 97.4705 181.217 97.4031C181.329 97.332 181.41 97.2272 181.458 97.0888C181.511 96.9466 181.537 96.7707 181.537 96.5612V96.4826C181.537 96.2731 181.511 96.0991 181.458 95.9606C181.41 95.8184 181.329 95.7137 181.217 95.6463C181.108 95.5752 180.964 95.5397 180.785 95.5397C180.605 95.5397 180.459 95.5752 180.347 95.6463C180.238 95.7137 180.158 95.8184 180.106 95.9606C180.057 96.0991 180.033 96.2731 180.033 96.4826V96.5612C180.033 96.7707 180.057 96.9466 180.106 97.0888C180.158 97.2272 180.238 97.332 180.347 97.4031C180.459 97.4705 180.605 97.5041 180.785 97.5041ZM182.826 97.998V93.94H183.511V97.998H182.826ZM185.553 98.0654C185.232 98.0654 184.962 98.0111 184.745 97.9026C184.528 97.7904 184.365 97.6201 184.257 97.3919C184.148 97.1636 184.094 96.8736 184.094 96.5219C184.094 96.1664 184.148 95.8764 184.257 95.6519C184.365 95.4237 184.528 95.2553 184.745 95.1468C184.962 95.0345 185.232 94.9784 185.553 94.9784C185.879 94.9784 186.148 95.0345 186.362 95.1468C186.579 95.2553 186.741 95.4237 186.85 95.6519C186.958 95.8764 187.013 96.1664 187.013 96.5219C187.013 96.8736 186.958 97.1636 186.85 97.3919C186.741 97.6201 186.579 97.7904 186.362 97.9026C186.148 98.0111 185.879 98.0654 185.553 98.0654ZM185.553 97.5041C185.733 97.5041 185.877 97.4705 185.986 97.4031C186.098 97.332 186.178 97.2272 186.227 97.0888C186.279 96.9466 186.305 96.7707 186.305 96.5612V96.4826C186.305 96.2731 186.279 96.0991 186.227 95.9606C186.178 95.8184 186.098 95.7137 185.986 95.6463C185.877 95.5752 185.733 95.5397 185.553 95.5397C185.374 95.5397 185.228 95.5752 185.116 95.6463C185.007 95.7137 184.927 95.8184 184.874 95.9606C184.826 96.0991 184.801 96.2731 184.801 96.4826V96.5612C184.801 96.7707 184.826 96.9466 184.874 97.0888C184.927 97.2272 185.007 97.332 185.116 97.4031C185.228 97.4705 185.374 97.5041 185.553 97.5041ZM188.083 99.0196C187.952 99.0196 187.828 98.9934 187.712 98.941C187.596 98.8886 187.503 98.81 187.432 98.7053C187.361 98.6042 187.325 98.4789 187.325 98.3292C187.325 98.1646 187.372 98.0355 187.465 97.9419C187.563 97.8446 187.669 97.7717 187.785 97.723C187.699 97.6781 187.628 97.6183 187.572 97.5434C187.52 97.4686 187.493 97.3788 187.493 97.274C187.493 97.1318 187.546 97.0196 187.651 96.9372C187.755 96.8512 187.875 96.7951 188.01 96.7689C187.871 96.6828 187.765 96.5724 187.69 96.4377C187.619 96.303 187.583 96.1496 187.583 95.9775C187.583 95.7717 187.632 95.5958 187.729 95.4499C187.83 95.3002 187.976 95.1842 188.167 95.1019C188.358 95.0196 188.588 94.9784 188.857 94.9784C188.966 94.9784 189.071 94.9859 189.172 95.0009C189.273 95.0158 189.364 95.0383 189.447 95.0682C189.578 94.9896 189.667 94.9017 189.716 94.8044C189.765 94.7034 189.791 94.6211 189.795 94.5574H190.463C190.463 94.6884 190.436 94.8044 190.384 94.9054C190.335 95.0065 190.266 95.0907 190.176 95.158C190.087 95.2216 189.978 95.2684 189.851 95.2983C189.944 95.3806 190.015 95.4798 190.064 95.5958C190.113 95.7118 190.137 95.839 190.137 95.9775C190.137 96.1833 190.088 96.361 189.991 96.5107C189.898 96.6603 189.757 96.7763 189.57 96.8587C189.387 96.941 189.16 96.9821 188.891 96.9821H188.436C188.358 96.9821 188.296 96.999 188.251 97.0327C188.21 97.0663 188.189 97.1131 188.189 97.173C188.189 97.2216 188.208 97.2647 188.246 97.3021C188.287 97.3395 188.343 97.3582 188.414 97.3582H189.705C189.926 97.3582 190.107 97.4312 190.249 97.5771C190.395 97.7193 190.468 97.9026 190.468 98.1271C190.468 98.2955 190.423 98.4471 190.333 98.5818C190.247 98.7165 190.126 98.8231 189.969 98.9017C189.811 98.9803 189.628 99.0196 189.419 99.0196H188.083ZM188.33 98.5256H189.413C189.484 98.5256 189.546 98.5125 189.598 98.4864C189.654 98.4639 189.697 98.4302 189.727 98.3853C189.761 98.3404 189.778 98.2899 189.778 98.2338C189.778 98.1365 189.746 98.0635 189.682 98.0149C189.623 97.9662 189.548 97.9419 189.458 97.9419H188.33C188.24 97.9419 188.165 97.9681 188.105 98.0205C188.045 98.0766 188.015 98.1477 188.015 98.2338C188.015 98.3198 188.043 98.3891 188.1 98.4415C188.159 98.4976 188.236 98.5256 188.33 98.5256ZM188.863 96.4994C189.061 96.4994 189.209 96.4545 189.306 96.3647C189.407 96.2712 189.458 96.1421 189.458 95.9775C189.458 95.8128 189.407 95.6856 189.306 95.5958C189.209 95.506 189.061 95.4611 188.863 95.4611C188.665 95.4611 188.515 95.506 188.414 95.5958C188.317 95.6856 188.268 95.8128 188.268 95.9775C188.268 96.086 188.289 96.1795 188.33 96.2581C188.375 96.3367 188.44 96.3965 188.526 96.4377C188.616 96.4789 188.728 96.4994 188.863 96.4994ZM191.303 99.0196C191.165 99.0196 191.053 99.0083 190.967 98.9859C190.881 98.9672 190.832 98.956 190.821 98.9522V98.4639H191.135C191.214 98.4639 191.292 98.4433 191.371 98.4022C191.449 98.361 191.52 98.3049 191.584 98.2338C191.648 98.1627 191.694 98.0841 191.724 97.998L190.574 95.0458H191.292L191.842 96.4602C191.868 96.5238 191.895 96.6042 191.921 96.7015C191.951 96.7988 191.981 96.8998 192.011 97.0046C192.041 97.1056 192.065 97.1973 192.084 97.2796H192.112C192.127 97.2235 192.144 97.1599 192.162 97.0888C192.181 97.0177 192.2 96.9447 192.218 96.8699C192.241 96.7951 192.263 96.7221 192.286 96.651C192.308 96.5799 192.327 96.5182 192.342 96.4658L192.791 95.0458H193.487L192.499 97.8465C192.443 98.0037 192.379 98.1533 192.308 98.2955C192.241 98.4377 192.16 98.5631 192.067 98.6716C191.977 98.7801 191.868 98.8643 191.741 98.9241C191.618 98.9878 191.472 99.0196 191.303 99.0196Z" fill="#171717"/>
</g>
<path d="M0 168.481C0 168.481 10.3881 167.603 12.5373 154C13.397 163.478 18.9851 166.287 24 168.481C24 168.481 12.5373 170.675 12.5373 183.4C12.5373 183.4 10.3881 170.236 0 168.481Z" fill="#2B51DA"/>
<defs>
<filter id="filter0_d_2562_46854" x="10.4869" y="45.8853" width="288.226" height="212.626" filterUnits="userSpaceOnUse" color-interpolation-filters="sRGB">
<feFlood flood-opacity="0" result="BackgroundImageFix"/>
<feColorMatrix in="SourceAlpha" type="matrix" values="0 0 0 0 0 0 0 0 0 0 0 0 0 0 0 0 0 0 127 0" result="hardAlpha"/>
<feOffset/>
<feGaussianBlur stdDeviation="2.75655"/>
<feComposite in2="hardAlpha" operator="out"/>
<feColorMatrix type="matrix" values="0 0 0 0 0.475 0 0 0 0 0.475 0 0 0 0 0.475 0 0 0 0.1 0"/>
<feBlend mode="normal" in2="BackgroundImageFix" result="effect1_dropShadow_2562_46854"/>
<feBlend mode="normal" in="SourceGraphic" in2="effect1_dropShadow_2562_46854" result="shape"/>
</filter>
<filter id="filter1_d_2562_46854" x="115.284" y="187.98" width="79.0238" height="89.6514" filterUnits="userSpaceOnUse" color-interpolation-filters="sRGB">
<feFlood flood-opacity="0" result="BackgroundImageFix"/>
<feColorMatrix in="SourceAlpha" type="matrix" values="0 0 0 0 0 0 0 0 0 0 0 0 0 0 0 0 0 0 127 0" result="hardAlpha"/>
<feOffset dy="2.61826"/>
<feGaussianBlur stdDeviation="6.54565"/>
<feComposite in2="hardAlpha" operator="out"/>
<feColorMatrix type="matrix" values="0 0 0 0 0 0 0 0 0 0 0 0 0 0 0 0 0 0 0.25 0"/>
<feBlend mode="normal" in2="BackgroundImageFix" result="effect1_dropShadow_2562_46854"/>
<feBlend mode="normal" in="SourceGraphic" in2="effect1_dropShadow_2562_46854" result="shape"/>
</filter>
<filter id="filter2_d_2562_46854" x="169.664" y="191.525" width="79.0238" height="89.6514" filterUnits="userSpaceOnUse" color-interpolation-filters="sRGB">
<feFlood flood-opacity="0" result="BackgroundImageFix"/>
<feColorMatrix in="SourceAlpha" type="matrix" values="0 0 0 0 0 0 0 0 0 0 0 0 0 0 0 0 0 0 127 0" result="hardAlpha"/>
<feOffset dy="2.61826"/>
<feGaussianBlur stdDeviation="6.54565"/>
<feComposite in2="hardAlpha" operator="out"/>
<feColorMatrix type="matrix" values="0 0 0 0 0 0 0 0 0 0 0 0 0 0 0 0 0 0 0.25 0"/>
<feBlend mode="normal" in2="BackgroundImageFix" result="effect1_dropShadow_2562_46854"/>
<feBlend mode="normal" in="SourceGraphic" in2="effect1_dropShadow_2562_46854" result="shape"/>
</filter>
<filter id="filter3_d_2562_46854" x="61.1086" y="187.923" width="79.0238" height="89.6514" filterUnits="userSpaceOnUse" color-interpolation-filters="sRGB">
<feFlood flood-opacity="0" result="BackgroundImageFix"/>
<feColorMatrix in="SourceAlpha" type="matrix" values="0 0 0 0 0 0 0 0 0 0 0 0 0 0 0 0 0 0 127 0" result="hardAlpha"/>
<feOffset dy="2.61826"/>
<feGaussianBlur stdDeviation="6.54565"/>
<feComposite in2="hardAlpha" operator="out"/>
<feColorMatrix type="matrix" values="0 0 0 0 0 0 0 0 0 0 0 0 0 0 0 0 0 0 0.25 0"/>
<feBlend mode="normal" in2="BackgroundImageFix" result="effect1_dropShadow_2562_46854"/>
<feBlend mode="normal" in="SourceGraphic" in2="effect1_dropShadow_2562_46854" result="shape"/>
</filter>
<clipPath id="clip0_2562_46854">
<rect width="220.665" height="142.099" fill="white" transform="translate(44.0208 110.898)"/>
</clipPath>
</defs>
</svg>
