<svg width="64" height="64" viewBox="0 0 64 64" fill="none" xmlns="http://www.w3.org/2000/svg">
<circle cx="32" cy="32" r="32" fill="white" fill-opacity="0.5"/>
<circle cx="32" cy="32" r="20" fill="white" fill-opacity="0.8"/>
<path d="M34.0331 33.5666L31.9993 35.6004H30.1994V37.4003H28.3995V39.2001L26.5997 41H23V37.4003L30.4334 29.9669C30.084 28.815 30.1295 27.5793 30.5627 26.4563C30.9959 25.3332 31.792 24.387 32.8245 23.7682C33.857 23.1493 35.0667 22.8933 36.2614 23.0406C37.4561 23.188 38.5673 23.7303 39.4185 24.5815C40.2697 25.4327 40.812 26.5439 40.9594 27.7386C41.1067 28.9333 40.8507 30.143 40.2318 31.1755C39.613 32.208 38.6668 33.0041 37.5437 33.4373C36.4207 33.8705 35.185 33.916 34.0331 33.5666ZM38.4067 29.409C38.7838 29.0314 39.0406 28.5506 39.1445 28.0272C39.2485 27.5038 39.195 26.9613 38.9909 26.4683C38.7868 25.9753 38.4411 25.5538 37.9975 25.2571C37.554 24.9604 37.0325 24.8018 36.4989 24.8013C35.7831 24.802 35.0969 25.0868 34.591 25.5933L38.4067 29.409Z" fill="black"/>
</svg>
