<svg width="64" height="64" viewBox="0 0 64 64" fill="none" xmlns="http://www.w3.org/2000/svg">
<circle cx="32" cy="32" r="32" fill="white" fill-opacity="0.5"/>
<circle cx="32" cy="32" r="20" fill="white" fill-opacity="0.8"/>
<g clip-path="url(#clip0_2698_2809)">
<path d="M24.728 27.8L22.664 24.368L24.368 22.664L27.8 24.728C28.424 24.368 29.12 24.08 29.84 23.888L30.8 20H33.2L34.16 23.888C34.88 24.08 35.576 24.368 36.2 24.728L39.632 22.664L41.336 24.368L39.272 27.8C39.632 28.424 39.92 29.12 40.112 29.84L44 30.8V33.2L40.112 34.16C39.92 34.88 39.632 35.576 39.272 36.2L41.336 39.632L39.632 41.336L36.2 39.272C35.576 39.632 34.88 39.92 34.16 40.112L33.2 44H30.8L29.84 40.112C29.12 39.92 28.424 39.632 27.8 39.272L24.368 41.336L22.664 39.632L24.728 36.2C24.368 35.576 24.08 34.88 23.888 34.16L20 33.2V30.8L23.888 29.84C24.08 29.12 24.368 28.424 24.728 27.8ZM32 35.6C32.9548 35.6 33.8705 35.2207 34.5456 34.5456C35.2207 33.8705 35.6 32.9548 35.6 32C35.6 31.0452 35.2207 30.1295 34.5456 29.4544C33.8705 28.7793 32.9548 28.4 32 28.4C31.0452 28.4 30.1295 28.7793 29.4544 29.4544C28.7793 30.1295 28.4 31.0452 28.4 32C28.4 32.9548 28.7793 33.8705 29.4544 34.5456C30.1295 35.2207 31.0452 35.6 32 35.6Z" fill="black"/>
</g>
<defs>
<clipPath id="clip0_2698_2809">
<rect width="24" height="24" fill="white" transform="translate(20 20)"/>
</clipPath>
</defs>
</svg>
