<svg width="64" height="64" viewBox="0 0 64 64" fill="none" xmlns="http://www.w3.org/2000/svg">
<circle cx="32" cy="32" r="32" fill="white" fill-opacity="0.5"/>
<circle cx="32" cy="32" r="20" fill="white" fill-opacity="0.8"/>
<path d="M23.8634 29.8006C24.5693 29.4903 25.3812 29.862 25.6681 30.6266L27.3124 34.625H27.8407V23.75C27.8407 22.925 28.4642 22.25 29.2259 22.25C29.9881 22.25 30.611 22.925 30.611 23.75V30.8633L31.3038 30.875V21.5C31.3038 20.675 31.9273 20 32.689 20C33.4531 20 34.0742 20.675 34.0742 21.5V30.8633L34.7656 30.875V23C34.7656 22.175 35.389 21.5 36.1507 21.5C36.9129 21.5 37.5359 22.175 37.5359 23V31.6133L38.2287 31.625V26C38.2287 25.175 38.8521 24.5 39.6138 24.5C40.3765 24.5 40.9999 25.175 40.9999 26V36.125C40.9999 39.6781 39.2595 44 33.0781 44C31.1656 44 29.3552 43.6719 28.3596 43.0156C27.7353 42.6041 27.1982 42.0735 26.779 41.4542C26.4658 40.9921 26.2137 40.4914 26.029 39.9645L23.1012 31.7548C22.8148 30.9903 23.1574 30.1114 23.8634 29.8006Z" fill="black"/>
</svg>
