<svg width="64" height="64" viewBox="0 0 64 64" fill="none" xmlns="http://www.w3.org/2000/svg">
<circle cx="32" cy="32" r="32" fill="white" fill-opacity="0.5"/>
<circle cx="32" cy="32" r="20" fill="white" fill-opacity="0.8"/>
<g clip-path="url(#clip0_2698_3614)">
<path d="M34.6251 23.75C34.6251 23.0207 34.3266 22.3212 33.7953 21.8055C33.2639 21.2897 32.5432 21 31.7918 21C31.0403 21 30.3197 21.2897 29.7883 21.8055C29.257 22.3212 28.9584 23.0207 28.9584 23.75C28.9584 24.4793 29.257 25.1788 29.7883 25.6945C30.3197 26.2103 31.0403 26.5 31.7918 26.5C32.5432 26.5 33.2639 26.2103 33.7953 25.6945C34.3266 25.1788 34.6251 24.4793 34.6251 23.75ZM30.0608 28.2746C29.0116 27.9137 28.0907 27.2305 27.4577 26.3066L26.5944 25.0477C26.1605 24.416 25.284 24.2484 24.6288 24.6695C23.9736 25.0906 23.8053 25.9414 24.2392 26.5773L25.1025 27.832C25.9038 28.9965 26.9973 29.9117 28.2501 30.5133V41.625C28.2501 42.3855 28.8832 43 29.6668 43C30.4504 43 31.0834 42.3855 31.0834 41.625V37.5H32.5001V41.625C32.5001 42.3855 33.1332 43 33.9168 43C34.7004 43 35.3334 42.3855 35.3334 41.625V30.5219C36.6217 29.9117 37.7418 28.9664 38.5519 27.7633L39.3577 26.5645C39.7827 25.9285 39.5967 25.0777 38.9415 24.6609C38.2863 24.2441 37.4098 24.4246 36.9803 25.0648L36.1746 26.2594C35.2095 27.6945 33.567 28.5625 31.8006 28.5625C31.2428 28.5625 30.6983 28.4766 30.1803 28.3133C30.1405 28.3004 30.1006 28.2832 30.0608 28.2746Z" fill="black"/>
</g>
<defs>
<clipPath id="clip0_2698_3614">
<rect width="17" height="22" fill="white" transform="translate(24 21)"/>
</clipPath>
</defs>
</svg>
