<svg width="64" height="64" viewBox="0 0 64 64" fill="none" xmlns="http://www.w3.org/2000/svg">
<circle cx="32" cy="32" r="32" fill="white" fill-opacity="0.5"/>
<circle cx="32" cy="32" r="20" fill="white" fill-opacity="0.8"/>
<path d="M32 37C32.5304 37 33.0391 36.7893 33.4142 36.4142C33.7893 36.0391 34 35.5304 34 35C34 34.4696 33.7893 33.9609 33.4142 33.5858C33.0391 33.2107 32.5304 33 32 33C31.4696 33 30.9609 33.2107 30.5858 33.5858C30.2107 33.9609 30 34.4696 30 35C30 35.5304 30.2107 36.0391 30.5858 36.4142C30.9609 36.7893 31.4696 37 32 37ZM38 28C38.5304 28 39.0391 28.2107 39.4142 28.5858C39.7893 28.9609 40 29.4696 40 30V40C40 40.5304 39.7893 41.0391 39.4142 41.4142C39.0391 41.7893 38.5304 42 38 42H26C25.4696 42 24.9609 41.7893 24.5858 41.4142C24.2107 41.0391 24 40.5304 24 40V30C24 29.4696 24.2107 28.9609 24.5858 28.5858C24.9609 28.2107 25.4696 28 26 28H27V26C27 24.6739 27.5268 23.4021 28.4645 22.4645C29.4021 21.5268 30.6739 21 32 21C32.6566 21 33.3068 21.1293 33.9134 21.3806C34.52 21.6319 35.0712 22.0002 35.5355 22.4645C35.9998 22.9288 36.3681 23.48 36.6194 24.0866C36.8707 24.6932 37 25.3434 37 26V28H38ZM32 23C31.2044 23 30.4413 23.3161 29.8787 23.8787C29.3161 24.4413 29 25.2044 29 26V28H35V26C35 25.2044 34.6839 24.4413 34.1213 23.8787C33.5587 23.3161 32.7956 23 32 23Z" fill="black"/>
</svg>
