<svg width="64" height="64" viewBox="0 0 64 64" fill="none" xmlns="http://www.w3.org/2000/svg">
<circle cx="32" cy="32" r="32" fill="white" fill-opacity="0.5"/>
<circle cx="32" cy="32" r="20" fill="white" fill-opacity="0.8"/>
<path d="M32 43C25.9247 43 21 38.0753 21 32C21 25.9247 25.9247 21 32 21C38.0753 21 43 25.9247 43 32C43 38.0753 38.0753 43 32 43ZM28.15 34.2V36.4H30.9V38.6H33.1V36.4H34.2C34.9293 36.4 35.6288 36.1103 36.1445 35.5945C36.6603 35.0788 36.95 34.3793 36.95 33.65C36.95 32.9207 36.6603 32.2212 36.1445 31.7055C35.6288 31.1897 34.9293 30.9 34.2 30.9H29.8C29.6541 30.9 29.5142 30.8421 29.4111 30.7389C29.3079 30.6358 29.25 30.4959 29.25 30.35C29.25 30.2041 29.3079 30.0642 29.4111 29.9611C29.5142 29.8579 29.6541 29.8 29.8 29.8H35.85V27.6H33.1V25.4H30.9V27.6H29.8C29.0707 27.6 28.3712 27.8897 27.8555 28.4055C27.3397 28.9212 27.05 29.6207 27.05 30.35C27.05 31.0793 27.3397 31.7788 27.8555 32.2945C28.3712 32.8103 29.0707 33.1 29.8 33.1H34.2C34.3459 33.1 34.4858 33.1579 34.5889 33.2611C34.6921 33.3642 34.75 33.5041 34.75 33.65C34.75 33.7959 34.6921 33.9358 34.5889 34.0389C34.4858 34.1421 34.3459 34.2 34.2 34.2H28.15Z" fill="black"/>
</svg>
