<svg width="64" height="64" viewBox="0 0 64 64" fill="none" xmlns="http://www.w3.org/2000/svg">
<circle cx="32" cy="32" r="32" fill="white" fill-opacity="0.5"/>
<circle cx="32" cy="32" r="20" fill="white" fill-opacity="0.8"/>
<g clip-path="url(#clip0_2698_497)">
<path d="M22.6856 30.4624C22.4534 30.6945 22.2692 30.9702 22.1435 31.2735C22.0178 31.5769 21.9531 31.902 21.9531 32.2304C21.9531 32.5587 22.0178 32.8839 22.1435 33.1872C22.2692 33.4906 22.4534 33.7662 22.6856 33.9984L25.5146 36.8264C25.9207 37.2325 26.4543 37.4864 27.0257 37.5454C27.597 37.6044 28.1712 37.4648 28.6517 37.1502C29.1323 36.8356 29.4898 36.3651 29.6643 35.8179C29.8387 35.2707 29.8194 34.6801 29.6096 34.1454L30.4006 33.3544L36.8076 40.7464C37.0589 41.036 37.3671 41.2708 37.713 41.4361C38.059 41.6015 38.4353 41.6938 38.8185 41.7074C39.2016 41.7209 39.5835 41.6555 39.9403 41.515C40.2971 41.3746 40.6211 41.1622 40.8923 40.8911C41.1634 40.6199 41.3758 40.2959 41.5162 39.9391C41.6567 39.5823 41.7221 39.2004 41.7086 38.8173C41.695 38.4341 41.6027 38.0578 41.4373 37.7118C41.272 37.3659 41.0372 37.0577 40.7476 36.8064L33.3556 30.3994L34.1466 29.6094C34.6814 29.8197 35.2724 29.8393 35.82 29.6649C36.3677 29.4906 36.8385 29.1328 37.1532 28.6519C37.468 28.1711 37.6074 27.5965 37.5481 27.0248C37.4888 26.4532 37.2344 25.9194 36.8276 25.5134L33.9996 22.6844C33.5935 22.2782 33.0599 22.0243 32.4885 21.9654C31.9172 21.9064 31.343 22.0459 30.8624 22.3605C30.3819 22.6752 30.0244 23.1456 29.8499 23.6929C29.6755 24.2401 29.6948 24.8307 29.9046 25.3654L25.3676 29.9024C24.9146 29.7245 24.4195 29.6828 23.943 29.7823C23.4666 29.8817 23.0296 30.1181 22.6856 30.4624Z" fill="black"/>
</g>
<defs>
<clipPath id="clip0_2698_497">
<rect width="24" height="24" fill="white" transform="translate(20 20)"/>
</clipPath>
</defs>
</svg>
