<svg width="64" height="64" viewBox="0 0 64 64" fill="none" xmlns="http://www.w3.org/2000/svg">
<circle cx="32" cy="32" r="32" fill="white" fill-opacity="0.5"/>
<circle cx="32" cy="32" r="20" fill="white" fill-opacity="0.8"/>
<path d="M41 31.674C39.6054 31.0119 38.0311 30.8294 36.522 31.1549C35.0129 31.4804 33.6538 32.2956 32.6561 33.4736C31.6584 34.6517 31.0781 36.1265 31.0056 37.6686C30.933 39.2107 31.3723 40.7335 32.255 42H23.993C23.7304 41.9982 23.479 41.8931 23.2932 41.7075C23.1074 41.5219 23.0021 41.2706 23 41.008V22.992C23 22.444 23.445 22 23.993 22H36L41 27V31.674ZM38 43C36.6739 43 35.4021 42.4732 34.4645 41.5355C33.5268 40.5979 33 39.3261 33 38C33 36.6739 33.5268 35.4021 34.4645 34.4645C35.4021 33.5268 36.6739 33 38 33C39.3261 33 40.5979 33.5268 41.5355 34.4645C42.4732 35.4021 43 36.6739 43 38C43 39.3261 42.4732 40.5979 41.5355 41.5355C40.5979 42.4732 39.3261 43 38 43ZM36.707 40.708C37.267 40.9759 37.8962 41.0635 38.5081 40.9588C39.1199 40.854 39.6842 40.5621 40.1231 40.1231C40.5621 39.6842 40.854 39.1199 40.9588 38.5081C41.0635 37.8962 40.9759 37.267 40.708 36.707L36.707 40.708ZM35.292 39.293L39.293 35.293C38.733 35.0251 38.1038 34.9375 37.4919 35.0422C36.8801 35.147 36.3158 35.4389 35.8769 35.8779C35.4379 36.3168 35.146 36.8811 35.0412 37.4929C34.9365 38.1048 35.0241 38.734 35.292 39.294V39.293Z" fill="black"/>
</svg>
