<svg width="64" height="64" viewBox="0 0 64 64" fill="none" xmlns="http://www.w3.org/2000/svg">
<circle cx="32" cy="32" r="32" fill="white" fill-opacity="0.5"/>
<circle cx="32" cy="32" r="20" fill="white" fill-opacity="0.8"/>
<g clip-path="url(#clip0_2921_52065)">
<path d="M43.9398 33.2001C43.7127 35.4598 42.849 37.6086 41.449 39.3969C40.0491 41.1852 38.1704 42.5395 36.0313 43.3025C33.8923 44.0654 31.5806 44.2057 29.3649 43.707C27.1493 43.2083 25.1206 42.0911 23.5147 40.4852C21.9088 38.8793 20.7916 36.8506 20.2929 34.635C19.7942 32.4193 19.9345 30.1076 20.6974 27.9686C21.4604 25.8295 22.8147 23.9508 24.603 22.5509C26.3913 21.1509 28.5401 20.2872 30.7998 20.0601V33.2001H43.9398ZM43.8438 30.0801H33.9198V20.1561C36.4063 20.5593 38.7028 21.7348 40.4839 23.516C42.2651 25.2971 43.4406 27.5936 43.8438 30.0801Z" fill="black"/>
</g>
<defs>
<clipPath id="clip0_2921_52065">
<rect width="24" height="24" fill="white" transform="translate(20 20)"/>
</clipPath>
</defs>
</svg>
