<svg width="64" height="64" viewBox="0 0 64 64" fill="none" xmlns="http://www.w3.org/2000/svg">
<circle cx="32" cy="32" r="32" fill="white" fill-opacity="0.5"/>
<circle cx="32" cy="32" r="20" fill="white" fill-opacity="0.8"/>
<g clip-path="url(#clip0_2698_1010)">
<path d="M36 23C36.7652 23 37.5015 23.2923 38.0583 23.8173C38.615 24.3422 38.9501 25.0601 38.995 25.824L39 26V36H39.75C40.397 36 40.93 36.492 40.994 37.122L41 37.25V39C41 39.7652 40.7077 40.5015 40.1827 41.0583C39.6578 41.615 38.9399 41.9501 38.176 41.995L38 42H28C27.2348 42 26.4985 41.7077 25.9417 41.1827C25.385 40.6578 25.0499 39.9399 25.005 39.176L25 39V29H23.25C22.9405 29.0001 22.642 28.8855 22.4122 28.6782C22.1824 28.471 22.0377 28.1858 22.006 27.878L22 27.75V26C22 25.2348 22.2923 24.4985 22.8173 23.9417C23.3422 23.385 24.0601 23.0499 24.824 23.005L25 23H36ZM39 38H30V39C30 39.35 29.94 39.687 29.83 40H38C38.2652 40 38.5196 39.8946 38.7071 39.7071C38.8946 39.5196 39 39.2652 39 39V38ZM32 32H30C29.7451 32.0003 29.5 32.0979 29.3146 32.2728C29.1293 32.4478 29.0178 32.687 29.0028 32.9414C28.9879 33.1958 29.0707 33.4464 29.2343 33.6418C29.3979 33.8373 29.6299 33.9629 29.883 33.993L30 34H32C32.2549 33.9997 32.5 33.9021 32.6854 33.7272C32.8707 33.5522 32.9822 33.313 32.9972 33.0586C33.0121 32.8042 32.9293 32.5536 32.7657 32.3582C32.6021 32.1627 32.3701 32.0371 32.117 32.007L32 32ZM34 28H30C29.7348 28 29.4804 28.1054 29.2929 28.2929C29.1054 28.4804 29 28.7348 29 29C29 29.2652 29.1054 29.5196 29.2929 29.7071C29.4804 29.8946 29.7348 30 30 30H34C34.2652 30 34.5196 29.8946 34.7071 29.7071C34.8946 29.5196 35 29.2652 35 29C35 28.7348 34.8946 28.4804 34.7071 28.2929C34.5196 28.1054 34.2652 28 34 28ZM25 25C24.7348 25 24.4804 25.1054 24.2929 25.2929C24.1054 25.4804 24 25.7348 24 26V27H25V25Z" fill="black"/>
</g>
<defs>
<clipPath id="clip0_2698_1010">
<rect width="24" height="24" fill="white" transform="translate(20 20)"/>
</clipPath>
</defs>
</svg>
