<svg width="40" height="40" viewBox="0 0 40 40" fill="none" xmlns="http://www.w3.org/2000/svg">
<path fill-rule="evenodd" clip-rule="evenodd" d="M5 23.1244C4.99963 23.0428 5.01557 22.962 5.04689 22.8866C5.07821 22.8113 5.12428 22.743 5.18238 22.6857C5.24047 22.6285 5.30944 22.5834 5.38521 22.5532C5.46098 22.5229 5.54203 22.5081 5.62359 22.5097L9.42125 22.5684C9.76562 22.5738 10.0431 22.8578 10.0411 23.2044L10.0037 29.3736C10.003 29.4556 10.0185 29.5369 10.0494 29.6129C10.0802 29.6888 10.1258 29.7579 10.1835 29.8161C10.2412 29.8744 10.3099 29.9206 10.3856 29.9522C10.4612 29.9837 10.5424 30 10.6244 30H11.8756C12.0413 29.9998 12.2002 29.9339 12.3173 29.8166C12.4344 29.6994 12.5001 29.5404 12.5 29.3747V8.12531C12.5001 8.04311 12.5163 7.96172 12.5478 7.8858C12.5794 7.80988 12.6255 7.74092 12.6837 7.68285C12.7419 7.62478 12.811 7.57874 12.887 7.54737C12.9629 7.51599 13.0444 7.4999 13.1266 7.5H19.3734C19.4557 7.4998 19.5372 7.51583 19.6132 7.54717C19.6892 7.57852 19.7583 7.62457 19.8166 7.68267C19.8748 7.74078 19.9209 7.8098 19.9524 7.88579C19.9839 7.96177 20.0001 8.04322 20 8.12547V24.3745C19.9999 24.5403 20.0656 24.6993 20.1827 24.8166C20.2998 24.9339 20.4586 24.9998 20.6244 25H21.8756C21.9578 24.9999 22.0391 24.9836 22.1149 24.952C22.1908 24.9205 22.2596 24.8743 22.3176 24.8161C22.3756 24.7579 22.4216 24.6889 22.4528 24.6129C22.4841 24.537 22.5002 24.4556 22.5 24.3734V18.1266C22.4996 18.0447 22.5156 17.9636 22.547 17.8881C22.5785 17.8125 22.6247 17.7439 22.683 17.6865C22.7413 17.629 22.8104 17.5838 22.8865 17.5535C22.9625 17.5231 23.0438 17.5083 23.1256 17.5098L26.8744 17.5683C26.9561 17.5698 27.0373 17.555 27.1132 17.5248C27.1891 17.4946 27.2582 17.4495 27.3165 17.3922C27.3747 17.3349 27.421 17.2666 27.4525 17.1912C27.484 17.1158 27.5002 17.0348 27.5 16.9531V13.125C27.5001 13.0428 27.5164 12.9615 27.5479 12.8856C27.5795 12.8097 27.6257 12.7408 27.6838 12.6827C27.742 12.6247 27.8111 12.5787 27.887 12.5473C27.963 12.516 28.0444 12.4999 28.1266 12.5H34.3734C34.5393 12.4998 34.6985 12.5655 34.816 12.6827C34.9335 12.7998 34.9997 12.9588 35 13.1247V21.9534C35 22.1189 34.9343 22.2777 34.8173 22.3948C34.7004 22.5119 34.5418 22.5778 34.3762 22.5781H33.2019C33.1198 22.578 33.0385 22.5616 32.9627 22.53C32.8869 22.4985 32.8181 22.4523 32.7602 22.3941C32.7023 22.3359 32.6564 22.2669 32.6251 22.1909C32.5939 22.115 32.5779 22.0337 32.5781 21.9516V15.7047C32.5783 15.6226 32.5622 15.5412 32.5309 15.4652C32.4996 15.3893 32.4537 15.3203 32.3957 15.2621C32.3377 15.2039 32.2689 15.1577 32.193 15.1262C32.1172 15.0946 32.0359 15.0783 31.9537 15.0781H30.7025C30.5359 15.0786 30.3761 15.1444 30.2575 15.2614C30.1388 15.3784 30.0709 15.5373 30.0681 15.7039L30.01 19.3742C30.0069 19.5409 29.9387 19.6998 29.8199 19.8168C29.701 19.9338 29.5411 19.9995 29.3744 20H25.6256C25.5434 20 25.462 20.0163 25.386 20.0478C25.3101 20.0793 25.2411 20.1255 25.183 20.1837C25.1249 20.2419 25.0788 20.3109 25.0474 20.3869C25.016 20.4629 24.9999 20.5443 25 20.6266V26.8734C25 27.0396 24.934 27.199 24.8165 27.3165C24.699 27.434 24.5396 27.5 24.3734 27.5H18.1266C18.0443 27.5002 17.9628 27.4842 17.8868 27.4528C17.8108 27.4215 17.7417 27.3754 17.6834 27.3173C17.6252 27.2592 17.5791 27.1902 17.5476 27.1142C17.5161 27.0382 17.4999 26.9568 17.5 26.8745V10.6255C17.5001 10.4597 17.4344 10.3007 17.3173 10.1834C17.2002 10.0662 17.0414 10.0002 16.8756 10H15.6244C15.4587 10.0002 15.2998 10.0661 15.1827 10.1834C15.0656 10.3007 14.9999 10.4596 15 10.6253V31.8747C14.9999 31.9569 14.9837 32.0383 14.9522 32.1142C14.9206 32.1901 14.8745 32.2591 14.8163 32.3172C14.7581 32.3752 14.689 32.4213 14.613 32.4526C14.5371 32.484 14.4556 32.5001 14.3734 32.5H8.12656C7.96039 32.5 7.80102 32.434 7.68351 32.3165C7.56601 32.199 7.5 32.0396 7.5 31.8734V25.6266C7.50014 25.5444 7.48411 25.4631 7.45281 25.3871C7.42151 25.3112 7.37556 25.2422 7.31758 25.184C7.2596 25.1258 7.19073 25.0796 7.1149 25.048C7.03907 25.0165 6.95776 25.0001 6.87562 25H5.62437C5.54238 25 5.46119 24.9839 5.38544 24.9525C5.30968 24.9211 5.24085 24.8751 5.18287 24.8171C5.1249 24.7591 5.0789 24.6903 5.04753 24.6146C5.01615 24.5388 5 24.4576 5 24.3756V23.1244Z" fill="white"/>
</svg>
