<svg width="40" height="40" viewBox="0 0 40 40" fill="none" xmlns="http://www.w3.org/2000/svg">
<path d="M15.1852 24.4454L19.6296 25.9268C19.6296 25.9268 30.7407 23.7046 32.2222 23.7046C33.7037 23.7046 33.7037 25.1861 32.2222 26.6676C30.7407 28.1491 25.5556 32.5935 21.1111 32.5935C16.6667 32.5935 13.7037 30.3713 10.7407 30.3713H3.33333" stroke="white" stroke-width="1.77778" stroke-linecap="round" stroke-linejoin="round"/>
<path d="M3.33333 21.4819C4.81481 20.0004 7.77778 17.7782 10.7407 17.7782C13.7037 17.7782 20.7407 20.7411 21.8518 22.2226C22.963 23.7041 19.6296 25.9263 19.6296 25.9263" stroke="white" stroke-width="1.77778" stroke-linecap="round" stroke-linejoin="round"/>
<path d="M29.2593 11.1115H21.8518C20.6246 11.1115 19.6296 12.1064 19.6296 13.3337C19.6296 14.561 20.6246 15.5559 21.8518 15.5559H29.2593C30.4866 15.5559 31.4815 14.561 31.4815 13.3337C31.4815 12.1064 30.4866 11.1115 29.2593 11.1115Z" stroke="white" stroke-width="1.77778"/>
<path d="M19.6296 6.66704H31.4815" stroke="white" stroke-width="1.77778" stroke-linecap="round"/>
</svg>
