<svg width="40" height="40" viewBox="0 0 40 40" fill="none" xmlns="http://www.w3.org/2000/svg">
<path d="M11.032 28.448C6.508 23.584 6.588 15.96 11.288 11.226C13.13 9.36257 15.5251 8.14467 18.116 7.75398L17.978 3.59998C14.3408 4.03913 10.9594 5.69638 8.384 8.30198C2.086 14.642 2.01 24.88 8.138 31.364L4.656 34.868L15.676 35.47L15.646 23.802L11.032 28.448ZM24.326 4.52998L24.356 16.198L28.97 11.554C33.494 16.422 33.414 24.046 28.714 28.776C26.8723 30.6398 24.477 31.8578 21.886 32.248L22.024 36.4C25.6612 35.9603 29.0429 34.3039 31.62 31.7C37.916 25.356 37.992 15.118 31.864 8.63798L35.346 5.12998L24.326 4.52998Z" fill="white"/>
</svg>
