<svg width="40" height="40" viewBox="0 0 40 40" fill="none" xmlns="http://www.w3.org/2000/svg">
<path d="M20 13.3334C16.3167 13.3334 13.3334 16.3167 13.3334 20C13.3334 23.6834 16.3167 26.6667 20 26.6667C23.6834 26.6667 26.6667 23.6834 26.6667 20C26.6667 16.3167 23.6834 13.3334 20 13.3334ZM34.9 18.3334C34.5225 14.9536 33.0069 11.8026 30.6022 9.39784C28.1975 6.9931 25.0465 5.47754 21.6667 5.10002V1.66669H18.3334V5.10002C14.9536 5.47754 11.8026 6.9931 9.39784 9.39784C6.9931 11.8026 5.47754 14.9536 5.10002 18.3334H1.66669V21.6667H5.10002C5.47754 25.0465 6.9931 28.1975 9.39784 30.6022C11.8026 33.0069 14.9536 34.5225 18.3334 34.9V38.3334H21.6667V34.9C25.0465 34.5225 28.1975 33.0069 30.6022 30.6022C33.0069 28.1975 34.5225 25.0465 34.9 21.6667H38.3334V18.3334H34.9ZM20 31.6667C13.55 31.6667 8.33335 26.45 8.33335 20C8.33335 13.55 13.55 8.33335 20 8.33335C26.45 8.33335 31.6667 13.55 31.6667 20C31.6667 26.45 26.45 31.6667 20 31.6667Z" fill="white"/>
</svg>
