<svg width="40" height="40" viewBox="0 0 40 40" fill="none" xmlns="http://www.w3.org/2000/svg">
<path d="M35 7.5H25C24.0297 7.5 23.0728 7.72591 22.2049 8.15983C21.3371 8.59375 20.5822 9.22377 20 10C19.4178 9.22377 18.6629 8.59375 17.7951 8.15983C16.9272 7.72591 15.9703 7.5 15 7.5H5C4.33696 7.5 3.70107 7.76339 3.23223 8.23223C2.76339 8.70107 2.5 9.33696 2.5 10V30C2.5 30.663 2.76339 31.2989 3.23223 31.7678C3.70107 32.2366 4.33696 32.5 5 32.5H15C15.9946 32.5 16.9484 32.8951 17.6517 33.5983C18.3549 34.3016 18.75 35.2554 18.75 36.25C18.75 36.5815 18.8817 36.8995 19.1161 37.1339C19.3505 37.3683 19.6685 37.5 20 37.5C20.3315 37.5 20.6495 37.3683 20.8839 37.1339C21.1183 36.8995 21.25 36.5815 21.25 36.25C21.25 35.2554 21.6451 34.3016 22.3483 33.5983C23.0516 32.8951 24.0054 32.5 25 32.5H35C35.663 32.5 36.2989 32.2366 36.7678 31.7678C37.2366 31.2989 37.5 30.663 37.5 30V10C37.5 9.33696 37.2366 8.70107 36.7678 8.23223C36.2989 7.76339 35.663 7.5 35 7.5ZM15 30H5V10H15C15.9946 10 16.9484 10.3951 17.6517 11.0983C18.3549 11.8016 18.75 12.7554 18.75 13.75V31.25C17.6692 30.4367 16.3527 29.9978 15 30ZM35 30H25C23.6473 29.9978 22.3308 30.4367 21.25 31.25V13.75C21.25 12.7554 21.6451 11.8016 22.3483 11.0983C23.0516 10.3951 24.0054 10 25 10H35V30ZM25 13.75H31.25C31.5815 13.75 31.8995 13.8817 32.1339 14.1161C32.3683 14.3505 32.5 14.6685 32.5 15C32.5 15.3315 32.3683 15.6495 32.1339 15.8839C31.8995 16.1183 31.5815 16.25 31.25 16.25H25C24.6685 16.25 24.3505 16.1183 24.1161 15.8839C23.8817 15.6495 23.75 15.3315 23.75 15C23.75 14.6685 23.8817 14.3505 24.1161 14.1161C24.3505 13.8817 24.6685 13.75 25 13.75ZM32.5 20C32.5 20.3315 32.3683 20.6495 32.1339 20.8839C31.8995 21.1183 31.5815 21.25 31.25 21.25H25C24.6685 21.25 24.3505 21.1183 24.1161 20.8839C23.8817 20.6495 23.75 20.3315 23.75 20C23.75 19.6685 23.8817 19.3505 24.1161 19.1161C24.3505 18.8817 24.6685 18.75 25 18.75H31.25C31.5815 18.75 31.8995 18.8817 32.1339 19.1161C32.3683 19.3505 32.5 19.6685 32.5 20ZM32.5 25C32.5 25.3315 32.3683 25.6495 32.1339 25.8839C31.8995 26.1183 31.5815 26.25 31.25 26.25H25C24.6685 26.25 24.3505 26.1183 24.1161 25.8839C23.8817 25.6495 23.75 25.3315 23.75 25C23.75 24.6685 23.8817 24.3505 24.1161 24.1161C24.3505 23.8817 24.6685 23.75 25 23.75H31.25C31.5815 23.75 31.8995 23.8817 32.1339 24.1161C32.3683 24.3505 32.5 24.6685 32.5 25Z" fill="white"/>
</svg>
