<svg width="40" height="40" viewBox="0 0 40 40" fill="none" xmlns="http://www.w3.org/2000/svg">
<path d="M11.5167 9.16667L15.35 12.9833L12.9833 15.35L9.16667 11.5167L5.35 15.35L2.98334 12.9833L6.81667 9.16667L2.98334 5.35L5.35 2.98334L9.16667 6.81667L12.9833 2.98334L15.35 5.35M37.0167 27.0167L34.65 24.65L30.8333 28.4833L27.0167 24.65L24.65 27.0167L28.4833 30.8333L24.65 34.65L27.0167 37.0167L30.8333 33.1833L34.65 37.0167L37.0167 34.65L33.1833 30.8333M34 11.3833L28.6333 18.3333L26 16.2167L27.95 13.7167C25.4628 14.2219 23.1426 15.3446 21.2029 16.9814C19.2632 18.6182 17.7663 20.7165 16.85 23.0833C18.3007 24.1294 19.3297 25.6595 19.7516 27.3976C20.1734 29.1356 19.9603 30.9672 19.1506 32.5619C18.3409 34.1566 16.988 35.4095 15.3359 36.0946C13.6838 36.7796 11.8413 36.8518 10.1407 36.2979C8.44013 35.7441 6.99343 34.6008 6.06159 33.0742C5.12975 31.5476 4.77411 29.7383 5.05883 27.9726C5.34355 26.2069 6.24988 24.6011 7.61433 23.4448C8.97878 22.2885 10.7115 21.6579 12.5 21.6667C12.9367 21.6684 13.3721 21.7131 13.8 21.8C14.9547 18.9344 16.7984 16.3978 19.1678 14.4151C21.5372 12.4324 24.359 11.0647 27.3833 10.4333L25 8.63334L27.1167 6M16.6667 29.1667C16.6667 28.3426 16.4223 27.537 15.9645 26.8518C15.5066 26.1666 14.8559 25.6325 14.0945 25.3172C13.3332 25.0018 12.4954 24.9193 11.6871 25.0801C10.8789 25.2408 10.1364 25.6377 9.55373 26.2204C8.97101 26.8031 8.57417 27.5455 8.4134 28.3538C8.25263 29.162 8.33514 29.9998 8.65051 30.7612C8.96587 31.5225 9.49992 32.1733 10.1851 32.6311C10.8703 33.089 11.6759 33.3333 12.5 33.3333C13.6051 33.3333 14.6649 32.8944 15.4463 32.1129C16.2277 31.3315 16.6667 30.2717 16.6667 29.1667Z" fill="white"/>
</svg>
