<svg width="153" height="18" viewBox="0 0 153 18" fill="none" xmlns="http://www.w3.org/2000/svg">
<path d="M14.3315 17L8.69148 8.04L14.0115 2.74H10.2715L3.65148 9.42V2.74H0.731485V17H3.65148V12.66L6.59148 9.76L10.9515 17H14.3315ZM27.212 17V9.48C27.212 8 26.732 6.9 25.812 6.22C24.892 5.54 23.432 5.18 21.432 5.18C19.592 5.18 18.132 5.56 17.072 6.32C16.012 7.08 15.412 8.14 15.292 9.54H18.312C18.372 8.8 18.672 8.26 19.212 7.9C19.732 7.56 20.552 7.38 21.632 7.38C22.552 7.38 23.232 7.52 23.692 7.78C24.152 8.04 24.392 8.42 24.392 8.92V8.94C24.392 9.34 24.192 9.64 23.792 9.82C23.392 10 22.592 10.14 21.372 10.26C19.892 10.42 18.832 10.56 18.232 10.7C17.612 10.84 17.052 11.04 16.572 11.32C16.032 11.62 15.632 12 15.352 12.48C15.072 12.96 14.952 13.54 14.952 14.18C14.952 15.2 15.312 15.98 16.032 16.52C16.752 17.08 17.812 17.34 19.172 17.34C20.412 17.34 21.512 17.1 22.432 16.62C23.352 16.14 24.052 15.44 24.532 14.54L24.832 17H27.212ZM20.112 15.16C19.432 15.16 18.932 15.06 18.612 14.84C18.272 14.62 18.112 14.28 18.112 13.84V13.82C18.112 13.58 18.152 13.36 18.272 13.18C18.372 13 18.552 12.84 18.812 12.68C19.052 12.54 19.392 12.42 19.812 12.32C20.232 12.24 20.912 12.14 21.832 12.04C22.512 11.96 23.072 11.86 23.472 11.74C23.872 11.62 24.192 11.46 24.412 11.28V11.68C24.412 12.6 23.992 13.42 23.152 14.12C22.312 14.82 21.292 15.16 20.112 15.16ZM33.2121 2.2C33.2121 1.56 33.0521 1.1 32.7521 0.799999C32.4321 0.519999 31.9521 0.36 31.2721 0.36C30.5921 0.36 30.0921 0.519999 29.7921 0.799999C29.4921 1.1 29.3521 1.56 29.3521 2.2C29.3521 2.88 29.4921 3.36 29.7921 3.64C30.0721 3.92 30.5721 4.06 31.2721 4.06C31.9321 4.06 32.4121 3.92 32.7321 3.62C33.0521 3.32 33.2121 2.84 33.2121 2.2ZM32.7321 5.5H29.7321V17H32.7321V5.5ZM41.5566 7.64C42.5166 7.64 43.2366 7.92 43.6966 8.44C44.1566 8.98 44.3966 9.82 44.3966 10.96V17H47.3566V10.24C47.3566 8.66 46.9166 7.42 46.0766 6.52C45.2166 5.64 44.0366 5.18 42.5166 5.18C41.4766 5.18 40.5766 5.42 39.8166 5.88C39.0566 6.36 38.4966 7.02 38.1166 7.9L37.8566 5.5H35.3566V17H38.3166V11.36C38.3166 10.14 38.5766 9.22 39.1366 8.58C39.6766 7.96 40.4766 7.64 41.5566 7.64ZM71.571 17L76.191 2.74H73.251L70.051 13.06L66.391 2.74H64.111L60.171 12.92L57.471 2.74H54.511L58.451 17H61.271L65.211 7L68.791 17H71.571ZM87.9737 17V9.48C87.9737 8 87.4937 6.9 86.5737 6.22C85.6537 5.54 84.1937 5.18 82.1937 5.18C80.3537 5.18 78.8937 5.56 77.8337 6.32C76.7737 7.08 76.1737 8.14 76.0537 9.54H79.0737C79.1337 8.8 79.4337 8.26 79.9737 7.9C80.4937 7.56 81.3137 7.38 82.3937 7.38C83.3137 7.38 83.9937 7.52 84.4537 7.78C84.9137 8.04 85.1537 8.42 85.1537 8.92V8.94C85.1537 9.34 84.9537 9.64 84.5537 9.82C84.1537 10 83.3537 10.14 82.1337 10.26C80.6537 10.42 79.5937 10.56 78.9937 10.7C78.3737 10.84 77.8137 11.04 77.3337 11.32C76.7937 11.62 76.3937 12 76.1137 12.48C75.8337 12.96 75.7137 13.54 75.7137 14.18C75.7137 15.2 76.0737 15.98 76.7937 16.52C77.5137 17.08 78.5737 17.34 79.9337 17.34C81.1737 17.34 82.2737 17.1 83.1937 16.62C84.1137 16.14 84.8137 15.44 85.2937 14.54L85.5937 17H87.9737ZM80.8737 15.16C80.1937 15.16 79.6937 15.06 79.3737 14.84C79.0337 14.62 78.8737 14.28 78.8737 13.84V13.82C78.8737 13.58 78.9137 13.36 79.0337 13.18C79.1337 13 79.3137 12.84 79.5737 12.68C79.8137 12.54 80.1537 12.42 80.5737 12.32C80.9937 12.24 81.6737 12.14 82.5937 12.04C83.2737 11.96 83.8337 11.86 84.2337 11.74C84.6337 11.62 84.9537 11.46 85.1737 11.28V11.68C85.1737 12.6 84.7537 13.42 83.9137 14.12C83.0737 14.82 82.0537 15.16 80.8737 15.16ZM93.3938 12.28C93.3938 10.74 93.6538 9.7 94.1938 9.14C94.7338 8.6 95.7338 8.32 97.1938 8.32H98.4938V5.4H97.4338C96.2938 5.4 95.3738 5.66 94.6938 6.14C94.0138 6.64 93.5338 7.38 93.2738 8.38L92.9138 5.5H90.4738V17H93.3938V12.28ZM114.784 17L118.824 5.5H115.944L113.324 13.32L110.264 5.5H108.164L104.864 13.3L102.664 5.5H99.7035L103.184 17H105.784L109.164 9.32L112.224 17H114.784ZM123.779 2.2C123.779 1.56 123.619 1.1 123.319 0.799999C122.999 0.519999 122.519 0.36 121.839 0.36C121.159 0.36 120.659 0.519999 120.359 0.799999C120.059 1.1 119.919 1.56 119.919 2.2C119.919 2.88 120.059 3.36 120.359 3.64C120.639 3.92 121.139 4.06 121.839 4.06C122.499 4.06 122.979 3.92 123.299 3.62C123.619 3.32 123.779 2.84 123.779 2.2ZM123.299 5.5H120.299V17H123.299V5.5ZM131.844 17.34C133.824 17.34 135.364 16.92 136.484 16.04C137.604 15.16 138.224 13.9 138.364 12.22V12.18H135.264V12.2C135.124 13.1 134.784 13.76 134.244 14.2C133.684 14.64 132.904 14.84 131.904 14.84C130.744 14.84 129.884 14.56 129.284 13.96C128.684 13.38 128.384 12.52 128.384 11.4V11.24C128.384 10.08 128.684 9.2 129.304 8.56C129.904 7.94 130.784 7.62 131.924 7.62C132.904 7.62 133.664 7.84 134.224 8.26C134.764 8.7 135.104 9.34 135.244 10.2V10.24H138.364V10.22C138.204 8.6 137.564 7.36 136.444 6.48C135.324 5.62 133.824 5.18 131.904 5.18C129.904 5.18 128.324 5.74 127.144 6.82C125.944 7.92 125.364 9.4 125.364 11.24V11.42C125.364 13.36 125.904 14.84 127.004 15.84C128.104 16.84 129.724 17.34 131.844 17.34ZM152.859 17L148.019 9.94L152.719 5.5H148.919L143.099 11.02V1.68H140.259V17H143.099V14.04L145.799 11.52L149.459 17H152.859Z" fill="#232323"/>
</svg>
