<svg width="169" height="22" viewBox="0 0 169 22" fill="none" xmlns="http://www.w3.org/2000/svg">
<path d="M13.918 12.74C13.918 11.48 13.498 10.52 12.658 9.86C11.818 9.22 10.298 8.76 8.13797 8.5C6.51797 8.34 5.45797 8.12 4.95797 7.86C4.45797 7.6 4.21797 7.2 4.21797 6.64C4.21797 6.08 4.45797 5.64 4.93797 5.34C5.41797 5.04 6.11797 4.88 7.05797 4.88C8.21797 4.88 9.09797 5.06 9.65797 5.42C10.218 5.78 10.558 6.38 10.678 7.2H13.738C13.578 5.6 12.938 4.42 11.858 3.62C10.758 2.84 9.17797 2.44 7.11797 2.44C5.27797 2.44 3.85797 2.84 2.81797 3.6C1.77797 4.36 1.25797 5.4 1.25797 6.7C1.25797 7.94 1.63797 8.9 2.41797 9.54C3.19797 10.18 4.59797 10.64 6.63797 10.88C7.39797 10.96 7.95797 11.04 8.31797 11.08C8.67797 11.14 8.97797 11.2 9.23797 11.26C9.87797 11.42 10.318 11.62 10.598 11.86C10.858 12.1 10.998 12.44 10.998 12.86C10.998 13.5 10.718 13.98 10.178 14.3C9.61797 14.64 8.83797 14.8 7.81797 14.8C6.53797 14.8 5.57797 14.58 4.93797 14.14C4.29797 13.7 3.93797 12.98 3.83797 12.02H0.697969C0.877969 13.9 1.53797 15.26 2.65797 16.1C3.77797 16.94 5.47797 17.34 7.75797 17.34C9.69797 17.34 11.218 16.94 12.298 16.12C13.378 15.3 13.918 14.18 13.918 12.74ZM23.0102 14.36C21.8702 14.36 21.1502 14.2 20.8702 13.86C20.5702 13.54 20.4302 12.74 20.4302 11.48V8.06H24.2102V5.5H20.4302V2.4H17.9502C17.9502 2.68 17.9502 2.98 17.9302 3.32C17.9102 3.66 17.8902 3.94 17.8502 4.16C17.7702 4.72 17.6502 5.1 17.4902 5.3C17.3302 5.5 17.0102 5.6 16.5502 5.6C16.3502 5.62 16.1702 5.64 15.9702 5.64C15.7702 5.64 15.4502 5.64 15.0502 5.64V8.06H17.6902V11.98C17.6902 13.94 18.0102 15.28 18.6502 15.96C19.2902 16.66 20.4902 17 22.2502 17H24.2102V14.36H23.0102ZM37.8897 17V9.48C37.8897 8 37.4097 6.9 36.4897 6.22C35.5697 5.54 34.1097 5.18 32.1097 5.18C30.2697 5.18 28.8097 5.56 27.7497 6.32C26.6897 7.08 26.0897 8.14 25.9697 9.54H28.9897C29.0497 8.8 29.3497 8.26 29.8897 7.9C30.4097 7.56 31.2297 7.38 32.3097 7.38C33.2297 7.38 33.9097 7.52 34.3697 7.78C34.8297 8.04 35.0697 8.42 35.0697 8.92V8.94C35.0697 9.34 34.8697 9.64 34.4697 9.82C34.0697 10 33.2697 10.14 32.0497 10.26C30.5697 10.42 29.5097 10.56 28.9097 10.7C28.2897 10.84 27.7297 11.04 27.2497 11.32C26.7097 11.62 26.3097 12 26.0297 12.48C25.7497 12.96 25.6297 13.54 25.6297 14.18C25.6297 15.2 25.9897 15.98 26.7097 16.52C27.4297 17.08 28.4897 17.34 29.8497 17.34C31.0897 17.34 32.1897 17.1 33.1097 16.62C34.0297 16.14 34.7297 15.44 35.2097 14.54L35.5097 17H37.8897ZM30.7897 15.16C30.1097 15.16 29.6097 15.06 29.2897 14.84C28.9497 14.62 28.7897 14.28 28.7897 13.84V13.82C28.7897 13.58 28.8297 13.36 28.9497 13.18C29.0497 13 29.2297 12.84 29.4897 12.68C29.7297 12.54 30.0697 12.42 30.4897 12.32C30.9097 12.24 31.5897 12.14 32.5097 12.04C33.1897 11.96 33.7497 11.86 34.1497 11.74C34.5497 11.62 34.8697 11.46 35.0897 11.28V11.68C35.0897 12.6 34.6697 13.42 33.8297 14.12C32.9897 14.82 31.9697 15.16 30.7897 15.16ZM46.5898 7.64C47.5498 7.64 48.2698 7.92 48.7298 8.44C49.1898 8.98 49.4298 9.82 49.4298 10.96V17H52.3898V10.24C52.3898 8.66 51.9498 7.42 51.1098 6.52C50.2498 5.64 49.0698 5.18 47.5498 5.18C46.5098 5.18 45.6098 5.42 44.8498 5.88C44.0898 6.36 43.5298 7.02 43.1498 7.9L42.8898 5.5H40.3898V17H43.3498V11.36C43.3498 10.14 43.6098 9.22 44.1698 8.58C44.7098 7.96 45.5098 7.64 46.5898 7.64ZM58.3039 2.2C58.3039 1.56 58.1439 1.1 57.8439 0.799999C57.5239 0.519999 57.0439 0.36 56.3639 0.36C55.6839 0.36 55.1839 0.519999 54.8839 0.799999C54.5839 1.1 54.4439 1.56 54.4439 2.2C54.4439 2.88 54.5839 3.36 54.8839 3.64C55.1639 3.92 55.6639 4.06 56.3639 4.06C57.0239 4.06 57.5039 3.92 57.8239 3.62C58.1439 3.32 58.3039 2.84 58.3039 2.2ZM57.8239 5.5H54.8239V17H57.8239V5.5ZM79.9506 17L74.3106 8.04L79.6306 2.74H75.8906L69.2706 9.42V2.74H66.3506V17H69.2706V12.66L72.2106 9.76L76.5706 17H79.9506ZM84.2034 20.84C84.5234 20.6 84.8434 20.24 85.1634 19.76C85.4834 19.3 85.8634 18.6 86.3034 17.68L92.1234 5.5H89.0034L85.5034 13.22L85.3634 13.66L85.2434 13.2L81.7034 5.5H78.5434L83.9034 16.58L83.6234 17.18C83.2034 17.98 82.8034 18.5 82.4034 18.74C82.0034 18.98 81.4234 19.1 80.6234 19.1H79.1634V21.64H80.5434C81.5434 21.64 82.3234 21.58 82.8434 21.46C83.3634 21.34 83.8234 21.14 84.2034 20.84ZM96.2991 1.68H93.3591V17H96.2991V1.68ZM107.928 13.6C107.688 14.08 107.308 14.42 106.828 14.64C106.328 14.88 105.688 14.98 104.888 14.98C103.768 14.98 102.908 14.76 102.288 14.32C101.648 13.88 101.268 13.2 101.128 12.32H111.268V11.1C111.268 9.3 110.688 7.88 109.548 6.8C108.408 5.72 106.848 5.18 104.868 5.18C102.848 5.18 101.248 5.74 100.068 6.86C98.8678 7.98 98.2878 9.48 98.2878 11.32V11.5C98.2878 13.42 98.8278 14.86 99.9278 15.86C101.008 16.86 102.608 17.34 104.728 17.34C106.388 17.34 107.748 17.04 108.828 16.4C109.908 15.78 110.668 14.84 111.128 13.6H107.928ZM104.928 7.46C105.928 7.46 106.728 7.68 107.308 8.12C107.868 8.56 108.228 9.24 108.368 10.12H101.168C101.348 9.26 101.768 8.6 102.408 8.14C103.048 7.7 103.888 7.46 104.928 7.46ZM119.436 17.34C121.416 17.34 122.956 16.92 124.076 16.04C125.196 15.16 125.816 13.9 125.956 12.22V12.18H122.856V12.2C122.716 13.1 122.376 13.76 121.836 14.2C121.276 14.64 120.496 14.84 119.496 14.84C118.336 14.84 117.476 14.56 116.876 13.96C116.276 13.38 115.976 12.52 115.976 11.4V11.24C115.976 10.08 116.276 9.2 116.896 8.56C117.496 7.94 118.376 7.62 119.516 7.62C120.496 7.62 121.256 7.84 121.816 8.26C122.356 8.7 122.696 9.34 122.836 10.2V10.24H125.956V10.22C125.796 8.6 125.156 7.36 124.036 6.48C122.916 5.62 121.416 5.18 119.496 5.18C117.496 5.18 115.916 5.74 114.736 6.82C113.536 7.92 112.956 9.4 112.956 11.24V11.42C112.956 13.36 113.496 14.84 114.596 15.84C115.696 16.84 117.316 17.34 119.436 17.34ZM133.911 7.62C134.851 7.62 135.571 7.92 136.051 8.48C136.531 9.04 136.771 9.9 136.771 11.02V17H139.711V10.2C139.711 8.6 139.291 7.38 138.471 6.5C137.631 5.62 136.471 5.18 134.971 5.18C133.971 5.18 133.091 5.4 132.371 5.82C131.631 6.26 131.071 6.86 130.671 7.66V1.68H127.851V17H130.671V11.34C130.671 10.14 130.951 9.22 131.511 8.58C132.071 7.94 132.871 7.62 133.911 7.62ZM148.206 17.34C150.286 17.34 151.886 16.82 153.046 15.78C154.206 14.74 154.786 13.3 154.786 11.42V11.24C154.786 9.36 154.186 7.88 153.026 6.8C151.846 5.72 150.246 5.18 148.246 5.18C146.246 5.18 144.666 5.74 143.486 6.82C142.286 7.9 141.706 9.38 141.706 11.24V11.42C141.706 13.38 142.246 14.84 143.346 15.84C144.446 16.84 146.066 17.34 148.206 17.34ZM148.246 14.84C147.086 14.84 146.206 14.56 145.606 13.96C145.006 13.38 144.706 12.52 144.706 11.4V11.24C144.706 10.08 145.006 9.2 145.626 8.56C146.246 7.94 147.126 7.62 148.266 7.62C149.406 7.62 150.286 7.94 150.886 8.56C151.486 9.18 151.806 10.08 151.806 11.24V11.4C151.806 12.52 151.486 13.38 150.886 13.96C150.286 14.56 149.406 14.84 148.246 14.84ZM168.448 5.5H165.268L161.688 13.76L158.228 5.5H155.088L160.288 17H162.988L168.448 5.5Z" fill="#232323"/>
</svg>
