<svg width="220" height="86" viewBox="0 0 220 86" fill="none" xmlns="http://www.w3.org/2000/svg">
<rect width="220" height="86" rx="20" fill="white"/>
<path d="M27.9039 50V42.44H20.6039V44.9H24.9439C24.8439 45.82 24.4639 46.54 23.7839 47.04C23.1039 47.54 22.1639 47.78 20.9639 47.78C19.5639 47.78 18.5439 47.42 17.8639 46.7C17.1839 45.98 16.8639 44.86 16.8839 43.36V42.64C16.8839 41.12 17.2239 39.96 17.9239 39.2C18.6039 38.44 19.6639 38.06 21.0839 38.06C22.1439 38.06 22.9639 38.28 23.5639 38.72C24.1639 39.16 24.5239 39.82 24.6439 40.7H27.8239C27.6439 39 26.9839 37.7 25.8239 36.8C24.6639 35.9 23.0639 35.44 21.0639 35.44C18.8239 35.44 17.0639 36.08 15.7839 37.32C14.5039 38.58 13.8839 40.32 13.8839 42.56V43.42C13.8839 45.7 14.4239 47.42 15.5039 48.58C16.5839 49.76 18.1839 50.34 20.2839 50.34C21.7039 50.34 22.8639 50 23.7439 49.32C24.6239 48.64 25.1839 47.68 25.4039 46.4L25.6039 50H27.9039ZM39.5177 46.6C39.2777 47.08 38.8977 47.42 38.4177 47.64C37.9177 47.88 37.2777 47.98 36.4777 47.98C35.3577 47.98 34.4977 47.76 33.8777 47.32C33.2377 46.88 32.8577 46.2 32.7177 45.32H42.8577V44.1C42.8577 42.3 42.2777 40.88 41.1377 39.8C39.9977 38.72 38.4377 38.18 36.4577 38.18C34.4377 38.18 32.8377 38.74 31.6577 39.86C30.4577 40.98 29.8777 42.48 29.8777 44.32V44.5C29.8777 46.42 30.4177 47.86 31.5177 48.86C32.5977 49.86 34.1977 50.34 36.3177 50.34C37.9777 50.34 39.3377 50.04 40.4177 49.4C41.4977 48.78 42.2577 47.84 42.7177 46.6H39.5177ZM36.5177 40.46C37.5177 40.46 38.3177 40.68 38.8977 41.12C39.4577 41.56 39.8177 42.24 39.9577 43.12H32.7577C32.9377 42.26 33.3577 41.6 33.9977 41.14C34.6377 40.7 35.4777 40.46 36.5177 40.46ZM51.0456 50.34C53.1256 50.34 54.7256 49.82 55.8856 48.78C57.0456 47.74 57.6256 46.3 57.6256 44.42V44.24C57.6256 42.36 57.0256 40.88 55.8656 39.8C54.6856 38.72 53.0856 38.18 51.0856 38.18C49.0856 38.18 47.5056 38.74 46.3256 39.82C45.1256 40.9 44.5456 42.38 44.5456 44.24V44.42C44.5456 46.38 45.0856 47.84 46.1856 48.84C47.2856 49.84 48.9056 50.34 51.0456 50.34ZM51.0856 47.84C49.9256 47.84 49.0456 47.56 48.4456 46.96C47.8456 46.38 47.5456 45.52 47.5456 44.4V44.24C47.5456 43.08 47.8456 42.2 48.4656 41.56C49.0856 40.94 49.9656 40.62 51.1056 40.62C52.2456 40.62 53.1256 40.94 53.7256 41.56C54.3256 42.18 54.6456 43.08 54.6456 44.24V44.4C54.6456 45.52 54.3256 46.38 53.7256 46.96C53.1256 47.56 52.2456 47.84 51.0856 47.84ZM62.6341 45.28C62.6341 43.74 62.8941 42.7 63.4341 42.14C63.9741 41.6 64.9741 41.32 66.4341 41.32H67.7341V38.4H66.6741C65.5341 38.4 64.6141 38.66 63.9341 39.14C63.2541 39.64 62.7741 40.38 62.5141 41.38L62.1541 38.5H59.7141V50H62.6341V45.28ZM81.5425 51.08C81.5425 49.92 81.1225 49.08 80.2825 48.52C79.4425 47.96 78.1625 47.68 76.4425 47.68H73.8025C72.8425 47.68 72.1625 47.64 71.8025 47.52C71.4425 47.42 71.2625 47.24 71.2625 46.96C71.2625 46.64 71.4825 46.44 71.9625 46.32C72.4225 46.2 73.2425 46.14 74.4025 46.14H75.0625C76.9425 46.14 78.3625 45.82 79.3625 45.16C80.3625 44.5 80.8625 43.54 80.8625 42.28V42.24C80.8625 41.24 80.5225 40.46 79.8625 39.86C79.1825 39.28 78.2225 38.92 76.9425 38.78C78.6625 38.78 79.7625 38.62 80.2425 38.28C80.7225 37.94 80.9825 37.26 80.9825 36.24V35.96H77.6425V36.12C77.6425 37 77.4625 37.6 77.1425 37.88C76.8225 38.18 76.1025 38.34 75.0025 38.38L74.4625 38.4C72.7025 38.46 71.3625 38.82 70.4425 39.48C69.5025 40.16 69.0425 41.08 69.0425 42.24C69.0425 43.1 69.2625 43.8 69.7025 44.32C70.1425 44.84 70.8025 45.22 71.7225 45.44C70.7425 45.56 70.0025 45.84 69.5025 46.24C68.9825 46.64 68.7425 47.18 68.7425 47.82C68.7425 48.5 68.9625 49 69.4225 49.34C69.8825 49.7 70.6025 49.9 71.5625 49.96C70.5225 50.14 69.7625 50.44 69.2825 50.84C68.8025 51.26 68.5625 51.82 68.5625 52.52C68.5625 53.48 69.0425 54.16 70.0025 54.58C70.9625 55.02 72.4625 55.22 74.5425 55.22H74.9625C77.1225 55.22 78.7425 54.88 79.8625 54.18C80.9825 53.5 81.5425 52.48 81.5425 51.12V51.08ZM74.9225 44.14C73.8825 44.14 73.1425 44 72.6625 43.7C72.1825 43.42 71.9625 42.96 71.9625 42.32V42.3C71.9625 41.64 72.2025 41.14 72.6825 40.8C73.1625 40.48 73.8825 40.3 74.8625 40.3H75.0225C76.0425 40.3 76.8025 40.46 77.2825 40.78C77.7625 41.1 78.0025 41.58 78.0025 42.24V42.28C78.0025 42.92 77.7425 43.38 77.2425 43.68C76.7225 44 75.9625 44.14 74.9225 44.14ZM74.6025 52.86C73.5825 52.86 72.8025 52.76 72.2825 52.52C71.7625 52.28 71.5025 51.94 71.5025 51.5V51.46C71.5025 51.04 71.6825 50.7 72.0425 50.46C72.4025 50.22 72.9625 50.06 73.7225 50H76.2225C77.1425 50 77.8025 50.1 78.2025 50.28C78.6025 50.48 78.8025 50.8 78.8025 51.24V51.28C78.8025 51.82 78.5025 52.22 77.9025 52.48C77.3025 52.74 76.3825 52.86 75.1425 52.86H74.6025ZM91.9981 46.6C91.7581 47.08 91.3781 47.42 90.8981 47.64C90.3981 47.88 89.7581 47.98 88.9581 47.98C87.8381 47.98 86.9781 47.76 86.3581 47.32C85.7181 46.88 85.3381 46.2 85.1981 45.32H95.3381V44.1C95.3381 42.3 94.7581 40.88 93.6181 39.8C92.4781 38.72 90.9181 38.18 88.9381 38.18C86.9181 38.18 85.3181 38.74 84.1381 39.86C82.9381 40.98 82.3581 42.48 82.3581 44.32V44.5C82.3581 46.42 82.8981 47.86 83.9981 48.86C85.0781 49.86 86.6781 50.34 88.7981 50.34C90.4581 50.34 91.8181 50.04 92.8981 49.4C93.9781 48.78 94.7381 47.84 95.1981 46.6H91.9981ZM88.9981 40.46C89.9981 40.46 90.7981 40.68 91.3781 41.12C91.9381 41.56 92.2981 42.24 92.4381 43.12H85.2381C85.4181 42.26 85.8381 41.6 86.4781 41.14C87.1181 40.7 87.9581 40.46 88.9981 40.46ZM114.152 47.26H106.252V35.74H103.292V50H114.152V47.26ZM128.171 50V42.48C128.171 41 127.691 39.9 126.771 39.22C125.851 38.54 124.391 38.18 122.391 38.18C120.551 38.18 119.091 38.56 118.031 39.32C116.971 40.08 116.371 41.14 116.251 42.54H119.271C119.331 41.8 119.631 41.26 120.171 40.9C120.691 40.56 121.511 40.38 122.591 40.38C123.511 40.38 124.191 40.52 124.651 40.78C125.111 41.04 125.351 41.42 125.351 41.92V41.94C125.351 42.34 125.151 42.64 124.751 42.82C124.351 43 123.551 43.14 122.331 43.26C120.851 43.42 119.791 43.56 119.191 43.7C118.571 43.84 118.011 44.04 117.531 44.32C116.991 44.62 116.591 45 116.311 45.48C116.031 45.96 115.911 46.54 115.911 47.18C115.911 48.2 116.271 48.98 116.991 49.52C117.711 50.08 118.771 50.34 120.131 50.34C121.371 50.34 122.471 50.1 123.391 49.62C124.311 49.14 125.011 48.44 125.491 47.54L125.791 50H128.171ZM121.071 48.16C120.391 48.16 119.891 48.06 119.571 47.84C119.231 47.62 119.071 47.28 119.071 46.84V46.82C119.071 46.58 119.111 46.36 119.231 46.18C119.331 46 119.511 45.84 119.771 45.68C120.011 45.54 120.351 45.42 120.771 45.32C121.191 45.24 121.871 45.14 122.791 45.04C123.471 44.96 124.031 44.86 124.431 44.74C124.831 44.62 125.151 44.46 125.371 44.28V44.68C125.371 45.6 124.951 46.42 124.111 47.12C123.271 47.82 122.251 48.16 121.071 48.16ZM136.371 40.64C137.251 40.64 137.891 40.9 138.311 41.4C138.731 41.92 138.951 42.7 138.951 43.78V50H141.891V43.96C141.891 42.9 142.111 42.08 142.551 41.5C142.991 40.94 143.651 40.64 144.511 40.64C145.411 40.64 146.091 40.92 146.531 41.44C146.971 41.98 147.191 42.8 147.191 43.9V50H150.131V43.24C150.131 41.64 149.731 40.38 148.951 39.5C148.151 38.62 147.031 38.18 145.571 38.18C144.571 38.18 143.731 38.42 143.011 38.86C142.291 39.32 141.771 39.96 141.431 40.8C141.111 39.94 140.631 39.28 139.951 38.84C139.271 38.4 138.411 38.18 137.411 38.18C136.471 38.18 135.651 38.4 134.971 38.84C134.271 39.28 133.751 39.92 133.391 40.74L133.151 38.5H130.671V50H133.611V44.24C133.611 43.08 133.831 42.2 134.311 41.58C134.791 40.96 135.471 40.64 136.371 40.64ZM159.747 50.32C161.427 50.32 162.767 49.78 163.787 48.7C164.787 47.62 165.307 46.16 165.307 44.32V44.14C165.307 42.28 164.827 40.82 163.867 39.78C162.907 38.74 161.567 38.2 159.847 38.18C158.827 38.18 157.927 38.4 157.167 38.82C156.387 39.26 155.787 39.86 155.387 40.64V34.68H152.527V50H155.047L155.267 47.9C155.627 48.7 156.207 49.32 156.967 49.72C157.727 50.12 158.647 50.32 159.747 50.32ZM158.807 47.82C157.687 47.82 156.807 47.52 156.207 46.9C155.607 46.3 155.307 45.42 155.307 44.26V44.14C155.307 43.06 155.627 42.18 156.267 41.54C156.907 40.9 157.767 40.58 158.867 40.58C159.967 40.58 160.827 40.9 161.427 41.52C162.027 42.16 162.327 43.04 162.327 44.18V44.32C162.327 45.5 162.027 46.38 161.447 46.96C160.847 47.54 159.967 47.82 158.807 47.82ZM176.725 46.6C176.485 47.08 176.105 47.42 175.625 47.64C175.125 47.88 174.485 47.98 173.685 47.98C172.565 47.98 171.705 47.76 171.085 47.32C170.445 46.88 170.065 46.2 169.925 45.32H180.065V44.1C180.065 42.3 179.485 40.88 178.345 39.8C177.205 38.72 175.645 38.18 173.665 38.18C171.645 38.18 170.045 38.74 168.865 39.86C167.665 40.98 167.085 42.48 167.085 44.32V44.5C167.085 46.42 167.625 47.86 168.725 48.86C169.805 49.86 171.405 50.34 173.525 50.34C175.185 50.34 176.545 50.04 177.625 49.4C178.705 48.78 179.465 47.84 179.925 46.6H176.725ZM173.725 40.46C174.725 40.46 175.525 40.68 176.105 41.12C176.665 41.56 177.025 42.24 177.165 43.12H169.965C170.145 42.26 170.565 41.6 171.205 41.14C171.845 40.7 172.685 40.46 173.725 40.46ZM188.76 47.36C187.62 47.36 186.9 47.2 186.62 46.86C186.32 46.54 186.18 45.74 186.18 44.48V41.06H189.96V38.5H186.18V35.4H183.7C183.7 35.68 183.7 35.98 183.68 36.32C183.66 36.66 183.64 36.94 183.6 37.16C183.52 37.72 183.4 38.1 183.24 38.3C183.08 38.5 182.76 38.6 182.3 38.6C182.1 38.62 181.92 38.64 181.72 38.64C181.52 38.64 181.2 38.64 180.8 38.64V41.06H183.44V44.98C183.44 46.94 183.76 48.28 184.4 48.96C185.04 49.66 186.24 50 188 50H189.96V47.36H188.76ZM197.982 40.62C198.922 40.62 199.642 40.92 200.122 41.48C200.602 42.04 200.842 42.9 200.842 44.02V50H203.782V43.2C203.782 41.6 203.362 40.38 202.542 39.5C201.702 38.62 200.542 38.18 199.042 38.18C198.042 38.18 197.162 38.4 196.442 38.82C195.702 39.26 195.142 39.86 194.742 40.66V34.68H191.922V50H194.742V44.34C194.742 43.14 195.022 42.22 195.582 41.58C196.142 40.94 196.942 40.62 197.982 40.62Z" fill="#232323"/>
</svg>
