<svg width="181" height="28" viewBox="0 0 181 28" fill="none" xmlns="http://www.w3.org/2000/svg"><path d="M9.223 18.176c.33.751.781 1.442 1.322 2.043a7.618 7.618 0 0 1-3.725.931C2.854 21.15 0 18.506 0 14.27c0-4.266 3.004-6.91 6.82-6.91 1.352 0 2.433.3 3.515.872a7.909 7.909 0 0 0-1.232 2.133 5.218 5.218 0 0 0-2.013-.39c-2.343 0-4.176 1.531-4.176 4.295 0 2.614 1.773 4.297 4.266 4.297.751 0 1.412-.12 2.043-.391zM17.184 7.39c3.906 0 6.7 2.793 6.7 6.91 0 4.085-2.824 6.88-6.7 6.88-3.875 0-6.669-2.795-6.669-6.88 0-4.117 2.824-6.91 6.67-6.91zm0 2.523c-2.163 0-3.755 1.683-3.755 4.386 0 2.644 1.592 4.357 3.755 4.357 2.224 0 3.786-1.683 3.786-4.357 0-2.704-1.532-4.386-3.785-4.386zm8.563 10.936V7.66h2.914v13.19h-2.914zm-.36-17.215c0-1.021.84-1.802 1.802-1.802.961 0 1.802.81 1.802 1.802 0 1.052-.84 1.863-1.802 1.863-.962 0-1.803-.841-1.803-1.863zm5.797 4.867c1.803-.72 4.056-1.142 5.949-1.142 3.305 0 5.438 1.292 5.438 4.988v8.472h-2.884v-8.172c0-1.893-1.172-2.584-2.794-2.584-1.022 0-2.043.15-2.824.39V20.88h-2.915V8.502h.03zM45.005.631h2.914v7.42c.601-.33 1.803-.66 2.975-.66 3.755 0 6.58 2.433 6.58 6.669 0 4.266-2.795 7.12-7.602 7.12-1.862 0-3.515-.39-4.837-.871V.631h-.03zm2.884 17.725c.571.18 1.292.27 2.013.27 2.674 0 4.567-1.502 4.567-4.536 0-2.554-1.803-4.086-3.996-4.086-1.142 0-2.013.3-2.614.631v7.721h.03zm17.906-6.339c0-1.442-1.051-2.073-2.494-2.073-1.502 0-2.673.45-3.755 1.082V8.442c1.142-.66 2.614-1.082 4.206-1.082 2.854 0 4.867 1.202 4.867 4.507v8.712c-1.232.33-2.974.541-4.446.541-3.365 0-5.829-1.051-5.829-4.026 0-2.673 2.254-3.995 6.009-3.995h1.442v-1.082zm0 3.065h-1.232c-2.013 0-3.334.6-3.334 1.922 0 1.382 1.231 1.893 3.004 1.893.45 0 1.051-.06 1.592-.15l-.03-3.665zm4.957 2.193c1.202.931 2.644 1.502 3.966 1.502 1.292 0 2.133-.45 2.133-1.502 0-1.082-.751-1.472-2.434-1.893-2.704-.631-3.845-1.713-3.845-4.026 0-2.674 1.983-3.996 4.626-3.996 1.472 0 2.644.33 3.726 1.022v2.704c-1.142-.841-2.254-1.352-3.636-1.352-1.261 0-1.922.63-1.922 1.502 0 .871.57 1.322 2.043 1.712 2.974.661 4.236 1.773 4.236 4.176 0 2.764-2.073 4.026-4.897 4.026-1.532 0-3.035-.42-4.026-1.081v-2.794h.03zM83.64 14.93v.06c.18 2.344 2.164 3.636 4.207 3.636 1.802 0 3.064-.421 4.356-1.292v2.583c-1.172.842-2.915 1.232-4.567 1.232-4.056 0-6.79-2.614-6.79-6.79 0-4.205 2.704-7 6.28-7 3.785 0 5.557 2.464 5.557 6.07v1.501H83.64zm6.31-1.892c-.06-2.043-1.052-3.185-2.945-3.185-1.682 0-2.914 1.202-3.274 3.185h6.218z" fill="#0667D0"/><path d="M9.223 18.176c.33.751.781 1.442 1.322 2.043a7.618 7.618 0 0 1-3.725.931C2.854 21.15 0 18.506 0 14.27c0-4.266 3.004-6.91 6.82-6.91 1.352 0 2.433.3 3.515.872a7.909 7.909 0 0 0-1.232 2.133 5.218 5.218 0 0 0-2.013-.39c-2.343 0-4.176 1.531-4.176 4.295 0 2.614 1.773 4.297 4.266 4.297.751 0 1.412-.12 2.043-.391zM17.184 7.39c3.906 0 6.7 2.793 6.7 6.91 0 4.085-2.824 6.88-6.7 6.88-3.875 0-6.669-2.795-6.669-6.88 0-4.117 2.824-6.91 6.67-6.91zm0 2.523c-2.163 0-3.755 1.683-3.755 4.386 0 2.644 1.592 4.357 3.755 4.357 2.224 0 3.786-1.683 3.786-4.357 0-2.704-1.532-4.386-3.785-4.386zm8.563 10.936V7.66h2.914v13.19h-2.914zm-.36-17.215c0-1.021.84-1.802 1.802-1.802.961 0 1.802.81 1.802 1.802 0 1.052-.84 1.863-1.802 1.863-.962 0-1.803-.841-1.803-1.863zm5.797 4.867c1.803-.72 4.056-1.142 5.949-1.142 3.305 0 5.438 1.292 5.438 4.988v8.472h-2.884v-8.172c0-1.893-1.172-2.584-2.794-2.584-1.022 0-2.043.15-2.824.39V20.88h-2.915V8.502h.03zM45.005.631h2.914v7.42c.601-.33 1.803-.66 2.975-.66 3.755 0 6.58 2.433 6.58 6.669 0 4.266-2.795 7.12-7.602 7.12-1.862 0-3.515-.39-4.837-.871V.631h-.03zm2.884 17.725c.571.18 1.292.27 2.013.27 2.674 0 4.567-1.502 4.567-4.536 0-2.554-1.803-4.086-3.996-4.086-1.142 0-2.013.3-2.614.631v7.721h.03zm17.906-6.339c0-1.442-1.051-2.073-2.494-2.073-1.502 0-2.673.45-3.755 1.082V8.442c1.142-.66 2.614-1.082 4.206-1.082 2.854 0 4.867 1.202 4.867 4.507v8.712c-1.232.33-2.974.541-4.446.541-3.365 0-5.829-1.051-5.829-4.026 0-2.673 2.254-3.995 6.009-3.995h1.442v-1.082zm0 3.065h-1.232c-2.013 0-3.334.6-3.334 1.922 0 1.382 1.231 1.893 3.004 1.893.45 0 1.051-.06 1.592-.15l-.03-3.665zm4.957 2.193c1.202.931 2.644 1.502 3.966 1.502 1.292 0 2.133-.45 2.133-1.502 0-1.082-.751-1.472-2.434-1.893-2.704-.631-3.845-1.713-3.845-4.026 0-2.674 1.983-3.996 4.626-3.996 1.472 0 2.644.33 3.726 1.022v2.704c-1.142-.841-2.254-1.352-3.636-1.352-1.261 0-1.922.63-1.922 1.502 0 .871.57 1.322 2.043 1.712 2.974.661 4.236 1.773 4.236 4.176 0 2.764-2.073 4.026-4.897 4.026-1.532 0-3.035-.42-4.026-1.081v-2.794h.03zM83.64 14.93v.06c.18 2.344 2.164 3.636 4.207 3.636 1.802 0 3.064-.421 4.356-1.292v2.583c-1.172.842-2.915 1.232-4.567 1.232-4.056 0-6.79-2.614-6.79-6.79 0-4.205 2.704-7 6.28-7 3.785 0 5.557 2.464 5.557 6.07v1.501H83.64zm6.31-1.892c-.06-2.043-1.052-3.185-2.945-3.185-1.682 0-2.914 1.202-3.274 3.185h6.218z" fill="#0666CF"/><path d="M103.017 0h.27c.271 0 .481.21.481.48v27.04c0 .27-.21.48-.481.48h-.27a.474.474 0 0 1-.481-.48V.48c0-.27.24-.48.481-.48z" fill="#989898"/><path d="M119.751 20.88h-1.623l-4.987-13.31h1.472l4.386 11.928 4.387-11.927h1.412l-5.047 13.309zm12.948-4.807h-7.21v.03c0 2.403 1.682 3.815 3.545 3.815 1.352 0 2.283-.36 3.244-1.111v1.352c-.841.66-2.073.931-3.244.931-2.764 0-4.867-1.923-4.867-5.107 0-2.944 1.953-5.107 4.536-5.107 2.404 0 3.996 1.472 3.996 4.266v.93zm-7.12-1.142h5.828c-.09-2.043-1.171-2.854-2.764-2.854-1.472 0-2.674 1.022-3.064 2.854zm8.592 5.949v-9.253c1.262-.481 2.704-.752 3.996-.752 2.403 0 3.875.962 3.875 3.395v6.58h-1.321v-6.31c0-1.982-1.382-2.433-2.674-2.433-.992 0-1.893.18-2.584.36v8.383h-1.292v.03zm8.683-8.622v-1.142h1.472V8.742h1.322v2.374h2.673v1.142h-2.673v5.948c0 1.262.48 1.742 1.382 1.742.6 0 1.111-.21 1.772-.54v1.201c-.571.3-1.232.481-2.043.481-1.382 0-2.403-.751-2.403-2.764v-6.099h-1.502v.03zm14.6-1.142v9.644c-1.171.21-2.343.33-3.334.33-2.764 0-4.327-.961-4.327-3.395v-6.58h1.322v6.52c0 1.833 1.412 2.313 2.945 2.313.661 0 1.412-.03 2.103-.12v-8.682h1.291v-.03zm3.545 1.622v8.142h-1.321v-8.863a6.395 6.395 0 0 1 3.545-1.051c.51 0 1.051.06 1.592.21v1.322c-.571-.21-1.232-.24-1.682-.24-.932-.03-1.653.18-2.134.48zm12.318 3.335h-7.21v.03c0 2.403 1.682 3.815 3.545 3.815 1.352 0 2.283-.36 3.244-1.111v1.352c-.841.66-2.072.931-3.244.931-2.764 0-4.867-1.923-4.867-5.107 0-2.944 1.953-5.107 4.536-5.107 2.404 0 3.996 1.472 3.996 4.266v.93zm-7.12-1.142h5.828c-.09-2.043-1.171-2.854-2.764-2.854-1.502 0-2.704 1.022-3.064 2.854zm8.111 5.378v-1.532c.812.75 1.653 1.171 2.674 1.171 1.202 0 1.953-.48 1.953-1.562 0-1.171-.841-1.472-2.343-1.983-1.683-.57-2.404-1.291-2.404-2.854 0-1.712 1.262-2.643 3.005-2.643.931 0 1.862.21 2.613.75V13.1c-.751-.631-1.502-1.052-2.613-1.052-1.052 0-1.713.571-1.713 1.502 0 .902.511 1.352 1.983 1.833 1.652.51 2.764 1.172 2.764 2.944 0 1.923-1.472 2.794-3.245 2.794-1.051-.03-2.073-.33-2.674-.811z" fill="#000"/></svg>