<svg width="105" height="34" viewBox="0 0 105 34" fill="none" xmlns="http://www.w3.org/2000/svg"><path d="M0 27.855V0l10.2 5.735V34L0 27.855zM15.403 27.855V0l10.2 5.735V34l-10.2-6.145zM30.808 27.855V0l10.2 5.735V34l-10.2-6.145zM62.494 3.25h3.793V20.4H62.18l-4.033-6.57c-1.385-2.223-2.392-3.946-3.02-5.17.097 1.98.145 4.195.145 6.643v5.096H51.48V3.25h4.203l4.372 7.15c1.208 1.965 2.053 3.39 2.536 4.276-.064-1.353-.097-3.326-.097-5.918V3.249zM76.723 13.926V10.64h8.164v9.758h-2.97l-.146-1.473c-.982 1.256-2.552 1.884-4.71 1.884-2.576 0-4.621-.838-6.135-2.512-1.514-1.675-2.27-3.84-2.27-6.498-.033-2.609.756-4.758 2.367-6.45 1.626-1.706 3.768-2.543 6.425-2.511 1.497 0 2.818.241 3.961.724 1.16.484 2.335 1.305 3.527 2.464l-2.464 2.56c-.966-.853-1.828-1.449-2.585-1.787a5.911 5.911 0 0 0-2.44-.507c-1.48 0-2.656.475-3.526 1.425-.853.95-1.28 2.303-1.28 4.058 0 1.803.419 3.196 1.256 4.179.853.966 2.013 1.449 3.478 1.449 1.256 0 2.23-.298 2.923-.894.709-.612 1.063-1.449 1.063-2.512v-.072h-4.638zM95.632 2.815c1.369 0 2.536.201 3.502.604.983.418 1.989 1.095 3.02 2.029l-2.295 2.705c-.853-.725-1.586-1.216-2.198-1.474-.596-.273-1.28-.41-2.053-.41-1.433 0-2.577.499-3.43 1.497-.837.983-1.256 2.327-1.256 4.034 0 1.723.419 3.084 1.256 4.082.853.999 1.989 1.498 3.406 1.498.837 0 1.562-.153 2.174-.46.628-.289 1.425-.82 2.391-1.593l2.246 2.657c-1.063.982-2.133 1.707-3.212 2.174-1.063.45-2.247.676-3.551.676-2.64 0-4.75-.846-6.328-2.536-1.579-1.707-2.368-3.89-2.368-6.546 0-2.609.781-4.75 2.343-6.425 1.562-1.675 3.68-2.512 6.353-2.512zM54.363 31.734l2.375-7.025h-.634L54.01 31.12h-.04l-2.073-6.41h-.654l2.355 7.024h.765zM61.463 31.855c.976 0 1.69-.503 2.013-1.258l-.423-.282c-.282.674-.825 1.037-1.56 1.037-1.057 0-1.68-.755-1.68-1.832v-.252h3.814v-.271c0-1.51-.856-2.537-2.174-2.537-1.369 0-2.245 1.007-2.245 2.698 0 1.69.876 2.697 2.255 2.697zm-.01-4.911c.926 0 1.55.714 1.55 1.801v.08h-3.19v-.05c0-1.087.643-1.831 1.64-1.831zM67.672 31.734v-3.623c0-.765.675-1.137 1.4-1.137.855 0 1.318.503 1.318 1.55v3.21h.573v-3.31c0-1.259-.644-1.963-1.74-1.963-.826 0-1.29.402-1.52.936h-.03v-.816h-.575v5.153h.574zM76.695 31.734v-.503h-1.087v-4.147h1.167v-.503h-1.167v-1.439h-.524v1.047c0 .292-.08.392-.362.392h-.584v.503h.896V31.1c0 .383.221.634.634.634h1.027zM83.387 31.734h.574v-5.153h-.574v3.613c0 .775-.674 1.148-1.389 1.148-.855 0-1.328-.503-1.328-1.56v-3.2h-.574v3.31c0 1.259.654 1.963 1.751 1.963.886 0 1.309-.453 1.5-.936h.04v.815zM88.424 31.734v-3.522c0-.665.614-1.067 1.47-1.067h.452v-.564h-.342c-.886 0-1.339.443-1.54.926h-.04v-.926h-.574v5.153h.574zM95.273 31.855c.976 0 1.69-.503 2.013-1.258l-.423-.282c-.282.674-.825 1.037-1.56 1.037-1.057 0-1.68-.755-1.68-1.832v-.252h3.814v-.271c0-1.51-.856-2.537-2.174-2.537-1.37 0-2.245 1.007-2.245 2.698 0 1.69.876 2.697 2.255 2.697zm-.01-4.911c.926 0 1.55.714 1.55 1.801v.08h-3.19v-.05c0-1.087.643-1.831 1.64-1.831zM102.368 31.855c1.137 0 1.831-.574 1.831-1.53 0-.825-.493-1.278-1.539-1.439l-.413-.06c-.735-.121-1.107-.353-1.107-.946 0-.584.433-.926 1.167-.926.715 0 1.138.332 1.409.654l.383-.352c-.383-.463-.906-.796-1.761-.796-.997 0-1.752.484-1.752 1.45 0 .926.644 1.298 1.58 1.439l.423.07c.745.111 1.057.423 1.057.967 0 .624-.453.976-1.238.976-.684 0-1.178-.272-1.6-.825l-.423.332c.463.634 1.087.986 1.983.986z" fill="#033160"/></svg>