<svg width="107" height="18" viewBox="0 0 107 18" fill="none" xmlns="http://www.w3.org/2000/svg">
<path d="M12.0538 11.36C11.9138 12.48 11.5338 13.32 10.8938 13.84C10.2538 14.36 9.33375 14.62 8.15375 14.62C6.79375 14.62 5.75375 14.26 5.03375 13.52C4.31375 12.78 3.97375 11.7 3.97375 10.26V9.66C3.97375 8.14 4.31375 7 5.03375 6.22C5.75375 5.46 6.79375 5.06 8.19375 5.06C9.31375 5.06 10.2138 5.32 10.8538 5.82C11.4938 6.32 11.8738 7.06 12.0138 8.06H15.1138C14.8338 6.24 14.1138 4.84 12.9338 3.88C11.7538 2.92 10.1738 2.44 8.19375 2.44C5.95375 2.44 4.17375 3.08 2.89375 4.34C1.61375 5.6 0.97375 7.34 0.97375 9.54V10.36C0.97375 12.64 1.57375 14.36 2.77375 15.56C3.97375 16.76 5.71375 17.34 7.99375 17.34C10.1538 17.34 11.8138 16.86 13.0138 15.86C14.2138 14.86 14.9338 13.36 15.1938 11.36H12.0538ZM28.8155 17V9.48C28.8155 8 28.3355 6.9 27.4155 6.22C26.4955 5.54 25.0355 5.18 23.0355 5.18C21.1955 5.18 19.7355 5.56 18.6755 6.32C17.6155 7.08 17.0155 8.14 16.8955 9.54H19.9155C19.9755 8.8 20.2755 8.26 20.8155 7.9C21.3355 7.56 22.1555 7.38 23.2355 7.38C24.1555 7.38 24.8355 7.52 25.2955 7.78C25.7555 8.04 25.9955 8.42 25.9955 8.92V8.94C25.9955 9.34 25.7955 9.64 25.3955 9.82C24.9955 10 24.1955 10.14 22.9755 10.26C21.4955 10.42 20.4355 10.56 19.8355 10.7C19.2155 10.84 18.6555 11.04 18.1755 11.32C17.6355 11.62 17.2355 12 16.9555 12.48C16.6755 12.96 16.5555 13.54 16.5555 14.18C16.5555 15.2 16.9155 15.98 17.6355 16.52C18.3555 17.08 19.4155 17.34 20.7755 17.34C22.0155 17.34 23.1155 17.1 24.0355 16.62C24.9555 16.14 25.6555 15.44 26.1355 14.54L26.4355 17H28.8155ZM21.7155 15.16C21.0355 15.16 20.5355 15.06 20.2155 14.84C19.8755 14.62 19.7155 14.28 19.7155 13.84V13.82C19.7155 13.58 19.7555 13.36 19.8755 13.18C19.9755 13 20.1555 12.84 20.4155 12.68C20.6555 12.54 20.9955 12.42 21.4155 12.32C21.8355 12.24 22.5155 12.14 23.4355 12.04C24.1155 11.96 24.6755 11.86 25.0755 11.74C25.4755 11.62 25.7955 11.46 26.0155 11.28V11.68C26.0155 12.6 25.5955 13.42 24.7555 14.12C23.9155 14.82 22.8955 15.16 21.7155 15.16ZM34.2756 1.68H31.3356V17H34.2756V1.68ZM48.8463 5.5H45.6663L42.0863 13.76L38.6263 5.5H35.4863L40.6862 17H43.3863L48.8463 5.5ZM53.7219 2.2C53.7219 1.56 53.5619 1.1 53.2619 0.799999C52.9419 0.519999 52.4619 0.36 51.7819 0.36C51.1019 0.36 50.6019 0.519999 50.3019 0.799999C50.0019 1.1 49.8619 1.56 49.8619 2.2C49.8619 2.88 50.0019 3.36 50.3019 3.64C50.5819 3.92 51.0819 4.06 51.7819 4.06C52.4419 4.06 52.9219 3.92 53.2419 3.62C53.5619 3.32 53.7219 2.84 53.7219 2.2ZM53.2419 5.5H50.2419V17H53.2419V5.5ZM62.0664 7.64C63.0264 7.64 63.7464 7.92 64.2064 8.44C64.6664 8.98 64.9064 9.82 64.9064 10.96V17H67.8664V10.24C67.8664 8.66 67.4264 7.42 66.5864 6.52C65.7264 5.64 64.5464 5.18 63.0264 5.18C61.9864 5.18 61.0864 5.42 60.3264 5.88C59.5664 6.36 59.0064 7.02 58.6264 7.9L58.3664 5.5H55.8664V17H58.8264V11.36C58.8264 10.14 59.0864 9.22 59.6464 8.58C60.1864 7.96 60.9864 7.64 62.0664 7.64ZM87.1208 14.26H79.2208V2.74H76.2608V17H87.1208V14.26ZM92.9992 2.2C92.9992 1.56 92.8392 1.1 92.5392 0.799999C92.2192 0.519999 91.7392 0.36 91.0592 0.36C90.3792 0.36 89.8792 0.519999 89.5792 0.799999C89.2792 1.1 89.1392 1.56 89.1392 2.2C89.1392 2.88 89.2792 3.36 89.5792 3.64C89.8592 3.92 90.3592 4.06 91.0592 4.06C91.7192 4.06 92.1992 3.92 92.5192 3.62C92.8392 3.32 92.9992 2.84 92.9992 2.2ZM92.5192 5.5H89.5192V17H92.5192V5.5ZM106.625 17V5.5H103.645V11.26C103.645 12.38 103.385 13.24 102.865 13.86C102.345 14.5 101.645 14.8 100.745 14.8C99.7847 14.8 99.0847 14.54 98.6447 14.02C98.1847 13.5 97.9647 12.7 97.9647 11.58V5.5H95.0047V12.3C95.0047 13.9 95.4047 15.14 96.2047 16C97.0047 16.88 98.1447 17.3 99.6447 17.3C100.665 17.3 101.545 17.08 102.265 16.62C102.985 16.18 103.505 15.52 103.865 14.66L104.125 17H106.625Z" fill="#232323"/>
</svg>
