<svg width="733" height="219" viewBox="0 0 733 219" fill="none" xmlns="http://www.w3.org/2000/svg">
<g filter="url(#filter0_d_1595_29765)">
<path opacity="0.8" d="M86.8011 181.864C86.7415 181.36 86.4995 180.969 86.0753 180.69C85.651 180.412 85.1307 180.273 84.5142 180.273C84.0634 180.273 83.669 180.346 83.331 180.491C82.9962 180.637 82.7344 180.838 82.5455 181.093C82.3598 181.348 82.267 181.638 82.267 181.963C82.267 182.235 82.3317 182.469 82.4609 182.664C82.5935 182.856 82.7625 183.017 82.968 183.146C83.1735 183.272 83.389 183.377 83.6143 183.46C83.8397 183.539 84.0469 183.604 84.2358 183.653L85.2699 183.932C85.535 184.001 85.83 184.098 86.1548 184.22C86.483 184.343 86.7962 184.51 87.0945 184.722C87.3961 184.931 87.6446 185.2 87.8402 185.528C88.0357 185.856 88.1335 186.259 88.1335 186.736C88.1335 187.286 87.9893 187.783 87.701 188.227C87.416 188.671 86.9983 189.024 86.4482 189.286C85.9013 189.548 85.2367 189.679 84.4545 189.679C83.7254 189.679 83.094 189.561 82.5604 189.326C82.0301 189.091 81.6125 188.763 81.3075 188.342C81.0059 187.921 80.8352 187.432 80.7955 186.875H82.0682C82.1013 187.259 82.2306 187.578 82.456 187.83C82.6847 188.078 82.973 188.264 83.321 188.386C83.6723 188.506 84.0502 188.565 84.4545 188.565C84.9252 188.565 85.3478 188.489 85.7223 188.337C86.0968 188.181 86.3935 187.965 86.6122 187.69C86.831 187.412 86.9403 187.087 86.9403 186.716C86.9403 186.378 86.8459 186.103 86.657 185.891C86.468 185.679 86.2195 185.506 85.9112 185.374C85.603 185.241 85.2699 185.125 84.9119 185.026L83.6591 184.668C82.8636 184.439 82.2339 184.112 81.7699 183.688C81.3059 183.264 81.0739 182.709 81.0739 182.023C81.0739 181.453 81.228 180.955 81.5362 180.531C81.8478 180.104 82.2654 179.772 82.7891 179.537C83.3161 179.298 83.9044 179.179 84.554 179.179C85.2102 179.179 85.7936 179.297 86.304 179.532C86.8144 179.764 87.2188 180.082 87.517 180.487C87.8187 180.891 87.9777 181.35 87.9943 181.864H86.8011ZM93.2033 189.659C92.4675 189.659 91.8328 189.497 91.2992 189.172C90.7689 188.844 90.3596 188.386 90.0712 187.8C89.7862 187.21 89.6436 186.524 89.6436 185.741C89.6436 184.959 89.7862 184.27 90.0712 183.673C90.3596 183.073 90.7606 182.606 91.2743 182.271C91.7914 181.933 92.3946 181.764 93.084 181.764C93.4817 181.764 93.8745 181.83 94.2623 181.963C94.65 182.096 95.003 182.311 95.3212 182.609C95.6394 182.904 95.8929 183.295 96.0819 183.783C96.2708 184.27 96.3652 184.87 96.3652 185.582V186.08H90.4789V185.065H95.1721C95.1721 184.634 95.0859 184.25 94.9135 183.912C94.7445 183.574 94.5025 183.307 94.1877 183.112C93.8761 182.916 93.5082 182.818 93.084 182.818C92.6167 182.818 92.2123 182.934 91.8709 183.166C91.5328 183.395 91.2727 183.693 91.0904 184.061C90.9081 184.429 90.8169 184.823 90.8169 185.244V185.92C90.8169 186.497 90.9164 186.986 91.1152 187.387C91.3174 187.785 91.5975 188.088 91.9554 188.297C92.3134 188.502 92.7293 188.605 93.2033 188.605C93.5115 188.605 93.79 188.562 94.0385 188.476C94.2904 188.386 94.5075 188.254 94.6898 188.078C94.8721 187.899 95.013 187.677 95.1124 187.412L96.2459 187.73C96.1266 188.115 95.9261 188.453 95.6444 188.744C95.3626 189.033 95.0146 189.258 94.6003 189.42C94.186 189.58 93.7203 189.659 93.2033 189.659ZM99.3233 179.318V189.5H98.15V179.318H99.3233ZM102.646 179.318V189.5H101.472V179.318H102.646ZM107.996 189.659C107.26 189.659 106.626 189.497 106.092 189.172C105.562 188.844 105.153 188.386 104.864 187.8C104.579 187.21 104.437 186.524 104.437 185.741C104.437 184.959 104.579 184.27 104.864 183.673C105.153 183.073 105.554 182.606 106.067 182.271C106.584 181.933 107.188 181.764 107.877 181.764C108.275 181.764 108.667 181.83 109.055 181.963C109.443 182.096 109.796 182.311 110.114 182.609C110.432 182.904 110.686 183.295 110.875 183.783C111.064 184.27 111.158 184.87 111.158 185.582V186.08H105.272V185.065H109.965C109.965 184.634 109.879 184.25 109.706 183.912C109.537 183.574 109.296 183.307 108.981 183.112C108.669 182.916 108.301 182.818 107.877 182.818C107.41 182.818 107.005 182.934 106.664 183.166C106.326 183.395 106.066 183.693 105.883 184.061C105.701 184.429 105.61 184.823 105.61 185.244V185.92C105.61 186.497 105.709 186.986 105.908 187.387C106.11 187.785 106.39 188.088 106.748 188.297C107.106 188.502 107.522 188.605 107.996 188.605C108.305 188.605 108.583 188.562 108.831 188.476C109.083 188.386 109.3 188.254 109.483 188.078C109.665 187.899 109.806 187.677 109.905 187.412L111.039 187.73C110.92 188.115 110.719 188.453 110.437 188.744C110.156 189.033 109.808 189.258 109.393 189.42C108.979 189.58 108.513 189.659 107.996 189.659ZM112.943 189.5V181.864H114.077V183.017H114.156C114.295 182.639 114.547 182.333 114.912 182.097C115.276 181.862 115.687 181.744 116.145 181.744C116.231 181.744 116.339 181.746 116.468 181.749C116.597 181.753 116.695 181.758 116.761 181.764V182.957C116.721 182.947 116.63 182.933 116.488 182.913C116.349 182.889 116.201 182.878 116.045 182.878C115.674 182.878 115.343 182.956 115.051 183.112C114.763 183.264 114.534 183.476 114.365 183.748C114.199 184.016 114.116 184.323 114.116 184.668V189.5H112.943Z" fill="#171717"/>
<rect x="5.5" y="154.5" width="187" height="59" rx="29.5" stroke="#363636" shape-rendering="crispEdges"/>
</g>
<g filter="url(#filter1_d_1595_29765)">
<path opacity="0.8" d="M615.733 189.5V179.318H619.293C620.002 179.318 620.587 179.441 621.048 179.686C621.508 179.928 621.851 180.254 622.077 180.665C622.302 181.073 622.415 181.526 622.415 182.023C622.415 182.46 622.337 182.821 622.181 183.107C622.029 183.392 621.826 183.617 621.575 183.783C621.326 183.948 621.056 184.071 620.764 184.151V184.25C621.076 184.27 621.389 184.379 621.704 184.578C622.019 184.777 622.282 185.062 622.494 185.433C622.706 185.804 622.812 186.259 622.812 186.795C622.812 187.306 622.696 187.765 622.464 188.173C622.232 188.58 621.866 188.903 621.366 189.142C620.865 189.381 620.214 189.5 619.412 189.5H615.733ZM616.966 188.406H619.412C620.217 188.406 620.789 188.25 621.127 187.939C621.469 187.624 621.639 187.243 621.639 186.795C621.639 186.451 621.551 186.133 621.376 185.841C621.2 185.546 620.95 185.311 620.625 185.135C620.3 184.956 619.916 184.866 619.472 184.866H616.966V188.406ZM616.966 183.793H619.253C619.624 183.793 619.959 183.72 620.257 183.574C620.559 183.428 620.797 183.223 620.973 182.957C621.152 182.692 621.241 182.381 621.241 182.023C621.241 181.575 621.086 181.196 620.774 180.884C620.463 180.569 619.969 180.412 619.293 180.412H616.966V183.793ZM629.492 186.378V181.864H630.665V189.5H629.492V188.207H629.412C629.233 188.595 628.955 188.925 628.577 189.197C628.199 189.465 627.722 189.599 627.145 189.599C626.668 189.599 626.244 189.495 625.873 189.286C625.501 189.074 625.21 188.756 624.998 188.332C624.785 187.904 624.679 187.366 624.679 186.716V181.864H625.853V186.636C625.853 187.193 626.008 187.637 626.32 187.969C626.635 188.3 627.036 188.466 627.523 188.466C627.815 188.466 628.111 188.391 628.413 188.242C628.718 188.093 628.973 187.864 629.179 187.556C629.387 187.248 629.492 186.855 629.492 186.378ZM633.57 192.364C633.371 192.364 633.194 192.347 633.038 192.314C632.882 192.284 632.774 192.254 632.715 192.224L633.013 191.19C633.298 191.263 633.55 191.29 633.769 191.27C633.987 191.25 634.181 191.152 634.35 190.977C634.523 190.804 634.68 190.524 634.823 190.136L635.041 189.54L632.218 181.864H633.49L635.598 187.949H635.678L637.786 181.864H639.058L635.817 190.614C635.671 191.008 635.49 191.335 635.275 191.593C635.06 191.855 634.809 192.049 634.524 192.175C634.243 192.301 633.924 192.364 633.57 192.364ZM643.535 189.659C642.8 189.659 642.165 189.497 641.631 189.172C641.101 188.844 640.692 188.386 640.403 187.8C640.118 187.21 639.976 186.524 639.976 185.741C639.976 184.959 640.118 184.27 640.403 183.673C640.692 183.073 641.093 182.606 641.606 182.271C642.123 181.933 642.727 181.764 643.416 181.764C643.814 181.764 644.206 181.83 644.594 181.963C644.982 182.096 645.335 182.311 645.653 182.609C645.971 182.904 646.225 183.295 646.414 183.783C646.603 184.27 646.697 184.87 646.697 185.582V186.08H640.811V185.065H645.504C645.504 184.634 645.418 184.25 645.246 183.912C645.077 183.574 644.835 183.307 644.52 183.112C644.208 182.916 643.84 182.818 643.416 182.818C642.949 182.818 642.544 182.934 642.203 183.166C641.865 183.395 641.605 183.693 641.422 184.061C641.24 184.429 641.149 184.823 641.149 185.244V185.92C641.149 186.497 641.248 186.986 641.447 187.387C641.649 187.785 641.93 188.088 642.287 188.297C642.645 188.502 643.061 188.605 643.535 188.605C643.844 188.605 644.122 188.562 644.371 188.476C644.622 188.386 644.84 188.254 645.022 188.078C645.204 187.899 645.345 187.677 645.444 187.412L646.578 187.73C646.459 188.115 646.258 188.453 645.976 188.744C645.695 189.033 645.347 189.258 644.932 189.42C644.518 189.58 644.052 189.659 643.535 189.659ZM648.482 189.5V181.864H649.616V183.017H649.695C649.834 182.639 650.086 182.333 650.451 182.097C650.815 181.862 651.226 181.744 651.684 181.744C651.77 181.744 651.878 181.746 652.007 181.749C652.136 181.753 652.234 181.758 652.3 181.764V182.957C652.26 182.947 652.169 182.933 652.027 182.913C651.888 182.889 651.74 182.878 651.584 182.878C651.213 182.878 650.882 182.956 650.59 183.112C650.302 183.264 650.073 183.476 649.904 183.748C649.738 184.016 649.655 184.323 649.655 184.668V189.5H648.482Z" fill="#171717"/>
<rect x="540.5" y="154.5" width="187" height="59" rx="29.5" stroke="#363636" shape-rendering="crispEdges"/>
</g>
<path d="M202 180H201V178H202V180ZM298.707 178.293C299.098 178.683 299.098 179.317 298.707 179.707L292.343 186.071C291.953 186.462 291.319 186.462 290.929 186.071C290.538 185.681 290.538 185.047 290.929 184.657L296.586 179L290.929 173.343C290.538 172.953 290.538 172.319 290.929 171.929C291.319 171.538 291.953 171.538 292.343 171.929L298.707 178.293ZM202 178L298 178V180L202 180V178Z" fill="white" fill-opacity="0.5"/>
<path d="M443 180H442V178H443V180ZM539.707 178.293C540.098 178.683 540.098 179.317 539.707 179.707L533.343 186.071C532.953 186.462 532.319 186.462 531.929 186.071C531.538 185.681 531.538 185.047 531.929 184.657L537.586 179L531.929 173.343C531.538 172.953 531.538 172.319 531.929 171.929C532.319 171.538 532.953 171.538 533.343 171.929L539.707 178.293ZM443 178L539 178V180L443 180V178Z" fill="white" fill-opacity="0.5"/>
<g filter="url(#filter2_d_1595_29765)">
<path opacity="0.8" d="M306.233 40.5V30.3182H309.793C310.502 30.3182 311.087 30.4408 311.548 30.6861C312.008 30.928 312.351 31.2545 312.577 31.6655C312.802 32.0732 312.915 32.5256 312.915 33.0227C312.915 33.4602 312.837 33.8215 312.681 34.1065C312.529 34.3916 312.326 34.617 312.075 34.7827C311.826 34.9484 311.556 35.071 311.264 35.1506V35.25C311.576 35.2699 311.889 35.3793 312.204 35.5781C312.519 35.777 312.782 36.062 312.994 36.4332C313.206 36.8045 313.312 37.2585 313.312 37.7955C313.312 38.3059 313.196 38.7649 312.964 39.1726C312.732 39.5803 312.366 39.9034 311.866 40.142C311.365 40.3807 310.714 40.5 309.912 40.5H306.233ZM307.466 39.4062H309.912C310.717 39.4062 311.289 39.2505 311.627 38.9389C311.969 38.6241 312.139 38.2429 312.139 37.7955C312.139 37.4508 312.051 37.1326 311.876 36.8409C311.7 36.5459 311.45 36.3106 311.125 36.1349C310.8 35.956 310.416 35.8665 309.972 35.8665H307.466V39.4062ZM307.466 34.7926H309.753C310.124 34.7926 310.459 34.7197 310.757 34.5739C311.059 34.428 311.297 34.2225 311.473 33.9574C311.652 33.6922 311.741 33.3807 311.741 33.0227C311.741 32.5753 311.586 32.1958 311.274 31.8842C310.963 31.5694 310.469 31.4119 309.793 31.4119H307.466V34.7926ZM316.353 30.3182V40.5H315.179V30.3182H316.353ZM321.604 40.6591C320.914 40.6591 320.31 40.495 319.789 40.1669C319.272 39.8388 318.868 39.3797 318.576 38.7898C318.288 38.1998 318.144 37.5104 318.144 36.7216C318.144 35.9261 318.288 35.2318 318.576 34.6385C318.868 34.0452 319.272 33.5845 319.789 33.2564C320.31 32.9283 320.914 32.7642 321.604 32.7642C322.293 32.7642 322.896 32.9283 323.414 33.2564C323.934 33.5845 324.338 34.0452 324.627 34.6385C324.918 35.2318 325.064 35.9261 325.064 36.7216C325.064 37.5104 324.918 38.1998 324.627 38.7898C324.338 39.3797 323.934 39.8388 323.414 40.1669C322.896 40.495 322.293 40.6591 321.604 40.6591ZM321.604 39.6051C322.128 39.6051 322.558 39.4709 322.896 39.2024C323.235 38.9339 323.485 38.581 323.647 38.1435C323.81 37.706 323.891 37.232 323.891 36.7216C323.891 36.2112 323.81 35.7356 323.647 35.2947C323.485 34.8539 323.235 34.4976 322.896 34.2259C322.558 33.9541 322.128 33.8182 321.604 33.8182C321.08 33.8182 320.649 33.9541 320.311 34.2259C319.973 34.4976 319.723 34.8539 319.561 35.2947C319.398 35.7356 319.317 36.2112 319.317 36.7216C319.317 37.232 319.398 37.706 319.561 38.1435C319.723 38.581 319.973 38.9339 320.311 39.2024C320.649 39.4709 321.08 39.6051 321.604 39.6051ZM329.957 40.6591C329.241 40.6591 328.625 40.4901 328.108 40.152C327.591 39.8139 327.193 39.3482 326.915 38.755C326.636 38.1617 326.497 37.4839 326.497 36.7216C326.497 35.946 326.64 35.2616 326.925 34.6683C327.213 34.0717 327.614 33.6061 328.128 33.2713C328.645 32.9332 329.248 32.7642 329.938 32.7642C330.474 32.7642 330.958 32.8636 331.389 33.0625C331.82 33.2614 332.173 33.5398 332.448 33.8977C332.723 34.2557 332.894 34.6733 332.96 35.1506H331.787C331.697 34.8026 331.499 34.4943 331.19 34.2259C330.885 33.9541 330.474 33.8182 329.957 33.8182C329.5 33.8182 329.099 33.9375 328.754 34.1761C328.413 34.4115 328.146 34.7446 327.954 35.1754C327.765 35.603 327.67 36.1051 327.67 36.6818C327.67 37.2718 327.763 37.7855 327.949 38.223C328.138 38.6605 328.403 39.0002 328.744 39.2422C329.089 39.4841 329.493 39.6051 329.957 39.6051C330.262 39.6051 330.539 39.5521 330.788 39.446C331.036 39.34 331.247 39.1875 331.419 38.9886C331.591 38.7898 331.714 38.5511 331.787 38.2727H332.96C332.894 38.7235 332.73 39.1295 332.468 39.4908C332.21 39.8487 331.866 40.1338 331.439 40.3459C331.015 40.5547 330.521 40.6591 329.957 40.6591ZM335.769 37.7159L335.749 36.2642H335.988L339.329 32.8636H340.781L337.221 36.4631H337.121L335.769 37.7159ZM334.675 40.5V30.3182H335.849V40.5H334.675ZM339.528 40.5L336.545 36.7216L337.38 35.9062L341.019 40.5H339.528ZM345.078 40.6591C344.363 40.6591 343.746 40.4901 343.229 40.152C342.712 39.8139 342.314 39.3482 342.036 38.755C341.757 38.1617 341.618 37.4839 341.618 36.7216C341.618 35.946 341.761 35.2616 342.046 34.6683C342.334 34.0717 342.735 33.6061 343.249 33.2713C343.766 32.9332 344.369 32.7642 345.059 32.7642C345.596 32.7642 346.079 32.8636 346.51 33.0625C346.941 33.2614 347.294 33.5398 347.569 33.8977C347.844 34.2557 348.015 34.6733 348.081 35.1506H346.908C346.819 34.8026 346.62 34.4943 346.311 34.2259C346.007 33.9541 345.596 33.8182 345.078 33.8182C344.621 33.8182 344.22 33.9375 343.875 34.1761C343.534 34.4115 343.267 34.7446 343.075 35.1754C342.886 35.603 342.792 36.1051 342.792 36.6818C342.792 37.2718 342.884 37.7855 343.07 38.223C343.259 38.6605 343.524 39.0002 343.865 39.2422C344.21 39.4841 344.614 39.6051 345.078 39.6051C345.383 39.6051 345.66 39.5521 345.909 39.446C346.157 39.34 346.368 39.1875 346.54 38.9886C346.712 38.7898 346.835 38.5511 346.908 38.2727H348.081C348.015 38.7235 347.851 39.1295 347.589 39.4908C347.331 39.8487 346.988 40.1338 346.56 40.3459C346.136 40.5547 345.642 40.6591 345.078 40.6591ZM350.97 35.9062V40.5H349.797V30.3182H350.97V34.0568H351.069C351.248 33.6624 351.517 33.3492 351.875 33.1172C352.236 32.8819 352.717 32.7642 353.316 32.7642C353.837 32.7642 354.292 32.8686 354.684 33.0774C355.075 33.2829 355.378 33.5994 355.593 34.027C355.812 34.4512 355.922 34.9915 355.922 35.6477V40.5H354.748V35.7273C354.748 35.1207 354.591 34.6518 354.276 34.3203C353.964 33.9856 353.532 33.8182 352.978 33.8182C352.594 33.8182 352.249 33.8994 351.944 34.0618C351.643 34.2242 351.404 34.4612 351.228 34.7727C351.056 35.0843 350.97 35.4621 350.97 35.9062ZM360.315 40.679C359.831 40.679 359.392 40.5878 358.998 40.4055C358.603 40.2199 358.29 39.9531 358.058 39.6051C357.826 39.2538 357.71 38.8295 357.71 38.3324C357.71 37.8949 357.796 37.5402 357.969 37.2685C358.141 36.9934 358.371 36.7779 358.66 36.6222C358.948 36.4664 359.266 36.3504 359.614 36.2741C359.965 36.1946 360.318 36.1316 360.673 36.0852C361.137 36.0256 361.513 35.9808 361.802 35.951C362.093 35.9179 362.305 35.8632 362.438 35.7869C362.574 35.7107 362.642 35.5781 362.642 35.3892V35.3494C362.642 34.8589 362.508 34.4777 362.239 34.206C361.974 33.9342 361.571 33.7983 361.031 33.7983C360.471 33.7983 360.032 33.9209 359.714 34.1662C359.395 34.4115 359.172 34.6733 359.042 34.9517L357.929 34.554C358.128 34.09 358.393 33.7287 358.724 33.4702C359.059 33.2083 359.424 33.026 359.818 32.9233C360.216 32.8172 360.607 32.7642 360.991 32.7642C361.237 32.7642 361.518 32.794 361.836 32.8537C362.158 32.91 362.468 33.0277 362.766 33.2067C363.068 33.3857 363.318 33.6558 363.517 34.017C363.716 34.3783 363.815 34.8622 363.815 35.4688V40.5H362.642V39.4659H362.582C362.503 39.6316 362.37 39.8089 362.184 39.9979C361.999 40.1868 361.752 40.3475 361.444 40.4801C361.135 40.6127 360.759 40.679 360.315 40.679ZM360.494 39.625C360.958 39.625 361.349 39.5339 361.667 39.3516C361.989 39.1693 362.231 38.9339 362.393 38.6456C362.559 38.3572 362.642 38.054 362.642 37.7358V36.6619C362.592 36.7216 362.483 36.7763 362.314 36.826C362.148 36.8724 361.956 36.9138 361.737 36.9503C361.522 36.9834 361.311 37.0133 361.106 37.0398C360.903 37.063 360.739 37.0829 360.613 37.0994C360.309 37.1392 360.023 37.2038 359.758 37.2933C359.497 37.3795 359.284 37.5104 359.122 37.6861C358.963 37.8584 358.883 38.0937 358.883 38.392C358.883 38.7997 359.034 39.108 359.336 39.3168C359.641 39.5223 360.027 39.625 360.494 39.625ZM365.957 40.5V32.8636H367.13V40.5H365.957ZM366.553 31.5909C366.325 31.5909 366.127 31.513 365.962 31.3572C365.799 31.2015 365.718 31.0142 365.718 30.7955C365.718 30.5767 365.799 30.3894 365.962 30.2337C366.127 30.0779 366.325 30 366.553 30C366.782 30 366.978 30.0779 367.14 30.2337C367.306 30.3894 367.388 30.5767 367.388 30.7955C367.388 31.0142 367.306 31.2015 367.14 31.3572C366.978 31.513 366.782 31.5909 366.553 31.5909ZM370.452 35.9062V40.5H369.279V32.8636H370.412V34.0568H370.512C370.691 33.669 370.963 33.3575 371.327 33.1222C371.692 32.8835 372.162 32.7642 372.739 32.7642C373.256 32.7642 373.709 32.8703 374.096 33.0824C374.484 33.2912 374.786 33.6094 375.001 34.0369C375.217 34.4612 375.324 34.9981 375.324 35.6477V40.5H374.151V35.7273C374.151 35.1274 373.995 34.66 373.684 34.3253C373.372 33.9872 372.945 33.8182 372.401 33.8182C372.027 33.8182 371.692 33.8994 371.397 34.0618C371.105 34.2242 370.875 34.4612 370.706 34.7727C370.537 35.0843 370.452 35.4621 370.452 35.9062ZM389.639 30.3182V40.5H388.446L382.897 32.5057H382.798V40.5H381.565V30.3182H382.758L388.326 38.3324H388.426V30.3182H389.639ZM395.149 40.6591C394.413 40.6591 393.778 40.4967 393.244 40.1719C392.714 39.8438 392.305 39.3864 392.017 38.7997C391.731 38.2098 391.589 37.5237 391.589 36.7415C391.589 35.9593 391.731 35.2699 392.017 34.6733C392.305 34.0734 392.706 33.6061 393.22 33.2713C393.737 32.9332 394.34 32.7642 395.029 32.7642C395.427 32.7642 395.82 32.8305 396.208 32.9631C396.595 33.0956 396.948 33.3111 397.267 33.6094C397.585 33.9044 397.838 34.2955 398.027 34.7827C398.216 35.2699 398.311 35.8698 398.311 36.5824V37.0795H392.424V36.0653H397.117C397.117 35.6345 397.031 35.25 396.859 34.9119C396.69 34.5739 396.448 34.3071 396.133 34.1115C395.821 33.916 395.454 33.8182 395.029 33.8182C394.562 33.8182 394.158 33.9342 393.816 34.1662C393.478 34.3949 393.218 34.6932 393.036 35.0611C392.853 35.429 392.762 35.8234 392.762 36.2443V36.9205C392.762 37.4972 392.862 37.986 393.061 38.3871C393.263 38.7848 393.543 39.0881 393.901 39.2969C394.259 39.5024 394.675 39.6051 395.149 39.6051C395.457 39.6051 395.735 39.562 395.984 39.4759C396.236 39.3864 396.453 39.2538 396.635 39.0781C396.817 38.8991 396.958 38.6771 397.058 38.4119L398.191 38.7301C398.072 39.1146 397.871 39.4527 397.59 39.7443C397.308 40.0327 396.96 40.258 396.546 40.4205C396.131 40.5795 395.666 40.6591 395.149 40.6591ZM403.416 32.8636V33.858H399.459V32.8636H403.416ZM400.612 31.0341H401.786V38.3125C401.786 38.6439 401.834 38.8925 401.93 39.0582C402.029 39.2206 402.155 39.33 402.308 39.3864C402.463 39.4394 402.628 39.4659 402.8 39.4659C402.929 39.4659 403.035 39.4593 403.118 39.446C403.201 39.4295 403.267 39.4162 403.317 39.4062L403.556 40.4602C403.476 40.4901 403.365 40.5199 403.222 40.5497C403.08 40.5829 402.899 40.5994 402.681 40.5994C402.349 40.5994 402.024 40.5282 401.706 40.3857C401.391 40.2431 401.129 40.026 400.921 39.7344C400.715 39.4427 400.612 39.0748 400.612 38.6307V31.0341ZM406.911 40.5L404.585 32.8636H405.818L407.468 38.7102H407.548L409.178 32.8636H410.431L412.042 38.6903H412.122L413.772 32.8636H415.005L412.678 40.5H411.525L409.855 34.6335H409.735L408.065 40.5H406.911ZM419.399 40.6591C418.709 40.6591 418.105 40.495 417.584 40.1669C417.067 39.8388 416.663 39.3797 416.371 38.7898C416.083 38.1998 415.939 37.5104 415.939 36.7216C415.939 35.9261 416.083 35.2318 416.371 34.6385C416.663 34.0452 417.067 33.5845 417.584 33.2564C418.105 32.9283 418.709 32.7642 419.399 32.7642C420.088 32.7642 420.691 32.9283 421.208 33.2564C421.729 33.5845 422.133 34.0452 422.422 34.6385C422.713 35.2318 422.859 35.9261 422.859 36.7216C422.859 37.5104 422.713 38.1998 422.422 38.7898C422.133 39.3797 421.729 39.8388 421.208 40.1669C420.691 40.495 420.088 40.6591 419.399 40.6591ZM419.399 39.6051C419.922 39.6051 420.353 39.4709 420.691 39.2024C421.029 38.9339 421.28 38.581 421.442 38.1435C421.605 37.706 421.686 37.232 421.686 36.7216C421.686 36.2112 421.605 35.7356 421.442 35.2947C421.28 34.8539 421.029 34.4976 420.691 34.2259C420.353 33.9541 419.922 33.8182 419.399 33.8182C418.875 33.8182 418.444 33.9541 418.106 34.2259C417.768 34.4976 417.518 34.8539 417.355 35.2947C417.193 35.7356 417.112 36.2112 417.112 36.7216C417.112 37.232 417.193 37.706 417.355 38.1435C417.518 38.581 417.768 38.9339 418.106 39.2024C418.444 39.4709 418.875 39.6051 419.399 39.6051ZM424.65 40.5V32.8636H425.784V34.017H425.863C426.002 33.6392 426.254 33.3326 426.619 33.0973C426.983 32.862 427.394 32.7443 427.852 32.7443C427.938 32.7443 428.046 32.746 428.175 32.7493C428.304 32.7526 428.402 32.7576 428.468 32.7642V33.9574C428.428 33.9474 428.337 33.9325 428.195 33.9126C428.056 33.8894 427.908 33.8778 427.752 33.8778C427.381 33.8778 427.05 33.9557 426.758 34.1115C426.47 34.264 426.241 34.4761 426.072 34.7479C425.906 35.0163 425.823 35.3229 425.823 35.6676V40.5H424.65ZM430.953 37.7159L430.933 36.2642H431.172L434.512 32.8636H435.964L432.404 36.4631H432.305L430.953 37.7159ZM429.859 40.5V30.3182H431.032V40.5H429.859ZM434.711 40.5L431.728 36.7216L432.564 35.9062L436.203 40.5H434.711Z" fill="#171717"/>
<rect x="277.5" y="5.5" width="187" height="59" rx="29.5" stroke="#363636" shape-rendering="crispEdges"/>
</g>
<path opacity="0.8" d="M358.514 107V96.8182H362.074C362.783 96.8182 363.368 96.9408 363.829 97.1861C364.29 97.428 364.633 97.7545 364.858 98.1655C365.083 98.5732 365.196 99.0256 365.196 99.5227C365.196 99.9602 365.118 100.321 364.962 100.607C364.81 100.892 364.608 101.117 364.356 101.283C364.107 101.448 363.837 101.571 363.545 101.651V101.75C363.857 101.77 364.17 101.879 364.485 102.078C364.8 102.277 365.063 102.562 365.276 102.933C365.488 103.304 365.594 103.759 365.594 104.295C365.594 104.806 365.478 105.265 365.246 105.673C365.014 106.08 364.647 106.403 364.147 106.642C363.647 106.881 362.995 107 362.193 107H358.514ZM359.747 105.906H362.193C362.999 105.906 363.57 105.75 363.908 105.439C364.25 105.124 364.42 104.743 364.42 104.295C364.42 103.951 364.333 103.633 364.157 103.341C363.981 103.046 363.731 102.811 363.406 102.635C363.081 102.456 362.697 102.366 362.253 102.366H359.747V105.906ZM359.747 101.293H362.034C362.405 101.293 362.74 101.22 363.038 101.074C363.34 100.928 363.579 100.723 363.754 100.457C363.933 100.192 364.023 99.8807 364.023 99.5227C364.023 99.0753 363.867 98.6958 363.555 98.3842C363.244 98.0694 362.75 97.9119 362.074 97.9119H359.747V101.293ZM367.461 107V99.3636H368.634V107H367.461ZM368.057 98.0909C367.828 98.0909 367.631 98.013 367.466 97.8572C367.303 97.7015 367.222 97.5142 367.222 97.2955C367.222 97.0767 367.303 96.8894 367.466 96.7337C367.631 96.5779 367.828 96.5 368.057 96.5C368.286 96.5 368.481 96.5779 368.644 96.7337C368.81 96.8894 368.892 97.0767 368.892 97.2955C368.892 97.5142 368.81 97.7015 368.644 97.8572C368.481 98.013 368.286 98.0909 368.057 98.0909ZM373.666 107.159C373.03 107.159 372.468 106.998 371.981 106.677C371.494 106.352 371.113 105.895 370.838 105.305C370.562 104.711 370.425 104.01 370.425 103.202C370.425 102.4 370.562 101.704 370.838 101.114C371.113 100.524 371.495 100.068 371.986 99.7464C372.477 99.425 373.043 99.2642 373.686 99.2642C374.183 99.2642 374.576 99.3471 374.865 99.5128C375.156 99.6752 375.378 99.8608 375.531 100.07C375.686 100.275 375.807 100.444 375.894 100.577H375.993V96.8182H377.166V107H376.033V105.827H375.894C375.807 105.966 375.685 106.142 375.526 106.354C375.367 106.562 375.14 106.75 374.845 106.915C374.55 107.078 374.157 107.159 373.666 107.159ZM373.825 106.105C374.296 106.105 374.694 105.982 375.019 105.737C375.343 105.489 375.59 105.146 375.759 104.708C375.928 104.267 376.013 103.759 376.013 103.182C376.013 102.612 375.93 102.113 375.764 101.685C375.599 101.254 375.353 100.92 375.029 100.681C374.704 100.439 374.303 100.318 373.825 100.318C373.328 100.318 372.914 100.446 372.583 100.701C372.254 100.953 372.008 101.296 371.842 101.73C371.679 102.161 371.598 102.645 371.598 103.182C371.598 103.725 371.681 104.219 371.847 104.663C372.016 105.104 372.264 105.455 372.593 105.717C372.924 105.976 373.335 106.105 373.825 106.105ZM384.887 101.074L383.833 101.372C383.767 101.196 383.669 101.026 383.54 100.86C383.414 100.691 383.242 100.552 383.023 100.442C382.804 100.333 382.524 100.278 382.183 100.278C381.715 100.278 381.326 100.386 381.014 100.602C380.706 100.814 380.552 101.084 380.552 101.412C380.552 101.704 380.658 101.934 380.87 102.103C381.082 102.272 381.414 102.413 381.865 102.526L382.998 102.804C383.681 102.97 384.19 103.223 384.524 103.565C384.859 103.903 385.026 104.339 385.026 104.872C385.026 105.31 384.901 105.701 384.649 106.045C384.4 106.39 384.052 106.662 383.605 106.861C383.157 107.06 382.637 107.159 382.044 107.159C381.265 107.159 380.62 106.99 380.11 106.652C379.599 106.314 379.276 105.82 379.14 105.17L380.254 104.892C380.36 105.303 380.56 105.611 380.855 105.817C381.154 106.022 381.543 106.125 382.024 106.125C382.57 106.125 383.005 106.009 383.326 105.777C383.651 105.542 383.813 105.26 383.813 104.932C383.813 104.667 383.721 104.445 383.535 104.266C383.349 104.083 383.064 103.947 382.68 103.858L381.407 103.56C380.708 103.394 380.194 103.137 379.866 102.789C379.541 102.438 379.379 101.999 379.379 101.472C379.379 101.041 379.5 100.66 379.742 100.328C379.987 99.9967 380.32 99.7365 380.741 99.5476C381.165 99.3587 381.646 99.2642 382.183 99.2642C382.938 99.2642 383.532 99.4299 383.963 99.7614C384.397 100.093 384.705 100.53 384.887 101.074ZM336.407 128V117.818H339.966C340.676 117.818 341.261 117.941 341.721 118.186C342.182 118.428 342.525 118.754 342.751 119.165C342.976 119.573 343.089 120.026 343.089 120.523C343.089 120.96 343.011 121.321 342.855 121.607C342.702 121.892 342.5 122.117 342.248 122.283C342 122.448 341.73 122.571 341.438 122.651V122.75C341.75 122.77 342.063 122.879 342.378 123.078C342.693 123.277 342.956 123.562 343.168 123.933C343.38 124.304 343.486 124.759 343.486 125.295C343.486 125.806 343.37 126.265 343.138 126.673C342.906 127.08 342.54 127.403 342.04 127.642C341.539 127.881 340.888 128 340.086 128H336.407ZM337.64 126.906H340.086C340.891 126.906 341.463 126.75 341.801 126.439C342.142 126.124 342.313 125.743 342.313 125.295C342.313 124.951 342.225 124.633 342.05 124.341C341.874 124.046 341.624 123.811 341.299 123.635C340.974 123.456 340.59 123.366 340.145 123.366H337.64V126.906ZM337.64 122.293H339.927C340.298 122.293 340.633 122.22 340.931 122.074C341.233 121.928 341.471 121.723 341.647 121.457C341.826 121.192 341.915 120.881 341.915 120.523C341.915 120.075 341.76 119.696 341.448 119.384C341.136 119.069 340.643 118.912 339.966 118.912H337.64V122.293ZM345.353 128V120.364H346.526V128H345.353ZM345.95 119.091C345.721 119.091 345.524 119.013 345.358 118.857C345.196 118.701 345.115 118.514 345.115 118.295C345.115 118.077 345.196 117.889 345.358 117.734C345.524 117.578 345.721 117.5 345.95 117.5C346.178 117.5 346.374 117.578 346.536 117.734C346.702 117.889 346.785 118.077 346.785 118.295C346.785 118.514 346.702 118.701 346.536 118.857C346.374 119.013 346.178 119.091 345.95 119.091ZM351.559 128.159C350.923 128.159 350.361 127.998 349.874 127.677C349.386 127.352 349.005 126.895 348.73 126.305C348.455 125.711 348.317 125.01 348.317 124.202C348.317 123.4 348.455 122.704 348.73 122.114C349.005 121.524 349.388 121.068 349.879 120.746C350.369 120.425 350.936 120.264 351.579 120.264C352.076 120.264 352.469 120.347 352.757 120.513C353.049 120.675 353.271 120.861 353.423 121.07C353.579 121.275 353.7 121.444 353.786 121.577H353.886V117.818H355.059V128H353.925V126.827H353.786C353.7 126.966 353.577 127.142 353.418 127.354C353.259 127.562 353.032 127.75 352.737 127.915C352.442 128.078 352.049 128.159 351.559 128.159ZM351.718 127.105C352.189 127.105 352.586 126.982 352.911 126.737C353.236 126.489 353.483 126.146 353.652 125.708C353.821 125.267 353.906 124.759 353.906 124.182C353.906 123.612 353.823 123.113 353.657 122.685C353.491 122.254 353.246 121.92 352.921 121.681C352.596 121.439 352.195 121.318 351.718 121.318C351.221 121.318 350.807 121.446 350.475 121.701C350.147 121.953 349.9 122.296 349.734 122.73C349.572 123.161 349.491 123.645 349.491 124.182C349.491 124.725 349.574 125.219 349.739 125.663C349.908 126.104 350.157 126.455 350.485 126.717C350.817 126.976 351.228 127.105 351.718 127.105ZM361.467 128V117.818H362.7V122.352H368.129V117.818H369.362V128H368.129V123.446H362.7V128H361.467ZM371.672 128V120.364H372.845V128H371.672ZM372.268 119.091C372.039 119.091 371.842 119.013 371.676 118.857C371.514 118.701 371.433 118.514 371.433 118.295C371.433 118.077 371.514 117.889 371.676 117.734C371.842 117.578 372.039 117.5 372.268 117.5C372.497 117.5 372.692 117.578 372.855 117.734C373.02 117.889 373.103 118.077 373.103 118.295C373.103 118.514 373.02 118.701 372.855 118.857C372.692 119.013 372.497 119.091 372.268 119.091ZM380.403 122.074L379.349 122.372C379.283 122.196 379.185 122.026 379.056 121.86C378.93 121.691 378.757 121.552 378.539 121.442C378.32 121.333 378.04 121.278 377.698 121.278C377.231 121.278 376.842 121.386 376.53 121.602C376.222 121.814 376.068 122.084 376.068 122.412C376.068 122.704 376.174 122.934 376.386 123.103C376.598 123.272 376.929 123.413 377.38 123.526L378.514 123.804C379.196 123.97 379.705 124.223 380.04 124.565C380.375 124.903 380.542 125.339 380.542 125.872C380.542 126.31 380.416 126.701 380.164 127.045C379.916 127.39 379.568 127.662 379.12 127.861C378.673 128.06 378.152 128.159 377.559 128.159C376.78 128.159 376.136 127.99 375.625 127.652C375.115 127.314 374.792 126.82 374.656 126.17L375.769 125.892C375.875 126.303 376.076 126.611 376.371 126.817C376.669 127.022 377.059 127.125 377.539 127.125C378.086 127.125 378.52 127.009 378.842 126.777C379.167 126.542 379.329 126.26 379.329 125.932C379.329 125.667 379.236 125.445 379.051 125.266C378.865 125.083 378.58 124.947 378.195 124.858L376.923 124.56C376.223 124.394 375.71 124.137 375.382 123.789C375.057 123.438 374.894 122.999 374.894 122.472C374.894 122.041 375.015 121.66 375.257 121.328C375.503 120.997 375.836 120.737 376.257 120.548C376.681 120.359 377.161 120.264 377.698 120.264C378.454 120.264 379.047 120.43 379.478 120.761C379.912 121.093 380.221 121.53 380.403 122.074ZM385.629 120.364V121.358H381.672V120.364H385.629ZM382.825 118.534H383.999V125.812C383.999 126.144 384.047 126.393 384.143 126.558C384.242 126.721 384.368 126.83 384.521 126.886C384.676 126.939 384.84 126.966 385.013 126.966C385.142 126.966 385.248 126.959 385.331 126.946C385.414 126.929 385.48 126.916 385.53 126.906L385.768 127.96C385.689 127.99 385.578 128.02 385.435 128.05C385.293 128.083 385.112 128.099 384.893 128.099C384.562 128.099 384.237 128.028 383.919 127.886C383.604 127.743 383.342 127.526 383.134 127.234C382.928 126.943 382.825 126.575 382.825 126.131V118.534ZM390.414 128.159C389.725 128.159 389.12 127.995 388.6 127.667C388.083 127.339 387.678 126.88 387.387 126.29C387.098 125.7 386.954 125.01 386.954 124.222C386.954 123.426 387.098 122.732 387.387 122.138C387.678 121.545 388.083 121.085 388.6 120.756C389.12 120.428 389.725 120.264 390.414 120.264C391.104 120.264 391.707 120.428 392.224 120.756C392.744 121.085 393.149 121.545 393.437 122.138C393.729 122.732 393.875 123.426 393.875 124.222C393.875 125.01 393.729 125.7 393.437 126.29C393.149 126.88 392.744 127.339 392.224 127.667C391.707 127.995 391.104 128.159 390.414 128.159ZM390.414 127.105C390.938 127.105 391.369 126.971 391.707 126.702C392.045 126.434 392.295 126.081 392.458 125.643C392.62 125.206 392.701 124.732 392.701 124.222C392.701 123.711 392.62 123.236 392.458 122.795C392.295 122.354 392.045 121.998 391.707 121.726C391.369 121.454 390.938 121.318 390.414 121.318C389.891 121.318 389.46 121.454 389.122 121.726C388.784 121.998 388.533 122.354 388.371 122.795C388.209 123.236 388.127 123.711 388.127 124.222C388.127 124.732 388.209 125.206 388.371 125.643C388.533 126.081 388.784 126.434 389.122 126.702C389.46 126.971 389.891 127.105 390.414 127.105ZM395.666 128V120.364H396.799V121.517H396.879C397.018 121.139 397.27 120.833 397.634 120.597C397.999 120.362 398.41 120.244 398.867 120.244C398.954 120.244 399.061 120.246 399.191 120.249C399.32 120.253 399.418 120.258 399.484 120.264V121.457C399.444 121.447 399.353 121.433 399.21 121.413C399.071 121.389 398.924 121.378 398.768 121.378C398.397 121.378 398.065 121.456 397.774 121.612C397.485 121.764 397.257 121.976 397.088 122.248C396.922 122.516 396.839 122.823 396.839 123.168V128H395.666ZM401.863 130.864C401.664 130.864 401.487 130.847 401.331 130.814C401.175 130.784 401.067 130.754 401.008 130.724L401.306 129.69C401.591 129.763 401.843 129.79 402.062 129.77C402.28 129.75 402.474 129.652 402.643 129.477C402.816 129.304 402.973 129.024 403.116 128.636L403.334 128.04L400.51 120.364H401.783L403.891 126.449H403.971L406.079 120.364H407.351L404.11 129.114C403.964 129.508 403.783 129.835 403.568 130.093C403.353 130.355 403.102 130.549 402.817 130.675C402.536 130.801 402.217 130.864 401.863 130.864ZM315.852 149H314.559L318.298 138.818H319.57L323.309 149H322.017L318.974 140.429H318.894L315.852 149ZM316.329 145.023H321.539V146.116H316.329V145.023ZM329.548 145.878V141.364H330.722V149H329.548V147.707H329.469C329.29 148.095 329.012 148.425 328.634 148.697C328.256 148.965 327.779 149.099 327.202 149.099C326.725 149.099 326.3 148.995 325.929 148.786C325.558 148.574 325.266 148.256 325.054 147.832C324.842 147.404 324.736 146.866 324.736 146.216V141.364H325.909V146.136C325.909 146.693 326.065 147.137 326.377 147.469C326.691 147.8 327.093 147.966 327.58 147.966C327.871 147.966 328.168 147.891 328.47 147.742C328.775 147.593 329.03 147.364 329.235 147.056C329.444 146.748 329.548 146.355 329.548 145.878ZM335.973 149.159C335.257 149.159 334.641 148.99 334.124 148.652C333.607 148.314 333.209 147.848 332.93 147.255C332.652 146.662 332.513 145.984 332.513 145.222C332.513 144.446 332.655 143.762 332.94 143.168C333.229 142.572 333.63 142.106 334.143 141.771C334.661 141.433 335.264 141.264 335.953 141.264C336.49 141.264 336.974 141.364 337.405 141.562C337.836 141.761 338.189 142.04 338.464 142.398C338.739 142.756 338.91 143.173 338.976 143.651H337.803C337.713 143.303 337.514 142.994 337.206 142.726C336.901 142.454 336.49 142.318 335.973 142.318C335.516 142.318 335.115 142.437 334.77 142.676C334.429 142.911 334.162 143.245 333.969 143.675C333.781 144.103 333.686 144.605 333.686 145.182C333.686 145.772 333.779 146.286 333.964 146.723C334.153 147.161 334.419 147.5 334.76 147.742C335.105 147.984 335.509 148.105 335.973 148.105C336.278 148.105 336.555 148.052 336.803 147.946C337.052 147.84 337.262 147.688 337.435 147.489C337.607 147.29 337.73 147.051 337.803 146.773H338.976C338.91 147.223 338.746 147.629 338.484 147.991C338.225 148.349 337.882 148.634 337.455 148.846C337.03 149.055 336.536 149.159 335.973 149.159ZM344.012 141.364V142.358H340.055V141.364H344.012ZM341.208 139.534H342.381V146.812C342.381 147.144 342.429 147.393 342.526 147.558C342.625 147.721 342.751 147.83 342.903 147.886C343.059 147.939 343.223 147.966 343.396 147.966C343.525 147.966 343.631 147.959 343.714 147.946C343.797 147.929 343.863 147.916 343.913 147.906L344.151 148.96C344.072 148.99 343.961 149.02 343.818 149.05C343.676 149.083 343.495 149.099 343.276 149.099C342.945 149.099 342.62 149.028 342.302 148.886C341.987 148.743 341.725 148.526 341.516 148.234C341.311 147.943 341.208 147.575 341.208 147.131V139.534ZM345.777 149V141.364H346.95V149H345.777ZM346.374 140.091C346.145 140.091 345.948 140.013 345.782 139.857C345.62 139.701 345.538 139.514 345.538 139.295C345.538 139.077 345.62 138.889 345.782 138.734C345.948 138.578 346.145 138.5 346.374 138.5C346.602 138.5 346.798 138.578 346.96 138.734C347.126 138.889 347.209 139.077 347.209 139.295C347.209 139.514 347.126 139.701 346.96 139.857C346.798 140.013 346.602 140.091 346.374 140.091ZM352.202 149.159C351.512 149.159 350.907 148.995 350.387 148.667C349.87 148.339 349.465 147.88 349.174 147.29C348.885 146.7 348.741 146.01 348.741 145.222C348.741 144.426 348.885 143.732 349.174 143.138C349.465 142.545 349.87 142.085 350.387 141.756C350.907 141.428 351.512 141.264 352.202 141.264C352.891 141.264 353.494 141.428 354.011 141.756C354.532 142.085 354.936 142.545 355.224 143.138C355.516 143.732 355.662 144.426 355.662 145.222C355.662 146.01 355.516 146.7 355.224 147.29C354.936 147.88 354.532 148.339 354.011 148.667C353.494 148.995 352.891 149.159 352.202 149.159ZM352.202 148.105C352.725 148.105 353.156 147.971 353.494 147.702C353.832 147.434 354.082 147.081 354.245 146.643C354.407 146.206 354.488 145.732 354.488 145.222C354.488 144.711 354.407 144.236 354.245 143.795C354.082 143.354 353.832 142.998 353.494 142.726C353.156 142.454 352.725 142.318 352.202 142.318C351.678 142.318 351.247 142.454 350.909 142.726C350.571 142.998 350.321 143.354 350.158 143.795C349.996 144.236 349.915 144.711 349.915 145.222C349.915 145.732 349.996 146.206 350.158 146.643C350.321 147.081 350.571 147.434 350.909 147.702C351.247 147.971 351.678 148.105 352.202 148.105ZM358.626 144.406V149H357.453V141.364H358.586V142.557H358.686C358.865 142.169 359.136 141.857 359.501 141.622C359.866 141.384 360.336 141.264 360.913 141.264C361.43 141.264 361.882 141.37 362.27 141.582C362.658 141.791 362.96 142.109 363.175 142.537C363.391 142.961 363.498 143.498 363.498 144.148V149H362.325V144.227C362.325 143.627 362.169 143.16 361.858 142.825C361.546 142.487 361.118 142.318 360.575 142.318C360.2 142.318 359.866 142.399 359.571 142.562C359.279 142.724 359.049 142.961 358.88 143.273C358.711 143.584 358.626 143.962 358.626 144.406ZM378.33 143.909C378.33 144.983 378.136 145.911 377.748 146.693C377.36 147.475 376.828 148.079 376.152 148.503C375.476 148.927 374.704 149.139 373.835 149.139C372.967 149.139 372.195 148.927 371.519 148.503C370.843 148.079 370.311 147.475 369.923 146.693C369.535 145.911 369.341 144.983 369.341 143.909C369.341 142.835 369.535 141.907 369.923 141.125C370.311 140.343 370.843 139.74 371.519 139.315C372.195 138.891 372.967 138.679 373.835 138.679C374.704 138.679 375.476 138.891 376.152 139.315C376.828 139.74 377.36 140.343 377.748 141.125C378.136 141.907 378.33 142.835 378.33 143.909ZM377.137 143.909C377.137 143.027 376.989 142.283 376.694 141.677C376.402 141.07 376.006 140.611 375.506 140.3C375.009 139.988 374.452 139.832 373.835 139.832C373.219 139.832 372.66 139.988 372.16 140.3C371.663 140.611 371.267 141.07 370.972 141.677C370.68 142.283 370.534 143.027 370.534 143.909C370.534 144.791 370.68 145.535 370.972 146.141C371.267 146.748 371.663 147.207 372.16 147.518C372.66 147.83 373.219 147.986 373.835 147.986C374.452 147.986 375.009 147.83 375.506 147.518C376.006 147.207 376.402 146.748 376.694 146.141C376.989 145.535 377.137 144.791 377.137 143.909ZM385.056 145.878V141.364H386.23V149H385.056V147.707H384.977C384.798 148.095 384.519 148.425 384.142 148.697C383.764 148.965 383.286 149.099 382.71 149.099C382.232 149.099 381.808 148.995 381.437 148.786C381.066 148.574 380.774 148.256 380.562 147.832C380.35 147.404 380.244 146.866 380.244 146.216V141.364H381.417V146.136C381.417 146.693 381.573 147.137 381.884 147.469C382.199 147.8 382.6 147.966 383.088 147.966C383.379 147.966 383.676 147.891 383.977 147.742C384.282 147.593 384.538 147.364 384.743 147.056C384.952 146.748 385.056 146.355 385.056 145.878ZM391.7 141.364V142.358H387.742V141.364H391.7ZM388.896 139.534H390.069V146.812C390.069 147.144 390.117 147.393 390.213 147.558C390.313 147.721 390.438 147.83 390.591 147.886C390.747 147.939 390.911 147.966 391.083 147.966C391.212 147.966 391.318 147.959 391.401 147.946C391.484 147.929 391.55 147.916 391.6 147.906L391.839 148.96C391.759 148.99 391.648 149.02 391.506 149.05C391.363 149.083 391.183 149.099 390.964 149.099C390.632 149.099 390.308 149.028 389.989 148.886C389.674 148.743 389.413 148.526 389.204 148.234C388.998 147.943 388.896 147.575 388.896 147.131V139.534ZM396.485 149.159C395.769 149.159 395.152 148.99 394.635 148.652C394.118 148.314 393.721 147.848 393.442 147.255C393.164 146.662 393.025 145.984 393.025 145.222C393.025 144.446 393.167 143.762 393.452 143.168C393.74 142.572 394.141 142.106 394.655 141.771C395.172 141.433 395.775 141.264 396.465 141.264C397.002 141.264 397.486 141.364 397.917 141.562C398.347 141.761 398.7 142.04 398.975 142.398C399.251 142.756 399.421 143.173 399.488 143.651H398.314C398.225 143.303 398.026 142.994 397.718 142.726C397.413 142.454 397.002 142.318 396.485 142.318C396.027 142.318 395.626 142.437 395.282 142.676C394.94 142.911 394.673 143.245 394.481 143.675C394.292 144.103 394.198 144.605 394.198 145.182C394.198 145.772 394.291 146.286 394.476 146.723C394.665 147.161 394.93 147.5 395.272 147.742C395.616 147.984 396.021 148.105 396.485 148.105C396.79 148.105 397.066 148.052 397.315 147.946C397.564 147.84 397.774 147.688 397.946 147.489C398.119 147.29 398.241 147.051 398.314 146.773H399.488C399.421 147.223 399.257 147.629 398.995 147.991C398.737 148.349 398.394 148.634 397.966 148.846C397.542 149.055 397.048 149.159 396.485 149.159ZM404.305 149.159C403.616 149.159 403.011 148.995 402.49 148.667C401.973 148.339 401.569 147.88 401.277 147.29C400.989 146.7 400.845 146.01 400.845 145.222C400.845 144.426 400.989 143.732 401.277 143.138C401.569 142.545 401.973 142.085 402.49 141.756C403.011 141.428 403.616 141.264 404.305 141.264C404.994 141.264 405.598 141.428 406.115 141.756C406.635 142.085 407.039 142.545 407.328 143.138C407.619 143.732 407.765 144.426 407.765 145.222C407.765 146.01 407.619 146.7 407.328 147.29C407.039 147.88 406.635 148.339 406.115 148.667C405.598 148.995 404.994 149.159 404.305 149.159ZM404.305 148.105C404.829 148.105 405.26 147.971 405.598 147.702C405.936 147.434 406.186 147.081 406.348 146.643C406.511 146.206 406.592 145.732 406.592 145.222C406.592 144.711 406.511 144.236 406.348 143.795C406.186 143.354 405.936 142.998 405.598 142.726C405.26 142.454 404.829 142.318 404.305 142.318C403.781 142.318 403.35 142.454 403.012 142.726C402.674 142.998 402.424 143.354 402.262 143.795C402.099 144.236 402.018 144.711 402.018 145.222C402.018 145.732 402.099 146.206 402.262 146.643C402.424 147.081 402.674 147.434 403.012 147.702C403.35 147.971 403.781 148.105 404.305 148.105ZM409.556 149V141.364H410.69V142.557H410.789C410.948 142.149 411.205 141.833 411.56 141.607C411.914 141.379 412.34 141.264 412.838 141.264C413.341 141.264 413.761 141.379 414.095 141.607C414.433 141.833 414.697 142.149 414.886 142.557H414.965C415.161 142.162 415.454 141.849 415.845 141.617C416.236 141.382 416.705 141.264 417.252 141.264C417.935 141.264 418.494 141.478 418.928 141.906C419.362 142.33 419.579 142.991 419.579 143.889V149H418.406V143.889C418.406 143.326 418.252 142.923 417.943 142.681C417.635 142.439 417.272 142.318 416.855 142.318C416.318 142.318 415.902 142.481 415.607 142.805C415.312 143.127 415.164 143.535 415.164 144.028V149H413.971V143.77C413.971 143.336 413.83 142.986 413.548 142.721C413.267 142.452 412.904 142.318 412.46 142.318C412.155 142.318 411.87 142.399 411.605 142.562C411.343 142.724 411.131 142.95 410.968 143.238C410.809 143.523 410.73 143.853 410.73 144.227V149H409.556ZM424.926 149.159C424.19 149.159 423.555 148.997 423.022 148.672C422.492 148.344 422.082 147.886 421.794 147.3C421.509 146.71 421.366 146.024 421.366 145.241C421.366 144.459 421.509 143.77 421.794 143.173C422.082 142.573 422.483 142.106 422.997 141.771C423.514 141.433 424.117 141.264 424.807 141.264C425.204 141.264 425.597 141.33 425.985 141.463C426.373 141.596 426.726 141.811 427.044 142.109C427.362 142.404 427.616 142.795 427.805 143.283C427.993 143.77 428.088 144.37 428.088 145.082V145.58H422.202V144.565H426.895C426.895 144.134 426.809 143.75 426.636 143.412C426.467 143.074 426.225 142.807 425.91 142.612C425.599 142.416 425.231 142.318 424.807 142.318C424.339 142.318 423.935 142.434 423.594 142.666C423.256 142.895 422.995 143.193 422.813 143.561C422.631 143.929 422.54 144.323 422.54 144.744V145.42C422.54 145.997 422.639 146.486 422.838 146.887C423.04 147.285 423.32 147.588 423.678 147.797C424.036 148.002 424.452 148.105 424.926 148.105C425.234 148.105 425.513 148.062 425.761 147.976C426.013 147.886 426.23 147.754 426.412 147.578C426.595 147.399 426.736 147.177 426.835 146.912L427.969 147.23C427.849 147.615 427.649 147.953 427.367 148.244C427.085 148.533 426.737 148.758 426.323 148.92C425.909 149.08 425.443 149.159 424.926 149.159Z" fill="#171717"/>
<path d="M192.842 149.812L198.527 148.81L194.816 144.387L192.842 149.812ZM284.158 73.1885L278.473 74.1911L282.184 78.6139L284.158 73.1885ZM196.61 147.303L281.033 76.4641L280.39 75.6981L195.967 146.537L196.61 147.303Z" fill="#171717"/>
<path d="M548.317 149.812L542.631 148.81L546.342 144.387L548.317 149.812ZM457 73.1885L462.686 74.1911L458.975 78.6139L457 73.1885ZM544.548 147.303L460.126 76.4641L460.769 75.6981L545.191 146.537L544.548 147.303Z" fill="#171717"/>
<path d="M531 190L526 187.113V192.887L531 190ZM202 190L207 192.887V187.113L202 190ZM526.5 189.5L206.5 189.5V190.5L526.5 190.5V189.5Z" fill="#171717"/>
<defs>
<filter id="filter0_d_1595_29765" x="0.395283" y="149.395" width="197.209" height="69.2094" filterUnits="userSpaceOnUse" color-interpolation-filters="sRGB">
<feFlood flood-opacity="0" result="BackgroundImageFix"/>
<feColorMatrix in="SourceAlpha" type="matrix" values="0 0 0 0 0 0 0 0 0 0 0 0 0 0 0 0 0 0 127 0" result="hardAlpha"/>
<feMorphology radius="1.53491" operator="dilate" in="SourceAlpha" result="effect1_dropShadow_1595_29765"/>
<feOffset/>
<feGaussianBlur stdDeviation="1.53491"/>
<feComposite in2="hardAlpha" operator="out"/>
<feColorMatrix type="matrix" values="0 0 0 0 0 0 0 0 0 0 0 0 0 0 0 0 0 0 0.05 0"/>
<feBlend mode="normal" in2="BackgroundImageFix" result="effect1_dropShadow_1595_29765"/>
<feBlend mode="normal" in="SourceGraphic" in2="effect1_dropShadow_1595_29765" result="shape"/>
</filter>
<filter id="filter1_d_1595_29765" x="535.395" y="149.395" width="197.209" height="69.2094" filterUnits="userSpaceOnUse" color-interpolation-filters="sRGB">
<feFlood flood-opacity="0" result="BackgroundImageFix"/>
<feColorMatrix in="SourceAlpha" type="matrix" values="0 0 0 0 0 0 0 0 0 0 0 0 0 0 0 0 0 0 127 0" result="hardAlpha"/>
<feMorphology radius="1.53491" operator="dilate" in="SourceAlpha" result="effect1_dropShadow_1595_29765"/>
<feOffset/>
<feGaussianBlur stdDeviation="1.53491"/>
<feComposite in2="hardAlpha" operator="out"/>
<feColorMatrix type="matrix" values="0 0 0 0 0 0 0 0 0 0 0 0 0 0 0 0 0 0 0.05 0"/>
<feBlend mode="normal" in2="BackgroundImageFix" result="effect1_dropShadow_1595_29765"/>
<feBlend mode="normal" in="SourceGraphic" in2="effect1_dropShadow_1595_29765" result="shape"/>
</filter>
<filter id="filter2_d_1595_29765" x="272.395" y="0.395283" width="197.209" height="69.2094" filterUnits="userSpaceOnUse" color-interpolation-filters="sRGB">
<feFlood flood-opacity="0" result="BackgroundImageFix"/>
<feColorMatrix in="SourceAlpha" type="matrix" values="0 0 0 0 0 0 0 0 0 0 0 0 0 0 0 0 0 0 127 0" result="hardAlpha"/>
<feMorphology radius="1.53491" operator="dilate" in="SourceAlpha" result="effect1_dropShadow_1595_29765"/>
<feOffset/>
<feGaussianBlur stdDeviation="1.53491"/>
<feComposite in2="hardAlpha" operator="out"/>
<feColorMatrix type="matrix" values="0 0 0 0 0 0 0 0 0 0 0 0 0 0 0 0 0 0 0.05 0"/>
<feBlend mode="normal" in2="BackgroundImageFix" result="effect1_dropShadow_1595_29765"/>
<feBlend mode="normal" in="SourceGraphic" in2="effect1_dropShadow_1595_29765" result="shape"/>
</filter>
</defs>
</svg>
