<svg width="40" height="60" viewBox="0 0 40 60" fill="none" xmlns="http://www.w3.org/2000/svg">
<path fill-rule="evenodd" clip-rule="evenodd" d="M3.75083 0C1.67986 0 0.00101923 1.67885 0.00101923 3.74981C0.00101923 5.82077 1.67986 7.49961 3.75083 7.49961H16.2502C18.3211 7.49961 20 5.82077 20 3.74981C20 1.67885 18.3211 0 16.2502 0H3.75083ZM37.5455 12.2682C39.4888 11.5522 40.4837 9.39649 39.7678 7.45322C39.0518 5.50995 36.8961 4.515 34.9528 5.23094L2.4545 17.204C0.511226 17.92 -0.483722 20.0757 0.232221 22.0189C0.948163 23.9622 3.10388 24.9572 5.04715 24.2412L37.5455 12.2682ZM37.5455 42.7929C39.4888 42.077 40.4837 39.9212 39.7678 37.978C39.0518 36.0347 36.8961 35.0397 34.9528 35.7557L2.4545 47.7288C0.511226 48.4447 -0.483722 50.6004 0.232221 52.5437C0.948163 54.487 3.10388 55.4819 5.04715 54.766L37.5455 42.7929ZM23.7498 52.4973C21.6788 52.4973 20 54.1761 20 56.2471C20 58.3181 21.6788 59.9969 23.7498 59.9969H36.2491C38.3201 59.9969 39.999 58.3181 39.999 56.2471C39.999 54.1761 38.3201 52.4973 36.2491 52.4973H23.7498ZM37.5952 27.2497C39.5282 26.5063 40.4924 24.3367 39.749 22.4037C39.0056 20.4708 36.836 19.5065 34.903 20.25L2.40471 32.7493C0.471793 33.4928 -0.49248 35.6624 0.250952 37.5953C0.994383 39.5282 3.164 40.4925 5.09692 39.7491L37.5952 27.2497Z" fill="white"/>
</svg>
