<svg width="170" height="18" viewBox="0 0 170 18" fill="none" xmlns="http://www.w3.org/2000/svg">
    <path
        d="M13.8223 12.74C13.8356 14.1667 13.2956 15.2933 12.2023 16.12C11.1223 16.9333 9.60893 17.34 7.66227 17.34C5.38227 17.34 3.68227 16.9267 2.56227 16.1C1.44227 15.26 0.788932 13.9 0.602266 12.02H3.74227C3.84893 12.98 4.2156 13.6867 4.84227 14.14C5.48227 14.58 6.44227 14.8 7.72227 14.8C8.74893 14.8 9.5356 14.6333 10.0823 14.3C10.6289 13.9667 10.9023 13.4867 10.9023 12.86C10.9023 12.4333 10.7689 12.1 10.5023 11.86C10.2356 11.6067 9.78227 11.4067 9.14227 11.26C8.88893 11.1933 8.58227 11.1333 8.22227 11.08C7.86227 11.0267 7.30227 10.96 6.54227 10.88C4.5156 10.6267 3.10893 10.18 2.32227 9.54C1.54893 8.88667 1.16227 7.94 1.16227 6.7C1.16227 5.39333 1.68227 4.36 2.72227 3.6C3.76227 2.82667 5.1956 2.44 7.02227 2.44C9.08893 2.44 10.6689 2.83333 11.7623 3.62C12.8556 4.40667 13.4823 5.6 13.6423 7.2H10.5823C10.4623 6.37333 10.1223 5.78 9.56227 5.42C9.00227 5.06 8.1356 4.88 6.96227 4.88C6.02893 4.88 5.32227 5.03333 4.84227 5.34C4.36227 5.63333 4.12227 6.06667 4.12227 6.64C4.12227 7.18667 4.36893 7.59333 4.86227 7.86C5.36893 8.11333 6.42893 8.32667 8.04227 8.5C10.2156 8.75333 11.7223 9.20667 12.5623 9.86C13.4023 10.5133 13.8223 11.4733 13.8223 12.74ZM22.9145 14.36H24.1145V17H22.1545C20.4078 17 19.2078 16.6533 18.5545 15.96C17.9145 15.2667 17.5945 13.94 17.5945 11.98V8.06H14.9545V5.64C15.3678 5.64 15.6745 5.64 15.8745 5.64C16.0745 5.62667 16.2678 5.61333 16.4545 5.6C16.9211 5.58667 17.2345 5.48667 17.3945 5.3C17.5678 5.1 17.6878 4.72 17.7545 4.16C17.7945 3.93333 17.8211 3.65333 17.8345 3.32C17.8611 2.97333 17.8678 2.66667 17.8545 2.4H20.3345V5.5H24.1145V8.06H20.3345V11.48C20.3345 12.7333 20.4811 13.5267 20.7745 13.86C21.0678 14.1933 21.7811 14.36 22.9145 14.36ZM37.794 17H35.414L35.114 14.54C34.6473 15.4333 33.9473 16.1267 33.014 16.62C32.094 17.1 31.0073 17.34 29.754 17.34C28.394 17.34 27.3473 17.0667 26.614 16.52C25.894 15.9733 25.534 15.1933 25.534 14.18C25.534 13.5267 25.6673 12.96 25.934 12.48C26.214 12 26.6207 11.6133 27.154 11.32C27.6473 11.04 28.2007 10.8333 28.814 10.7C29.4273 10.5533 30.474 10.4067 31.954 10.26C33.1807 10.14 33.9873 9.99333 34.374 9.82C34.774 9.63333 34.974 9.34 34.974 8.94V8.92C34.974 8.41333 34.7407 8.03333 34.274 7.78C33.8207 7.51333 33.134 7.38 32.214 7.38C31.134 7.38 30.3273 7.55333 29.794 7.9C29.2607 8.24667 28.9607 8.79333 28.894 9.54H25.874C26.0073 8.14 26.6007 7.06667 27.654 6.32C28.7207 5.56 30.174 5.18 32.014 5.18C34.014 5.18 35.474 5.52667 36.394 6.22C37.3273 6.9 37.794 7.98667 37.794 9.48V17ZM30.694 15.16C31.8807 15.16 32.894 14.8133 33.734 14.12C34.574 13.4133 34.994 12.6 34.994 11.68V11.28C34.7807 11.4533 34.4673 11.6067 34.054 11.74C33.654 11.86 33.1073 11.96 32.414 12.04C31.494 12.1333 30.8207 12.2267 30.394 12.32C29.9807 12.4133 29.6473 12.5333 29.394 12.68C29.1407 12.8267 28.9607 12.9933 28.854 13.18C28.7473 13.3533 28.694 13.5667 28.694 13.82V13.84C28.694 14.28 28.8607 14.6133 29.194 14.84C29.5273 15.0533 30.0273 15.16 30.694 15.16ZM46.4941 7.64C45.4275 7.64 44.6208 7.95333 44.0741 8.58C43.5275 9.20667 43.2541 10.1333 43.2541 11.36V17H40.2941V5.5H42.7941L43.0541 7.9C43.4408 7.02 44.0075 6.34667 44.7541 5.88C45.5141 5.41333 46.4141 5.18 47.4541 5.18C48.9741 5.18 50.1608 5.62667 51.0141 6.52C51.8675 7.41333 52.2941 8.65333 52.2941 10.24V17H49.3341V10.96C49.3341 9.81333 49.1008 8.97333 48.6341 8.44C48.1808 7.90667 47.4675 7.64 46.4941 7.64ZM58.2082 2.2C58.2082 2.84 58.0482 3.31333 57.7282 3.62C57.4215 3.91333 56.9349 4.06 56.2682 4.06C55.5749 4.06 55.0815 3.92 54.7882 3.64C54.4949 3.34667 54.3482 2.86667 54.3482 2.2C54.3482 1.56 54.4949 1.09333 54.7882 0.799999C55.0949 0.506666 55.5882 0.36 56.2682 0.36C56.9482 0.36 57.4415 0.506666 57.7482 0.799999C58.0549 1.09333 58.2082 1.56 58.2082 2.2ZM57.7282 5.5V17H54.7282V5.5H57.7282ZM79.8549 17H76.4749L72.1149 9.76L69.1749 12.66V17H66.2549V2.74H69.1749V9.42L75.7949 2.74H79.5349L74.2149 8.04L79.8549 17ZM91.8923 17H89.3923L89.1323 14.66C88.7856 15.5133 88.2523 16.1667 87.5323 16.62C86.8123 17.0733 85.9389 17.3 84.9123 17.3C83.4189 17.3 82.2723 16.8667 81.4723 16C80.6723 15.1333 80.2723 13.9 80.2723 12.3V5.5H83.2323V11.58C83.2323 12.6867 83.4589 13.5 83.9123 14.02C84.3656 14.54 85.0656 14.8 86.0123 14.8C86.9189 14.8 87.6256 14.4867 88.1323 13.86C88.6523 13.2333 88.9123 12.3667 88.9123 11.26V5.5H91.8923V17ZM97.3948 1.68V17H94.4548V1.68H97.3948ZM109.024 13.6H112.224C111.77 14.84 111.004 15.7733 109.924 16.4C108.857 17.0267 107.49 17.34 105.824 17.34C103.717 17.34 102.117 16.8467 101.024 15.86C99.9302 14.86 99.3835 13.4067 99.3835 11.5V11.32C99.3835 9.46667 99.9768 7.98 101.164 6.86C102.35 5.74 103.95 5.18 105.964 5.18C107.95 5.18 109.51 5.72 110.644 6.8C111.79 7.86667 112.364 9.3 112.364 11.1V12.32H102.224C102.37 13.2 102.757 13.8667 103.384 14.32C104.01 14.76 104.877 14.98 105.984 14.98C106.784 14.98 107.43 14.8667 107.924 14.64C108.417 14.4133 108.784 14.0667 109.024 13.6ZM106.024 7.46C104.984 7.46 104.144 7.68667 103.504 8.14C102.864 8.59333 102.45 9.25333 102.264 10.12H109.464C109.33 9.22667 108.977 8.56 108.404 8.12C107.83 7.68 107.037 7.46 106.024 7.46ZM120.531 17.34C118.411 17.34 116.798 16.84 115.691 15.84C114.598 14.8267 114.051 13.3533 114.051 11.42V11.24C114.051 9.38667 114.645 7.91333 115.831 6.82C117.018 5.72667 118.605 5.18 120.591 5.18C122.511 5.18 124.025 5.61333 125.131 6.48C126.251 7.34667 126.891 8.59333 127.051 10.22V10.24H123.931V10.2C123.798 9.33333 123.458 8.68667 122.911 8.26C122.365 7.83333 121.598 7.62 120.611 7.62C119.478 7.62 118.605 7.93333 117.991 8.56C117.378 9.18667 117.071 10.08 117.071 11.24V11.4C117.071 12.52 117.371 13.3733 117.971 13.96C118.571 14.5467 119.445 14.84 120.591 14.84C121.605 14.84 122.385 14.6267 122.931 14.2C123.478 13.76 123.818 13.0933 123.951 12.2V12.18H127.051V12.22C126.918 13.8867 126.291 15.16 125.171 16.04C124.065 16.9067 122.518 17.34 120.531 17.34ZM135.007 7.62C133.967 7.62 133.167 7.94 132.607 8.58C132.047 9.22 131.767 10.14 131.767 11.34V17H128.947V1.68H131.767V7.66C132.167 6.86 132.734 6.24667 133.467 5.82C134.2 5.39333 135.067 5.18 136.067 5.18C137.574 5.18 138.74 5.62 139.567 6.5C140.394 7.36667 140.807 8.6 140.807 10.2V17H137.867V11.02C137.867 9.88667 137.627 9.04 137.147 8.48C136.667 7.90667 135.954 7.62 135.007 7.62ZM149.301 17.34C147.168 17.34 145.548 16.84 144.441 15.84C143.348 14.84 142.801 13.3667 142.801 11.42V11.24C142.801 9.37333 143.395 7.9 144.581 6.82C145.768 5.72667 147.355 5.18 149.341 5.18C151.355 5.18 152.948 5.72 154.121 6.8C155.295 7.88 155.881 9.36 155.881 11.24V11.42C155.881 13.2867 155.301 14.74 154.141 15.78C152.995 16.82 151.381 17.34 149.301 17.34ZM149.341 14.84C150.501 14.84 151.381 14.5467 151.981 13.96C152.595 13.3733 152.901 12.52 152.901 11.4V11.24C152.901 10.0667 152.595 9.17333 151.981 8.56C151.381 7.93333 150.508 7.62 149.361 7.62C148.228 7.62 147.348 7.93333 146.721 8.56C146.108 9.18667 145.801 10.08 145.801 11.24V11.4C145.801 12.52 146.101 13.3733 146.701 13.96C147.315 14.5467 148.195 14.84 149.341 14.84ZM169.544 5.5L164.084 17H161.384L156.184 5.5H159.324L162.784 13.76L166.364 5.5H169.544Z"
        fill="#232323" />
</svg>