<svg width="683" height="452" viewBox="0 0 683 452" fill="none" xmlns="http://www.w3.org/2000/svg">
<path d="M215.136 205.472C267.732 205.472 267.732 99.953 320.327 98.541" stroke="#2B51DA" stroke-opacity="0.8" stroke-width="29.4537" stroke-linecap="round"/>
<path d="M215.136 246.024C267.732 246.024 267.732 218.008 320.327 217.633" stroke="#2B51DA" stroke-opacity="0.4" stroke-width="29.4537" stroke-linecap="round"/>
<path d="M215.136 229.127C267.732 229.127 267.732 334.647 320.327 336.059" stroke="#2B51DA" stroke-opacity="0.6" stroke-width="29.4537" stroke-linecap="round"/>
<path d="M509.675 209.525C562.269 209.525 562.269 66.6539 614.864 64.7422" stroke="#2B51DA" stroke-opacity="0.4" stroke-width="29.4537" stroke-linecap="round"/>
<path d="M509.675 354.295C562.269 354.295 562.269 211.423 614.864 209.512" stroke="#2B51DA" stroke-opacity="0.8" stroke-width="29.4537" stroke-linecap="round"/>
<path d="M614.862 370.913C562.267 370.913 562.267 338.119 509.672 337.68" stroke="#2B51DA" stroke-opacity="0.4" stroke-width="29.4537" stroke-linecap="round"/>
<path d="M509.675 64.7286C562.269 64.7286 562.269 63.6993 614.864 63.6855" stroke="#2B51DA" stroke-opacity="0.8" stroke-width="29.4537" stroke-linecap="round"/>
<path d="M509.675 84.7472C562.269 84.7472 562.269 208.259 614.864 209.912" stroke="#2B51DA" stroke-opacity="0.6" stroke-width="29.4537" stroke-linecap="round"/>
<g filter="url(#filter0_d_17520_516)">
<rect x="25.791" y="150.764" width="189.345" height="133.07" rx="10.6931" fill="url(#paint0_linear_17520_516)"/>
<path d="M41.4511 259.182H38.1449V252.081H41.3515C42.3772 252.081 43.134 252.231 43.622 252.53C44.1099 252.828 44.3589 253.296 44.3589 253.924V253.954C44.3589 254.382 44.2593 254.72 44.0801 254.979C43.8909 255.238 43.6021 255.417 43.2037 255.537C43.6519 255.646 43.9805 255.826 44.1996 256.085C44.4087 256.344 44.5182 256.692 44.5182 257.13V257.14C44.5182 257.837 44.2593 258.345 43.7614 258.684C43.2535 259.022 42.4867 259.182 41.4511 259.182ZM41.4212 253.237H39.559V254.969H41.4511C41.9689 254.969 42.3473 254.9 42.5863 254.76C42.8154 254.621 42.9349 254.402 42.9349 254.103V254.083C42.9349 253.784 42.8154 253.565 42.5963 253.436C42.3672 253.306 41.9789 253.237 41.4212 253.237ZM41.3316 256.114H39.559V257.957H41.2718C41.9092 257.957 42.3672 257.897 42.6361 257.758C42.895 257.618 43.0344 257.379 43.0344 257.031V257.021C43.0344 256.692 42.905 256.463 42.656 256.324C42.4071 256.184 41.9689 256.114 41.3316 256.114ZM48.5601 259.351C47.4946 259.351 46.688 259.102 46.1403 258.604C45.5926 258.106 45.3237 257.379 45.3237 256.403V256.314C45.3237 255.388 45.6125 254.651 46.21 254.113C46.7975 253.575 47.5842 253.296 48.58 253.296C49.5759 253.296 50.3725 253.565 50.9601 254.103C51.5377 254.641 51.8364 255.378 51.8364 256.314V256.403C51.8364 257.339 51.5476 258.056 50.97 258.574C50.3924 259.092 49.5958 259.351 48.5601 259.351ZM48.58 258.106C49.1576 258.106 49.5958 257.967 49.8945 257.668C50.1933 257.379 50.3526 256.951 50.3526 256.393V256.314C50.3526 255.736 50.1933 255.288 49.8945 254.979C49.5958 254.671 49.1576 254.511 48.59 254.511C48.0224 254.511 47.5842 254.671 47.2755 254.979C46.9668 255.298 46.8174 255.736 46.8174 256.314V256.393C46.8174 256.951 46.9668 257.379 47.2655 257.668C47.5643 257.967 48.0025 258.106 48.58 258.106ZM58.6122 259.182H57.3674L57.238 258.017C57.0587 258.445 56.7998 258.773 56.4413 258.992C56.0828 259.221 55.6447 259.331 55.1368 259.331C54.3899 259.331 53.8223 259.122 53.424 258.684C53.0256 258.256 52.8265 257.638 52.8265 256.841V253.456H54.3003V256.483C54.3003 257.041 54.4098 257.439 54.6389 257.698C54.858 257.957 55.2065 258.086 55.6845 258.086C56.1326 258.086 56.4812 257.937 56.7401 257.618C56.999 257.309 57.1284 256.881 57.1284 256.324V253.456H58.6122V259.182ZM62.975 254.521C62.4372 254.521 62.0389 254.68 61.77 254.989C61.4912 255.308 61.3617 255.766 61.3617 256.373V259.182H59.8879V253.456H61.1327L61.2621 254.651C61.4514 254.212 61.7302 253.884 62.1086 253.645C62.487 253.416 62.9351 253.296 63.453 253.296C64.2098 253.296 64.7973 253.525 65.2255 253.963C65.6438 254.412 65.8629 255.029 65.8629 255.816V259.182H64.3891V256.174C64.3891 255.607 64.2696 255.188 64.0405 254.919C63.8115 254.661 63.453 254.521 62.975 254.521ZM70.0713 259.351C69.0158 259.351 68.2091 259.102 67.6614 258.604C67.1137 258.106 66.8449 257.369 66.8449 256.403V256.314C66.8449 255.397 67.1336 254.661 67.7311 254.113C68.3187 253.575 69.1054 253.296 70.1012 253.296C71.0572 253.296 71.8041 253.515 72.3617 253.944C72.9194 254.382 73.2381 254.999 73.3177 255.806V255.816H71.7643V255.796C71.6945 255.368 71.5253 255.049 71.2564 254.83C70.9775 254.621 70.5991 254.511 70.1112 254.511C69.5436 254.511 69.1054 254.671 68.8066 254.979C68.4979 255.298 68.3486 255.736 68.3486 256.314V256.393C68.3486 256.951 68.4979 257.379 68.7967 257.668C69.0954 257.967 69.5236 258.106 70.1012 258.106C70.5991 258.106 70.9875 258.007 71.2663 257.787C71.5352 257.568 71.7045 257.24 71.7742 256.792V256.782H73.3177V256.802C73.248 257.638 72.9393 258.265 72.3817 258.704C71.824 259.142 71.0572 259.351 70.0713 259.351ZM78.8606 257.489H80.4539C80.2249 258.106 79.8465 258.574 79.3087 258.883C78.771 259.202 78.0938 259.351 77.2673 259.351C76.2117 259.351 75.4151 259.112 74.8773 258.614C74.3296 258.116 74.0607 257.399 74.0607 256.443V256.353C74.0607 255.437 74.3495 254.69 74.947 254.133C75.5346 253.575 76.3312 253.296 77.337 253.296C78.3229 253.296 79.0996 253.565 79.6672 254.103C80.2349 254.641 80.5237 255.348 80.5237 256.244V256.851H75.4748C75.5445 257.29 75.7337 257.628 76.0524 257.847C76.3611 258.066 76.7893 258.176 77.347 258.176C77.7453 258.176 78.064 258.126 78.3129 258.007C78.5519 257.897 78.7411 257.728 78.8606 257.489ZM77.3669 254.432C76.849 254.432 76.4308 254.551 76.1121 254.77C75.7935 254.999 75.5843 255.328 75.4947 255.756H79.0797C79.01 255.318 78.8307 254.979 78.5519 254.76C78.2631 254.541 77.8648 254.432 77.3669 254.432ZM41.4511 269.182H38.1449V262.081H41.3515C42.3772 262.081 43.134 262.231 43.622 262.53C44.1099 262.828 44.3589 263.296 44.3589 263.924V263.954C44.3589 264.382 44.2593 264.72 44.0801 264.979C43.8909 265.238 43.6021 265.417 43.2037 265.537C43.6519 265.646 43.9805 265.826 44.1996 266.085C44.4087 266.344 44.5182 266.692 44.5182 267.13V267.14C44.5182 267.837 44.2593 268.345 43.7614 268.684C43.2535 269.022 42.4867 269.182 41.4511 269.182ZM41.4212 263.237H39.559V264.969H41.4511C41.9689 264.969 42.3473 264.9 42.5863 264.76C42.8154 264.621 42.9349 264.402 42.9349 264.103V264.083C42.9349 263.784 42.8154 263.565 42.5963 263.436C42.3672 263.306 41.9789 263.237 41.4212 263.237ZM41.3316 266.114H39.559V267.957H41.2718C41.9092 267.957 42.3672 267.897 42.6361 267.758C42.895 267.618 43.0344 267.379 43.0344 267.031V267.021C43.0344 266.692 42.905 266.463 42.656 266.324C42.4071 266.184 41.9689 266.114 41.3316 266.114ZM48.5601 269.351C47.4946 269.351 46.688 269.102 46.1403 268.604C45.5926 268.106 45.3237 267.379 45.3237 266.403V266.314C45.3237 265.388 45.6125 264.651 46.21 264.113C46.7975 263.575 47.5842 263.296 48.58 263.296C49.5759 263.296 50.3725 263.565 50.9601 264.103C51.5377 264.641 51.8364 265.378 51.8364 266.314V266.403C51.8364 267.339 51.5476 268.056 50.97 268.574C50.3924 269.092 49.5958 269.351 48.5601 269.351ZM48.58 268.106C49.1576 268.106 49.5958 267.967 49.8945 267.668C50.1933 267.379 50.3526 266.951 50.3526 266.393V266.314C50.3526 265.736 50.1933 265.288 49.8945 264.979C49.5958 264.671 49.1576 264.511 48.59 264.511C48.0224 264.511 47.5842 264.671 47.2755 264.979C46.9668 265.298 46.8174 265.736 46.8174 266.314V266.393C46.8174 266.951 46.9668 267.379 47.2655 267.668C47.5643 267.967 48.0025 268.106 48.58 268.106ZM55.951 269.351C54.8855 269.351 54.0789 269.102 53.5312 268.604C52.9835 268.106 52.7146 267.379 52.7146 266.403V266.314C52.7146 265.388 53.0034 264.651 53.6009 264.113C54.1884 263.575 54.9751 263.296 55.971 263.296C56.9668 263.296 57.7634 263.565 58.351 264.103C58.9286 264.641 59.2273 265.378 59.2273 266.314V266.403C59.2273 267.339 58.9385 268.056 58.3609 268.574C57.7834 269.092 56.9867 269.351 55.951 269.351ZM55.971 268.106C56.5485 268.106 56.9867 267.967 57.2854 267.668C57.5842 267.379 57.7435 266.951 57.7435 266.393V266.314C57.7435 265.736 57.5842 265.288 57.2854 264.979C56.9867 264.671 56.5485 264.511 55.9809 264.511C55.4133 264.511 54.9751 264.671 54.6664 264.979C54.3577 265.298 54.2083 265.736 54.2083 266.314V266.393C54.2083 266.951 54.3577 267.379 54.6565 267.668C54.9552 267.967 55.3934 268.106 55.971 268.106ZM65.8531 267.409C65.8531 268.007 65.5942 268.485 65.0962 268.833C64.5884 269.182 63.8913 269.351 63.005 269.351C62.0291 269.351 61.2822 269.182 60.7544 268.843C60.2167 268.504 59.898 267.987 59.7984 267.29H61.4216C61.4814 267.608 61.6507 267.827 61.9096 267.967C62.1685 268.106 62.5469 268.176 63.0648 268.176C63.5228 268.176 63.8515 268.126 64.0705 268.007C64.2896 267.897 64.3992 267.718 64.3992 267.469C64.3992 267.28 64.2896 267.14 64.0805 267.051C63.8614 266.971 63.3735 266.891 62.5967 266.831C61.6507 266.762 60.9835 266.592 60.6051 266.334C60.2266 266.075 60.0374 265.686 60.0374 265.168C60.0374 264.591 60.2665 264.133 60.7445 263.794C61.2225 263.466 61.8797 263.296 62.7262 263.296C63.6025 263.296 64.2996 263.456 64.7975 263.774C65.2954 264.093 65.6141 264.561 65.7535 265.198H64.2199C64.1602 264.929 64.0108 264.73 63.7718 264.601C63.5328 264.481 63.1743 264.412 62.7162 264.412C62.298 264.412 61.9793 264.471 61.7702 264.581C61.5611 264.69 61.4615 264.85 61.4615 265.069C61.4615 265.268 61.5611 265.417 61.7801 265.497C61.9992 265.587 62.4772 265.656 63.234 265.716C64.2299 265.806 64.917 265.975 65.2954 266.234C65.6639 266.493 65.8531 266.881 65.8531 267.409ZM70.1589 267.867H70.7564V269.182H69.7805C68.9042 269.182 68.3067 269.012 67.988 268.664C67.6694 268.325 67.51 267.658 67.51 266.682V264.73H66.1955V263.525C66.3947 263.525 66.554 263.525 66.6536 263.525C66.7532 263.525 66.8428 263.515 66.9424 263.505C67.1715 263.505 67.3308 263.456 67.4105 263.356C67.4901 263.256 67.5499 263.067 67.5897 262.788C67.6096 262.679 67.6196 262.539 67.6295 262.37C67.6395 262.201 67.6395 262.052 67.6395 261.912H68.8743V263.456H70.7564V264.73H68.8743V266.433C68.8743 267.061 68.944 267.459 69.0934 267.618C69.2328 267.787 69.5913 267.867 70.1589 267.867ZM76.1474 267.489H77.7407C77.5117 268.106 77.1332 268.574 76.5955 268.883C76.0577 269.202 75.3806 269.351 74.554 269.351C73.4985 269.351 72.7018 269.112 72.1641 268.614C71.6164 268.116 71.3475 267.399 71.3475 266.443V266.353C71.3475 265.437 71.6363 264.69 72.2338 264.133C72.8213 263.575 73.618 263.296 74.6238 263.296C75.6096 263.296 76.3864 263.565 76.954 264.103C77.5216 264.641 77.8104 265.348 77.8104 266.244V266.851H72.7616C72.8313 267.29 73.0205 267.628 73.3391 267.847C73.6478 268.066 74.076 268.176 74.6337 268.176C75.032 268.176 75.3507 268.126 75.5997 268.007C75.8387 267.897 76.0279 267.728 76.1474 267.489ZM74.6536 264.432C74.1358 264.432 73.7176 264.551 73.3989 264.77C73.0802 264.999 72.8711 265.328 72.7815 265.756H76.3665C76.2967 265.318 76.1175 264.979 75.8387 264.76C75.5499 264.541 75.1515 264.432 74.6536 264.432ZM80.2664 266.831V269.182H78.8125V263.456H80.0274L80.2067 264.89C80.3362 264.392 80.5752 264.023 80.9137 263.774C81.2523 263.535 81.7104 263.406 82.278 263.406H82.8058V264.86H82.1585C81.4316 264.86 80.9337 264.999 80.6648 265.268C80.3959 265.547 80.2664 266.065 80.2664 266.831Z" fill="white"/>
</g>
<g filter="url(#filter1_d_17520_516)">
<rect x="320.327" y="17" width="189.345" height="115.711" rx="10.6931" fill="white"/>
</g>
<path d="M336.201 111.188H332.895V104.087H336.101C337.127 104.087 337.884 104.237 338.372 104.535C338.86 104.834 339.109 105.302 339.109 105.93V105.959C339.109 106.388 339.009 106.726 338.83 106.985C338.641 107.244 338.352 107.423 337.954 107.543C338.402 107.652 338.73 107.832 338.95 108.09C339.159 108.349 339.268 108.698 339.268 109.136V109.146C339.268 109.843 339.009 110.351 338.511 110.69C338.004 111.028 337.237 111.188 336.201 111.188ZM336.171 105.242H334.309V106.975H336.201C336.719 106.975 337.097 106.905 337.336 106.766C337.565 106.627 337.685 106.408 337.685 106.109V106.089C337.685 105.79 337.565 105.571 337.346 105.442C337.117 105.312 336.729 105.242 336.171 105.242ZM336.082 108.12H334.309V109.963H336.022C336.659 109.963 337.117 109.903 337.386 109.763C337.645 109.624 337.784 109.385 337.784 109.037V109.027C337.784 108.698 337.655 108.469 337.406 108.329C337.157 108.19 336.719 108.12 336.082 108.12ZM343.31 111.357C342.245 111.357 341.438 111.108 340.89 110.61C340.343 110.112 340.074 109.385 340.074 108.409V108.32C340.074 107.393 340.362 106.656 340.96 106.119C341.548 105.581 342.334 105.302 343.33 105.302C344.326 105.302 345.123 105.571 345.71 106.109C346.288 106.647 346.586 107.383 346.586 108.32V108.409C346.586 109.345 346.298 110.062 345.72 110.58C345.142 111.098 344.346 111.357 343.31 111.357ZM343.33 110.112C343.908 110.112 344.346 109.973 344.645 109.674C344.943 109.385 345.103 108.957 345.103 108.399V108.32C345.103 107.742 344.943 107.294 344.645 106.985C344.346 106.676 343.908 106.517 343.34 106.517C342.772 106.517 342.334 106.676 342.026 106.985C341.717 107.304 341.567 107.742 341.567 108.32V108.399C341.567 108.957 341.717 109.385 342.016 109.674C342.314 109.973 342.752 110.112 343.33 110.112ZM353.362 111.188H352.117L351.988 110.022C351.809 110.451 351.55 110.779 351.191 110.998C350.833 111.227 350.395 111.337 349.887 111.337C349.14 111.337 348.572 111.128 348.174 110.69C347.776 110.261 347.576 109.644 347.576 108.847V105.461H349.05V108.489C349.05 109.046 349.16 109.445 349.389 109.704C349.608 109.963 349.957 110.092 350.434 110.092C350.883 110.092 351.231 109.943 351.49 109.624C351.749 109.315 351.878 108.887 351.878 108.329V105.461H353.362V111.188ZM357.725 106.527C357.187 106.527 356.789 106.686 356.52 106.995C356.241 107.314 356.112 107.772 356.112 108.379V111.188H354.638V105.461H355.883L356.012 106.656C356.201 106.218 356.48 105.89 356.859 105.651C357.237 105.422 357.685 105.302 358.203 105.302C358.96 105.302 359.547 105.531 359.976 105.969C360.394 106.417 360.613 107.035 360.613 107.822V111.188H359.139V108.18C359.139 107.612 359.02 107.194 358.791 106.925C358.561 106.666 358.203 106.527 357.725 106.527ZM364.821 111.357C363.766 111.357 362.959 111.108 362.411 110.61C361.864 110.112 361.595 109.375 361.595 108.409V108.32C361.595 107.403 361.884 106.666 362.481 106.119C363.069 105.581 363.855 105.302 364.851 105.302C365.807 105.302 366.554 105.521 367.112 105.949C367.669 106.388 367.988 107.005 368.068 107.812V107.822H366.514V107.802C366.445 107.373 366.275 107.055 366.006 106.836C365.728 106.627 365.349 106.517 364.861 106.517C364.294 106.517 363.855 106.676 363.557 106.985C363.248 107.304 363.099 107.742 363.099 108.32V108.399C363.099 108.957 363.248 109.385 363.547 109.674C363.845 109.973 364.274 110.112 364.851 110.112C365.349 110.112 365.738 110.012 366.016 109.793C366.285 109.574 366.455 109.246 366.524 108.798V108.788H368.068V108.807C367.998 109.644 367.689 110.271 367.132 110.71C366.574 111.148 365.807 111.357 364.821 111.357ZM373.611 109.495H375.204C374.975 110.112 374.596 110.58 374.059 110.889C373.521 111.207 372.844 111.357 372.017 111.357C370.962 111.357 370.165 111.118 369.627 110.62C369.08 110.122 368.811 109.405 368.811 108.449V108.359C368.811 107.443 369.1 106.696 369.697 106.139C370.285 105.581 371.081 105.302 372.087 105.302C373.073 105.302 373.85 105.571 374.417 106.109C374.985 106.647 375.274 107.354 375.274 108.25V108.857H370.225C370.295 109.295 370.484 109.634 370.802 109.853C371.111 110.072 371.539 110.182 372.097 110.182C372.495 110.182 372.814 110.132 373.063 110.012C373.302 109.903 373.491 109.734 373.611 109.495ZM372.117 106.437C371.599 106.437 371.181 106.557 370.862 106.776C370.543 107.005 370.334 107.334 370.245 107.762H373.83C373.76 107.324 373.581 106.985 373.302 106.766C373.013 106.547 372.615 106.437 372.117 106.437ZM336.201 121.188H332.895V114.087H336.101C337.127 114.087 337.884 114.237 338.372 114.535C338.86 114.834 339.109 115.302 339.109 115.93V115.959C339.109 116.388 339.009 116.726 338.83 116.985C338.641 117.244 338.352 117.423 337.954 117.543C338.402 117.652 338.73 117.832 338.95 118.09C339.159 118.349 339.268 118.698 339.268 119.136V119.146C339.268 119.843 339.009 120.351 338.511 120.69C338.004 121.028 337.237 121.188 336.201 121.188ZM336.171 115.242H334.309V116.975H336.201C336.719 116.975 337.097 116.905 337.336 116.766C337.565 116.627 337.685 116.408 337.685 116.109V116.089C337.685 115.79 337.565 115.571 337.346 115.442C337.117 115.312 336.729 115.242 336.171 115.242ZM336.082 118.12H334.309V119.963H336.022C336.659 119.963 337.117 119.903 337.386 119.763C337.645 119.624 337.784 119.385 337.784 119.037V119.027C337.784 118.698 337.655 118.469 337.406 118.329C337.157 118.19 336.719 118.12 336.082 118.12ZM343.31 121.357C342.245 121.357 341.438 121.108 340.89 120.61C340.343 120.112 340.074 119.385 340.074 118.409V118.32C340.074 117.393 340.362 116.656 340.96 116.119C341.548 115.581 342.334 115.302 343.33 115.302C344.326 115.302 345.123 115.571 345.71 116.109C346.288 116.647 346.586 117.383 346.586 118.32V118.409C346.586 119.345 346.298 120.062 345.72 120.58C345.142 121.098 344.346 121.357 343.31 121.357ZM343.33 120.112C343.908 120.112 344.346 119.973 344.645 119.674C344.943 119.385 345.103 118.957 345.103 118.399V118.32C345.103 117.742 344.943 117.294 344.645 116.985C344.346 116.676 343.908 116.517 343.34 116.517C342.772 116.517 342.334 116.676 342.026 116.985C341.717 117.304 341.567 117.742 341.567 118.32V118.399C341.567 118.957 341.717 119.385 342.016 119.674C342.314 119.973 342.752 120.112 343.33 120.112ZM350.701 121.357C349.636 121.357 348.829 121.108 348.281 120.61C347.733 120.112 347.465 119.385 347.465 118.409V118.32C347.465 117.393 347.753 116.656 348.351 116.119C348.938 115.581 349.725 115.302 350.721 115.302C351.717 115.302 352.513 115.571 353.101 116.109C353.679 116.647 353.977 117.383 353.977 118.32V118.409C353.977 119.345 353.689 120.062 353.111 120.58C352.533 121.098 351.737 121.357 350.701 121.357ZM350.721 120.112C351.299 120.112 351.737 119.973 352.035 119.674C352.334 119.385 352.494 118.957 352.494 118.399V118.32C352.494 117.742 352.334 117.294 352.035 116.985C351.737 116.676 351.299 116.517 350.731 116.517C350.163 116.517 349.725 116.676 349.416 116.985C349.108 117.304 348.958 117.742 348.958 118.32V118.399C348.958 118.957 349.108 119.385 349.406 119.674C349.705 119.973 350.143 120.112 350.721 120.112ZM360.603 119.415C360.603 120.012 360.344 120.49 359.846 120.839C359.338 121.188 358.641 121.357 357.755 121.357C356.779 121.357 356.032 121.188 355.504 120.849C354.967 120.51 354.648 119.993 354.548 119.295H356.172C356.231 119.614 356.401 119.833 356.66 119.973C356.919 120.112 357.297 120.182 357.815 120.182C358.273 120.182 358.601 120.132 358.821 120.012C359.04 119.903 359.149 119.724 359.149 119.475C359.149 119.285 359.04 119.146 358.831 119.056C358.611 118.977 358.123 118.897 357.347 118.837C356.401 118.768 355.733 118.598 355.355 118.339C354.977 118.081 354.787 117.692 354.787 117.174C354.787 116.597 355.016 116.139 355.494 115.8C355.972 115.471 356.63 115.302 357.476 115.302C358.353 115.302 359.05 115.461 359.547 115.78C360.045 116.099 360.364 116.567 360.503 117.204H358.97C358.91 116.935 358.761 116.736 358.522 116.607C358.283 116.487 357.924 116.417 357.466 116.417C357.048 116.417 356.729 116.477 356.52 116.587C356.311 116.696 356.211 116.856 356.211 117.075C356.211 117.274 356.311 117.423 356.53 117.503C356.749 117.593 357.227 117.662 357.984 117.722C358.98 117.812 359.667 117.981 360.045 118.24C360.414 118.499 360.603 118.887 360.603 119.415ZM364.909 119.873H365.506V121.188H364.531C363.654 121.188 363.057 121.018 362.738 120.67C362.419 120.331 362.26 119.664 362.26 118.688V116.736H360.946V115.531C361.145 115.531 361.304 115.531 361.404 115.531C361.503 115.531 361.593 115.521 361.692 115.511C361.921 115.511 362.081 115.461 362.16 115.362C362.24 115.262 362.3 115.073 362.34 114.794C362.36 114.685 362.37 114.545 362.38 114.376C362.389 114.207 362.389 114.057 362.389 113.918H363.624V115.461H365.506V116.736H363.624V118.439C363.624 119.066 363.694 119.465 363.843 119.624C363.983 119.793 364.341 119.873 364.909 119.873ZM370.897 119.495H372.491C372.262 120.112 371.883 120.58 371.345 120.889C370.808 121.207 370.131 121.357 369.304 121.357C368.248 121.357 367.452 121.118 366.914 120.62C366.366 120.122 366.097 119.405 366.097 118.449V118.359C366.097 117.443 366.386 116.696 366.984 116.139C367.571 115.581 368.368 115.302 369.374 115.302C370.36 115.302 371.136 115.571 371.704 116.109C372.272 116.647 372.56 117.354 372.56 118.25V118.857H367.512C367.581 119.295 367.77 119.634 368.089 119.853C368.398 120.072 368.826 120.182 369.384 120.182C369.782 120.182 370.101 120.132 370.35 120.012C370.589 119.903 370.778 119.734 370.897 119.495ZM369.404 116.437C368.886 116.437 368.468 116.557 368.149 116.776C367.83 117.005 367.621 117.334 367.531 117.762H371.116C371.047 117.324 370.867 116.985 370.589 116.766C370.3 116.547 369.902 116.437 369.404 116.437ZM375.016 118.837V121.188H373.563V115.461H374.777L374.957 116.895C375.086 116.398 375.325 116.029 375.664 115.78C376.002 115.541 376.46 115.412 377.028 115.412H377.556V116.866H376.909C376.182 116.866 375.684 117.005 375.415 117.274C375.146 117.553 375.016 118.071 375.016 118.837Z" fill="#CFCFCF"/>
<g filter="url(#filter2_d_17520_516)">
<rect x="320.327" y="159.443" width="189.345" height="115.711" rx="10.6931" fill="white"/>
</g>
<path d="M336.201 253.631H332.895V246.531H336.101C337.127 246.531 337.884 246.68 338.372 246.979C338.86 247.277 339.109 247.746 339.109 248.373V248.403C339.109 248.831 339.009 249.17 338.83 249.428C338.641 249.687 338.352 249.867 337.954 249.986C338.402 250.096 338.73 250.275 338.95 250.534C339.159 250.793 339.268 251.141 339.268 251.579V251.589C339.268 252.286 339.009 252.794 338.511 253.133C338.004 253.472 337.237 253.631 336.201 253.631ZM336.171 247.686H334.309V249.419H336.201C336.719 249.419 337.097 249.349 337.336 249.209C337.565 249.07 337.685 248.851 337.685 248.552V248.532C337.685 248.233 337.565 248.014 337.346 247.885C337.117 247.755 336.729 247.686 336.171 247.686ZM336.082 250.564H334.309V252.406H336.022C336.659 252.406 337.117 252.346 337.386 252.207C337.645 252.067 337.784 251.828 337.784 251.48V251.47C337.784 251.141 337.655 250.912 337.406 250.773C337.157 250.633 336.719 250.564 336.082 250.564ZM343.31 253.8C342.245 253.8 341.438 253.551 340.89 253.053C340.343 252.555 340.074 251.828 340.074 250.852V250.763C340.074 249.837 340.362 249.1 340.96 248.562C341.548 248.024 342.334 247.746 343.33 247.746C344.326 247.746 345.123 248.014 345.71 248.552C346.288 249.09 346.586 249.827 346.586 250.763V250.852C346.586 251.789 346.298 252.506 345.72 253.023C345.142 253.541 344.346 253.8 343.31 253.8ZM343.33 252.555C343.908 252.555 344.346 252.416 344.645 252.117C344.943 251.828 345.103 251.4 345.103 250.843V250.763C345.103 250.185 344.943 249.737 344.645 249.428C344.346 249.12 343.908 248.96 343.34 248.96C342.772 248.96 342.334 249.12 342.026 249.428C341.717 249.747 341.567 250.185 341.567 250.763V250.843C341.567 251.4 341.717 251.828 342.016 252.117C342.314 252.416 342.752 252.555 343.33 252.555ZM353.362 253.631H352.117L351.988 252.466C351.809 252.894 351.55 253.223 351.191 253.442C350.833 253.671 350.395 253.78 349.887 253.78C349.14 253.78 348.572 253.571 348.174 253.133C347.776 252.705 347.576 252.087 347.576 251.291V247.905H349.05V250.932C349.05 251.49 349.16 251.888 349.389 252.147C349.608 252.406 349.957 252.535 350.434 252.535C350.883 252.535 351.231 252.386 351.49 252.067C351.749 251.759 351.878 251.33 351.878 250.773V247.905H353.362V253.631ZM357.725 248.97C357.187 248.97 356.789 249.13 356.52 249.438C356.241 249.757 356.112 250.215 356.112 250.823V253.631H354.638V247.905H355.883L356.012 249.1C356.201 248.662 356.48 248.333 356.859 248.094C357.237 247.865 357.685 247.746 358.203 247.746C358.96 247.746 359.547 247.975 359.976 248.413C360.394 248.861 360.613 249.478 360.613 250.265V253.631H359.139V250.623C359.139 250.056 359.02 249.638 358.791 249.369C358.561 249.11 358.203 248.97 357.725 248.97ZM364.821 253.8C363.766 253.8 362.959 253.551 362.411 253.053C361.864 252.555 361.595 251.818 361.595 250.852V250.763C361.595 249.847 361.884 249.11 362.481 248.562C363.069 248.024 363.855 247.746 364.851 247.746C365.807 247.746 366.554 247.965 367.112 248.393C367.669 248.831 367.988 249.448 368.068 250.255V250.265H366.514V250.245C366.445 249.817 366.275 249.498 366.006 249.279C365.728 249.07 365.349 248.96 364.861 248.96C364.294 248.96 363.855 249.12 363.557 249.428C363.248 249.747 363.099 250.185 363.099 250.763V250.843C363.099 251.4 363.248 251.828 363.547 252.117C363.845 252.416 364.274 252.555 364.851 252.555C365.349 252.555 365.738 252.456 366.016 252.237C366.285 252.018 366.455 251.689 366.524 251.241V251.231H368.068V251.251C367.998 252.087 367.689 252.715 367.132 253.153C366.574 253.591 365.807 253.8 364.821 253.8ZM373.611 251.938H375.204C374.975 252.555 374.596 253.023 374.059 253.332C373.521 253.651 372.844 253.8 372.017 253.8C370.962 253.8 370.165 253.561 369.627 253.063C369.08 252.565 368.811 251.848 368.811 250.892V250.803C368.811 249.887 369.1 249.14 369.697 248.582C370.285 248.024 371.081 247.746 372.087 247.746C373.073 247.746 373.85 248.014 374.417 248.552C374.985 249.09 375.274 249.797 375.274 250.693V251.301H370.225C370.295 251.739 370.484 252.077 370.802 252.296C371.111 252.516 371.539 252.625 372.097 252.625C372.495 252.625 372.814 252.575 373.063 252.456C373.302 252.346 373.491 252.177 373.611 251.938ZM372.117 248.881C371.599 248.881 371.181 249 370.862 249.219C370.543 249.448 370.334 249.777 370.245 250.205H373.83C373.76 249.767 373.581 249.428 373.302 249.209C373.013 248.99 372.615 248.881 372.117 248.881ZM336.201 263.631H332.895V256.531H336.101C337.127 256.531 337.884 256.68 338.372 256.979C338.86 257.277 339.109 257.746 339.109 258.373V258.403C339.109 258.831 339.009 259.17 338.83 259.428C338.641 259.687 338.352 259.867 337.954 259.986C338.402 260.096 338.73 260.275 338.95 260.534C339.159 260.793 339.268 261.141 339.268 261.579V261.589C339.268 262.286 339.009 262.794 338.511 263.133C338.004 263.472 337.237 263.631 336.201 263.631ZM336.171 257.686H334.309V259.419H336.201C336.719 259.419 337.097 259.349 337.336 259.209C337.565 259.07 337.685 258.851 337.685 258.552V258.532C337.685 258.233 337.565 258.014 337.346 257.885C337.117 257.755 336.729 257.686 336.171 257.686ZM336.082 260.564H334.309V262.406H336.022C336.659 262.406 337.117 262.346 337.386 262.207C337.645 262.067 337.784 261.828 337.784 261.48V261.47C337.784 261.141 337.655 260.912 337.406 260.773C337.157 260.633 336.719 260.564 336.082 260.564ZM343.31 263.8C342.245 263.8 341.438 263.551 340.89 263.053C340.343 262.555 340.074 261.828 340.074 260.852V260.763C340.074 259.837 340.362 259.1 340.96 258.562C341.548 258.024 342.334 257.746 343.33 257.746C344.326 257.746 345.123 258.014 345.71 258.552C346.288 259.09 346.586 259.827 346.586 260.763V260.852C346.586 261.789 346.298 262.506 345.72 263.023C345.142 263.541 344.346 263.8 343.31 263.8ZM343.33 262.555C343.908 262.555 344.346 262.416 344.645 262.117C344.943 261.828 345.103 261.4 345.103 260.843V260.763C345.103 260.185 344.943 259.737 344.645 259.428C344.346 259.12 343.908 258.96 343.34 258.96C342.772 258.96 342.334 259.12 342.026 259.428C341.717 259.747 341.567 260.185 341.567 260.763V260.843C341.567 261.4 341.717 261.828 342.016 262.117C342.314 262.416 342.752 262.555 343.33 262.555ZM350.701 263.8C349.636 263.8 348.829 263.551 348.281 263.053C347.733 262.555 347.465 261.828 347.465 260.852V260.763C347.465 259.837 347.753 259.1 348.351 258.562C348.938 258.024 349.725 257.746 350.721 257.746C351.717 257.746 352.513 258.014 353.101 258.552C353.679 259.09 353.977 259.827 353.977 260.763V260.852C353.977 261.789 353.689 262.506 353.111 263.023C352.533 263.541 351.737 263.8 350.701 263.8ZM350.721 262.555C351.299 262.555 351.737 262.416 352.035 262.117C352.334 261.828 352.494 261.4 352.494 260.843V260.763C352.494 260.185 352.334 259.737 352.035 259.428C351.737 259.12 351.299 258.96 350.731 258.96C350.163 258.96 349.725 259.12 349.416 259.428C349.108 259.747 348.958 260.185 348.958 260.763V260.843C348.958 261.4 349.108 261.828 349.406 262.117C349.705 262.416 350.143 262.555 350.721 262.555ZM360.603 261.858C360.603 262.456 360.344 262.934 359.846 263.282C359.338 263.631 358.641 263.8 357.755 263.8C356.779 263.8 356.032 263.631 355.504 263.292C354.967 262.954 354.648 262.436 354.548 261.739H356.172C356.231 262.057 356.401 262.277 356.66 262.416C356.919 262.555 357.297 262.625 357.815 262.625C358.273 262.625 358.601 262.575 358.821 262.456C359.04 262.346 359.149 262.167 359.149 261.918C359.149 261.729 359.04 261.589 358.831 261.5C358.611 261.42 358.123 261.34 357.347 261.281C356.401 261.211 355.733 261.042 355.355 260.783C354.977 260.524 354.787 260.136 354.787 259.618C354.787 259.04 355.016 258.582 355.494 258.243C355.972 257.915 356.63 257.746 357.476 257.746C358.353 257.746 359.05 257.905 359.547 258.224C360.045 258.542 360.364 259.01 360.503 259.648H358.97C358.91 259.379 358.761 259.18 358.522 259.05C358.283 258.931 357.924 258.861 357.466 258.861C357.048 258.861 356.729 258.921 356.52 259.03C356.311 259.14 356.211 259.299 356.211 259.518C356.211 259.717 356.311 259.867 356.53 259.946C356.749 260.036 357.227 260.106 357.984 260.165C358.98 260.255 359.667 260.424 360.045 260.683C360.414 260.942 360.603 261.33 360.603 261.858ZM364.909 262.316H365.506V263.631H364.531C363.654 263.631 363.057 263.462 362.738 263.113C362.419 262.774 362.26 262.107 362.26 261.131V259.18H360.946V257.975C361.145 257.975 361.304 257.975 361.404 257.975C361.503 257.975 361.593 257.965 361.692 257.955C361.921 257.955 362.081 257.905 362.16 257.805C362.24 257.706 362.3 257.516 362.34 257.238C362.36 257.128 362.37 256.989 362.38 256.819C362.389 256.65 362.389 256.501 362.389 256.361H363.624V257.905H365.506V259.18H363.624V260.882C363.624 261.51 363.694 261.908 363.843 262.067C363.983 262.237 364.341 262.316 364.909 262.316ZM370.897 261.938H372.491C372.262 262.555 371.883 263.023 371.345 263.332C370.808 263.651 370.131 263.8 369.304 263.8C368.248 263.8 367.452 263.561 366.914 263.063C366.366 262.565 366.097 261.848 366.097 260.892V260.803C366.097 259.887 366.386 259.14 366.984 258.582C367.571 258.024 368.368 257.746 369.374 257.746C370.36 257.746 371.136 258.014 371.704 258.552C372.272 259.09 372.56 259.797 372.56 260.693V261.301H367.512C367.581 261.739 367.77 262.077 368.089 262.296C368.398 262.516 368.826 262.625 369.384 262.625C369.782 262.625 370.101 262.575 370.35 262.456C370.589 262.346 370.778 262.177 370.897 261.938ZM369.404 258.881C368.886 258.881 368.468 259 368.149 259.219C367.83 259.448 367.621 259.777 367.531 260.205H371.116C371.047 259.767 370.867 259.428 370.589 259.209C370.3 258.99 369.902 258.881 369.404 258.881ZM375.016 261.281V263.631H373.563V257.905H374.777L374.957 259.339C375.086 258.841 375.325 258.472 375.664 258.224C376.002 257.985 376.46 257.855 377.028 257.855H377.556V259.309H376.909C376.182 259.309 375.684 259.448 375.415 259.717C375.146 259.996 375.016 260.514 375.016 261.281Z" fill="#CFCFCF"/>
<g filter="url(#filter3_d_17520_516)">
<rect x="320.327" y="301.887" width="189.345" height="115.711" rx="10.6931" fill="white"/>
</g>
<path d="M336.201 396.074H332.895V388.974H336.101C337.127 388.974 337.884 389.123 338.372 389.422C338.86 389.721 339.109 390.189 339.109 390.816V390.846C339.109 391.274 339.009 391.613 338.83 391.872C338.641 392.131 338.352 392.31 337.954 392.429C338.402 392.539 338.73 392.718 338.95 392.977C339.159 393.236 339.268 393.585 339.268 394.023V394.033C339.268 394.73 339.009 395.238 338.511 395.576C338.004 395.915 337.237 396.074 336.201 396.074ZM336.171 390.129H334.309V391.862H336.201C336.719 391.862 337.097 391.792 337.336 391.653C337.565 391.513 337.685 391.294 337.685 390.995V390.976C337.685 390.677 337.565 390.458 337.346 390.328C337.117 390.199 336.729 390.129 336.171 390.129ZM336.082 393.007H334.309V394.849H336.022C336.659 394.849 337.117 394.79 337.386 394.65C337.645 394.511 337.784 394.272 337.784 393.923V393.913C337.784 393.585 337.655 393.356 337.406 393.216C337.157 393.077 336.719 393.007 336.082 393.007ZM343.31 396.244C342.245 396.244 341.438 395.995 340.89 395.497C340.343 394.999 340.074 394.272 340.074 393.296V393.206C340.074 392.28 340.362 391.543 340.96 391.005C341.548 390.468 342.334 390.189 343.33 390.189C344.326 390.189 345.123 390.458 345.71 390.995C346.288 391.533 346.586 392.27 346.586 393.206V393.296C346.586 394.232 346.298 394.949 345.72 395.467C345.142 395.985 344.346 396.244 343.31 396.244ZM343.33 394.999C343.908 394.999 344.346 394.859 344.645 394.561C344.943 394.272 345.103 393.844 345.103 393.286V393.206C345.103 392.629 344.943 392.181 344.645 391.872C344.346 391.563 343.908 391.404 343.34 391.404C342.772 391.404 342.334 391.563 342.026 391.872C341.717 392.19 341.567 392.629 341.567 393.206V393.286C341.567 393.844 341.717 394.272 342.016 394.561C342.314 394.859 342.752 394.999 343.33 394.999ZM353.362 396.074H352.117L351.988 394.909C351.809 395.337 351.55 395.666 351.191 395.885C350.833 396.114 350.395 396.224 349.887 396.224C349.14 396.224 348.572 396.014 348.174 395.576C347.776 395.148 347.576 394.531 347.576 393.734V390.348H349.05V393.376C349.05 393.933 349.16 394.332 349.389 394.59C349.608 394.849 349.957 394.979 350.434 394.979C350.883 394.979 351.231 394.829 351.49 394.511C351.749 394.202 351.878 393.774 351.878 393.216V390.348H353.362V396.074ZM357.725 391.414C357.187 391.414 356.789 391.573 356.52 391.882C356.241 392.2 356.112 392.659 356.112 393.266V396.074H354.638V390.348H355.883L356.012 391.543C356.201 391.105 356.48 390.776 356.859 390.537C357.237 390.308 357.685 390.189 358.203 390.189C358.96 390.189 359.547 390.418 359.976 390.856C360.394 391.304 360.613 391.922 360.613 392.708V396.074H359.139V393.067C359.139 392.499 359.02 392.081 358.791 391.812C358.561 391.553 358.203 391.414 357.725 391.414ZM364.821 396.244C363.766 396.244 362.959 395.995 362.411 395.497C361.864 394.999 361.595 394.262 361.595 393.296V393.206C361.595 392.29 361.884 391.553 362.481 391.005C363.069 390.468 363.855 390.189 364.851 390.189C365.807 390.189 366.554 390.408 367.112 390.836C367.669 391.274 367.988 391.892 368.068 392.698V392.708H366.514V392.688C366.445 392.26 366.275 391.942 366.006 391.722C365.728 391.513 365.349 391.404 364.861 391.404C364.294 391.404 363.855 391.563 363.557 391.872C363.248 392.19 363.099 392.629 363.099 393.206V393.286C363.099 393.844 363.248 394.272 363.547 394.561C363.845 394.859 364.274 394.999 364.851 394.999C365.349 394.999 365.738 394.899 366.016 394.68C366.285 394.461 366.455 394.132 366.524 393.684V393.674H368.068V393.694C367.998 394.531 367.689 395.158 367.132 395.596C366.574 396.034 365.807 396.244 364.821 396.244ZM373.611 394.381H375.204C374.975 394.999 374.596 395.467 374.059 395.775C373.521 396.094 372.844 396.244 372.017 396.244C370.962 396.244 370.165 396.005 369.627 395.507C369.08 395.009 368.811 394.292 368.811 393.336V393.246C368.811 392.33 369.1 391.583 369.697 391.025C370.285 390.468 371.081 390.189 372.087 390.189C373.073 390.189 373.85 390.458 374.417 390.995C374.985 391.533 375.274 392.24 375.274 393.137V393.744H370.225C370.295 394.182 370.484 394.521 370.802 394.74C371.111 394.959 371.539 395.068 372.097 395.068C372.495 395.068 372.814 395.019 373.063 394.899C373.302 394.79 373.491 394.62 373.611 394.381ZM372.117 391.324C371.599 391.324 371.181 391.444 370.862 391.663C370.543 391.892 370.334 392.22 370.245 392.649H373.83C373.76 392.21 373.581 391.872 373.302 391.653C373.013 391.434 372.615 391.324 372.117 391.324ZM336.201 406.074H332.895V398.974H336.101C337.127 398.974 337.884 399.123 338.372 399.422C338.86 399.721 339.109 400.189 339.109 400.816V400.846C339.109 401.274 339.009 401.613 338.83 401.872C338.641 402.131 338.352 402.31 337.954 402.429C338.402 402.539 338.73 402.718 338.95 402.977C339.159 403.236 339.268 403.585 339.268 404.023V404.033C339.268 404.73 339.009 405.238 338.511 405.576C338.004 405.915 337.237 406.074 336.201 406.074ZM336.171 400.129H334.309V401.862H336.201C336.719 401.862 337.097 401.792 337.336 401.653C337.565 401.513 337.685 401.294 337.685 400.995V400.976C337.685 400.677 337.565 400.458 337.346 400.328C337.117 400.199 336.729 400.129 336.171 400.129ZM336.082 403.007H334.309V404.849H336.022C336.659 404.849 337.117 404.79 337.386 404.65C337.645 404.511 337.784 404.272 337.784 403.923V403.913C337.784 403.585 337.655 403.356 337.406 403.216C337.157 403.077 336.719 403.007 336.082 403.007ZM343.31 406.244C342.245 406.244 341.438 405.995 340.89 405.497C340.343 404.999 340.074 404.272 340.074 403.296V403.206C340.074 402.28 340.362 401.543 340.96 401.005C341.548 400.468 342.334 400.189 343.33 400.189C344.326 400.189 345.123 400.458 345.71 400.995C346.288 401.533 346.586 402.27 346.586 403.206V403.296C346.586 404.232 346.298 404.949 345.72 405.467C345.142 405.985 344.346 406.244 343.31 406.244ZM343.33 404.999C343.908 404.999 344.346 404.859 344.645 404.561C344.943 404.272 345.103 403.844 345.103 403.286V403.206C345.103 402.629 344.943 402.181 344.645 401.872C344.346 401.563 343.908 401.404 343.34 401.404C342.772 401.404 342.334 401.563 342.026 401.872C341.717 402.19 341.567 402.629 341.567 403.206V403.286C341.567 403.844 341.717 404.272 342.016 404.561C342.314 404.859 342.752 404.999 343.33 404.999ZM350.701 406.244C349.636 406.244 348.829 405.995 348.281 405.497C347.733 404.999 347.465 404.272 347.465 403.296V403.206C347.465 402.28 347.753 401.543 348.351 401.005C348.938 400.468 349.725 400.189 350.721 400.189C351.717 400.189 352.513 400.458 353.101 400.995C353.679 401.533 353.977 402.27 353.977 403.206V403.296C353.977 404.232 353.689 404.949 353.111 405.467C352.533 405.985 351.737 406.244 350.701 406.244ZM350.721 404.999C351.299 404.999 351.737 404.859 352.035 404.561C352.334 404.272 352.494 403.844 352.494 403.286V403.206C352.494 402.629 352.334 402.181 352.035 401.872C351.737 401.563 351.299 401.404 350.731 401.404C350.163 401.404 349.725 401.563 349.416 401.872C349.108 402.19 348.958 402.629 348.958 403.206V403.286C348.958 403.844 349.108 404.272 349.406 404.561C349.705 404.859 350.143 404.999 350.721 404.999ZM360.603 404.302C360.603 404.899 360.344 405.377 359.846 405.726C359.338 406.074 358.641 406.244 357.755 406.244C356.779 406.244 356.032 406.074 355.504 405.736C354.967 405.397 354.648 404.879 354.548 404.182H356.172C356.231 404.501 356.401 404.72 356.66 404.859C356.919 404.999 357.297 405.068 357.815 405.068C358.273 405.068 358.601 405.019 358.821 404.899C359.04 404.79 359.149 404.61 359.149 404.361C359.149 404.172 359.04 404.033 358.831 403.943C358.611 403.863 358.123 403.784 357.347 403.724C356.401 403.654 355.733 403.485 355.355 403.226C354.977 402.967 354.787 402.579 354.787 402.061C354.787 401.483 355.016 401.025 355.494 400.687C355.972 400.358 356.63 400.189 357.476 400.189C358.353 400.189 359.05 400.348 359.547 400.667C360.045 400.986 360.364 401.454 360.503 402.091H358.97C358.91 401.822 358.761 401.623 358.522 401.493C358.283 401.374 357.924 401.304 357.466 401.304C357.048 401.304 356.729 401.364 356.52 401.473C356.311 401.583 356.211 401.742 356.211 401.961C356.211 402.161 356.311 402.31 356.53 402.39C356.749 402.479 357.227 402.549 357.984 402.609C358.98 402.698 359.667 402.868 360.045 403.127C360.414 403.385 360.603 403.774 360.603 404.302ZM364.909 404.76H365.506V406.074H364.531C363.654 406.074 363.057 405.905 362.738 405.556C362.419 405.218 362.26 404.551 362.26 403.575V401.623H360.946V400.418C361.145 400.418 361.304 400.418 361.404 400.418C361.503 400.418 361.593 400.408 361.692 400.398C361.921 400.398 362.081 400.348 362.16 400.249C362.24 400.149 362.3 399.96 362.34 399.681C362.36 399.571 362.37 399.432 362.38 399.263C362.389 399.093 362.389 398.944 362.389 398.805H363.624V400.348H365.506V401.623H363.624V403.326C363.624 403.953 363.694 404.351 363.843 404.511C363.983 404.68 364.341 404.76 364.909 404.76ZM370.897 404.381H372.491C372.262 404.999 371.883 405.467 371.345 405.775C370.808 406.094 370.131 406.244 369.304 406.244C368.248 406.244 367.452 406.005 366.914 405.507C366.366 405.009 366.097 404.292 366.097 403.336V403.246C366.097 402.33 366.386 401.583 366.984 401.025C367.571 400.468 368.368 400.189 369.374 400.189C370.36 400.189 371.136 400.458 371.704 400.995C372.272 401.533 372.56 402.24 372.56 403.137V403.744H367.512C367.581 404.182 367.77 404.521 368.089 404.74C368.398 404.959 368.826 405.068 369.384 405.068C369.782 405.068 370.101 405.019 370.35 404.899C370.589 404.79 370.778 404.62 370.897 404.381ZM369.404 401.324C368.886 401.324 368.468 401.444 368.149 401.663C367.83 401.892 367.621 402.22 367.531 402.649H371.116C371.047 402.21 370.867 401.872 370.589 401.653C370.3 401.434 369.902 401.324 369.404 401.324ZM375.016 403.724V406.074H373.563V400.348H374.777L374.957 401.782C375.086 401.284 375.325 400.916 375.664 400.667C376.002 400.428 376.46 400.298 377.028 400.298H377.556V401.752H376.909C376.182 401.752 375.684 401.892 375.415 402.161C375.146 402.439 375.016 402.957 375.016 403.724Z" fill="#CFCFCF"/>
<g filter="url(#filter4_d_17520_516)">
<rect x="614.865" y="17" width="189.345" height="115.711" rx="10.6931" fill="white"/>
</g>
<path d="M630.739 111.188H627.433V104.087H630.64C631.665 104.087 632.422 104.237 632.91 104.535C633.398 104.834 633.647 105.302 633.647 105.93V105.959C633.647 106.388 633.547 106.726 633.368 106.985C633.179 107.244 632.89 107.423 632.492 107.543C632.94 107.652 633.269 107.832 633.488 108.09C633.697 108.349 633.806 108.698 633.806 109.136V109.146C633.806 109.843 633.547 110.351 633.049 110.69C632.542 111.028 631.775 111.188 630.739 111.188ZM630.709 105.242H628.847V106.975H630.739C631.257 106.975 631.635 106.905 631.874 106.766C632.103 106.627 632.223 106.408 632.223 106.109V106.089C632.223 105.79 632.103 105.571 631.884 105.442C631.655 105.312 631.267 105.242 630.709 105.242ZM630.62 108.12H628.847V109.963H630.56C631.197 109.963 631.655 109.903 631.924 109.763C632.183 109.624 632.323 109.385 632.323 109.037V109.027C632.323 108.698 632.193 108.469 631.944 108.329C631.695 108.19 631.257 108.12 630.62 108.12ZM637.848 111.357C636.783 111.357 635.976 111.108 635.428 110.61C634.881 110.112 634.612 109.385 634.612 108.409V108.32C634.612 107.393 634.901 106.656 635.498 106.119C636.086 105.581 636.872 105.302 637.868 105.302C638.864 105.302 639.661 105.571 640.248 106.109C640.826 106.647 641.124 107.383 641.124 108.32V108.409C641.124 109.345 640.836 110.062 640.258 110.58C639.681 111.098 638.884 111.357 637.848 111.357ZM637.868 110.112C638.446 110.112 638.884 109.973 639.183 109.674C639.481 109.385 639.641 108.957 639.641 108.399V108.32C639.641 107.742 639.481 107.294 639.183 106.985C638.884 106.676 638.446 106.517 637.878 106.517C637.31 106.517 636.872 106.676 636.564 106.985C636.255 107.304 636.106 107.742 636.106 108.32V108.399C636.106 108.957 636.255 109.385 636.554 109.674C636.852 109.973 637.291 110.112 637.868 110.112ZM647.9 111.188H646.656L646.526 110.022C646.347 110.451 646.088 110.779 645.729 110.998C645.371 111.227 644.933 111.337 644.425 111.337C643.678 111.337 643.11 111.128 642.712 110.69C642.314 110.261 642.115 109.644 642.115 108.847V105.461H643.588V108.489C643.588 109.046 643.698 109.445 643.927 109.704C644.146 109.963 644.495 110.092 644.973 110.092C645.421 110.092 645.769 109.943 646.028 109.624C646.287 109.315 646.417 108.887 646.417 108.329V105.461H647.9V111.188ZM652.263 106.527C651.725 106.527 651.327 106.686 651.058 106.995C650.779 107.314 650.65 107.772 650.65 108.379V111.188H649.176V105.461H650.421L650.55 106.656C650.739 106.218 651.018 105.89 651.397 105.651C651.775 105.422 652.223 105.302 652.741 105.302C653.498 105.302 654.085 105.531 654.514 105.969C654.932 106.417 655.151 107.035 655.151 107.822V111.188H653.677V108.18C653.677 107.612 653.558 107.194 653.329 106.925C653.1 106.666 652.741 106.527 652.263 106.527ZM659.359 111.357C658.304 111.357 657.497 111.108 656.95 110.61C656.402 110.112 656.133 109.375 656.133 108.409V108.32C656.133 107.403 656.422 106.666 657.019 106.119C657.607 105.581 658.393 105.302 659.389 105.302C660.345 105.302 661.092 105.521 661.65 105.949C662.207 106.388 662.526 107.005 662.606 107.812V107.822H661.052V107.802C660.983 107.373 660.813 107.055 660.544 106.836C660.266 106.627 659.887 106.517 659.399 106.517C658.832 106.517 658.393 106.676 658.095 106.985C657.786 107.304 657.637 107.742 657.637 108.32V108.399C657.637 108.957 657.786 109.385 658.085 109.674C658.384 109.973 658.812 110.112 659.389 110.112C659.887 110.112 660.276 110.012 660.554 109.793C660.823 109.574 660.993 109.246 661.062 108.798V108.788H662.606V108.807C662.536 109.644 662.227 110.271 661.67 110.71C661.112 111.148 660.345 111.357 659.359 111.357ZM668.149 109.495H669.742C669.513 110.112 669.135 110.58 668.597 110.889C668.059 111.207 667.382 111.357 666.555 111.357C665.5 111.357 664.703 111.118 664.165 110.62C663.618 110.122 663.349 109.405 663.349 108.449V108.359C663.349 107.443 663.638 106.696 664.235 106.139C664.823 105.581 665.619 105.302 666.625 105.302C667.611 105.302 668.388 105.571 668.955 106.109C669.523 106.647 669.812 107.354 669.812 108.25V108.857H664.763C664.833 109.295 665.022 109.634 665.34 109.853C665.649 110.072 666.077 110.182 666.635 110.182C667.033 110.182 667.352 110.132 667.601 110.012C667.84 109.903 668.029 109.734 668.149 109.495ZM666.655 106.437C666.137 106.437 665.719 106.557 665.4 106.776C665.082 107.005 664.872 107.334 664.783 107.762H668.368C668.298 107.324 668.119 106.985 667.84 106.766C667.551 106.547 667.153 106.437 666.655 106.437ZM630.739 121.188H627.433V114.087H630.64C631.665 114.087 632.422 114.237 632.91 114.535C633.398 114.834 633.647 115.302 633.647 115.93V115.959C633.647 116.388 633.547 116.726 633.368 116.985C633.179 117.244 632.89 117.423 632.492 117.543C632.94 117.652 633.269 117.832 633.488 118.09C633.697 118.349 633.806 118.698 633.806 119.136V119.146C633.806 119.843 633.547 120.351 633.049 120.69C632.542 121.028 631.775 121.188 630.739 121.188ZM630.709 115.242H628.847V116.975H630.739C631.257 116.975 631.635 116.905 631.874 116.766C632.103 116.627 632.223 116.408 632.223 116.109V116.089C632.223 115.79 632.103 115.571 631.884 115.442C631.655 115.312 631.267 115.242 630.709 115.242ZM630.62 118.12H628.847V119.963H630.56C631.197 119.963 631.655 119.903 631.924 119.763C632.183 119.624 632.323 119.385 632.323 119.037V119.027C632.323 118.698 632.193 118.469 631.944 118.329C631.695 118.19 631.257 118.12 630.62 118.12ZM637.848 121.357C636.783 121.357 635.976 121.108 635.428 120.61C634.881 120.112 634.612 119.385 634.612 118.409V118.32C634.612 117.393 634.901 116.656 635.498 116.119C636.086 115.581 636.872 115.302 637.868 115.302C638.864 115.302 639.661 115.571 640.248 116.109C640.826 116.647 641.124 117.383 641.124 118.32V118.409C641.124 119.345 640.836 120.062 640.258 120.58C639.681 121.098 638.884 121.357 637.848 121.357ZM637.868 120.112C638.446 120.112 638.884 119.973 639.183 119.674C639.481 119.385 639.641 118.957 639.641 118.399V118.32C639.641 117.742 639.481 117.294 639.183 116.985C638.884 116.676 638.446 116.517 637.878 116.517C637.31 116.517 636.872 116.676 636.564 116.985C636.255 117.304 636.106 117.742 636.106 118.32V118.399C636.106 118.957 636.255 119.385 636.554 119.674C636.852 119.973 637.291 120.112 637.868 120.112ZM645.239 121.357C644.174 121.357 643.367 121.108 642.819 120.61C642.272 120.112 642.003 119.385 642.003 118.409V118.32C642.003 117.393 642.291 116.656 642.889 116.119C643.477 115.581 644.263 115.302 645.259 115.302C646.255 115.302 647.052 115.571 647.639 116.109C648.217 116.647 648.515 117.383 648.515 118.32V118.409C648.515 119.345 648.227 120.062 647.649 120.58C647.071 121.098 646.275 121.357 645.239 121.357ZM645.259 120.112C645.837 120.112 646.275 119.973 646.574 119.674C646.872 119.385 647.032 118.957 647.032 118.399V118.32C647.032 117.742 646.872 117.294 646.574 116.985C646.275 116.676 645.837 116.517 645.269 116.517C644.701 116.517 644.263 116.676 643.955 116.985C643.646 117.304 643.496 117.742 643.496 118.32V118.399C643.496 118.957 643.646 119.385 643.945 119.674C644.243 119.973 644.681 120.112 645.259 120.112ZM655.141 119.415C655.141 120.012 654.882 120.49 654.384 120.839C653.876 121.188 653.179 121.357 652.293 121.357C651.317 121.357 650.57 121.188 650.043 120.849C649.505 120.51 649.186 119.993 649.087 119.295H650.71C650.769 119.614 650.939 119.833 651.198 119.973C651.457 120.112 651.835 120.182 652.353 120.182C652.811 120.182 653.14 120.132 653.359 120.012C653.578 119.903 653.687 119.724 653.687 119.475C653.687 119.285 653.578 119.146 653.369 119.056C653.15 118.977 652.662 118.897 651.885 118.837C650.939 118.768 650.272 118.598 649.893 118.339C649.515 118.081 649.326 117.692 649.326 117.174C649.326 116.597 649.555 116.139 650.033 115.8C650.511 115.471 651.168 115.302 652.014 115.302C652.891 115.302 653.588 115.461 654.086 115.78C654.583 116.099 654.902 116.567 655.042 117.204H653.508C653.448 116.935 653.299 116.736 653.06 116.607C652.821 116.487 652.462 116.417 652.004 116.417C651.586 116.417 651.267 116.477 651.058 116.587C650.849 116.696 650.75 116.856 650.75 117.075C650.75 117.274 650.849 117.423 651.068 117.503C651.287 117.593 651.765 117.662 652.522 117.722C653.518 117.812 654.205 117.981 654.583 118.24C654.952 118.499 655.141 118.887 655.141 119.415ZM659.447 119.873H660.045V121.188H659.069C658.192 121.188 657.595 121.018 657.276 120.67C656.957 120.331 656.798 119.664 656.798 118.688V116.736H655.484V115.531C655.683 115.531 655.842 115.531 655.942 115.531C656.041 115.531 656.131 115.521 656.231 115.511C656.46 115.511 656.619 115.461 656.699 115.362C656.778 115.262 656.838 115.073 656.878 114.794C656.898 114.685 656.908 114.545 656.918 114.376C656.928 114.207 656.928 114.057 656.928 113.918H658.162V115.461H660.045V116.736H658.162V118.439C658.162 119.066 658.232 119.465 658.381 119.624C658.521 119.793 658.879 119.873 659.447 119.873ZM665.435 119.495H667.029C666.8 120.112 666.421 120.58 665.884 120.889C665.346 121.207 664.669 121.357 663.842 121.357C662.787 121.357 661.99 121.118 661.452 120.62C660.904 120.122 660.636 119.405 660.636 118.449V118.359C660.636 117.443 660.924 116.696 661.522 116.139C662.109 115.581 662.906 115.302 663.912 115.302C664.898 115.302 665.674 115.571 666.242 116.109C666.81 116.647 667.098 117.354 667.098 118.25V118.857H662.05C662.119 119.295 662.309 119.634 662.627 119.853C662.936 120.072 663.364 120.182 663.922 120.182C664.32 120.182 664.639 120.132 664.888 120.012C665.127 119.903 665.316 119.734 665.435 119.495ZM663.942 116.437C663.424 116.437 663.006 116.557 662.687 116.776C662.368 117.005 662.159 117.334 662.07 117.762H665.655C665.585 117.324 665.406 116.985 665.127 116.766C664.838 116.547 664.44 116.437 663.942 116.437ZM669.555 118.837V121.188H668.101V115.461H669.316L669.495 116.895C669.624 116.398 669.863 116.029 670.202 115.78C670.54 115.541 670.998 115.412 671.566 115.412H672.094V116.866H671.447C670.72 116.866 670.222 117.005 669.953 117.274C669.684 117.553 669.555 118.071 669.555 118.837Z" fill="#CFCFCF"/>
<g filter="url(#filter5_d_17520_516)">
<rect x="614.865" y="159.443" width="189.345" height="115.711" rx="10.6931" fill="white"/>
</g>
<path d="M630.739 253.631H627.433V246.531H630.64C631.665 246.531 632.422 246.68 632.91 246.979C633.398 247.277 633.647 247.746 633.647 248.373V248.403C633.647 248.831 633.547 249.17 633.368 249.428C633.179 249.687 632.89 249.867 632.492 249.986C632.94 250.096 633.269 250.275 633.488 250.534C633.697 250.793 633.806 251.141 633.806 251.579V251.589C633.806 252.286 633.547 252.794 633.049 253.133C632.542 253.472 631.775 253.631 630.739 253.631ZM630.709 247.686H628.847V249.419H630.739C631.257 249.419 631.635 249.349 631.874 249.209C632.103 249.07 632.223 248.851 632.223 248.552V248.532C632.223 248.233 632.103 248.014 631.884 247.885C631.655 247.755 631.267 247.686 630.709 247.686ZM630.62 250.564H628.847V252.406H630.56C631.197 252.406 631.655 252.346 631.924 252.207C632.183 252.067 632.323 251.828 632.323 251.48V251.47C632.323 251.141 632.193 250.912 631.944 250.773C631.695 250.633 631.257 250.564 630.62 250.564ZM637.848 253.8C636.783 253.8 635.976 253.551 635.428 253.053C634.881 252.555 634.612 251.828 634.612 250.852V250.763C634.612 249.837 634.901 249.1 635.498 248.562C636.086 248.024 636.872 247.746 637.868 247.746C638.864 247.746 639.661 248.014 640.248 248.552C640.826 249.09 641.124 249.827 641.124 250.763V250.852C641.124 251.789 640.836 252.506 640.258 253.023C639.681 253.541 638.884 253.8 637.848 253.8ZM637.868 252.555C638.446 252.555 638.884 252.416 639.183 252.117C639.481 251.828 639.641 251.4 639.641 250.843V250.763C639.641 250.185 639.481 249.737 639.183 249.428C638.884 249.12 638.446 248.96 637.878 248.96C637.31 248.96 636.872 249.12 636.564 249.428C636.255 249.747 636.106 250.185 636.106 250.763V250.843C636.106 251.4 636.255 251.828 636.554 252.117C636.852 252.416 637.291 252.555 637.868 252.555ZM647.9 253.631H646.656L646.526 252.466C646.347 252.894 646.088 253.223 645.729 253.442C645.371 253.671 644.933 253.78 644.425 253.78C643.678 253.78 643.11 253.571 642.712 253.133C642.314 252.705 642.115 252.087 642.115 251.291V247.905H643.588V250.932C643.588 251.49 643.698 251.888 643.927 252.147C644.146 252.406 644.495 252.535 644.973 252.535C645.421 252.535 645.769 252.386 646.028 252.067C646.287 251.759 646.417 251.33 646.417 250.773V247.905H647.9V253.631ZM652.263 248.97C651.725 248.97 651.327 249.13 651.058 249.438C650.779 249.757 650.65 250.215 650.65 250.823V253.631H649.176V247.905H650.421L650.55 249.1C650.739 248.662 651.018 248.333 651.397 248.094C651.775 247.865 652.223 247.746 652.741 247.746C653.498 247.746 654.085 247.975 654.514 248.413C654.932 248.861 655.151 249.478 655.151 250.265V253.631H653.677V250.623C653.677 250.056 653.558 249.638 653.329 249.369C653.1 249.11 652.741 248.97 652.263 248.97ZM659.359 253.8C658.304 253.8 657.497 253.551 656.95 253.053C656.402 252.555 656.133 251.818 656.133 250.852V250.763C656.133 249.847 656.422 249.11 657.019 248.562C657.607 248.024 658.393 247.746 659.389 247.746C660.345 247.746 661.092 247.965 661.65 248.393C662.207 248.831 662.526 249.448 662.606 250.255V250.265H661.052V250.245C660.983 249.817 660.813 249.498 660.544 249.279C660.266 249.07 659.887 248.96 659.399 248.96C658.832 248.96 658.393 249.12 658.095 249.428C657.786 249.747 657.637 250.185 657.637 250.763V250.843C657.637 251.4 657.786 251.828 658.085 252.117C658.384 252.416 658.812 252.555 659.389 252.555C659.887 252.555 660.276 252.456 660.554 252.237C660.823 252.018 660.993 251.689 661.062 251.241V251.231H662.606V251.251C662.536 252.087 662.227 252.715 661.67 253.153C661.112 253.591 660.345 253.8 659.359 253.8ZM668.149 251.938H669.742C669.513 252.555 669.135 253.023 668.597 253.332C668.059 253.651 667.382 253.8 666.555 253.8C665.5 253.8 664.703 253.561 664.165 253.063C663.618 252.565 663.349 251.848 663.349 250.892V250.803C663.349 249.887 663.638 249.14 664.235 248.582C664.823 248.024 665.619 247.746 666.625 247.746C667.611 247.746 668.388 248.014 668.955 248.552C669.523 249.09 669.812 249.797 669.812 250.693V251.301H664.763C664.833 251.739 665.022 252.077 665.34 252.296C665.649 252.516 666.077 252.625 666.635 252.625C667.033 252.625 667.352 252.575 667.601 252.456C667.84 252.346 668.029 252.177 668.149 251.938ZM666.655 248.881C666.137 248.881 665.719 249 665.4 249.219C665.082 249.448 664.872 249.777 664.783 250.205H668.368C668.298 249.767 668.119 249.428 667.84 249.209C667.551 248.99 667.153 248.881 666.655 248.881ZM630.739 263.631H627.433V256.531H630.64C631.665 256.531 632.422 256.68 632.91 256.979C633.398 257.277 633.647 257.746 633.647 258.373V258.403C633.647 258.831 633.547 259.17 633.368 259.428C633.179 259.687 632.89 259.867 632.492 259.986C632.94 260.096 633.269 260.275 633.488 260.534C633.697 260.793 633.806 261.141 633.806 261.579V261.589C633.806 262.286 633.547 262.794 633.049 263.133C632.542 263.472 631.775 263.631 630.739 263.631ZM630.709 257.686H628.847V259.419H630.739C631.257 259.419 631.635 259.349 631.874 259.209C632.103 259.07 632.223 258.851 632.223 258.552V258.532C632.223 258.233 632.103 258.014 631.884 257.885C631.655 257.755 631.267 257.686 630.709 257.686ZM630.62 260.564H628.847V262.406H630.56C631.197 262.406 631.655 262.346 631.924 262.207C632.183 262.067 632.323 261.828 632.323 261.48V261.47C632.323 261.141 632.193 260.912 631.944 260.773C631.695 260.633 631.257 260.564 630.62 260.564ZM637.848 263.8C636.783 263.8 635.976 263.551 635.428 263.053C634.881 262.555 634.612 261.828 634.612 260.852V260.763C634.612 259.837 634.901 259.1 635.498 258.562C636.086 258.024 636.872 257.746 637.868 257.746C638.864 257.746 639.661 258.014 640.248 258.552C640.826 259.09 641.124 259.827 641.124 260.763V260.852C641.124 261.789 640.836 262.506 640.258 263.023C639.681 263.541 638.884 263.8 637.848 263.8ZM637.868 262.555C638.446 262.555 638.884 262.416 639.183 262.117C639.481 261.828 639.641 261.4 639.641 260.843V260.763C639.641 260.185 639.481 259.737 639.183 259.428C638.884 259.12 638.446 258.96 637.878 258.96C637.31 258.96 636.872 259.12 636.564 259.428C636.255 259.747 636.106 260.185 636.106 260.763V260.843C636.106 261.4 636.255 261.828 636.554 262.117C636.852 262.416 637.291 262.555 637.868 262.555ZM645.239 263.8C644.174 263.8 643.367 263.551 642.819 263.053C642.272 262.555 642.003 261.828 642.003 260.852V260.763C642.003 259.837 642.291 259.1 642.889 258.562C643.477 258.024 644.263 257.746 645.259 257.746C646.255 257.746 647.052 258.014 647.639 258.552C648.217 259.09 648.515 259.827 648.515 260.763V260.852C648.515 261.789 648.227 262.506 647.649 263.023C647.071 263.541 646.275 263.8 645.239 263.8ZM645.259 262.555C645.837 262.555 646.275 262.416 646.574 262.117C646.872 261.828 647.032 261.4 647.032 260.843V260.763C647.032 260.185 646.872 259.737 646.574 259.428C646.275 259.12 645.837 258.96 645.269 258.96C644.701 258.96 644.263 259.12 643.955 259.428C643.646 259.747 643.496 260.185 643.496 260.763V260.843C643.496 261.4 643.646 261.828 643.945 262.117C644.243 262.416 644.681 262.555 645.259 262.555ZM655.141 261.858C655.141 262.456 654.882 262.934 654.384 263.282C653.876 263.631 653.179 263.8 652.293 263.8C651.317 263.8 650.57 263.631 650.043 263.292C649.505 262.954 649.186 262.436 649.087 261.739H650.71C650.769 262.057 650.939 262.277 651.198 262.416C651.457 262.555 651.835 262.625 652.353 262.625C652.811 262.625 653.14 262.575 653.359 262.456C653.578 262.346 653.687 262.167 653.687 261.918C653.687 261.729 653.578 261.589 653.369 261.5C653.15 261.42 652.662 261.34 651.885 261.281C650.939 261.211 650.272 261.042 649.893 260.783C649.515 260.524 649.326 260.136 649.326 259.618C649.326 259.04 649.555 258.582 650.033 258.243C650.511 257.915 651.168 257.746 652.014 257.746C652.891 257.746 653.588 257.905 654.086 258.224C654.583 258.542 654.902 259.01 655.042 259.648H653.508C653.448 259.379 653.299 259.18 653.06 259.05C652.821 258.931 652.462 258.861 652.004 258.861C651.586 258.861 651.267 258.921 651.058 259.03C650.849 259.14 650.75 259.299 650.75 259.518C650.75 259.717 650.849 259.867 651.068 259.946C651.287 260.036 651.765 260.106 652.522 260.165C653.518 260.255 654.205 260.424 654.583 260.683C654.952 260.942 655.141 261.33 655.141 261.858ZM659.447 262.316H660.045V263.631H659.069C658.192 263.631 657.595 263.462 657.276 263.113C656.957 262.774 656.798 262.107 656.798 261.131V259.18H655.484V257.975C655.683 257.975 655.842 257.975 655.942 257.975C656.041 257.975 656.131 257.965 656.231 257.955C656.46 257.955 656.619 257.905 656.699 257.805C656.778 257.706 656.838 257.516 656.878 257.238C656.898 257.128 656.908 256.989 656.918 256.819C656.928 256.65 656.928 256.501 656.928 256.361H658.162V257.905H660.045V259.18H658.162V260.882C658.162 261.51 658.232 261.908 658.381 262.067C658.521 262.237 658.879 262.316 659.447 262.316ZM665.435 261.938H667.029C666.8 262.555 666.421 263.023 665.884 263.332C665.346 263.651 664.669 263.8 663.842 263.8C662.787 263.8 661.99 263.561 661.452 263.063C660.904 262.565 660.636 261.848 660.636 260.892V260.803C660.636 259.887 660.924 259.14 661.522 258.582C662.109 258.024 662.906 257.746 663.912 257.746C664.898 257.746 665.674 258.014 666.242 258.552C666.81 259.09 667.098 259.797 667.098 260.693V261.301H662.05C662.119 261.739 662.309 262.077 662.627 262.296C662.936 262.516 663.364 262.625 663.922 262.625C664.32 262.625 664.639 262.575 664.888 262.456C665.127 262.346 665.316 262.177 665.435 261.938ZM663.942 258.881C663.424 258.881 663.006 259 662.687 259.219C662.368 259.448 662.159 259.777 662.07 260.205H665.655C665.585 259.767 665.406 259.428 665.127 259.209C664.838 258.99 664.44 258.881 663.942 258.881ZM669.555 261.281V263.631H668.101V257.905H669.316L669.495 259.339C669.624 258.841 669.863 258.472 670.202 258.224C670.54 257.985 670.998 257.855 671.566 257.855H672.094V259.309H671.447C670.72 259.309 670.222 259.448 669.953 259.717C669.684 259.996 669.555 260.514 669.555 261.281Z" fill="#CFCFCF"/>
<g filter="url(#filter6_d_17520_516)">
<rect x="614.865" y="301.887" width="189.345" height="115.711" rx="10.6931" fill="white"/>
</g>
<path d="M630.739 396.074H627.433V388.974H630.64C631.665 388.974 632.422 389.123 632.91 389.422C633.398 389.721 633.647 390.189 633.647 390.816V390.846C633.647 391.274 633.547 391.613 633.368 391.872C633.179 392.131 632.89 392.31 632.492 392.429C632.94 392.539 633.269 392.718 633.488 392.977C633.697 393.236 633.806 393.585 633.806 394.023V394.033C633.806 394.73 633.547 395.238 633.049 395.576C632.542 395.915 631.775 396.074 630.739 396.074ZM630.709 390.129H628.847V391.862H630.739C631.257 391.862 631.635 391.792 631.874 391.653C632.103 391.513 632.223 391.294 632.223 390.995V390.976C632.223 390.677 632.103 390.458 631.884 390.328C631.655 390.199 631.267 390.129 630.709 390.129ZM630.62 393.007H628.847V394.849H630.56C631.197 394.849 631.655 394.79 631.924 394.65C632.183 394.511 632.323 394.272 632.323 393.923V393.913C632.323 393.585 632.193 393.356 631.944 393.216C631.695 393.077 631.257 393.007 630.62 393.007ZM637.848 396.244C636.783 396.244 635.976 395.995 635.428 395.497C634.881 394.999 634.612 394.272 634.612 393.296V393.206C634.612 392.28 634.901 391.543 635.498 391.005C636.086 390.468 636.872 390.189 637.868 390.189C638.864 390.189 639.661 390.458 640.248 390.995C640.826 391.533 641.124 392.27 641.124 393.206V393.296C641.124 394.232 640.836 394.949 640.258 395.467C639.681 395.985 638.884 396.244 637.848 396.244ZM637.868 394.999C638.446 394.999 638.884 394.859 639.183 394.561C639.481 394.272 639.641 393.844 639.641 393.286V393.206C639.641 392.629 639.481 392.181 639.183 391.872C638.884 391.563 638.446 391.404 637.878 391.404C637.31 391.404 636.872 391.563 636.564 391.872C636.255 392.19 636.106 392.629 636.106 393.206V393.286C636.106 393.844 636.255 394.272 636.554 394.561C636.852 394.859 637.291 394.999 637.868 394.999ZM647.9 396.074H646.656L646.526 394.909C646.347 395.337 646.088 395.666 645.729 395.885C645.371 396.114 644.933 396.224 644.425 396.224C643.678 396.224 643.11 396.014 642.712 395.576C642.314 395.148 642.115 394.531 642.115 393.734V390.348H643.588V393.376C643.588 393.933 643.698 394.332 643.927 394.59C644.146 394.849 644.495 394.979 644.973 394.979C645.421 394.979 645.769 394.829 646.028 394.511C646.287 394.202 646.417 393.774 646.417 393.216V390.348H647.9V396.074ZM652.263 391.414C651.725 391.414 651.327 391.573 651.058 391.882C650.779 392.2 650.65 392.659 650.65 393.266V396.074H649.176V390.348H650.421L650.55 391.543C650.739 391.105 651.018 390.776 651.397 390.537C651.775 390.308 652.223 390.189 652.741 390.189C653.498 390.189 654.085 390.418 654.514 390.856C654.932 391.304 655.151 391.922 655.151 392.708V396.074H653.677V393.067C653.677 392.499 653.558 392.081 653.329 391.812C653.1 391.553 652.741 391.414 652.263 391.414ZM659.359 396.244C658.304 396.244 657.497 395.995 656.95 395.497C656.402 394.999 656.133 394.262 656.133 393.296V393.206C656.133 392.29 656.422 391.553 657.019 391.005C657.607 390.468 658.393 390.189 659.389 390.189C660.345 390.189 661.092 390.408 661.65 390.836C662.207 391.274 662.526 391.892 662.606 392.698V392.708H661.052V392.688C660.983 392.26 660.813 391.942 660.544 391.722C660.266 391.513 659.887 391.404 659.399 391.404C658.832 391.404 658.393 391.563 658.095 391.872C657.786 392.19 657.637 392.629 657.637 393.206V393.286C657.637 393.844 657.786 394.272 658.085 394.561C658.384 394.859 658.812 394.999 659.389 394.999C659.887 394.999 660.276 394.899 660.554 394.68C660.823 394.461 660.993 394.132 661.062 393.684V393.674H662.606V393.694C662.536 394.531 662.227 395.158 661.67 395.596C661.112 396.034 660.345 396.244 659.359 396.244ZM668.149 394.381H669.742C669.513 394.999 669.135 395.467 668.597 395.775C668.059 396.094 667.382 396.244 666.555 396.244C665.5 396.244 664.703 396.005 664.165 395.507C663.618 395.009 663.349 394.292 663.349 393.336V393.246C663.349 392.33 663.638 391.583 664.235 391.025C664.823 390.468 665.619 390.189 666.625 390.189C667.611 390.189 668.388 390.458 668.955 390.995C669.523 391.533 669.812 392.24 669.812 393.137V393.744H664.763C664.833 394.182 665.022 394.521 665.34 394.74C665.649 394.959 666.077 395.068 666.635 395.068C667.033 395.068 667.352 395.019 667.601 394.899C667.84 394.79 668.029 394.62 668.149 394.381ZM666.655 391.324C666.137 391.324 665.719 391.444 665.4 391.663C665.082 391.892 664.872 392.22 664.783 392.649H668.368C668.298 392.21 668.119 391.872 667.84 391.653C667.551 391.434 667.153 391.324 666.655 391.324ZM630.739 406.074H627.433V398.974H630.64C631.665 398.974 632.422 399.123 632.91 399.422C633.398 399.721 633.647 400.189 633.647 400.816V400.846C633.647 401.274 633.547 401.613 633.368 401.872C633.179 402.131 632.89 402.31 632.492 402.429C632.94 402.539 633.269 402.718 633.488 402.977C633.697 403.236 633.806 403.585 633.806 404.023V404.033C633.806 404.73 633.547 405.238 633.049 405.576C632.542 405.915 631.775 406.074 630.739 406.074ZM630.709 400.129H628.847V401.862H630.739C631.257 401.862 631.635 401.792 631.874 401.653C632.103 401.513 632.223 401.294 632.223 400.995V400.976C632.223 400.677 632.103 400.458 631.884 400.328C631.655 400.199 631.267 400.129 630.709 400.129ZM630.62 403.007H628.847V404.849H630.56C631.197 404.849 631.655 404.79 631.924 404.65C632.183 404.511 632.323 404.272 632.323 403.923V403.913C632.323 403.585 632.193 403.356 631.944 403.216C631.695 403.077 631.257 403.007 630.62 403.007ZM637.848 406.244C636.783 406.244 635.976 405.995 635.428 405.497C634.881 404.999 634.612 404.272 634.612 403.296V403.206C634.612 402.28 634.901 401.543 635.498 401.005C636.086 400.468 636.872 400.189 637.868 400.189C638.864 400.189 639.661 400.458 640.248 400.995C640.826 401.533 641.124 402.27 641.124 403.206V403.296C641.124 404.232 640.836 404.949 640.258 405.467C639.681 405.985 638.884 406.244 637.848 406.244ZM637.868 404.999C638.446 404.999 638.884 404.859 639.183 404.561C639.481 404.272 639.641 403.844 639.641 403.286V403.206C639.641 402.629 639.481 402.181 639.183 401.872C638.884 401.563 638.446 401.404 637.878 401.404C637.31 401.404 636.872 401.563 636.564 401.872C636.255 402.19 636.106 402.629 636.106 403.206V403.286C636.106 403.844 636.255 404.272 636.554 404.561C636.852 404.859 637.291 404.999 637.868 404.999ZM645.239 406.244C644.174 406.244 643.367 405.995 642.819 405.497C642.272 404.999 642.003 404.272 642.003 403.296V403.206C642.003 402.28 642.291 401.543 642.889 401.005C643.477 400.468 644.263 400.189 645.259 400.189C646.255 400.189 647.052 400.458 647.639 400.995C648.217 401.533 648.515 402.27 648.515 403.206V403.296C648.515 404.232 648.227 404.949 647.649 405.467C647.071 405.985 646.275 406.244 645.239 406.244ZM645.259 404.999C645.837 404.999 646.275 404.859 646.574 404.561C646.872 404.272 647.032 403.844 647.032 403.286V403.206C647.032 402.629 646.872 402.181 646.574 401.872C646.275 401.563 645.837 401.404 645.269 401.404C644.701 401.404 644.263 401.563 643.955 401.872C643.646 402.19 643.496 402.629 643.496 403.206V403.286C643.496 403.844 643.646 404.272 643.945 404.561C644.243 404.859 644.681 404.999 645.259 404.999ZM655.141 404.302C655.141 404.899 654.882 405.377 654.384 405.726C653.876 406.074 653.179 406.244 652.293 406.244C651.317 406.244 650.57 406.074 650.043 405.736C649.505 405.397 649.186 404.879 649.087 404.182H650.71C650.769 404.501 650.939 404.72 651.198 404.859C651.457 404.999 651.835 405.068 652.353 405.068C652.811 405.068 653.14 405.019 653.359 404.899C653.578 404.79 653.687 404.61 653.687 404.361C653.687 404.172 653.578 404.033 653.369 403.943C653.15 403.863 652.662 403.784 651.885 403.724C650.939 403.654 650.272 403.485 649.893 403.226C649.515 402.967 649.326 402.579 649.326 402.061C649.326 401.483 649.555 401.025 650.033 400.687C650.511 400.358 651.168 400.189 652.014 400.189C652.891 400.189 653.588 400.348 654.086 400.667C654.583 400.986 654.902 401.454 655.042 402.091H653.508C653.448 401.822 653.299 401.623 653.06 401.493C652.821 401.374 652.462 401.304 652.004 401.304C651.586 401.304 651.267 401.364 651.058 401.473C650.849 401.583 650.75 401.742 650.75 401.961C650.75 402.161 650.849 402.31 651.068 402.39C651.287 402.479 651.765 402.549 652.522 402.609C653.518 402.698 654.205 402.868 654.583 403.127C654.952 403.385 655.141 403.774 655.141 404.302ZM659.447 404.76H660.045V406.074H659.069C658.192 406.074 657.595 405.905 657.276 405.556C656.957 405.218 656.798 404.551 656.798 403.575V401.623H655.484V400.418C655.683 400.418 655.842 400.418 655.942 400.418C656.041 400.418 656.131 400.408 656.231 400.398C656.46 400.398 656.619 400.348 656.699 400.249C656.778 400.149 656.838 399.96 656.878 399.681C656.898 399.571 656.908 399.432 656.918 399.263C656.928 399.093 656.928 398.944 656.928 398.805H658.162V400.348H660.045V401.623H658.162V403.326C658.162 403.953 658.232 404.351 658.381 404.511C658.521 404.68 658.879 404.76 659.447 404.76ZM665.435 404.381H667.029C666.8 404.999 666.421 405.467 665.884 405.775C665.346 406.094 664.669 406.244 663.842 406.244C662.787 406.244 661.99 406.005 661.452 405.507C660.904 405.009 660.636 404.292 660.636 403.336V403.246C660.636 402.33 660.924 401.583 661.522 401.025C662.109 400.468 662.906 400.189 663.912 400.189C664.898 400.189 665.674 400.458 666.242 400.995C666.81 401.533 667.098 402.24 667.098 403.137V403.744H662.05C662.119 404.182 662.309 404.521 662.627 404.74C662.936 404.959 663.364 405.068 663.922 405.068C664.32 405.068 664.639 405.019 664.888 404.899C665.127 404.79 665.316 404.62 665.435 404.381ZM663.942 401.324C663.424 401.324 663.006 401.444 662.687 401.663C662.368 401.892 662.159 402.22 662.07 402.649H665.655C665.585 402.21 665.406 401.872 665.127 401.653C664.838 401.434 664.44 401.324 663.942 401.324ZM669.555 403.724V406.074H668.101V400.348H669.316L669.495 401.782C669.624 401.284 669.863 400.916 670.202 400.667C670.54 400.428 670.998 400.298 671.566 400.298H672.094V401.752H671.447C670.72 401.752 670.222 401.892 669.953 402.161C669.684 402.439 669.555 402.957 669.555 403.724Z" fill="#CFCFCF"/>
<defs>
<filter id="filter0_d_17520_516" x="0.545029" y="133.933" width="239.837" height="183.562" filterUnits="userSpaceOnUse" color-interpolation-filters="sRGB">
<feFlood flood-opacity="0" result="BackgroundImageFix"/>
<feColorMatrix in="SourceAlpha" type="matrix" values="0 0 0 0 0 0 0 0 0 0 0 0 0 0 0 0 0 0 127 0" result="hardAlpha"/>
<feOffset dy="8.41533"/>
<feGaussianBlur stdDeviation="12.623"/>
<feComposite in2="hardAlpha" operator="out"/>
<feColorMatrix type="matrix" values="0 0 0 0 0 0 0 0 0 0 0 0 0 0 0 0 0 0 0.16 0"/>
<feBlend mode="normal" in2="BackgroundImageFix" result="effect1_dropShadow_17520_516"/>
<feBlend mode="normal" in="SourceGraphic" in2="effect1_dropShadow_17520_516" result="shape"/>
</filter>
<filter id="filter1_d_17520_516" x="295.081" y="0.169342" width="239.837" height="166.203" filterUnits="userSpaceOnUse" color-interpolation-filters="sRGB">
<feFlood flood-opacity="0" result="BackgroundImageFix"/>
<feColorMatrix in="SourceAlpha" type="matrix" values="0 0 0 0 0 0 0 0 0 0 0 0 0 0 0 0 0 0 127 0" result="hardAlpha"/>
<feOffset dy="8.41533"/>
<feGaussianBlur stdDeviation="12.623"/>
<feComposite in2="hardAlpha" operator="out"/>
<feColorMatrix type="matrix" values="0 0 0 0 0 0 0 0 0 0 0 0 0 0 0 0 0 0 0.16 0"/>
<feBlend mode="normal" in2="BackgroundImageFix" result="effect1_dropShadow_17520_516"/>
<feBlend mode="normal" in="SourceGraphic" in2="effect1_dropShadow_17520_516" result="shape"/>
</filter>
<filter id="filter2_d_17520_516" x="295.081" y="142.613" width="239.837" height="166.203" filterUnits="userSpaceOnUse" color-interpolation-filters="sRGB">
<feFlood flood-opacity="0" result="BackgroundImageFix"/>
<feColorMatrix in="SourceAlpha" type="matrix" values="0 0 0 0 0 0 0 0 0 0 0 0 0 0 0 0 0 0 127 0" result="hardAlpha"/>
<feOffset dy="8.41533"/>
<feGaussianBlur stdDeviation="12.623"/>
<feComposite in2="hardAlpha" operator="out"/>
<feColorMatrix type="matrix" values="0 0 0 0 0 0 0 0 0 0 0 0 0 0 0 0 0 0 0.16 0"/>
<feBlend mode="normal" in2="BackgroundImageFix" result="effect1_dropShadow_17520_516"/>
<feBlend mode="normal" in="SourceGraphic" in2="effect1_dropShadow_17520_516" result="shape"/>
</filter>
<filter id="filter3_d_17520_516" x="295.081" y="285.056" width="239.837" height="166.203" filterUnits="userSpaceOnUse" color-interpolation-filters="sRGB">
<feFlood flood-opacity="0" result="BackgroundImageFix"/>
<feColorMatrix in="SourceAlpha" type="matrix" values="0 0 0 0 0 0 0 0 0 0 0 0 0 0 0 0 0 0 127 0" result="hardAlpha"/>
<feOffset dy="8.41533"/>
<feGaussianBlur stdDeviation="12.623"/>
<feComposite in2="hardAlpha" operator="out"/>
<feColorMatrix type="matrix" values="0 0 0 0 0 0 0 0 0 0 0 0 0 0 0 0 0 0 0.16 0"/>
<feBlend mode="normal" in2="BackgroundImageFix" result="effect1_dropShadow_17520_516"/>
<feBlend mode="normal" in="SourceGraphic" in2="effect1_dropShadow_17520_516" result="shape"/>
</filter>
<filter id="filter4_d_17520_516" x="589.619" y="0.169342" width="239.837" height="166.203" filterUnits="userSpaceOnUse" color-interpolation-filters="sRGB">
<feFlood flood-opacity="0" result="BackgroundImageFix"/>
<feColorMatrix in="SourceAlpha" type="matrix" values="0 0 0 0 0 0 0 0 0 0 0 0 0 0 0 0 0 0 127 0" result="hardAlpha"/>
<feOffset dy="8.41533"/>
<feGaussianBlur stdDeviation="12.623"/>
<feComposite in2="hardAlpha" operator="out"/>
<feColorMatrix type="matrix" values="0 0 0 0 0 0 0 0 0 0 0 0 0 0 0 0 0 0 0.16 0"/>
<feBlend mode="normal" in2="BackgroundImageFix" result="effect1_dropShadow_17520_516"/>
<feBlend mode="normal" in="SourceGraphic" in2="effect1_dropShadow_17520_516" result="shape"/>
</filter>
<filter id="filter5_d_17520_516" x="589.619" y="142.613" width="239.837" height="166.203" filterUnits="userSpaceOnUse" color-interpolation-filters="sRGB">
<feFlood flood-opacity="0" result="BackgroundImageFix"/>
<feColorMatrix in="SourceAlpha" type="matrix" values="0 0 0 0 0 0 0 0 0 0 0 0 0 0 0 0 0 0 127 0" result="hardAlpha"/>
<feOffset dy="8.41533"/>
<feGaussianBlur stdDeviation="12.623"/>
<feComposite in2="hardAlpha" operator="out"/>
<feColorMatrix type="matrix" values="0 0 0 0 0 0 0 0 0 0 0 0 0 0 0 0 0 0 0.16 0"/>
<feBlend mode="normal" in2="BackgroundImageFix" result="effect1_dropShadow_17520_516"/>
<feBlend mode="normal" in="SourceGraphic" in2="effect1_dropShadow_17520_516" result="shape"/>
</filter>
<filter id="filter6_d_17520_516" x="589.619" y="285.056" width="239.837" height="166.203" filterUnits="userSpaceOnUse" color-interpolation-filters="sRGB">
<feFlood flood-opacity="0" result="BackgroundImageFix"/>
<feColorMatrix in="SourceAlpha" type="matrix" values="0 0 0 0 0 0 0 0 0 0 0 0 0 0 0 0 0 0 127 0" result="hardAlpha"/>
<feOffset dy="8.41533"/>
<feGaussianBlur stdDeviation="12.623"/>
<feComposite in2="hardAlpha" operator="out"/>
<feColorMatrix type="matrix" values="0 0 0 0 0 0 0 0 0 0 0 0 0 0 0 0 0 0 0.16 0"/>
<feBlend mode="normal" in2="BackgroundImageFix" result="effect1_dropShadow_17520_516"/>
<feBlend mode="normal" in="SourceGraphic" in2="effect1_dropShadow_17520_516" result="shape"/>
</filter>
<linearGradient id="paint0_linear_17520_516" x1="25.791" y1="217.299" x2="215.136" y2="217.299" gradientUnits="userSpaceOnUse">
<stop stop-color="#131313"/>
<stop offset="1" stop-color="#2F2F2F"/>
</linearGradient>
</defs>
</svg>
