<svg width="683" height="452" viewBox="0 0 683 452" fill="none" xmlns="http://www.w3.org/2000/svg" preserveAspectRatio="none">
<path d="M215.136 205.472C267.732 205.472 267.732 99.953 320.327 98.541" stroke="#2B51DA" stroke-opacity="0.8" stroke-width="29.4537" stroke-linecap="round"/>
<path d="M215.136 246.024C267.732 246.024 267.732 218.008 320.327 217.633" stroke="#2B51DA" stroke-opacity="0.4" stroke-width="29.4537" stroke-linecap="round"/>
<path d="M215.136 229.127C267.732 229.127 267.732 334.647 320.327 336.059" stroke="#2B51DA" stroke-opacity="0.6" stroke-width="29.4537" stroke-linecap="round"/>
<path d="M509.675 209.525C562.269 209.525 562.269 66.6539 614.864 64.7422" stroke="#2B51DA" stroke-opacity="0.4" stroke-width="29.4537" stroke-linecap="round"/>
<path d="M509.675 354.295C562.269 354.295 562.269 211.423 614.864 209.512" stroke="#2B51DA" stroke-opacity="0.8" stroke-width="29.4537" stroke-linecap="round"/>
<path d="M614.862 370.913C562.267 370.913 562.267 338.119 509.672 337.68" stroke="#2B51DA" stroke-opacity="0.4" stroke-width="29.4537" stroke-linecap="round"/>
<path d="M509.675 64.7286C562.269 64.7286 562.269 63.6993 614.864 63.6855" stroke="#2B51DA" stroke-opacity="0.8" stroke-width="29.4537" stroke-linecap="round"/>
<path d="M509.675 84.7472C562.269 84.7472 562.269 208.259 614.864 209.912" stroke="#2B51DA" stroke-opacity="0.6" stroke-width="29.4537" stroke-linecap="round"/>
<g filter="url(#filter0_d_17690_19923)">
<rect x="25.791" y="150.764" width="189.345" height="133.07" rx="10.6931" fill="url(#paint0_linear_17690_19923)"/>
<path d="M43.898 248.182H38.586V236.774H43.738C45.386 236.774 46.602 237.014 47.386 237.494C48.17 237.974 48.57 238.726 48.57 239.734V239.782C48.57 240.47 48.41 241.014 48.122 241.43C47.818 241.846 47.354 242.134 46.714 242.326C47.434 242.502 47.962 242.79 48.314 243.206C48.65 243.622 48.826 244.182 48.826 244.886V244.902C48.826 246.022 48.41 246.838 47.61 247.382C46.794 247.926 45.562 248.182 43.898 248.182ZM43.85 238.63H40.858V241.414H43.898C44.73 241.414 45.338 241.302 45.722 241.078C46.09 240.854 46.282 240.502 46.282 240.022V239.99C46.282 239.51 46.09 239.158 45.738 238.95C45.37 238.742 44.746 238.63 43.85 238.63ZM43.706 243.254H40.858V246.214H43.61C44.634 246.214 45.37 246.118 45.802 245.894C46.218 245.67 46.442 245.286 46.442 244.726V244.71C46.442 244.182 46.234 243.814 45.834 243.59C45.434 243.366 44.73 243.254 43.706 243.254ZM55.3201 248.454C53.6081 248.454 52.3121 248.054 51.4321 247.254C50.5521 246.454 50.1201 245.286 50.1201 243.718V243.574C50.1201 242.086 50.5841 240.902 51.5441 240.038C52.4881 239.174 53.7521 238.726 55.3521 238.726C56.9521 238.726 58.2321 239.158 59.1761 240.022C60.1041 240.886 60.5841 242.07 60.5841 243.574V243.718C60.5841 245.222 60.1201 246.374 59.1921 247.206C58.2641 248.038 56.9841 248.454 55.3201 248.454ZM55.3521 246.454C56.2801 246.454 56.9841 246.23 57.4641 245.75C57.9441 245.286 58.2001 244.598 58.2001 243.702V243.574C58.2001 242.646 57.9441 241.926 57.4641 241.43C56.9841 240.934 56.2801 240.678 55.3681 240.678C54.4561 240.678 53.7521 240.934 53.2561 241.43C52.7601 241.942 52.5201 242.646 52.5201 243.574V243.702C52.5201 244.598 52.7601 245.286 53.2401 245.75C53.7201 246.23 54.4241 246.454 55.3521 246.454ZM71.4708 248.182H69.4708L69.2628 246.31C68.9748 246.998 68.5588 247.526 67.9828 247.878C67.4068 248.246 66.7028 248.422 65.8868 248.422C64.6868 248.422 63.7748 248.086 63.1348 247.382C62.4948 246.694 62.1748 245.702 62.1748 244.422V238.982H64.5428V243.846C64.5428 244.742 64.7188 245.382 65.0868 245.798C65.4388 246.214 65.9988 246.422 66.7668 246.422C67.4868 246.422 68.0468 246.182 68.4628 245.67C68.8788 245.174 69.0868 244.486 69.0868 243.59V238.982H71.4708V248.182ZM78.4805 240.694C77.6165 240.694 76.9765 240.95 76.5445 241.446C76.0965 241.958 75.8885 242.694 75.8885 243.67V248.182H73.5205V238.982H75.5205L75.7285 240.902C76.0325 240.198 76.4805 239.67 77.0885 239.286C77.6965 238.918 78.4165 238.726 79.2485 238.726C80.4645 238.726 81.4085 239.094 82.0965 239.798C82.7685 240.518 83.1205 241.51 83.1205 242.774V248.182H80.7525V243.35C80.7525 242.438 80.5605 241.766 80.1925 241.334C79.8245 240.918 79.2485 240.694 78.4805 240.694ZM89.8822 248.454C88.1862 248.454 86.8902 248.054 86.0102 247.254C85.1302 246.454 84.6982 245.27 84.6982 243.718V243.574C84.6982 242.102 85.1622 240.918 86.1222 240.038C87.0662 239.174 88.3302 238.726 89.9302 238.726C91.4662 238.726 92.6662 239.078 93.5622 239.766C94.4582 240.47 94.9702 241.462 95.0982 242.758V242.774H92.6022V242.742C92.4902 242.054 92.2182 241.542 91.7862 241.19C91.3382 240.854 90.7302 240.678 89.9462 240.678C89.0342 240.678 88.3302 240.934 87.8502 241.43C87.3542 241.942 87.1142 242.646 87.1142 243.574V243.702C87.1142 244.598 87.3542 245.286 87.8342 245.75C88.3142 246.23 89.0022 246.454 89.9302 246.454C90.7302 246.454 91.3542 246.294 91.8022 245.942C92.2342 245.59 92.5062 245.062 92.6182 244.342V244.326H95.0982V244.358C94.9862 245.702 94.4902 246.71 93.5942 247.414C92.6982 248.118 91.4662 248.454 89.8822 248.454ZM104.004 245.462H106.564C106.196 246.454 105.588 247.206 104.724 247.702C103.86 248.214 102.772 248.454 101.444 248.454C99.748 248.454 98.468 248.07 97.604 247.27C96.724 246.47 96.292 245.318 96.292 243.782V243.638C96.292 242.166 96.756 240.966 97.716 240.07C98.66 239.174 99.94 238.726 101.556 238.726C103.14 238.726 104.388 239.158 105.3 240.022C106.212 240.886 106.676 242.022 106.676 243.462V244.438H98.564C98.676 245.142 98.98 245.686 99.492 246.038C99.988 246.39 100.676 246.566 101.572 246.566C102.212 246.566 102.724 246.486 103.124 246.294C103.508 246.118 103.812 245.846 104.004 245.462ZM101.604 240.55C100.772 240.55 100.1 240.742 99.588 241.094C99.076 241.462 98.74 241.99 98.596 242.678H104.356C104.244 241.974 103.956 241.43 103.508 241.078C103.044 240.726 102.404 240.55 101.604 240.55ZM43.898 267.182H38.586V255.774H43.738C45.386 255.774 46.602 256.014 47.386 256.494C48.17 256.974 48.57 257.726 48.57 258.734V258.782C48.57 259.47 48.41 260.014 48.122 260.43C47.818 260.846 47.354 261.134 46.714 261.326C47.434 261.502 47.962 261.79 48.314 262.206C48.65 262.622 48.826 263.182 48.826 263.886V263.902C48.826 265.022 48.41 265.838 47.61 266.382C46.794 266.926 45.562 267.182 43.898 267.182ZM43.85 257.63H40.858V260.414H43.898C44.73 260.414 45.338 260.302 45.722 260.078C46.09 259.854 46.282 259.502 46.282 259.022V258.99C46.282 258.51 46.09 258.158 45.738 257.95C45.37 257.742 44.746 257.63 43.85 257.63ZM43.706 262.254H40.858V265.214H43.61C44.634 265.214 45.37 265.118 45.802 264.894C46.218 264.67 46.442 264.286 46.442 263.726V263.71C46.442 263.182 46.234 262.814 45.834 262.59C45.434 262.366 44.73 262.254 43.706 262.254ZM55.3201 267.454C53.6081 267.454 52.3121 267.054 51.4321 266.254C50.5521 265.454 50.1201 264.286 50.1201 262.718V262.574C50.1201 261.086 50.5841 259.902 51.5441 259.038C52.4881 258.174 53.7521 257.726 55.3521 257.726C56.9521 257.726 58.2321 258.158 59.1761 259.022C60.1041 259.886 60.5841 261.07 60.5841 262.574V262.718C60.5841 264.222 60.1201 265.374 59.1921 266.206C58.2641 267.038 56.9841 267.454 55.3201 267.454ZM55.3521 265.454C56.2801 265.454 56.9841 265.23 57.4641 264.75C57.9441 264.286 58.2001 263.598 58.2001 262.702V262.574C58.2001 261.646 57.9441 260.926 57.4641 260.43C56.9841 259.934 56.2801 259.678 55.3681 259.678C54.4561 259.678 53.7521 259.934 53.2561 260.43C52.7601 260.942 52.5201 261.646 52.5201 262.574V262.702C52.5201 263.598 52.7601 264.286 53.2401 264.75C53.7201 265.23 54.4241 265.454 55.3521 265.454ZM67.1951 267.454C65.4831 267.454 64.1871 267.054 63.3071 266.254C62.4271 265.454 61.9951 264.286 61.9951 262.718V262.574C61.9951 261.086 62.4591 259.902 63.4191 259.038C64.3631 258.174 65.6271 257.726 67.2271 257.726C68.8271 257.726 70.1071 258.158 71.0511 259.022C71.9791 259.886 72.4591 261.07 72.4591 262.574V262.718C72.4591 264.222 71.9951 265.374 71.0671 266.206C70.1391 267.038 68.8591 267.454 67.1951 267.454ZM67.2271 265.454C68.1551 265.454 68.8591 265.23 69.3391 264.75C69.8191 264.286 70.0751 263.598 70.0751 262.702V262.574C70.0751 261.646 69.8191 260.926 69.3391 260.43C68.8591 259.934 68.1551 259.678 67.2431 259.678C66.3311 259.678 65.6271 259.934 65.1311 260.43C64.6351 260.942 64.3951 261.646 64.3951 262.574V262.702C64.3951 263.598 64.6351 264.286 65.1151 264.75C65.5951 265.23 66.2991 265.454 67.2271 265.454ZM83.1047 264.334C83.1047 265.294 82.6887 266.062 81.8887 266.622C81.0727 267.182 79.9527 267.454 78.5287 267.454C76.9607 267.454 75.7607 267.182 74.9127 266.638C74.0487 266.094 73.5367 265.262 73.3767 264.142H75.9847C76.0807 264.654 76.3527 265.006 76.7687 265.23C77.1847 265.454 77.7927 265.566 78.6247 265.566C79.3607 265.566 79.8887 265.486 80.2407 265.294C80.5927 265.118 80.7687 264.83 80.7687 264.43C80.7687 264.126 80.5927 263.902 80.2567 263.758C79.9047 263.63 79.1207 263.502 77.8727 263.406C76.3527 263.294 75.2807 263.022 74.6727 262.606C74.0647 262.19 73.7607 261.566 73.7607 260.734C73.7607 259.806 74.1287 259.07 74.8967 258.526C75.6647 257.998 76.7207 257.726 78.0807 257.726C79.4887 257.726 80.6087 257.982 81.4087 258.494C82.2087 259.006 82.7207 259.758 82.9447 260.782H80.4807C80.3847 260.35 80.1447 260.03 79.7607 259.822C79.3767 259.63 78.8007 259.518 78.0647 259.518C77.3927 259.518 76.8807 259.614 76.5447 259.79C76.2087 259.966 76.0487 260.222 76.0487 260.574C76.0487 260.894 76.2087 261.134 76.5607 261.262C76.9127 261.406 77.6807 261.518 78.8967 261.614C80.4967 261.758 81.6007 262.03 82.2087 262.446C82.8007 262.862 83.1047 263.486 83.1047 264.334ZM90.023 265.07H90.983V267.182H89.415C88.007 267.182 87.047 266.91 86.535 266.35C86.023 265.806 85.767 264.734 85.767 263.166V260.03H83.655V258.094C83.975 258.094 84.231 258.094 84.391 258.094C84.551 258.094 84.695 258.078 84.855 258.062C85.223 258.062 85.479 257.982 85.607 257.822C85.735 257.662 85.831 257.358 85.895 256.91C85.927 256.734 85.943 256.51 85.959 256.238C85.975 255.966 85.975 255.726 85.975 255.502H87.959V257.982H90.983V260.03H87.959V262.766C87.959 263.774 88.071 264.414 88.311 264.67C88.535 264.942 89.111 265.07 90.023 265.07ZM99.6446 264.462H102.205C101.837 265.454 101.229 266.206 100.365 266.702C99.5006 267.214 98.4126 267.454 97.0846 267.454C95.3886 267.454 94.1086 267.07 93.2446 266.27C92.3646 265.47 91.9326 264.318 91.9326 262.782V262.638C91.9326 261.166 92.3966 259.966 93.3566 259.07C94.3006 258.174 95.5806 257.726 97.1966 257.726C98.7806 257.726 100.029 258.158 100.941 259.022C101.853 259.886 102.317 261.022 102.317 262.462V263.438H94.2046C94.3166 264.142 94.6206 264.686 95.1326 265.038C95.6286 265.39 96.3166 265.566 97.2126 265.566C97.8526 265.566 98.3646 265.486 98.7646 265.294C99.1486 265.118 99.4526 264.846 99.6446 264.462ZM97.2446 259.55C96.4126 259.55 95.7406 259.742 95.2286 260.094C94.7166 260.462 94.3806 260.99 94.2366 261.678H99.9966C99.8846 260.974 99.5966 260.43 99.1486 260.078C98.6846 259.726 98.0446 259.55 97.2446 259.55ZM106.263 263.406V267.182H103.927V257.982H105.879L106.167 260.286C106.375 259.486 106.759 258.894 107.303 258.494C107.847 258.11 108.583 257.902 109.495 257.902H110.343V260.238H109.303C108.135 260.238 107.335 260.462 106.903 260.894C106.471 261.342 106.263 262.174 106.263 263.406Z" fill="white"/>
</g>
<g filter="url(#filter1_d_17690_19923)">
<rect x="320.327" y="17" width="189.345" height="115.711" rx="10.6931" fill="white"/>
</g>
<path d="M341.816 93.7715V95.8675H335.624V100.188H333.336V88.7795H342.104V90.8435H335.624V93.7715H341.816ZM352.783 100.188H350.783L350.575 98.3155C350.287 99.0035 349.871 99.5315 349.295 99.8835C348.719 100.252 348.015 100.428 347.199 100.428C345.999 100.428 345.087 100.091 344.447 99.3875C343.807 98.6995 343.487 97.7075 343.487 96.4275V90.9875H345.855V95.8515C345.855 96.7475 346.031 97.3875 346.399 97.8035C346.751 98.2195 347.311 98.4275 348.079 98.4275C348.799 98.4275 349.359 98.1875 349.775 97.6755C350.191 97.1795 350.399 96.4915 350.399 95.5955V90.9875H352.783V100.188ZM359.793 92.6995C358.929 92.6995 358.289 92.9555 357.857 93.4515C357.409 93.9635 357.201 94.6995 357.201 95.6755V100.188H354.833V90.9875H356.833L357.041 92.9075C357.345 92.2035 357.793 91.6755 358.401 91.2915C359.009 90.9235 359.729 90.7315 360.561 90.7315C361.777 90.7315 362.721 91.0995 363.409 91.8035C364.081 92.5235 364.433 93.5155 364.433 94.7795V100.188H362.065V95.3555C362.065 94.4435 361.873 93.7715 361.505 93.3395C361.137 92.9235 360.561 92.6995 359.793 92.6995ZM376.251 100.188H374.267L374.059 98.3315C373.755 99.0035 373.291 99.5315 372.683 99.8835C372.059 100.236 371.323 100.412 370.459 100.412C369.051 100.412 367.963 99.9955 367.179 99.1635C366.395 98.3315 366.011 97.1635 366.011 95.6435V95.5155C366.011 94.0275 366.411 92.8595 367.211 92.0115C368.011 91.1795 369.131 90.7475 370.539 90.7475C371.323 90.7475 372.011 90.9075 372.587 91.2115C373.163 91.5155 373.627 91.9635 373.963 92.5395V87.9315H376.251V100.188ZM371.163 98.4435C372.075 98.4435 372.779 98.2035 373.291 97.7075C373.787 97.2275 374.043 96.5235 374.043 95.6275V95.5315C374.043 94.6515 373.787 93.9475 373.291 93.4355C372.779 92.9235 372.091 92.6515 371.227 92.6515C370.299 92.6515 369.611 92.9075 369.131 93.3875C368.651 93.8835 368.427 94.6035 368.427 95.5315V95.6435C368.427 96.5715 368.651 97.2595 369.115 97.7395C369.579 98.2195 370.267 98.4435 371.163 98.4435ZM381.149 88.3475C381.149 88.8595 381.021 89.2435 380.765 89.4835C380.509 89.7235 380.125 89.8355 379.597 89.8355C379.037 89.8355 378.637 89.7235 378.413 89.4995C378.173 89.2755 378.061 88.8915 378.061 88.3475C378.061 87.8355 378.173 87.4675 378.413 87.2275C378.653 87.0035 379.053 86.8755 379.597 86.8755C380.141 86.8755 380.525 87.0035 380.781 87.2275C381.021 87.4675 381.149 87.8355 381.149 88.3475ZM380.765 90.9875V100.188H378.365V90.9875H380.765ZM387.824 92.6995C386.96 92.6995 386.32 92.9555 385.888 93.4515C385.44 93.9635 385.232 94.6995 385.232 95.6755V100.188H382.864V90.9875H384.864L385.072 92.9075C385.376 92.2035 385.824 91.6755 386.432 91.2915C387.04 90.9235 387.76 90.7315 388.592 90.7315C389.808 90.7315 390.752 91.0995 391.44 91.8035C392.112 92.5235 392.464 93.5155 392.464 94.7795V100.188H390.096V95.3555C390.096 94.4435 389.904 93.7715 389.536 93.3395C389.168 92.9235 388.592 92.6995 387.824 92.6995ZM404.108 101.052V101.084C404.108 102.172 403.66 102.988 402.764 103.532C401.868 104.092 400.572 104.364 398.844 104.364H398.508C396.844 104.364 395.644 104.204 394.876 103.852C394.108 103.516 393.724 102.972 393.724 102.204C393.724 101.644 393.916 101.196 394.3 100.86C394.684 100.54 395.292 100.3 396.124 100.155C395.356 100.107 394.78 99.9475 394.412 99.6595C394.044 99.3875 393.868 98.9875 393.868 98.4435C393.868 97.9315 394.06 97.4995 394.476 97.1795C394.876 96.8595 395.468 96.6355 396.252 96.5395C395.516 96.3635 394.988 96.0595 394.636 95.6435C394.284 95.2275 394.108 94.6675 394.108 93.9795C394.108 93.0515 394.476 92.3155 395.228 91.7715C395.964 91.2435 397.036 90.9555 398.444 90.9075L398.876 90.8915C399.756 90.8595 400.332 90.7315 400.588 90.4915C400.844 90.2675 400.988 89.7875 400.988 89.0835V88.9555H403.66V89.1795C403.66 89.9955 403.452 90.5395 403.068 90.8115C402.684 91.0835 401.804 91.2115 400.428 91.2115C401.452 91.3235 402.22 91.6115 402.764 92.0755C403.292 92.5555 403.564 93.1795 403.564 93.9795V94.0115C403.564 95.0195 403.164 95.7875 402.364 96.3155C401.564 96.8435 400.428 97.0995 398.924 97.0995H398.396C397.468 97.0995 396.812 97.1475 396.444 97.2435C396.06 97.3395 395.884 97.4995 395.884 97.7555C395.884 97.9795 396.028 98.1235 396.316 98.2035C396.604 98.2995 397.148 98.3315 397.916 98.3315H400.028C401.404 98.3315 402.428 98.5555 403.1 99.0035C403.772 99.4515 404.108 100.123 404.108 101.052ZM398.812 95.4995C399.644 95.4995 400.252 95.3875 400.668 95.1315C401.068 94.8915 401.276 94.5235 401.276 94.0115V93.9795C401.276 93.4515 401.084 93.0675 400.7 92.8115C400.316 92.5555 399.708 92.4275 398.892 92.4275H398.764C397.98 92.4275 397.404 92.5715 397.02 92.8275C396.636 93.0995 396.444 93.4995 396.444 94.0275V94.0435C396.444 94.5555 396.62 94.9235 397.004 95.1475C397.388 95.3875 397.98 95.4995 398.812 95.4995ZM398.556 102.476H398.988C399.98 102.476 400.716 102.38 401.196 102.172C401.676 101.964 401.916 101.644 401.916 101.212V101.18C401.916 100.828 401.756 100.572 401.436 100.412C401.116 100.268 400.588 100.188 399.852 100.188H397.852C397.244 100.236 396.796 100.364 396.508 100.556C396.22 100.748 396.076 101.02 396.076 101.356V101.388C396.076 101.74 396.284 102.012 396.7 102.204C397.116 102.396 397.74 102.476 398.556 102.476ZM338.264 115.235H335.656V119.188H333.336V107.779H338.408C340.056 107.779 341.288 108.067 342.088 108.643C342.888 109.219 343.288 110.099 343.288 111.283C343.288 112.067 343.112 112.691 342.76 113.171C342.408 113.651 341.864 113.987 341.128 114.195C341.816 114.387 342.312 114.723 342.632 115.188C342.936 115.667 343.096 116.323 343.096 117.188V118.531C343.096 118.691 343.112 118.835 343.16 118.947C343.208 119.059 343.272 119.139 343.368 119.188H340.904C340.808 119.155 340.744 119.075 340.712 118.947C340.664 118.819 340.648 118.675 340.648 118.499V117.219C340.648 116.483 340.472 115.971 340.12 115.683C339.768 115.395 339.16 115.235 338.264 115.235ZM338.376 109.763H335.656V113.235H338.312C339.176 113.235 339.832 113.107 340.248 112.819C340.664 112.531 340.888 112.099 340.888 111.523V111.427C340.888 110.851 340.68 110.419 340.296 110.163C339.896 109.907 339.256 109.763 338.376 109.763ZM354.38 119.188H352.476L352.236 117.219C351.852 117.939 351.292 118.499 350.556 118.883C349.82 119.268 348.94 119.46 347.948 119.46C346.86 119.46 346.012 119.252 345.436 118.803C344.86 118.371 344.572 117.747 344.572 116.931C344.572 116.419 344.668 115.955 344.892 115.571C345.116 115.188 345.436 114.883 345.868 114.643C346.252 114.419 346.7 114.259 347.196 114.147C347.676 114.035 348.524 113.923 349.708 113.795C350.684 113.699 351.324 113.587 351.644 113.443C351.964 113.299 352.124 113.059 352.124 112.739V112.723C352.124 112.323 351.932 112.019 351.564 111.811C351.196 111.603 350.652 111.491 349.916 111.491C349.052 111.491 348.396 111.635 347.98 111.907C347.548 112.195 347.308 112.627 347.26 113.219H344.844C344.94 112.099 345.42 111.251 346.268 110.643C347.116 110.035 348.284 109.731 349.756 109.731C351.356 109.731 352.524 110.019 353.26 110.563C353.996 111.108 354.38 111.987 354.38 113.171V119.188ZM348.7 117.715C349.644 117.715 350.46 117.443 351.132 116.883C351.804 116.323 352.14 115.667 352.14 114.931V114.611C351.964 114.755 351.708 114.883 351.388 114.979C351.068 115.076 350.62 115.155 350.076 115.219C349.34 115.299 348.796 115.379 348.46 115.443C348.124 115.523 347.852 115.619 347.66 115.731C347.452 115.859 347.308 115.987 347.228 116.131C347.132 116.275 347.1 116.451 347.1 116.643V116.659C347.1 117.011 347.228 117.283 347.5 117.459C347.756 117.635 348.156 117.715 348.7 117.715ZM361.726 117.076H362.686V119.188H361.118C359.71 119.188 358.75 118.915 358.238 118.355C357.726 117.811 357.47 116.739 357.47 115.171V112.035H355.358V110.099C355.678 110.099 355.934 110.099 356.094 110.099C356.254 110.099 356.398 110.083 356.558 110.067C356.926 110.067 357.182 109.987 357.31 109.827C357.438 109.667 357.534 109.363 357.598 108.915C357.63 108.739 357.646 108.515 357.662 108.243C357.678 107.971 357.678 107.731 357.678 107.507H359.662V109.987H362.686V112.035H359.662V114.771C359.662 115.779 359.774 116.419 360.014 116.675C360.238 116.947 360.814 117.076 361.726 117.076ZM371.348 116.467H373.908C373.54 117.459 372.932 118.211 372.068 118.707C371.204 119.22 370.116 119.46 368.788 119.46C367.092 119.46 365.812 119.075 364.948 118.275C364.068 117.475 363.636 116.323 363.636 114.787V114.643C363.636 113.171 364.1 111.971 365.06 111.075C366.004 110.179 367.284 109.731 368.9 109.731C370.484 109.731 371.732 110.163 372.644 111.027C373.556 111.891 374.02 113.027 374.02 114.467V115.443H365.908C366.02 116.147 366.324 116.691 366.836 117.043C367.332 117.395 368.02 117.571 368.916 117.571C369.556 117.571 370.068 117.491 370.468 117.299C370.852 117.123 371.156 116.851 371.348 116.467ZM368.948 111.555C368.116 111.555 367.444 111.747 366.932 112.099C366.42 112.467 366.084 112.995 365.94 113.683H371.7C371.588 112.979 371.3 112.435 370.852 112.083C370.388 111.731 369.748 111.555 368.948 111.555ZM391.423 119.188H389.007L387.967 116.659H382.735L381.743 119.188H379.295L384.095 107.779H386.527L391.423 119.188ZM383.503 114.723H387.167L385.311 110.179L383.503 114.723ZM394.731 115.411V119.188H392.395V109.987H394.347L394.635 112.291C394.843 111.491 395.227 110.899 395.771 110.499C396.315 110.115 397.051 109.907 397.963 109.907H398.811V112.243H397.771C396.603 112.243 395.803 112.467 395.371 112.899C394.939 113.347 394.731 114.179 394.731 115.411ZM406.016 119.444C405.136 119.444 404.4 119.284 403.792 118.963C403.184 118.643 402.72 118.147 402.432 117.507L402.256 119.188H400.24V106.931H402.528V111.699C402.848 111.075 403.328 110.595 403.952 110.243C404.56 109.907 405.28 109.731 406.096 109.731C407.472 109.747 408.544 110.179 409.312 111.011C410.08 111.843 410.464 113.011 410.464 114.499V114.643C410.464 116.115 410.048 117.283 409.248 118.147C408.432 119.011 407.36 119.444 406.016 119.444ZM405.264 117.443C406.192 117.443 406.896 117.219 407.376 116.755C407.84 116.291 408.08 115.587 408.08 114.643V114.531C408.08 113.619 407.84 112.915 407.36 112.403C406.88 111.907 406.192 111.651 405.312 111.651C404.432 111.651 403.744 111.907 403.232 112.419C402.72 112.931 402.464 113.635 402.464 114.499V114.595C402.464 115.523 402.704 116.227 403.184 116.707C403.664 117.203 404.368 117.443 405.264 117.443ZM414.93 107.347C414.93 107.859 414.802 108.243 414.546 108.483C414.29 108.723 413.906 108.835 413.378 108.835C412.818 108.835 412.418 108.723 412.194 108.499C411.954 108.275 411.842 107.891 411.842 107.347C411.842 106.835 411.954 106.467 412.194 106.227C412.434 106.003 412.834 105.875 413.378 105.875C413.922 105.875 414.306 106.003 414.562 106.227C414.802 106.467 414.93 106.835 414.93 107.347ZM414.546 109.987V119.188H412.146V109.987H414.546ZM422.32 117.076H423.28V119.188H421.712C420.304 119.188 419.344 118.915 418.832 118.355C418.32 117.811 418.064 116.739 418.064 115.171V112.035H415.952V110.099C416.272 110.099 416.528 110.099 416.688 110.099C416.848 110.099 416.992 110.083 417.152 110.067C417.52 110.067 417.776 109.987 417.904 109.827C418.032 109.667 418.128 109.363 418.192 108.915C418.224 108.739 418.24 108.515 418.256 108.243C418.272 107.971 418.272 107.731 418.272 107.507H420.256V109.987H423.28V112.035H420.256V114.771C420.256 115.779 420.368 116.419 420.608 116.675C420.832 116.947 421.408 117.076 422.32 117.076ZM427.185 115.411V119.188H424.849V109.987H426.801L427.089 112.291C427.297 111.491 427.681 110.899 428.225 110.499C428.769 110.115 429.505 109.907 430.417 109.907H431.265V112.243H430.225C429.057 112.243 428.257 112.467 427.825 112.899C427.393 113.347 427.185 114.179 427.185 115.411ZM441.755 119.188H439.851L439.611 117.219C439.227 117.939 438.667 118.499 437.931 118.883C437.195 119.268 436.315 119.46 435.323 119.46C434.235 119.46 433.387 119.252 432.811 118.803C432.235 118.371 431.947 117.747 431.947 116.931C431.947 116.419 432.043 115.955 432.267 115.571C432.491 115.188 432.811 114.883 433.243 114.643C433.627 114.419 434.075 114.259 434.571 114.147C435.051 114.035 435.899 113.923 437.083 113.795C438.059 113.699 438.699 113.587 439.019 113.443C439.339 113.299 439.499 113.059 439.499 112.739V112.723C439.499 112.323 439.307 112.019 438.939 111.811C438.571 111.603 438.027 111.491 437.291 111.491C436.427 111.491 435.771 111.635 435.355 111.907C434.923 112.195 434.683 112.627 434.635 113.219H432.219C432.315 112.099 432.795 111.251 433.643 110.643C434.491 110.035 435.659 109.731 437.131 109.731C438.731 109.731 439.899 110.019 440.635 110.563C441.371 111.108 441.755 111.987 441.755 113.171V119.188ZM436.075 117.715C437.019 117.715 437.835 117.443 438.507 116.883C439.179 116.323 439.515 115.667 439.515 114.931V114.611C439.339 114.755 439.083 114.883 438.763 114.979C438.443 115.076 437.995 115.155 437.451 115.219C436.715 115.299 436.171 115.379 435.835 115.443C435.499 115.523 435.227 115.619 435.035 115.731C434.827 115.859 434.683 115.987 434.603 116.131C434.507 116.275 434.475 116.451 434.475 116.643V116.659C434.475 117.011 434.603 117.283 434.875 117.459C435.131 117.635 435.531 117.715 436.075 117.715ZM453.468 120.052V120.084C453.468 121.172 453.02 121.988 452.124 122.532C451.228 123.092 449.932 123.364 448.204 123.364H447.868C446.204 123.364 445.004 123.204 444.236 122.852C443.468 122.516 443.084 121.972 443.084 121.204C443.084 120.644 443.276 120.196 443.66 119.86C444.044 119.54 444.652 119.3 445.484 119.155C444.716 119.107 444.14 118.947 443.772 118.66C443.404 118.387 443.228 117.987 443.228 117.443C443.228 116.931 443.42 116.499 443.836 116.179C444.236 115.859 444.828 115.635 445.612 115.539C444.876 115.363 444.348 115.059 443.996 114.643C443.644 114.227 443.468 113.667 443.468 112.979C443.468 112.051 443.836 111.315 444.588 110.771C445.324 110.243 446.396 109.955 447.804 109.907L448.236 109.891C449.116 109.859 449.692 109.731 449.948 109.491C450.204 109.267 450.348 108.787 450.348 108.083V107.955H453.02V108.179C453.02 108.995 452.812 109.539 452.428 109.811C452.044 110.083 451.164 110.211 449.788 110.211C450.812 110.323 451.58 110.611 452.124 111.075C452.652 111.555 452.924 112.179 452.924 112.979V113.011C452.924 114.019 452.524 114.787 451.724 115.315C450.924 115.843 449.788 116.099 448.284 116.099H447.756C446.828 116.099 446.172 116.147 445.804 116.243C445.42 116.339 445.244 116.499 445.244 116.755C445.244 116.979 445.388 117.123 445.676 117.203C445.964 117.299 446.508 117.331 447.276 117.331H449.388C450.764 117.331 451.788 117.555 452.46 118.003C453.132 118.451 453.468 119.123 453.468 120.052ZM448.172 114.499C449.004 114.499 449.612 114.387 450.028 114.131C450.428 113.891 450.636 113.523 450.636 113.011V112.979C450.636 112.451 450.444 112.067 450.06 111.811C449.676 111.555 449.068 111.427 448.252 111.427H448.124C447.34 111.427 446.764 111.571 446.38 111.827C445.996 112.099 445.804 112.499 445.804 113.027V113.043C445.804 113.555 445.98 113.923 446.364 114.147C446.748 114.387 447.34 114.499 448.172 114.499ZM447.916 121.476H448.348C449.34 121.476 450.076 121.38 450.556 121.172C451.036 120.964 451.276 120.644 451.276 120.212V120.18C451.276 119.828 451.116 119.572 450.796 119.412C450.476 119.268 449.948 119.188 449.212 119.188H447.212C446.604 119.236 446.156 119.364 445.868 119.556C445.58 119.748 445.436 120.02 445.436 120.356V120.388C445.436 120.74 445.644 121.012 446.06 121.204C446.476 121.396 447.1 121.476 447.916 121.476ZM461.832 116.467H464.392C464.024 117.459 463.416 118.211 462.552 118.707C461.688 119.22 460.6 119.46 459.272 119.46C457.576 119.46 456.296 119.075 455.432 118.275C454.552 117.475 454.12 116.323 454.12 114.787V114.643C454.12 113.171 454.584 111.971 455.544 111.075C456.488 110.179 457.768 109.731 459.384 109.731C460.968 109.731 462.216 110.163 463.128 111.027C464.04 111.891 464.504 113.027 464.504 114.467V115.443H456.392C456.504 116.147 456.808 116.691 457.32 117.043C457.816 117.395 458.504 117.571 459.4 117.571C460.04 117.571 460.552 117.491 460.952 117.299C461.336 117.123 461.64 116.851 461.832 116.467ZM459.432 111.555C458.6 111.555 457.928 111.747 457.416 112.099C456.904 112.467 456.568 112.995 456.424 113.683H462.184C462.072 112.979 461.784 112.435 461.336 112.083C460.872 111.731 460.232 111.555 459.432 111.555Z" fill="#CFCFCF"/>
<g filter="url(#filter2_d_17690_19923)">
<rect x="320.327" y="159.443" width="189.345" height="115.711" rx="10.6931" fill="white"/>
</g>
<path d="M338.648 242.631H333.336V231.223H338.488C340.136 231.223 341.352 231.463 342.136 231.943C342.92 232.423 343.32 233.175 343.32 234.183V234.231C343.32 234.919 343.16 235.463 342.872 235.879C342.568 236.295 342.104 236.583 341.464 236.775C342.184 236.951 342.712 237.239 343.064 237.655C343.4 238.071 343.576 238.631 343.576 239.335V239.351C343.576 240.471 343.16 241.287 342.36 241.831C341.544 242.375 340.312 242.631 338.648 242.631ZM338.6 233.079H335.608V235.863H338.648C339.48 235.863 340.088 235.751 340.472 235.527C340.84 235.303 341.032 234.951 341.032 234.471V234.439C341.032 233.959 340.84 233.607 340.488 233.399C340.12 233.191 339.496 233.079 338.6 233.079ZM338.456 237.703H335.608V240.663H338.36C339.384 240.663 340.12 240.567 340.552 240.343C340.968 240.119 341.192 239.735 341.192 239.175V239.159C341.192 238.631 340.984 238.263 340.584 238.039C340.184 237.815 339.48 237.703 338.456 237.703ZM347.945 230.791C347.945 231.303 347.817 231.687 347.561 231.927C347.305 232.167 346.921 232.279 346.393 232.279C345.833 232.279 345.433 232.167 345.209 231.943C344.969 231.719 344.857 231.335 344.857 230.791C344.857 230.279 344.969 229.911 345.209 229.671C345.449 229.447 345.849 229.319 346.393 229.319C346.937 229.319 347.321 229.447 347.577 229.671C347.817 229.911 347.945 230.279 347.945 230.791ZM347.561 233.431V242.631H345.161V233.431H347.561ZM354.621 235.143C353.757 235.143 353.117 235.399 352.685 235.895C352.237 236.407 352.029 237.143 352.029 238.119V242.631H349.661V233.431H351.661L351.869 235.351C352.173 234.647 352.621 234.119 353.229 233.735C353.837 233.367 354.557 233.175 355.389 233.175C356.605 233.175 357.549 233.543 358.237 234.247C358.909 234.967 359.261 235.959 359.261 237.223V242.631H356.893V237.799C356.893 236.887 356.701 236.215 356.333 235.783C355.965 235.367 355.389 235.143 354.621 235.143ZM370.52 242.631H368.616L368.376 240.663C367.992 241.383 367.432 241.943 366.696 242.327C365.96 242.711 365.08 242.903 364.088 242.903C363 242.903 362.152 242.695 361.576 242.247C361 241.815 360.712 241.191 360.712 240.375C360.712 239.863 360.808 239.399 361.032 239.015C361.256 238.631 361.576 238.327 362.008 238.087C362.392 237.863 362.84 237.703 363.336 237.591C363.816 237.479 364.664 237.367 365.848 237.239C366.824 237.143 367.464 237.031 367.784 236.887C368.104 236.743 368.264 236.503 368.264 236.183V236.167C368.264 235.767 368.072 235.463 367.704 235.255C367.336 235.047 366.792 234.935 366.056 234.935C365.192 234.935 364.536 235.079 364.12 235.351C363.688 235.639 363.448 236.071 363.4 236.663H360.984C361.08 235.543 361.56 234.695 362.408 234.087C363.256 233.479 364.424 233.175 365.896 233.175C367.496 233.175 368.664 233.463 369.4 234.007C370.136 234.551 370.52 235.431 370.52 236.615V242.631ZM364.84 241.159C365.784 241.159 366.6 240.887 367.272 240.327C367.944 239.767 368.28 239.111 368.28 238.375V238.055C368.104 238.199 367.848 238.327 367.528 238.423C367.208 238.519 366.76 238.599 366.216 238.663C365.48 238.743 364.936 238.823 364.6 238.887C364.264 238.967 363.992 239.063 363.8 239.175C363.592 239.303 363.448 239.431 363.368 239.575C363.272 239.719 363.24 239.895 363.24 240.087V240.103C363.24 240.455 363.368 240.727 363.64 240.903C363.896 241.079 364.296 241.159 364.84 241.159ZM377.48 235.143C376.616 235.143 375.976 235.399 375.544 235.895C375.096 236.407 374.888 237.143 374.888 238.119V242.631H372.52V233.431H374.52L374.728 235.351C375.032 234.647 375.48 234.119 376.088 233.735C376.696 233.367 377.416 233.175 378.248 233.175C379.464 233.175 380.408 233.543 381.096 234.247C381.768 234.967 382.12 235.959 382.12 237.223V242.631H379.752V237.799C379.752 236.887 379.56 236.215 379.192 235.783C378.824 235.367 378.248 235.143 377.48 235.143ZM388.882 242.903C387.186 242.903 385.89 242.503 385.01 241.703C384.13 240.903 383.698 239.719 383.698 238.167V238.023C383.698 236.551 384.162 235.367 385.122 234.487C386.066 233.623 387.33 233.175 388.93 233.175C390.466 233.175 391.666 233.527 392.562 234.215C393.458 234.919 393.97 235.911 394.098 237.207V237.223H391.602V237.191C391.49 236.503 391.218 235.991 390.786 235.639C390.338 235.303 389.73 235.127 388.946 235.127C388.034 235.127 387.33 235.383 386.85 235.879C386.354 236.391 386.114 237.095 386.114 238.023V238.151C386.114 239.047 386.354 239.735 386.834 240.199C387.314 240.679 388.002 240.903 388.93 240.903C389.73 240.903 390.354 240.743 390.802 240.391C391.234 240.039 391.506 239.511 391.618 238.791V238.775H394.098V238.807C393.986 240.151 393.49 241.159 392.594 241.863C391.698 242.567 390.466 242.903 388.882 242.903ZM403.004 239.911H405.564C405.196 240.903 404.588 241.655 403.724 242.151C402.86 242.663 401.772 242.903 400.444 242.903C398.748 242.903 397.468 242.519 396.604 241.719C395.724 240.919 395.292 239.767 395.292 238.231V238.087C395.292 236.615 395.756 235.415 396.716 234.519C397.66 233.623 398.94 233.175 400.556 233.175C402.14 233.175 403.388 233.607 404.3 234.471C405.212 235.335 405.676 236.471 405.676 237.911V238.887H397.564C397.676 239.591 397.98 240.135 398.492 240.487C398.988 240.839 399.676 241.015 400.572 241.015C401.212 241.015 401.724 240.935 402.124 240.743C402.508 240.567 402.812 240.295 403.004 239.911ZM400.604 234.999C399.772 234.999 399.1 235.191 398.588 235.543C398.076 235.911 397.74 236.439 397.596 237.127H403.356C403.244 236.423 402.956 235.879 402.508 235.527C402.044 235.175 401.404 234.999 400.604 234.999ZM342.024 259.439V261.631H333.336V250.223H335.704V259.439H342.024ZM353.239 261.631H351.335L351.095 259.663C350.711 260.383 350.151 260.943 349.415 261.327C348.679 261.711 347.799 261.903 346.807 261.903C345.719 261.903 344.871 261.695 344.295 261.247C343.719 260.815 343.431 260.191 343.431 259.375C343.431 258.863 343.527 258.399 343.751 258.015C343.975 257.631 344.295 257.327 344.727 257.087C345.111 256.863 345.559 256.703 346.055 256.591C346.535 256.479 347.383 256.367 348.567 256.239C349.543 256.143 350.183 256.031 350.503 255.887C350.823 255.743 350.983 255.503 350.983 255.183V255.167C350.983 254.767 350.791 254.463 350.423 254.255C350.055 254.047 349.511 253.935 348.775 253.935C347.911 253.935 347.255 254.079 346.839 254.351C346.407 254.639 346.167 255.071 346.119 255.663H343.703C343.799 254.543 344.279 253.695 345.127 253.087C345.975 252.479 347.143 252.175 348.615 252.175C350.215 252.175 351.383 252.463 352.119 253.007C352.855 253.551 353.239 254.431 353.239 255.615V261.631ZM347.559 260.159C348.503 260.159 349.319 259.887 349.991 259.327C350.663 258.767 350.999 258.111 350.999 257.375V257.055C350.823 257.199 350.567 257.327 350.247 257.423C349.927 257.519 349.479 257.599 348.935 257.663C348.199 257.743 347.655 257.823 347.319 257.887C346.983 257.967 346.711 258.063 346.519 258.175C346.311 258.303 346.167 258.431 346.087 258.575C345.991 258.719 345.959 258.895 345.959 259.087V259.103C345.959 259.455 346.087 259.727 346.359 259.903C346.615 260.079 347.015 260.159 347.559 260.159ZM364.268 261.631H362.268L362.06 259.759C361.772 260.447 361.356 260.975 360.78 261.327C360.204 261.695 359.5 261.871 358.684 261.871C357.484 261.871 356.572 261.535 355.932 260.831C355.292 260.143 354.972 259.151 354.972 257.871V252.431H357.34V257.295C357.34 258.191 357.516 258.831 357.884 259.247C358.236 259.663 358.796 259.871 359.564 259.871C360.284 259.871 360.844 259.631 361.26 259.119C361.676 258.623 361.884 257.935 361.884 257.039V252.431H364.268V261.631ZM371.277 254.143C370.413 254.143 369.773 254.399 369.341 254.895C368.893 255.407 368.685 256.143 368.685 257.119V261.631H366.317V252.431H368.317L368.525 254.351C368.829 253.647 369.277 253.119 369.885 252.735C370.493 252.367 371.213 252.175 372.045 252.175C373.261 252.175 374.205 252.543 374.893 253.247C375.565 253.967 375.917 254.959 375.917 256.223V261.631H373.549V256.799C373.549 255.887 373.357 255.215 372.989 254.783C372.621 254.367 372.045 254.143 371.277 254.143ZM382.679 261.903C380.983 261.903 379.687 261.503 378.807 260.703C377.927 259.903 377.495 258.719 377.495 257.167V257.023C377.495 255.551 377.959 254.367 378.919 253.487C379.863 252.623 381.127 252.175 382.727 252.175C384.263 252.175 385.463 252.527 386.359 253.215C387.255 253.919 387.767 254.911 387.895 256.207V256.223H385.399V256.191C385.287 255.503 385.015 254.991 384.583 254.639C384.135 254.303 383.527 254.127 382.743 254.127C381.831 254.127 381.127 254.383 380.647 254.879C380.151 255.391 379.911 256.095 379.911 257.023V257.151C379.911 258.047 380.151 258.735 380.631 259.199C381.111 259.679 381.799 259.903 382.727 259.903C383.527 259.903 384.151 259.743 384.599 259.391C385.031 259.039 385.303 258.511 385.415 257.791V257.775H387.895V257.807C387.783 259.151 387.287 260.159 386.391 260.863C385.495 261.567 384.263 261.903 382.679 261.903ZM394.259 254.127C393.427 254.127 392.787 254.383 392.339 254.895C391.891 255.407 391.667 256.143 391.667 257.103V261.631H389.411V249.375H391.667V254.159C391.987 253.519 392.435 253.039 393.027 252.687C393.603 252.351 394.307 252.175 395.107 252.175C396.307 252.175 397.235 252.527 397.907 253.231C398.563 253.935 398.899 254.911 398.899 256.191V261.631H396.547V256.847C396.547 255.951 396.355 255.263 395.971 254.815C395.587 254.367 395.011 254.127 394.259 254.127ZM406.609 261.855C405.777 261.855 405.057 261.711 404.465 261.423C403.873 261.135 403.425 260.703 403.105 260.127V264.847H400.833V252.431H402.817L403.025 254.223C403.345 253.567 403.825 253.055 404.449 252.703C405.073 252.351 405.809 252.175 406.657 252.175C408.033 252.175 409.121 252.607 409.905 253.471C410.689 254.335 411.089 255.519 411.089 257.039V257.183C411.089 258.623 410.673 259.775 409.857 260.607C409.041 261.439 407.953 261.855 406.609 261.855ZM405.873 259.919C406.801 259.919 407.505 259.695 407.985 259.231C408.465 258.767 408.705 258.079 408.705 257.167V257.039C408.705 256.111 408.465 255.391 407.985 254.879C407.505 254.383 406.817 254.127 405.921 254.127C405.025 254.127 404.337 254.399 403.825 254.911C403.313 255.423 403.057 256.127 403.057 257.023V257.119C403.057 258.015 403.297 258.719 403.793 259.199C404.273 259.679 404.977 259.919 405.873 259.919ZM417.695 261.903C415.983 261.903 414.687 261.503 413.807 260.703C412.927 259.903 412.495 258.735 412.495 257.167V257.023C412.495 255.535 412.959 254.351 413.919 253.487C414.863 252.623 416.127 252.175 417.727 252.175C419.327 252.175 420.607 252.607 421.551 253.471C422.479 254.335 422.959 255.519 422.959 257.023V257.167C422.959 258.671 422.495 259.823 421.567 260.655C420.639 261.487 419.359 261.903 417.695 261.903ZM417.727 259.903C418.655 259.903 419.359 259.679 419.839 259.199C420.319 258.735 420.575 258.047 420.575 257.151V257.023C420.575 256.095 420.319 255.375 419.839 254.879C419.359 254.383 418.655 254.127 417.743 254.127C416.831 254.127 416.127 254.383 415.631 254.879C415.135 255.391 414.895 256.095 414.895 257.023V257.151C414.895 258.047 415.135 258.735 415.615 259.199C416.095 259.679 416.799 259.903 417.727 259.903ZM429.57 261.903C427.858 261.903 426.562 261.503 425.682 260.703C424.802 259.903 424.37 258.735 424.37 257.167V257.023C424.37 255.535 424.834 254.351 425.794 253.487C426.738 252.623 428.002 252.175 429.602 252.175C431.202 252.175 432.482 252.607 433.426 253.471C434.354 254.335 434.834 255.519 434.834 257.023V257.167C434.834 258.671 434.37 259.823 433.442 260.655C432.514 261.487 431.234 261.903 429.57 261.903ZM429.602 259.903C430.53 259.903 431.234 259.679 431.714 259.199C432.194 258.735 432.45 258.047 432.45 257.151V257.023C432.45 256.095 432.194 255.375 431.714 254.879C431.234 254.383 430.53 254.127 429.618 254.127C428.706 254.127 428.002 254.383 427.506 254.879C427.01 255.391 426.77 256.095 426.77 257.023V257.151C426.77 258.047 427.01 258.735 427.49 259.199C427.97 259.679 428.674 259.903 429.602 259.903ZM438.873 249.375V261.631H436.521V249.375H438.873Z" fill="#CFCFCF"/>
<g filter="url(#filter3_d_17690_19923)">
<rect x="320.327" y="301.887" width="189.345" height="115.711" rx="10.6931" fill="white"/>
</g>
<path d="M338.648 385.074H333.336V373.666H338.488C340.136 373.666 341.352 373.906 342.136 374.386C342.92 374.866 343.32 375.618 343.32 376.626V376.674C343.32 377.362 343.16 377.906 342.872 378.322C342.568 378.738 342.104 379.026 341.464 379.218C342.184 379.394 342.712 379.682 343.064 380.098C343.4 380.514 343.576 381.074 343.576 381.778V381.794C343.576 382.914 343.16 383.73 342.36 384.274C341.544 384.818 340.312 385.074 338.648 385.074ZM338.6 375.522H335.608V378.306H338.648C339.48 378.306 340.088 378.194 340.472 377.97C340.84 377.746 341.032 377.394 341.032 376.914V376.882C341.032 376.402 340.84 376.05 340.488 375.842C340.12 375.634 339.496 375.522 338.6 375.522ZM338.456 380.146H335.608V383.106H338.36C339.384 383.106 340.12 383.01 340.552 382.786C340.968 382.562 341.192 382.178 341.192 381.618V381.602C341.192 381.074 340.984 380.706 340.584 380.482C340.184 380.258 339.48 380.146 338.456 380.146ZM350.07 385.346C348.358 385.346 347.062 384.946 346.182 384.146C345.302 383.346 344.87 382.178 344.87 380.61V380.466C344.87 378.978 345.334 377.794 346.294 376.93C347.238 376.066 348.502 375.618 350.102 375.618C351.702 375.618 352.982 376.05 353.926 376.914C354.854 377.778 355.334 378.962 355.334 380.466V380.61C355.334 382.114 354.87 383.266 353.942 384.098C353.014 384.93 351.734 385.346 350.07 385.346ZM350.102 383.346C351.03 383.346 351.734 383.122 352.214 382.642C352.694 382.178 352.95 381.49 352.95 380.594V380.466C352.95 379.538 352.694 378.818 352.214 378.322C351.734 377.826 351.03 377.57 350.118 377.57C349.206 377.57 348.502 377.826 348.006 378.322C347.51 378.834 347.27 379.538 347.27 380.466V380.594C347.27 381.49 347.51 382.178 347.99 382.642C348.47 383.122 349.174 383.346 350.102 383.346ZM366.221 385.074H364.221L364.013 383.202C363.725 383.89 363.309 384.418 362.733 384.77C362.157 385.138 361.453 385.314 360.637 385.314C359.437 385.314 358.525 384.978 357.885 384.274C357.245 383.586 356.925 382.594 356.925 381.314V375.874H359.293V380.738C359.293 381.634 359.469 382.274 359.837 382.69C360.189 383.106 360.749 383.314 361.517 383.314C362.237 383.314 362.797 383.074 363.213 382.562C363.629 382.066 363.837 381.378 363.837 380.482V375.874H366.221V385.074ZM373.23 377.586C372.366 377.586 371.726 377.842 371.294 378.338C370.846 378.85 370.638 379.586 370.638 380.562V385.074H368.27V375.874H370.27L370.478 377.794C370.782 377.09 371.23 376.562 371.838 376.178C372.446 375.81 373.166 375.618 373.998 375.618C375.214 375.618 376.158 375.986 376.846 376.69C377.518 377.41 377.87 378.402 377.87 379.666V385.074H375.502V380.242C375.502 379.33 375.31 378.658 374.942 378.226C374.574 377.81 373.998 377.586 373.23 377.586ZM384.632 385.346C382.936 385.346 381.64 384.946 380.76 384.146C379.88 383.346 379.448 382.162 379.448 380.61V380.466C379.448 378.994 379.912 377.81 380.872 376.93C381.816 376.066 383.08 375.618 384.68 375.618C386.216 375.618 387.416 375.97 388.312 376.658C389.208 377.362 389.72 378.354 389.848 379.65V379.666H387.352V379.634C387.24 378.946 386.968 378.434 386.536 378.082C386.088 377.746 385.48 377.57 384.696 377.57C383.784 377.57 383.08 377.826 382.6 378.322C382.104 378.834 381.864 379.538 381.864 380.466V380.594C381.864 381.49 382.104 382.178 382.584 382.642C383.064 383.122 383.752 383.346 384.68 383.346C385.48 383.346 386.104 383.186 386.552 382.834C386.984 382.482 387.256 381.954 387.368 381.234V381.218H389.848V381.25C389.736 382.594 389.24 383.602 388.344 384.306C387.448 385.01 386.216 385.346 384.632 385.346ZM398.754 382.354H401.314C400.946 383.346 400.338 384.098 399.474 384.594C398.61 385.106 397.522 385.346 396.194 385.346C394.498 385.346 393.218 384.962 392.354 384.162C391.474 383.362 391.042 382.21 391.042 380.674V380.53C391.042 379.058 391.506 377.858 392.466 376.962C393.41 376.066 394.69 375.618 396.306 375.618C397.89 375.618 399.138 376.05 400.05 376.914C400.962 377.778 401.426 378.914 401.426 380.354V381.33H393.314C393.426 382.034 393.73 382.578 394.242 382.93C394.738 383.282 395.426 383.458 396.322 383.458C396.962 383.458 397.474 383.378 397.874 383.186C398.258 383.01 398.562 382.738 398.754 382.354ZM396.354 377.442C395.522 377.442 394.85 377.634 394.338 377.986C393.826 378.354 393.49 378.882 393.346 379.57H399.106C398.994 378.866 398.706 378.322 398.258 377.97C397.794 377.618 397.154 377.442 396.354 377.442ZM417.805 377.602C417.805 378.882 417.373 379.842 416.525 380.514C415.677 381.186 414.461 381.522 412.861 381.506H410.093V385.074H407.789V373.666H412.701C414.397 373.666 415.677 374.002 416.525 374.658C417.373 375.314 417.805 376.29 417.805 377.602ZM415.453 377.586C415.453 376.914 415.229 376.434 414.797 376.114C414.349 375.81 413.661 375.65 412.717 375.65H410.093V379.522H412.781C413.693 379.522 414.365 379.378 414.797 379.058C415.229 378.738 415.453 378.258 415.453 377.586ZM421.685 381.298V385.074H419.349V375.874H421.301L421.589 378.178C421.797 377.378 422.181 376.786 422.725 376.386C423.269 376.002 424.005 375.794 424.917 375.794H425.765V378.13H424.725C423.557 378.13 422.757 378.354 422.325 378.786C421.893 379.234 421.685 380.066 421.685 381.298ZM430.164 373.234C430.164 373.746 430.036 374.13 429.78 374.37C429.524 374.61 429.14 374.722 428.612 374.722C428.052 374.722 427.652 374.61 427.428 374.386C427.188 374.162 427.076 373.778 427.076 373.234C427.076 372.722 427.188 372.354 427.428 372.114C427.668 371.89 428.068 371.762 428.612 371.762C429.156 371.762 429.54 371.89 429.796 372.114C430.036 372.354 430.164 372.722 430.164 373.234ZM429.78 375.874V385.074H427.38V375.874H429.78ZM441.545 375.874L437.177 385.074H435.017L430.857 375.874H433.369L436.137 382.482L439.001 375.874H441.545ZM451.489 385.074H449.585L449.345 383.106C448.961 383.826 448.401 384.386 447.665 384.77C446.929 385.154 446.049 385.346 445.057 385.346C443.969 385.346 443.121 385.138 442.545 384.69C441.969 384.258 441.681 383.634 441.681 382.818C441.681 382.306 441.777 381.842 442.001 381.458C442.225 381.074 442.545 380.77 442.977 380.53C443.361 380.306 443.809 380.146 444.305 380.034C444.785 379.922 445.633 379.81 446.817 379.682C447.793 379.586 448.433 379.474 448.753 379.33C449.073 379.186 449.233 378.946 449.233 378.626V378.61C449.233 378.21 449.041 377.906 448.673 377.698C448.305 377.49 447.761 377.378 447.025 377.378C446.161 377.378 445.505 377.522 445.089 377.794C444.657 378.082 444.417 378.514 444.369 379.106H441.953C442.049 377.986 442.529 377.138 443.377 376.53C444.225 375.922 445.393 375.618 446.865 375.618C448.465 375.618 449.633 375.906 450.369 376.45C451.105 376.994 451.489 377.874 451.489 379.058V385.074ZM445.809 383.602C446.753 383.602 447.569 383.33 448.241 382.77C448.913 382.21 449.249 381.554 449.249 380.818V380.498C449.073 380.642 448.817 380.77 448.497 380.866C448.177 380.962 447.729 381.042 447.185 381.106C446.449 381.186 445.905 381.266 445.569 381.33C445.233 381.41 444.961 381.506 444.769 381.618C444.561 381.746 444.417 381.874 444.337 382.018C444.241 382.162 444.209 382.338 444.209 382.53V382.546C444.209 382.898 444.337 383.17 444.609 383.346C444.865 383.522 445.265 383.602 445.809 383.602ZM458.835 382.962H459.795V385.074H458.227C456.819 385.074 455.859 384.802 455.347 384.242C454.835 383.698 454.579 382.626 454.579 381.058V377.922H452.467V375.986C452.787 375.986 453.043 375.986 453.203 375.986C453.363 375.986 453.507 375.97 453.667 375.954C454.035 375.954 454.291 375.874 454.419 375.714C454.547 375.554 454.643 375.25 454.707 374.802C454.739 374.626 454.755 374.402 454.771 374.13C454.787 373.858 454.787 373.618 454.787 373.394H456.771V375.874H459.795V377.922H456.771V380.658C456.771 381.666 456.883 382.306 457.123 382.562C457.347 382.834 457.923 382.962 458.835 382.962ZM468.457 382.354H471.017C470.649 383.346 470.041 384.098 469.177 384.594C468.313 385.106 467.225 385.346 465.897 385.346C464.201 385.346 462.921 384.962 462.057 384.162C461.177 383.362 460.745 382.21 460.745 380.674V380.53C460.745 379.058 461.209 377.858 462.169 376.962C463.113 376.066 464.393 375.618 466.009 375.618C467.593 375.618 468.841 376.05 469.753 376.914C470.665 377.778 471.129 378.914 471.129 380.354V381.33H463.017C463.129 382.034 463.433 382.578 463.945 382.93C464.441 383.282 465.129 383.458 466.025 383.458C466.665 383.458 467.177 383.378 467.577 383.186C467.961 383.01 468.265 382.738 468.457 382.354ZM466.057 377.442C465.225 377.442 464.553 377.634 464.041 377.986C463.529 378.354 463.193 378.882 463.049 379.57H468.809C468.697 378.866 468.409 378.322 467.961 377.97C467.497 377.618 466.857 377.442 466.057 377.442ZM342.024 401.882V404.074H333.336V392.666H335.704V401.882H342.024ZM353.239 404.074H351.335L351.095 402.106C350.711 402.826 350.151 403.386 349.415 403.77C348.679 404.154 347.799 404.346 346.807 404.346C345.719 404.346 344.871 404.138 344.295 403.69C343.719 403.258 343.431 402.634 343.431 401.818C343.431 401.306 343.527 400.842 343.751 400.458C343.975 400.074 344.295 399.77 344.727 399.53C345.111 399.306 345.559 399.146 346.055 399.034C346.535 398.922 347.383 398.81 348.567 398.682C349.543 398.586 350.183 398.474 350.503 398.33C350.823 398.186 350.983 397.946 350.983 397.626V397.61C350.983 397.21 350.791 396.906 350.423 396.698C350.055 396.49 349.511 396.378 348.775 396.378C347.911 396.378 347.255 396.522 346.839 396.794C346.407 397.082 346.167 397.514 346.119 398.106H343.703C343.799 396.986 344.279 396.138 345.127 395.53C345.975 394.922 347.143 394.618 348.615 394.618C350.215 394.618 351.383 394.906 352.119 395.45C352.855 395.994 353.239 396.874 353.239 398.058V404.074ZM347.559 402.602C348.503 402.602 349.319 402.33 349.991 401.77C350.663 401.21 350.999 400.554 350.999 399.818V399.498C350.823 399.642 350.567 399.77 350.247 399.866C349.927 399.962 349.479 400.042 348.935 400.106C348.199 400.186 347.655 400.266 347.319 400.33C346.983 400.41 346.711 400.506 346.519 400.618C346.311 400.746 346.167 400.874 346.087 401.018C345.991 401.162 345.959 401.338 345.959 401.53V401.546C345.959 401.898 346.087 402.17 346.359 402.346C346.615 402.522 347.015 402.602 347.559 402.602ZM364.268 404.074H362.268L362.06 402.202C361.772 402.89 361.356 403.418 360.78 403.77C360.204 404.138 359.5 404.314 358.684 404.314C357.484 404.314 356.572 403.978 355.932 403.274C355.292 402.586 354.972 401.594 354.972 400.314V394.874H357.34V399.738C357.34 400.634 357.516 401.274 357.884 401.69C358.236 402.106 358.796 402.314 359.564 402.314C360.284 402.314 360.844 402.074 361.26 401.562C361.676 401.066 361.884 400.378 361.884 399.482V394.874H364.268V404.074ZM371.277 396.586C370.413 396.586 369.773 396.842 369.341 397.338C368.893 397.85 368.685 398.586 368.685 399.562V404.074H366.317V394.874H368.317L368.525 396.794C368.829 396.09 369.277 395.562 369.885 395.178C370.493 394.81 371.213 394.618 372.045 394.618C373.261 394.618 374.205 394.986 374.893 395.69C375.565 396.41 375.917 397.402 375.917 398.666V404.074H373.549V399.242C373.549 398.33 373.357 397.658 372.989 397.226C372.621 396.81 372.045 396.586 371.277 396.586ZM382.679 404.346C380.983 404.346 379.687 403.946 378.807 403.146C377.927 402.346 377.495 401.162 377.495 399.61V399.466C377.495 397.994 377.959 396.81 378.919 395.93C379.863 395.066 381.127 394.618 382.727 394.618C384.263 394.618 385.463 394.97 386.359 395.658C387.255 396.362 387.767 397.354 387.895 398.65V398.666H385.399V398.634C385.287 397.946 385.015 397.434 384.583 397.082C384.135 396.746 383.527 396.57 382.743 396.57C381.831 396.57 381.127 396.826 380.647 397.322C380.151 397.834 379.911 398.538 379.911 399.466V399.594C379.911 400.49 380.151 401.178 380.631 401.642C381.111 402.122 381.799 402.346 382.727 402.346C383.527 402.346 384.151 402.186 384.599 401.834C385.031 401.482 385.303 400.954 385.415 400.234V400.218H387.895V400.25C387.783 401.594 387.287 402.602 386.391 403.306C385.495 404.01 384.263 404.346 382.679 404.346ZM394.259 396.57C393.427 396.57 392.787 396.826 392.339 397.338C391.891 397.85 391.667 398.586 391.667 399.546V404.074H389.411V391.818H391.667V396.602C391.987 395.962 392.435 395.482 393.027 395.13C393.603 394.794 394.307 394.618 395.107 394.618C396.307 394.618 397.235 394.97 397.907 395.674C398.563 396.378 398.899 397.354 398.899 398.634V404.074H396.547V399.29C396.547 398.394 396.355 397.706 395.971 397.258C395.587 396.81 395.011 396.57 394.259 396.57ZM406.609 404.298C405.777 404.298 405.057 404.154 404.465 403.866C403.873 403.578 403.425 403.146 403.105 402.57V407.29H400.833V394.874H402.817L403.025 396.666C403.345 396.01 403.825 395.498 404.449 395.146C405.073 394.794 405.809 394.618 406.657 394.618C408.033 394.618 409.121 395.05 409.905 395.914C410.689 396.778 411.089 397.962 411.089 399.482V399.626C411.089 401.066 410.673 402.218 409.857 403.05C409.041 403.882 407.953 404.298 406.609 404.298ZM405.873 402.362C406.801 402.362 407.505 402.138 407.985 401.674C408.465 401.21 408.705 400.522 408.705 399.61V399.482C408.705 398.554 408.465 397.834 407.985 397.322C407.505 396.826 406.817 396.57 405.921 396.57C405.025 396.57 404.337 396.842 403.825 397.354C403.313 397.866 403.057 398.57 403.057 399.466V399.562C403.057 400.458 403.297 401.162 403.793 401.642C404.273 402.122 404.977 402.362 405.873 402.362ZM422.067 404.074H420.163L419.923 402.106C419.539 402.826 418.979 403.386 418.243 403.77C417.507 404.154 416.627 404.346 415.635 404.346C414.547 404.346 413.699 404.138 413.123 403.69C412.547 403.258 412.259 402.634 412.259 401.818C412.259 401.306 412.355 400.842 412.579 400.458C412.803 400.074 413.123 399.77 413.555 399.53C413.939 399.306 414.387 399.146 414.883 399.034C415.363 398.922 416.211 398.81 417.395 398.682C418.371 398.586 419.011 398.474 419.331 398.33C419.651 398.186 419.811 397.946 419.811 397.626V397.61C419.811 397.21 419.619 396.906 419.251 396.698C418.883 396.49 418.339 396.378 417.603 396.378C416.739 396.378 416.083 396.522 415.667 396.794C415.235 397.082 414.995 397.514 414.947 398.106H412.531C412.627 396.986 413.107 396.138 413.955 395.53C414.803 394.922 415.971 394.618 417.443 394.618C419.043 394.618 420.211 394.906 420.947 395.45C421.683 395.994 422.067 396.874 422.067 398.058V404.074ZM416.387 402.602C417.331 402.602 418.147 402.33 418.819 401.77C419.491 401.21 419.827 400.554 419.827 399.818V399.498C419.651 399.642 419.395 399.77 419.075 399.866C418.755 399.962 418.307 400.042 417.763 400.106C417.027 400.186 416.483 400.266 416.147 400.33C415.811 400.41 415.539 400.506 415.347 400.618C415.139 400.746 414.995 400.874 414.915 401.018C414.819 401.162 414.787 401.338 414.787 401.53V401.546C414.787 401.898 414.915 402.17 415.187 402.346C415.443 402.522 415.843 402.602 416.387 402.602ZM433.891 404.074H431.907L431.699 402.218C431.395 402.89 430.931 403.418 430.323 403.77C429.699 404.122 428.963 404.298 428.099 404.298C426.691 404.298 425.603 403.882 424.819 403.05C424.035 402.218 423.651 401.05 423.651 399.53V399.402C423.651 397.914 424.051 396.746 424.851 395.898C425.651 395.066 426.771 394.634 428.179 394.634C428.963 394.634 429.651 394.794 430.227 395.098C430.803 395.402 431.267 395.85 431.603 396.426V391.818H433.891V404.074ZM428.803 402.33C429.715 402.33 430.419 402.09 430.931 401.594C431.427 401.114 431.683 400.41 431.683 399.514V399.418C431.683 398.538 431.427 397.834 430.931 397.322C430.419 396.81 429.731 396.538 428.867 396.538C427.939 396.538 427.251 396.794 426.771 397.274C426.291 397.77 426.067 398.49 426.067 399.418V399.53C426.067 400.458 426.291 401.146 426.755 401.626C427.219 402.106 427.907 402.33 428.803 402.33Z" fill="#CFCFCF"/>
<g filter="url(#filter4_d_17690_19923)">
<rect x="614.865" y="17" width="189.345" height="115.711" rx="10.6931" fill="white"/>
</g>
<path d="M633.522 119.412V121.22H631.266V119.396C629.89 119.268 628.866 118.851 628.178 118.179C627.474 117.507 627.058 116.515 626.93 115.188H629.442C629.522 115.971 629.826 116.547 630.338 116.899C630.85 117.251 631.602 117.427 632.626 117.427C633.442 117.427 634.066 117.299 634.514 117.027C634.962 116.771 635.186 116.387 635.186 115.891C635.186 115.555 635.074 115.283 634.866 115.076C634.642 114.883 634.29 114.723 633.778 114.595C633.57 114.547 633.33 114.499 633.042 114.451C632.754 114.419 632.29 114.355 631.682 114.291C630.082 114.099 628.962 113.731 628.338 113.219C627.698 112.707 627.394 111.939 627.394 110.931C627.394 110.003 627.73 109.235 628.418 108.627C629.106 108.035 630.066 107.683 631.298 107.571V105.635H633.522V107.635C634.658 107.811 635.538 108.211 636.178 108.819C636.802 109.427 637.186 110.275 637.314 111.347H634.882C634.786 110.707 634.514 110.227 634.066 109.939C633.618 109.651 632.93 109.491 632.018 109.491C631.266 109.491 630.706 109.619 630.322 109.843C629.938 110.083 629.746 110.435 629.746 110.883C629.746 111.331 629.938 111.651 630.338 111.859C630.738 112.083 631.586 112.259 632.882 112.387C634.578 112.579 635.778 112.947 636.466 113.475C637.154 114.003 637.506 114.787 637.522 115.811C637.522 116.803 637.17 117.619 636.466 118.259C635.762 118.899 634.77 119.284 633.522 119.412ZM644.467 119.188H639.155V107.779H644.307C645.955 107.779 647.171 108.019 647.955 108.499C648.739 108.979 649.139 109.731 649.139 110.74V110.787C649.139 111.475 648.979 112.019 648.691 112.435C648.387 112.851 647.923 113.139 647.283 113.331C648.003 113.507 648.531 113.795 648.883 114.211C649.219 114.627 649.395 115.188 649.395 115.891V115.907C649.395 117.027 648.979 117.843 648.179 118.387C647.363 118.931 646.131 119.188 644.467 119.188ZM644.419 109.635H641.427V112.419H644.467C645.299 112.419 645.907 112.307 646.291 112.083C646.659 111.859 646.851 111.507 646.851 111.027V110.995C646.851 110.515 646.659 110.163 646.307 109.955C645.939 109.747 645.315 109.635 644.419 109.635ZM644.275 114.259H641.427V117.219H644.179C645.203 117.219 645.939 117.123 646.371 116.899C646.787 116.675 647.011 116.291 647.011 115.731V115.715C647.011 115.188 646.803 114.819 646.403 114.595C646.003 114.371 645.299 114.259 644.275 114.259ZM653.223 110.979L653.255 111.219V119.188H651.015V107.779H653.303L658.999 115.507L659.207 115.923L659.175 115.587V107.779H661.399V119.188H659.207L653.431 111.379L653.223 110.979ZM669.045 119.188H663.733V107.779H668.885C670.533 107.779 671.749 108.019 672.533 108.499C673.317 108.979 673.717 109.731 673.717 110.74V110.787C673.717 111.475 673.557 112.019 673.269 112.435C672.965 112.851 672.501 113.139 671.861 113.331C672.581 113.507 673.109 113.795 673.461 114.211C673.797 114.627 673.973 115.188 673.973 115.891V115.907C673.973 117.027 673.557 117.843 672.757 118.387C671.941 118.931 670.709 119.188 669.045 119.188ZM668.997 109.635H666.005V112.419H669.045C669.877 112.419 670.485 112.307 670.869 112.083C671.237 111.859 671.429 111.507 671.429 111.027V110.995C671.429 110.515 671.237 110.163 670.885 109.955C670.517 109.747 669.893 109.635 668.997 109.635ZM668.853 114.259H666.005V117.219H668.757C669.781 117.219 670.517 117.123 670.949 116.899C671.365 116.675 671.589 116.291 671.589 115.731V115.715C671.589 115.188 671.381 114.819 670.981 114.595C670.581 114.371 669.877 114.259 668.853 114.259ZM685.771 114.627V119.188H683.339V114.595L679.003 107.779H681.707L684.603 112.547L687.675 107.779H690.379L685.771 114.627ZM693.765 107.347C693.765 107.859 693.637 108.243 693.381 108.483C693.125 108.723 692.741 108.835 692.213 108.835C691.653 108.835 691.253 108.723 691.029 108.499C690.789 108.275 690.677 107.891 690.677 107.347C690.677 106.835 690.789 106.467 691.029 106.227C691.269 106.003 691.669 105.875 692.213 105.875C692.757 105.875 693.141 106.003 693.397 106.227C693.637 106.467 693.765 106.835 693.765 107.347ZM693.381 109.987V119.188H690.981V109.987H693.381ZM702.745 116.467H705.305C704.937 117.459 704.329 118.211 703.465 118.707C702.601 119.22 701.513 119.46 700.185 119.46C698.489 119.46 697.209 119.075 696.345 118.275C695.465 117.475 695.033 116.323 695.033 114.787V114.643C695.033 113.171 695.497 111.971 696.457 111.075C697.401 110.179 698.681 109.731 700.297 109.731C701.881 109.731 703.129 110.163 704.041 111.027C704.953 111.891 705.417 113.027 705.417 114.467V115.443H697.305C697.417 116.147 697.721 116.691 698.233 117.043C698.729 117.395 699.417 117.571 700.313 117.571C700.953 117.571 701.465 117.491 701.865 117.299C702.249 117.123 702.553 116.851 702.745 116.467ZM700.345 111.555C699.513 111.555 698.841 111.747 698.329 112.099C697.817 112.467 697.481 112.995 697.337 113.683H703.097C702.985 112.979 702.697 112.435 702.249 112.083C701.785 111.731 701.145 111.555 700.345 111.555ZM709.411 106.931V119.188H707.059V106.931H709.411ZM721.242 119.188H719.258L719.05 117.331C718.746 118.003 718.282 118.531 717.674 118.883C717.05 119.236 716.314 119.412 715.45 119.412C714.042 119.412 712.954 118.995 712.17 118.163C711.386 117.331 711.002 116.163 711.002 114.643V114.515C711.002 113.027 711.402 111.859 712.202 111.011C713.002 110.179 714.122 109.747 715.53 109.747C716.314 109.747 717.002 109.907 717.578 110.211C718.154 110.515 718.618 110.964 718.954 111.539V106.931H721.242V119.188ZM716.154 117.443C717.066 117.443 717.77 117.203 718.282 116.707C718.778 116.227 719.034 115.523 719.034 114.627V114.531C719.034 113.651 718.778 112.947 718.282 112.435C717.77 111.923 717.082 111.651 716.218 111.651C715.29 111.651 714.602 111.907 714.122 112.387C713.642 112.883 713.418 113.603 713.418 114.531V114.643C713.418 115.571 713.642 116.259 714.106 116.739C714.57 117.219 715.258 117.443 716.154 117.443Z" fill="#CFCFCF"/>
<g filter="url(#filter5_d_17690_19923)">
<rect x="614.865" y="159.443" width="189.345" height="115.711" rx="10.6931" fill="white"/>
</g>
<path d="M633.186 242.631H627.874V231.223H633.026C634.674 231.223 635.89 231.463 636.674 231.943C637.458 232.423 637.858 233.175 637.858 234.183V234.231C637.858 234.919 637.698 235.463 637.41 235.879C637.106 236.295 636.642 236.583 636.002 236.775C636.722 236.951 637.25 237.239 637.602 237.655C637.938 238.071 638.114 238.631 638.114 239.335V239.351C638.114 240.471 637.698 241.287 636.898 241.831C636.082 242.375 634.85 242.631 633.186 242.631ZM633.138 233.079H630.146V235.863H633.186C634.018 235.863 634.626 235.751 635.01 235.527C635.378 235.303 635.57 234.951 635.57 234.471V234.439C635.57 233.959 635.378 233.607 635.026 233.399C634.658 233.191 634.034 233.079 633.138 233.079ZM632.994 237.703H630.146V240.663H632.898C633.922 240.663 634.658 240.567 635.09 240.343C635.506 240.119 635.73 239.735 635.73 239.175V239.159C635.73 238.631 635.522 238.263 635.122 238.039C634.722 237.815 634.018 237.703 632.994 237.703ZM644.608 242.903C642.896 242.903 641.6 242.503 640.72 241.703C639.84 240.903 639.408 239.735 639.408 238.167V238.023C639.408 236.535 639.872 235.351 640.832 234.487C641.776 233.623 643.04 233.175 644.64 233.175C646.24 233.175 647.52 233.607 648.464 234.471C649.392 235.335 649.872 236.519 649.872 238.023V238.167C649.872 239.671 649.408 240.823 648.48 241.655C647.552 242.487 646.272 242.903 644.608 242.903ZM644.64 240.903C645.568 240.903 646.272 240.679 646.752 240.199C647.232 239.735 647.488 239.047 647.488 238.151V238.023C647.488 237.095 647.232 236.375 646.752 235.879C646.272 235.383 645.568 235.127 644.656 235.127C643.744 235.127 643.04 235.383 642.544 235.879C642.048 236.391 641.808 237.095 641.808 238.023V238.151C641.808 239.047 642.048 239.735 642.528 240.199C643.008 240.679 643.712 240.903 644.64 240.903ZM660.759 242.631H658.759L658.551 240.759C658.263 241.447 657.847 241.975 657.271 242.327C656.695 242.695 655.991 242.871 655.175 242.871C653.975 242.871 653.063 242.535 652.423 241.831C651.783 241.143 651.463 240.151 651.463 238.871V233.431H653.831V238.295C653.831 239.191 654.007 239.831 654.375 240.247C654.727 240.663 655.287 240.871 656.055 240.871C656.775 240.871 657.335 240.631 657.751 240.119C658.167 239.623 658.375 238.935 658.375 238.039V233.431H660.759V242.631ZM667.769 235.143C666.905 235.143 666.265 235.399 665.833 235.895C665.385 236.407 665.177 237.143 665.177 238.119V242.631H662.809V233.431H664.809L665.017 235.351C665.321 234.647 665.769 234.119 666.377 233.735C666.985 233.367 667.705 233.175 668.537 233.175C669.753 233.175 670.697 233.543 671.385 234.247C672.057 234.967 672.409 235.959 672.409 237.223V242.631H670.041V237.799C670.041 236.887 669.849 236.215 669.481 235.783C669.113 235.367 668.537 235.143 667.769 235.143ZM679.17 242.903C677.474 242.903 676.178 242.503 675.298 241.703C674.418 240.903 673.986 239.719 673.986 238.167V238.023C673.986 236.551 674.45 235.367 675.41 234.487C676.354 233.623 677.618 233.175 679.218 233.175C680.754 233.175 681.954 233.527 682.85 234.215C683.746 234.919 684.258 235.911 684.386 237.207V237.223H681.89V237.191C681.778 236.503 681.506 235.991 681.074 235.639C680.626 235.303 680.018 235.127 679.234 235.127C678.322 235.127 677.618 235.383 677.138 235.879C676.642 236.391 676.402 237.095 676.402 238.023V238.151C676.402 239.047 676.642 239.735 677.122 240.199C677.602 240.679 678.29 240.903 679.218 240.903C680.018 240.903 680.642 240.743 681.09 240.391C681.522 240.039 681.794 239.511 681.906 238.791V238.775H684.386V238.807C684.274 240.151 683.778 241.159 682.882 241.863C681.986 242.567 680.754 242.903 679.17 242.903ZM693.292 239.911H695.852C695.484 240.903 694.876 241.655 694.012 242.151C693.148 242.663 692.06 242.903 690.732 242.903C689.036 242.903 687.756 242.519 686.892 241.719C686.012 240.919 685.58 239.767 685.58 238.231V238.087C685.58 236.615 686.044 235.415 687.004 234.519C687.948 233.623 689.228 233.175 690.844 233.175C692.428 233.175 693.676 233.607 694.588 234.471C695.5 235.335 695.964 236.471 695.964 237.911V238.887H687.852C687.964 239.591 688.268 240.135 688.78 240.487C689.276 240.839 689.964 241.015 690.86 241.015C691.5 241.015 692.012 240.935 692.412 240.743C692.796 240.567 693.1 240.295 693.292 239.911ZM690.892 234.999C690.06 234.999 689.388 235.191 688.876 235.543C688.364 235.911 688.028 236.439 687.884 237.127H693.644C693.532 236.423 693.244 235.879 692.796 235.527C692.332 235.175 691.692 234.999 690.892 234.999ZM707.527 242.903C705.671 242.903 704.263 242.439 703.303 241.479C702.343 240.535 701.863 239.143 701.863 237.287V236.679C701.863 234.919 702.359 233.527 703.383 232.503C704.407 231.495 705.783 230.983 707.543 230.983C709.303 230.983 710.679 231.495 711.703 232.503C712.727 233.527 713.239 234.919 713.239 236.679V237.287C713.239 239.079 712.727 240.471 711.735 241.447C710.743 242.423 709.335 242.903 707.527 242.903ZM707.543 240.775C708.631 240.775 709.447 240.487 709.991 239.895C710.535 239.303 710.823 238.423 710.823 237.239V236.759C710.823 235.543 710.535 234.631 709.991 234.007C709.447 233.399 708.631 233.079 707.543 233.079C706.455 233.079 705.639 233.399 705.095 234.007C704.551 234.631 704.279 235.543 704.279 236.743V237.239C704.279 238.407 704.551 239.287 705.095 239.879C705.639 240.487 706.455 240.775 707.543 240.775ZM719.94 235.143C719.076 235.143 718.436 235.399 718.004 235.895C717.556 236.407 717.348 237.143 717.348 238.119V242.631H714.98V233.431H716.98L717.188 235.351C717.492 234.647 717.94 234.119 718.548 233.735C719.156 233.367 719.876 233.175 720.708 233.175C721.924 233.175 722.868 233.543 723.556 234.247C724.228 234.967 724.58 235.959 724.58 237.223V242.631H722.212V237.799C722.212 236.887 722.02 236.215 721.652 235.783C721.284 235.367 720.708 235.143 719.94 235.143ZM731.342 242.903C729.646 242.903 728.35 242.503 727.47 241.703C726.59 240.903 726.158 239.719 726.158 238.167V238.023C726.158 236.551 726.622 235.367 727.582 234.487C728.526 233.623 729.79 233.175 731.39 233.175C732.926 233.175 734.126 233.527 735.022 234.215C735.918 234.919 736.43 235.911 736.558 237.207V237.223H734.062V237.191C733.95 236.503 733.678 235.991 733.246 235.639C732.798 235.303 732.19 235.127 731.406 235.127C730.494 235.127 729.79 235.383 729.31 235.879C728.814 236.391 728.574 237.095 728.574 238.023V238.151C728.574 239.047 728.814 239.735 729.294 240.199C729.774 240.679 730.462 240.903 731.39 240.903C732.19 240.903 732.814 240.743 733.262 240.391C733.694 240.039 733.966 239.511 734.078 238.791V238.775H736.558V238.807C736.446 240.151 735.95 241.159 735.054 241.863C734.158 242.567 732.926 242.903 731.342 242.903ZM742.923 235.127C742.091 235.127 741.451 235.383 741.003 235.895C740.555 236.407 740.331 237.143 740.331 238.103V242.631H738.075V230.375H740.331V235.159C740.651 234.519 741.099 234.039 741.691 233.687C742.267 233.351 742.971 233.175 743.771 233.175C744.971 233.175 745.899 233.527 746.571 234.231C747.227 234.935 747.563 235.911 747.563 237.191V242.631H745.211V237.847C745.211 236.951 745.019 236.263 744.635 235.815C744.251 235.367 743.675 235.127 742.923 235.127ZM758.84 242.631H756.936L756.696 240.663C756.312 241.383 755.752 241.943 755.016 242.327C754.28 242.711 753.4 242.903 752.408 242.903C751.32 242.903 750.472 242.695 749.896 242.247C749.32 241.815 749.032 241.191 749.032 240.375C749.032 239.863 749.128 239.399 749.352 239.015C749.576 238.631 749.896 238.327 750.328 238.087C750.712 237.863 751.16 237.703 751.656 237.591C752.136 237.479 752.984 237.367 754.168 237.239C755.144 237.143 755.784 237.031 756.104 236.887C756.424 236.743 756.584 236.503 756.584 236.183V236.167C756.584 235.767 756.392 235.463 756.024 235.255C755.656 235.047 755.112 234.935 754.376 234.935C753.512 234.935 752.856 235.079 752.44 235.351C752.008 235.639 751.768 236.071 751.72 236.663H749.304C749.4 235.543 749.88 234.695 750.728 234.087C751.576 233.479 752.744 233.175 754.216 233.175C755.816 233.175 756.984 233.463 757.72 234.007C758.456 234.551 758.84 235.431 758.84 236.615V242.631ZM753.16 241.159C754.104 241.159 754.92 240.887 755.592 240.327C756.264 239.767 756.6 239.111 756.6 238.375V238.055C756.424 238.199 756.168 238.327 755.848 238.423C755.528 238.519 755.08 238.599 754.536 238.663C753.8 238.743 753.256 238.823 752.92 238.887C752.584 238.967 752.312 239.063 752.12 239.175C751.912 239.303 751.768 239.431 751.688 239.575C751.592 239.719 751.56 239.895 751.56 240.087V240.103C751.56 240.455 751.688 240.727 751.96 240.903C752.216 241.079 752.616 241.159 753.16 241.159ZM763.64 230.791C763.64 231.303 763.512 231.687 763.256 231.927C763 232.167 762.616 232.279 762.088 232.279C761.528 232.279 761.128 232.167 760.904 231.943C760.664 231.719 760.552 231.335 760.552 230.791C760.552 230.279 760.664 229.911 760.904 229.671C761.144 229.447 761.544 229.319 762.088 229.319C762.632 229.319 763.016 229.447 763.272 229.671C763.512 229.911 763.64 230.279 763.64 230.791ZM763.256 233.431V242.631H760.856V233.431H763.256ZM770.315 235.143C769.451 235.143 768.811 235.399 768.379 235.895C767.931 236.407 767.723 237.143 767.723 238.119V242.631H765.355V233.431H767.355L767.563 235.351C767.867 234.647 768.315 234.119 768.923 233.735C769.531 233.367 770.251 233.175 771.083 233.175C772.299 233.175 773.243 233.543 773.931 234.247C774.603 234.967 774.955 235.959 774.955 237.223V242.631H772.587V237.799C772.587 236.887 772.395 236.215 772.027 235.783C771.659 235.367 771.083 235.143 770.315 235.143ZM636.562 259.439V261.631H627.874V250.223H630.242V259.439H636.562ZM647.777 261.631H645.873L645.633 259.663C645.249 260.383 644.689 260.943 643.953 261.327C643.217 261.711 642.337 261.903 641.345 261.903C640.257 261.903 639.409 261.695 638.833 261.247C638.257 260.815 637.969 260.191 637.969 259.375C637.969 258.863 638.065 258.399 638.289 258.015C638.513 257.631 638.833 257.327 639.265 257.087C639.649 256.863 640.097 256.703 640.593 256.591C641.073 256.479 641.921 256.367 643.105 256.239C644.081 256.143 644.721 256.031 645.041 255.887C645.361 255.743 645.521 255.503 645.521 255.183V255.167C645.521 254.767 645.329 254.463 644.961 254.255C644.593 254.047 644.049 253.935 643.313 253.935C642.449 253.935 641.793 254.079 641.377 254.351C640.945 254.639 640.705 255.071 640.657 255.663H638.241C638.337 254.543 638.817 253.695 639.665 253.087C640.513 252.479 641.681 252.175 643.153 252.175C644.753 252.175 645.921 252.463 646.657 253.007C647.393 253.551 647.777 254.431 647.777 255.615V261.631ZM642.097 260.159C643.041 260.159 643.857 259.887 644.529 259.327C645.201 258.767 645.537 258.111 645.537 257.375V257.055C645.361 257.199 645.105 257.327 644.785 257.423C644.465 257.519 644.017 257.599 643.473 257.663C642.737 257.743 642.193 257.823 641.857 257.887C641.521 257.967 641.249 258.063 641.057 258.175C640.849 258.303 640.705 258.431 640.625 258.575C640.529 258.719 640.497 258.895 640.497 259.087V259.103C640.497 259.455 640.625 259.727 640.897 259.903C641.153 260.079 641.553 260.159 642.097 260.159ZM658.806 261.631H656.806L656.598 259.759C656.31 260.447 655.894 260.975 655.318 261.327C654.742 261.695 654.038 261.871 653.222 261.871C652.022 261.871 651.11 261.535 650.47 260.831C649.83 260.143 649.51 259.151 649.51 257.871V252.431H651.878V257.295C651.878 258.191 652.054 258.831 652.422 259.247C652.774 259.663 653.334 259.871 654.102 259.871C654.822 259.871 655.382 259.631 655.798 259.119C656.214 258.623 656.422 257.935 656.422 257.039V252.431H658.806V261.631ZM665.815 254.143C664.951 254.143 664.311 254.399 663.879 254.895C663.431 255.407 663.223 256.143 663.223 257.119V261.631H660.855V252.431H662.855L663.063 254.351C663.367 253.647 663.815 253.119 664.423 252.735C665.031 252.367 665.751 252.175 666.583 252.175C667.799 252.175 668.743 252.543 669.431 253.247C670.103 253.967 670.455 254.959 670.455 256.223V261.631H668.087V256.799C668.087 255.887 667.895 255.215 667.527 254.783C667.159 254.367 666.583 254.143 665.815 254.143ZM677.217 261.903C675.521 261.903 674.225 261.503 673.345 260.703C672.465 259.903 672.033 258.719 672.033 257.167V257.023C672.033 255.551 672.497 254.367 673.457 253.487C674.401 252.623 675.665 252.175 677.265 252.175C678.801 252.175 680.001 252.527 680.897 253.215C681.793 253.919 682.305 254.911 682.433 256.207V256.223H679.937V256.191C679.825 255.503 679.553 254.991 679.121 254.639C678.673 254.303 678.065 254.127 677.281 254.127C676.369 254.127 675.665 254.383 675.185 254.879C674.689 255.391 674.449 256.095 674.449 257.023V257.151C674.449 258.047 674.689 258.735 675.169 259.199C675.649 259.679 676.337 259.903 677.265 259.903C678.065 259.903 678.689 259.743 679.137 259.391C679.569 259.039 679.841 258.511 679.953 257.791V257.775H682.433V257.807C682.321 259.151 681.825 260.159 680.929 260.863C680.033 261.567 678.801 261.903 677.217 261.903ZM688.798 254.127C687.966 254.127 687.326 254.383 686.878 254.895C686.43 255.407 686.206 256.143 686.206 257.103V261.631H683.95V249.375H686.206V254.159C686.526 253.519 686.974 253.039 687.566 252.687C688.142 252.351 688.846 252.175 689.646 252.175C690.846 252.175 691.774 252.527 692.446 253.231C693.102 253.935 693.438 254.911 693.438 256.191V261.631H691.086V256.847C691.086 255.951 690.894 255.263 690.51 254.815C690.126 254.367 689.55 254.127 688.798 254.127ZM701.147 261.855C700.315 261.855 699.595 261.711 699.003 261.423C698.411 261.135 697.963 260.703 697.643 260.127V264.847H695.371V252.431H697.355L697.563 254.223C697.883 253.567 698.363 253.055 698.987 252.703C699.611 252.351 700.347 252.175 701.195 252.175C702.571 252.175 703.659 252.607 704.443 253.471C705.227 254.335 705.627 255.519 705.627 257.039V257.183C705.627 258.623 705.211 259.775 704.395 260.607C703.579 261.439 702.491 261.855 701.147 261.855ZM700.411 259.919C701.339 259.919 702.043 259.695 702.523 259.231C703.003 258.767 703.243 258.079 703.243 257.167V257.039C703.243 256.111 703.003 255.391 702.523 254.879C702.043 254.383 701.355 254.127 700.459 254.127C699.563 254.127 698.875 254.399 698.363 254.911C697.851 255.423 697.595 256.127 697.595 257.023V257.119C697.595 258.015 697.835 258.719 698.331 259.199C698.811 259.679 699.515 259.919 700.411 259.919ZM716.605 261.631H714.701L714.461 259.663C714.077 260.383 713.517 260.943 712.781 261.327C712.045 261.711 711.165 261.903 710.173 261.903C709.085 261.903 708.237 261.695 707.661 261.247C707.085 260.815 706.797 260.191 706.797 259.375C706.797 258.863 706.893 258.399 707.117 258.015C707.341 257.631 707.661 257.327 708.093 257.087C708.477 256.863 708.925 256.703 709.421 256.591C709.901 256.479 710.749 256.367 711.933 256.239C712.909 256.143 713.549 256.031 713.869 255.887C714.189 255.743 714.349 255.503 714.349 255.183V255.167C714.349 254.767 714.157 254.463 713.789 254.255C713.421 254.047 712.877 253.935 712.141 253.935C711.277 253.935 710.621 254.079 710.205 254.351C709.773 254.639 709.533 255.071 709.485 255.663H707.069C707.165 254.543 707.645 253.695 708.493 253.087C709.341 252.479 710.509 252.175 711.981 252.175C713.581 252.175 714.749 252.463 715.485 253.007C716.221 253.551 716.605 254.431 716.605 255.615V261.631ZM710.925 260.159C711.869 260.159 712.685 259.887 713.357 259.327C714.029 258.767 714.365 258.111 714.365 257.375V257.055C714.189 257.199 713.933 257.327 713.613 257.423C713.293 257.519 712.845 257.599 712.301 257.663C711.565 257.743 711.021 257.823 710.685 257.887C710.349 257.967 710.077 258.063 709.885 258.175C709.677 258.303 709.533 258.431 709.453 258.575C709.357 258.719 709.325 258.895 709.325 259.087V259.103C709.325 259.455 709.453 259.727 709.725 259.903C709.981 260.079 710.381 260.159 710.925 260.159ZM728.429 261.631H726.445L726.237 259.775C725.933 260.447 725.469 260.975 724.861 261.327C724.237 261.679 723.501 261.855 722.637 261.855C721.229 261.855 720.141 261.439 719.357 260.607C718.573 259.775 718.189 258.607 718.189 257.087V256.959C718.189 255.471 718.589 254.303 719.389 253.455C720.189 252.623 721.309 252.191 722.717 252.191C723.501 252.191 724.189 252.351 724.765 252.655C725.341 252.959 725.805 253.407 726.141 253.983V249.375H728.429V261.631ZM723.341 259.887C724.253 259.887 724.957 259.647 725.469 259.151C725.965 258.671 726.221 257.967 726.221 257.071V256.975C726.221 256.095 725.965 255.391 725.469 254.879C724.957 254.367 724.269 254.095 723.405 254.095C722.477 254.095 721.789 254.351 721.309 254.831C720.829 255.327 720.605 256.047 720.605 256.975V257.087C720.605 258.015 720.829 258.703 721.293 259.183C721.757 259.663 722.445 259.887 723.341 259.887Z" fill="#CFCFCF"/>
<g filter="url(#filter6_d_17690_19923)">
<rect x="614.865" y="301.887" width="189.345" height="115.711" rx="10.6931" fill="white"/>
</g>
<path d="M636.354 397.658V399.754H630.162V404.074H627.874V392.666H636.642V394.73H630.162V397.658H636.354ZM647.387 404.074H645.483L645.243 402.106C644.859 402.826 644.299 403.386 643.563 403.77C642.827 404.154 641.947 404.346 640.955 404.346C639.867 404.346 639.019 404.138 638.443 403.69C637.867 403.258 637.579 402.634 637.579 401.818C637.579 401.306 637.675 400.842 637.899 400.458C638.123 400.074 638.443 399.77 638.875 399.53C639.259 399.306 639.707 399.146 640.203 399.034C640.683 398.922 641.531 398.81 642.715 398.682C643.691 398.586 644.331 398.474 644.651 398.33C644.971 398.186 645.131 397.946 645.131 397.626V397.61C645.131 397.21 644.939 396.906 644.571 396.698C644.203 396.49 643.659 396.378 642.923 396.378C642.059 396.378 641.403 396.522 640.987 396.794C640.555 397.082 640.315 397.514 640.267 398.106H637.851C637.947 396.986 638.427 396.138 639.275 395.53C640.123 394.922 641.291 394.618 642.763 394.618C644.363 394.618 645.531 394.906 646.267 395.45C647.003 395.994 647.387 396.874 647.387 398.058V404.074ZM641.707 402.602C642.651 402.602 643.467 402.33 644.139 401.77C644.811 401.21 645.147 400.554 645.147 399.818V399.498C644.971 399.642 644.715 399.77 644.395 399.866C644.075 399.962 643.627 400.042 643.083 400.106C642.347 400.186 641.803 400.266 641.467 400.33C641.131 400.41 640.859 400.506 640.667 400.618C640.459 400.746 640.315 400.874 640.235 401.018C640.139 401.162 640.107 401.338 640.107 401.53V401.546C640.107 401.898 640.235 402.17 640.507 402.346C640.763 402.522 641.163 402.602 641.707 402.602ZM651.723 400.298V404.074H649.387V394.874H651.339L651.627 397.178C651.835 396.378 652.219 395.786 652.763 395.386C653.307 395.002 654.043 394.794 654.955 394.794H655.803V397.13H654.763C653.595 397.13 652.795 397.354 652.363 397.786C651.931 398.234 651.723 399.066 651.723 400.298ZM661.884 396.586C661.164 396.586 660.62 396.842 660.236 397.338C659.852 397.834 659.676 398.538 659.676 399.466V404.074H657.324V394.874H659.308L659.5 396.666C659.788 396.01 660.204 395.498 660.764 395.146C661.308 394.794 661.964 394.618 662.716 394.618C663.516 394.618 664.204 394.794 664.748 395.146C665.292 395.498 665.676 396.026 665.932 396.714C666.204 396.042 666.62 395.53 667.196 395.162C667.772 394.81 668.444 394.618 669.244 394.618C670.412 394.618 671.308 394.97 671.948 395.674C672.572 396.378 672.892 397.386 672.892 398.666V404.074H670.54V399.194C670.54 398.314 670.364 397.658 670.012 397.226C669.66 396.81 669.116 396.586 668.396 396.586C667.708 396.586 667.18 396.826 666.828 397.274C666.476 397.738 666.3 398.394 666.3 399.242V404.074H663.948V399.098C663.948 398.234 663.772 397.61 663.436 397.194C663.1 396.794 662.588 396.586 661.884 396.586ZM685.256 404.298V406.106H683V404.282C681.624 404.154 680.6 403.738 679.912 403.066C679.208 402.394 678.792 401.402 678.664 400.074H681.176C681.256 400.858 681.56 401.434 682.072 401.786C682.584 402.138 683.336 402.314 684.36 402.314C685.176 402.314 685.8 402.186 686.248 401.914C686.696 401.658 686.92 401.274 686.92 400.778C686.92 400.442 686.808 400.17 686.6 399.962C686.376 399.77 686.024 399.61 685.512 399.482C685.304 399.434 685.064 399.386 684.776 399.338C684.488 399.306 684.024 399.242 683.416 399.178C681.816 398.986 680.696 398.618 680.072 398.106C679.432 397.594 679.128 396.826 679.128 395.818C679.128 394.89 679.464 394.122 680.152 393.514C680.84 392.922 681.8 392.57 683.032 392.458V390.522H685.256V392.522C686.392 392.698 687.272 393.098 687.912 393.706C688.536 394.314 688.92 395.162 689.048 396.234H686.616C686.52 395.594 686.248 395.114 685.8 394.826C685.352 394.538 684.664 394.378 683.752 394.378C683 394.378 682.44 394.506 682.056 394.73C681.672 394.97 681.48 395.322 681.48 395.77C681.48 396.218 681.672 396.538 682.072 396.746C682.472 396.97 683.32 397.146 684.616 397.274C686.312 397.466 687.512 397.834 688.2 398.362C688.888 398.89 689.24 399.674 689.256 400.698C689.256 401.69 688.904 402.506 688.2 403.146C687.496 403.786 686.504 404.17 685.256 404.298ZM701.93 404.074H699.514L698.474 401.546H693.242L692.25 404.074H689.802L694.602 392.666H697.034L701.93 404.074ZM694.01 399.61H697.674L695.818 395.066L694.01 399.61ZM707.334 404.346C705.574 404.346 704.278 403.882 703.446 402.938C702.614 402.01 702.198 400.554 702.198 398.586V392.666H704.63V398.506C704.63 399.754 704.838 400.666 705.27 401.242C705.702 401.818 706.406 402.09 707.366 402.09C708.31 402.09 708.982 401.818 709.398 401.258C709.814 400.714 710.022 399.786 710.022 398.506V392.666H712.47V398.586C712.47 400.522 712.038 401.962 711.19 402.922C710.342 403.882 709.062 404.346 707.334 404.346ZM723.04 399.562H725.552C725.344 401.162 724.768 402.362 723.808 403.162C722.848 403.962 721.52 404.346 719.792 404.346C717.968 404.346 716.576 403.882 715.616 402.922C714.656 401.962 714.176 400.586 714.176 398.762V398.106C714.176 396.346 714.688 394.954 715.712 393.946C716.736 392.938 718.16 392.426 719.952 392.426C721.536 392.426 722.8 392.81 723.744 393.578C724.688 394.346 725.264 395.466 725.488 396.922H723.008C722.896 396.122 722.592 395.53 722.08 395.13C721.568 394.73 720.848 394.522 719.952 394.522C718.832 394.522 718 394.842 717.424 395.45C716.848 396.074 716.576 396.986 716.576 398.202V398.682C716.576 399.834 716.848 400.698 717.424 401.29C718 401.882 718.832 402.17 719.92 402.17C720.864 402.17 721.6 401.962 722.112 401.546C722.624 401.13 722.928 400.458 723.04 399.562ZM735.66 392.666V394.698H731.98V404.074H729.612V394.698H726.092V392.666H735.66ZM739.68 392.666V404.074H737.328V392.666H739.68ZM747.246 404.346C745.39 404.346 743.982 403.882 743.022 402.922C742.062 401.978 741.582 400.586 741.582 398.73V398.122C741.582 396.362 742.078 394.97 743.102 393.946C744.126 392.938 745.502 392.426 747.262 392.426C749.022 392.426 750.398 392.938 751.422 393.946C752.446 394.97 752.958 396.362 752.958 398.122V398.73C752.958 400.522 752.446 401.914 751.454 402.89C750.462 403.866 749.054 404.346 747.246 404.346ZM747.262 402.218C748.35 402.218 749.166 401.93 749.71 401.338C750.254 400.746 750.542 399.866 750.542 398.682V398.202C750.542 396.986 750.254 396.074 749.71 395.45C749.166 394.842 748.35 394.522 747.262 394.522C746.174 394.522 745.358 394.842 744.814 395.45C744.27 396.074 743.998 396.986 743.998 398.186V398.682C743.998 399.85 744.27 400.73 744.814 401.322C745.358 401.93 746.174 402.218 747.262 402.218ZM757.035 395.866L757.067 396.106V404.074H754.827V392.666H757.115L762.811 400.394L763.019 400.81L762.987 400.474V392.666H765.211V404.074H763.019L757.243 396.266L757.035 395.866Z" fill="#CFCFCF"/>
<defs>
<filter id="filter0_d_17690_19923" x="0.545029" y="133.933" width="239.837" height="183.562" filterUnits="userSpaceOnUse" color-interpolation-filters="sRGB">
<feFlood flood-opacity="0" result="BackgroundImageFix"/>
<feColorMatrix in="SourceAlpha" type="matrix" values="0 0 0 0 0 0 0 0 0 0 0 0 0 0 0 0 0 0 127 0" result="hardAlpha"/>
<feOffset dy="8.41533"/>
<feGaussianBlur stdDeviation="12.623"/>
<feComposite in2="hardAlpha" operator="out"/>
<feColorMatrix type="matrix" values="0 0 0 0 0 0 0 0 0 0 0 0 0 0 0 0 0 0 0.16 0"/>
<feBlend mode="normal" in2="BackgroundImageFix" result="effect1_dropShadow_17690_19923"/>
<feBlend mode="normal" in="SourceGraphic" in2="effect1_dropShadow_17690_19923" result="shape"/>
</filter>
<filter id="filter1_d_17690_19923" x="295.081" y="0.169342" width="239.837" height="166.203" filterUnits="userSpaceOnUse" color-interpolation-filters="sRGB">
<feFlood flood-opacity="0" result="BackgroundImageFix"/>
<feColorMatrix in="SourceAlpha" type="matrix" values="0 0 0 0 0 0 0 0 0 0 0 0 0 0 0 0 0 0 127 0" result="hardAlpha"/>
<feOffset dy="8.41533"/>
<feGaussianBlur stdDeviation="12.623"/>
<feComposite in2="hardAlpha" operator="out"/>
<feColorMatrix type="matrix" values="0 0 0 0 0 0 0 0 0 0 0 0 0 0 0 0 0 0 0.16 0"/>
<feBlend mode="normal" in2="BackgroundImageFix" result="effect1_dropShadow_17690_19923"/>
<feBlend mode="normal" in="SourceGraphic" in2="effect1_dropShadow_17690_19923" result="shape"/>
</filter>
<filter id="filter2_d_17690_19923" x="295.081" y="142.613" width="239.837" height="166.203" filterUnits="userSpaceOnUse" color-interpolation-filters="sRGB">
<feFlood flood-opacity="0" result="BackgroundImageFix"/>
<feColorMatrix in="SourceAlpha" type="matrix" values="0 0 0 0 0 0 0 0 0 0 0 0 0 0 0 0 0 0 127 0" result="hardAlpha"/>
<feOffset dy="8.41533"/>
<feGaussianBlur stdDeviation="12.623"/>
<feComposite in2="hardAlpha" operator="out"/>
<feColorMatrix type="matrix" values="0 0 0 0 0 0 0 0 0 0 0 0 0 0 0 0 0 0 0.16 0"/>
<feBlend mode="normal" in2="BackgroundImageFix" result="effect1_dropShadow_17690_19923"/>
<feBlend mode="normal" in="SourceGraphic" in2="effect1_dropShadow_17690_19923" result="shape"/>
</filter>
<filter id="filter3_d_17690_19923" x="295.081" y="285.056" width="239.837" height="166.203" filterUnits="userSpaceOnUse" color-interpolation-filters="sRGB">
<feFlood flood-opacity="0" result="BackgroundImageFix"/>
<feColorMatrix in="SourceAlpha" type="matrix" values="0 0 0 0 0 0 0 0 0 0 0 0 0 0 0 0 0 0 127 0" result="hardAlpha"/>
<feOffset dy="8.41533"/>
<feGaussianBlur stdDeviation="12.623"/>
<feComposite in2="hardAlpha" operator="out"/>
<feColorMatrix type="matrix" values="0 0 0 0 0 0 0 0 0 0 0 0 0 0 0 0 0 0 0.16 0"/>
<feBlend mode="normal" in2="BackgroundImageFix" result="effect1_dropShadow_17690_19923"/>
<feBlend mode="normal" in="SourceGraphic" in2="effect1_dropShadow_17690_19923" result="shape"/>
</filter>
<filter id="filter4_d_17690_19923" x="589.619" y="0.169342" width="239.837" height="166.203" filterUnits="userSpaceOnUse" color-interpolation-filters="sRGB">
<feFlood flood-opacity="0" result="BackgroundImageFix"/>
<feColorMatrix in="SourceAlpha" type="matrix" values="0 0 0 0 0 0 0 0 0 0 0 0 0 0 0 0 0 0 127 0" result="hardAlpha"/>
<feOffset dy="8.41533"/>
<feGaussianBlur stdDeviation="12.623"/>
<feComposite in2="hardAlpha" operator="out"/>
<feColorMatrix type="matrix" values="0 0 0 0 0 0 0 0 0 0 0 0 0 0 0 0 0 0 0.16 0"/>
<feBlend mode="normal" in2="BackgroundImageFix" result="effect1_dropShadow_17690_19923"/>
<feBlend mode="normal" in="SourceGraphic" in2="effect1_dropShadow_17690_19923" result="shape"/>
</filter>
<filter id="filter5_d_17690_19923" x="589.619" y="142.613" width="239.837" height="166.203" filterUnits="userSpaceOnUse" color-interpolation-filters="sRGB">
<feFlood flood-opacity="0" result="BackgroundImageFix"/>
<feColorMatrix in="SourceAlpha" type="matrix" values="0 0 0 0 0 0 0 0 0 0 0 0 0 0 0 0 0 0 127 0" result="hardAlpha"/>
<feOffset dy="8.41533"/>
<feGaussianBlur stdDeviation="12.623"/>
<feComposite in2="hardAlpha" operator="out"/>
<feColorMatrix type="matrix" values="0 0 0 0 0 0 0 0 0 0 0 0 0 0 0 0 0 0 0.16 0"/>
<feBlend mode="normal" in2="BackgroundImageFix" result="effect1_dropShadow_17690_19923"/>
<feBlend mode="normal" in="SourceGraphic" in2="effect1_dropShadow_17690_19923" result="shape"/>
</filter>
<filter id="filter6_d_17690_19923" x="589.619" y="285.056" width="239.837" height="166.203" filterUnits="userSpaceOnUse" color-interpolation-filters="sRGB">
<feFlood flood-opacity="0" result="BackgroundImageFix"/>
<feColorMatrix in="SourceAlpha" type="matrix" values="0 0 0 0 0 0 0 0 0 0 0 0 0 0 0 0 0 0 127 0" result="hardAlpha"/>
<feOffset dy="8.41533"/>
<feGaussianBlur stdDeviation="12.623"/>
<feComposite in2="hardAlpha" operator="out"/>
<feColorMatrix type="matrix" values="0 0 0 0 0 0 0 0 0 0 0 0 0 0 0 0 0 0 0.16 0"/>
<feBlend mode="normal" in2="BackgroundImageFix" result="effect1_dropShadow_17690_19923"/>
<feBlend mode="normal" in="SourceGraphic" in2="effect1_dropShadow_17690_19923" result="shape"/>
</filter>
<linearGradient id="paint0_linear_17690_19923" x1="25.791" y1="217.299" x2="215.136" y2="217.299" gradientUnits="userSpaceOnUse">
<stop stop-color="#131313"/>
<stop offset="1" stop-color="#2F2F2F"/>
</linearGradient>
</defs>
</svg>
