<svg width="72" height="72" viewBox="0 0 72 72" fill="none" xmlns="http://www.w3.org/2000/svg">
<circle cx="36" cy="36" r="36" fill="#E7BC41"/>
<path d="M26.0659 31.5267L35.9512 21.8093L45.8417 31.5318L51.5937 25.8774L35.9512 10.4996L20.314 25.8722L26.0659 31.5267Z" fill="white"/>
<path d="M22.004 35.5185L16.2522 29.8641L10.5001 35.5188L16.2519 41.1732L22.004 35.5185Z" fill="white"/>
<path d="M26.0653 39.5127L35.9506 49.2301L45.8407 39.5079L51.5959 45.1593L51.5931 45.1624L35.9506 60.5398L20.313 45.1676L20.3049 45.1596L26.0653 39.5127Z" fill="white"/>
<path d="M55.6517 41.1772L61.4038 35.5225L55.652 29.8681L49.8998 35.5228L55.6517 41.1772Z" fill="white"/>
<path d="M41.7846 35.5162H41.787L35.9502 29.7783L31.6367 34.0187H31.6363L31.141 34.506L30.1186 35.5111L30.1106 35.519L30.1186 35.5273L35.9502 41.26L41.787 35.5221L41.7898 35.519L41.7846 35.5162Z" fill="white"/>
</svg>
