<svg width="72" height="72" viewBox="0 0 72 72" fill="none" xmlns="http://www.w3.org/2000/svg">
<path d="M36 72C55.8823 72 72 55.8823 72 36C72 16.1177 55.8823 0 36 0C16.1177 0 0 16.1177 0 36C0 55.8823 16.1177 72 36 72Z" fill="#E84142"/>
<path d="M39.9099 38.3508C39.9158 38.3104 39.9222 38.2695 39.9266 38.2291C39.9309 38.1887 39.9347 38.146 39.9379 38.105C39.9449 38.0285 39.9492 37.9516 39.9525 37.8756C39.9525 37.8417 39.9525 37.8082 39.9525 37.7754C39.9525 37.7511 39.9557 37.7274 39.9557 37.7031C39.9557 37.6875 39.9557 37.6735 39.9557 37.6584C39.9557 37.5738 39.9508 37.4887 39.9454 37.4041C39.9454 37.3852 39.9455 37.3679 39.9412 37.3502L39.9373 37.3081C39.9373 37.2719 39.9325 37.2359 39.9292 37.2003C39.9195 37.1168 39.9077 37.0344 39.8937 36.9519L39.8889 36.926L39.8765 36.8581C39.8695 36.8193 39.8635 36.7806 39.8554 36.7429C39.8393 36.6685 39.821 36.5951 39.8016 36.5219L39.7908 36.4858L39.7778 36.4378C39.7638 36.3898 39.752 36.3425 39.7364 36.2956C39.717 36.2347 39.6944 36.1737 39.6717 36.1123C39.662 36.0854 39.6507 36.0585 39.6405 36.0326C39.6184 35.9787 39.5984 35.9211 39.5747 35.8667C39.551 35.8123 39.5295 35.768 39.5063 35.719C39.488 35.6807 39.4685 35.6435 39.4491 35.6063C39.4249 35.5578 39.4007 35.5105 39.3748 35.4625C39.3629 35.441 39.3532 35.4178 39.3409 35.3962C39.3285 35.3747 39.3123 35.3548 39.2993 35.3332C39.2719 35.2869 39.2417 35.2426 39.2126 35.1973C39.1899 35.1618 39.1673 35.1262 39.1436 35.0896C39.1129 35.0448 39.0816 34.9991 39.0493 34.9543C39.017 34.9096 38.9755 34.8616 38.9415 34.8153C38.9226 34.7932 38.9065 34.77 38.8876 34.7479C38.8456 34.6978 38.8041 34.6478 38.7605 34.5993C38.7271 34.5632 38.6915 34.5292 38.6581 34.4915L38.6231 34.4553L38.5983 34.4295C38.5444 34.3757 38.4905 34.3218 38.4334 34.2722C38.4043 34.2453 38.3736 34.2183 38.3428 34.1951C38.3261 34.1795 38.3084 34.1655 38.289 34.1498L38.2706 34.1337C38.206 34.0798 38.1408 34.0291 38.0734 33.9795C38.0443 33.9585 38.0136 33.938 37.9834 33.917L37.949 33.8938L37.9048 33.8632C37.8342 33.8163 37.7625 33.77 37.6892 33.7274C37.6763 33.7193 37.6639 33.7101 37.6515 33.702C37.6294 33.6896 37.6062 33.6799 37.5841 33.6681L37.5001 33.6223C37.4354 33.5884 37.3707 33.5549 37.3044 33.5247C37.263 33.5053 37.2209 33.4859 37.1789 33.4681C37.1368 33.4503 37.1035 33.4369 37.0669 33.4223C37.013 33.4013 36.9634 33.3803 36.91 33.3614H36.9057V16.6367H33.7803V21.3485L30.5805 18.1493L28.3711 20.3587L33.7803 25.7672V33.3614H33.7738C33.7199 33.3808 33.6704 33.4013 33.6186 33.4223C33.5814 33.4374 33.5442 33.4514 33.5071 33.4676C33.4699 33.4838 33.423 33.5059 33.381 33.5253C33.3147 33.5561 33.2501 33.5889 33.1854 33.6228C33.1574 33.6379 33.1315 33.653 33.1024 33.6686C33.0733 33.6842 33.0571 33.6907 33.035 33.7025C33.0216 33.7106 33.0092 33.7204 32.9957 33.7279C32.9229 33.7716 32.8518 33.8168 32.7801 33.8637L32.7365 33.8933L32.7198 33.9057C32.6842 33.9299 32.6486 33.9531 32.612 33.9784C32.5441 34.0285 32.4778 34.0813 32.4121 34.1358L32.3943 34.1509L32.3771 34.1643L32.3614 34.1773L25.7873 30.3804L23.8075 22.991L20.7898 23.7993L21.9613 28.1706L17.88 25.8136L16.3172 28.5198L20.3981 30.8768L16.0273 32.0471L16.8356 35.0648L24.2241 33.0845L30.7982 36.8808C30.7917 36.919 30.7842 36.9568 30.7777 36.9945C30.768 37.0608 30.7594 37.127 30.7518 37.1944C30.7481 37.2283 30.7464 37.2623 30.7432 37.2962C30.7384 37.3501 30.7325 37.4041 30.7303 37.4612C30.7271 37.5253 30.7254 37.5899 30.7254 37.6535C30.7254 37.6692 30.7254 37.6837 30.7254 37.6983C30.7254 37.7128 30.7254 37.7274 30.7254 37.743C30.7254 37.8066 30.7255 37.8707 30.7303 37.9337C30.7352 37.9968 30.7384 38.0453 30.7432 38.1014C30.7464 38.1353 30.7481 38.1692 30.7518 38.2032C30.7594 38.2689 30.7675 38.3341 30.7777 38.3999C30.7837 38.4387 30.7917 38.4775 30.7982 38.5163L24.2241 42.3131L16.8356 40.3333L16.0273 43.351L20.3981 44.5225L16.3172 46.8778L17.88 49.5851L21.9613 47.2281L20.7898 51.5988L23.8075 52.4071L25.7873 45.0182L32.3614 41.2214L32.3782 41.2354L32.3895 41.2451L32.4137 41.2655C32.4784 41.3194 32.5431 41.3706 32.611 41.4197C32.646 41.4455 32.6821 41.4692 32.7187 41.494L32.7306 41.5022C32.7478 41.5135 32.764 41.5253 32.7813 41.5371C32.8497 41.5835 32.9203 41.6283 32.9925 41.6703C33.0065 41.6784 33.0183 41.688 33.0318 41.6955C33.0588 41.7117 33.0857 41.7247 33.1142 41.7397L33.1784 41.7737L33.2053 41.7883C33.2474 41.8104 33.2883 41.833 33.3314 41.8529C33.3972 41.8852 33.4634 41.9143 33.5297 41.9434L33.5496 41.9526C33.5911 41.9704 33.6321 41.9855 33.6741 42.0017L33.7415 42.0269L33.7776 42.0405V49.632L28.3684 55.0417L30.5778 57.2509L33.7776 54.0512V58.7641H36.903V54.0512L40.1022 57.2509L42.3116 55.0417L36.903 49.632V42.0405L36.9386 42.0269L37.0065 42.0017C37.0474 41.9855 37.0889 41.9704 37.1299 41.9526L37.152 41.9429C37.2172 41.9149 37.2829 41.8857 37.3476 41.8539C37.3912 41.8329 37.4332 41.8103 37.4753 41.7876L37.5001 41.7742C37.5222 41.7624 37.5437 41.7511 37.5658 41.7387C37.5879 41.7263 37.6197 41.7101 37.6483 41.695C37.6612 41.688 37.673 41.6783 37.686 41.6696C37.7582 41.6276 37.8283 41.5835 37.8978 41.5371L37.9517 41.5004L37.964 41.4924C37.9996 41.4687 38.0352 41.445 38.0718 41.4191C38.1392 41.3701 38.2044 41.3183 38.269 41.2655L38.2944 41.2435L38.3057 41.2338L38.3219 41.2208L44.8987 45.0177L46.8785 52.4066L49.8962 51.5983L48.7246 47.2276L52.8055 49.5846L54.3682 46.8773L39.8835 38.5151C39.8932 38.4639 39.9045 38.4074 39.9099 38.3508Z" fill="white"/>
<path d="M47.9562 38.3828C48.5986 37.2354 48.9298 35.94 48.9169 34.6251C48.904 33.3102 48.5474 32.0214 47.8826 30.8868C47.2178 29.7523 46.2679 28.8113 45.1271 28.1573C43.9863 27.5032 42.6944 27.1587 41.3794 27.1582V30.2836C42.1488 30.2849 42.9046 30.487 43.5719 30.87C44.2392 31.253 44.795 31.8036 45.1841 32.4674C45.5733 33.1311 45.7824 33.8851 45.7908 34.6544C45.7991 35.4238 45.6064 36.1821 45.2318 36.8541L47.9562 38.3828Z" fill="white"/>
<path d="M39.5759 16.5894V19.7148C42.3209 19.7155 45.0165 20.4452 47.3869 21.8295C49.7573 23.2138 51.7175 25.203 53.0668 27.5935C54.4161 29.984 55.1062 32.69 55.0665 35.4347C55.0267 38.1794 54.2586 40.8643 52.8407 43.2147L55.5145 44.8313C57.2192 42.0069 58.143 38.7803 58.1913 35.4817C58.2395 32.183 57.4105 28.9308 55.7891 26.0577C54.1677 23.1846 51.8121 20.7939 48.9633 19.1302C46.1146 17.4665 42.8749 16.59 39.5759 16.5894Z" fill="white"/>
</svg>
