<svg width="72" height="72" viewBox="0 0 72 72" fill="none" xmlns="http://www.w3.org/2000/svg">
<circle cx="36" cy="36" r="36" fill="white"/>
<g clip-path="url(#clip0_2528_4655)">
<path d="M36.7398 12.0012C34.2086 12.0012 31.7023 12.4998 29.3638 13.4684C27.0254 14.4371 24.9006 15.8568 23.1108 17.6466C21.3211 19.4364 19.9014 21.5612 18.9328 23.8997C17.9642 26.2382 17.4657 28.7446 17.4658 31.2757C17.4663 32.4934 17.5807 33.7084 17.8075 34.9048L20.2973 33.1994C24.6746 30.1973 31.7756 30.1973 36.1519 33.1994L38.7646 34.9887L40.1806 35.962C44.1261 38.6653 50.5178 38.6653 54.4596 35.962L55.6213 35.1665C56.1952 32.3653 56.139 29.4715 55.4568 26.6946C54.7747 23.9177 53.4836 21.3273 51.677 19.1109C49.8704 16.8944 47.5936 15.1074 45.0114 13.8792C42.4292 12.651 39.6062 12.0124 36.7467 12.0095L36.7398 12.0012Z" fill="#F2B705"/>
<path d="M47.5704 42.854C44.6665 42.854 41.8897 42.066 39.799 40.6331L35.7735 37.8743C33.8463 36.5495 31.2583 35.82 28.4931 35.82C25.7278 35.82 23.139 36.5441 21.2119 37.8743L18.6091 39.6564C18.4867 39.7414 18.3486 39.8014 18.2028 39.8329C18.0571 39.8644 17.9065 39.8667 17.7599 39.8398C17.6132 39.8128 17.4734 39.7572 17.3483 39.6759C17.2233 39.5947 17.1155 39.4896 17.0313 39.3665C16.947 39.2435 16.8879 39.1051 16.8574 38.9591C16.8269 38.8131 16.8256 38.6626 16.8535 38.5161C16.8814 38.3696 16.938 38.2301 17.02 38.1056C17.1021 37.9811 17.2079 37.8741 17.3315 37.7906L19.9329 36.0085C22.2342 34.4297 25.2722 33.5619 28.492 33.5619C31.7118 33.5619 34.7493 34.4297 37.0506 36.0085L41.0761 38.7674C43.0307 39.9636 45.2778 40.5967 47.5695 40.5967C49.8612 40.5967 52.1083 39.9636 54.0629 38.7674L55.5916 37.7214C55.714 37.6349 55.8523 37.5736 55.9986 37.541C56.1449 37.5084 56.2963 37.5053 56.4438 37.5317C56.5913 37.5582 56.7321 37.6137 56.858 37.6951C56.9839 37.7765 57.0923 37.8821 57.177 38.0058C57.2616 38.1295 57.3209 38.2687 57.3512 38.4155C57.3816 38.5623 57.3824 38.7136 57.3537 38.8608C57.3251 39.0079 57.2674 39.1478 57.1841 39.2724C57.1009 39.3971 56.9936 39.5039 56.8687 39.5867L55.34 40.6326C53.2399 42.0703 50.4746 42.854 47.5704 42.854Z" fill="#53CBC8"/>
<path d="M28.4083 50.9475V40.0573C28.3998 39.8282 28.4094 39.5988 28.4372 39.3713C28.4711 39.0716 28.6141 38.795 28.8391 38.5942C29.064 38.3933 29.3551 38.2825 29.6567 38.2827C29.9489 38.2906 30.2278 38.4061 30.4402 38.607C30.6525 38.8078 30.7833 39.08 30.8074 39.3713C30.8537 39.7493 30.8669 40.1307 30.8471 40.5111V62.2236C30.782 63.0282 30.2778 63.5594 29.5987 63.545C28.9197 63.5305 28.4294 62.9788 28.4265 62.1622V54.9252L28.4083 50.9475Z" fill="#53CBC8"/>
<path d="M26.1193 45.4686V50.8803C26.1193 51.8064 25.6253 52.4194 24.9253 52.3974C24.2253 52.3754 23.6949 51.7517 23.6917 50.8688V40.0499C23.6917 39.1022 24.2436 38.4628 24.962 38.4996C25.6805 38.5363 26.1093 39.1094 26.1128 40.0564C26.1227 41.8607 26.1193 43.6645 26.1193 45.4686Z" fill="#53CBC8"/>
<path d="M33.1491 45.4609V41.657C33.1491 40.7749 33.617 40.2053 34.3141 40.2053C35.0111 40.2053 35.5477 40.7932 35.5558 41.624C35.582 44.2134 35.582 46.8016 35.5558 49.3885C35.5558 50.2703 35.0363 50.8 34.3221 50.7933C33.6079 50.7866 33.1504 50.2443 33.1421 49.3413V45.4572L33.1491 45.4609Z" fill="#53CBC8"/>
<path d="M18.9715 46.2503V42.4456C18.9715 41.564 19.4398 40.9941 20.1365 40.9941C20.8333 40.9941 21.3702 41.582 21.3785 42.4128C21.4023 45.0023 21.4023 47.5904 21.3785 50.1773C21.3785 51.0591 20.8553 51.5888 20.1449 51.5818C19.4344 51.5749 18.9726 51.0328 18.9648 50.1299V46.2468L18.9715 46.2503Z" fill="#53CBC8"/>
<path d="M39.0578 43.0145H39.0613C39.3781 43.0147 39.6818 43.1406 39.9058 43.3647C40.1297 43.5887 40.2555 43.8925 40.2555 44.2093V46.2781C40.2555 46.5948 40.1296 46.8985 39.9057 47.1225C39.6817 47.3464 39.378 47.4722 39.0613 47.4723H39.0578C38.741 47.4723 38.4372 47.3465 38.2132 47.1226C37.9891 46.8986 37.8632 46.5949 37.863 46.2781V44.2093C37.8631 43.8924 37.989 43.5886 38.2131 43.3646C38.4371 43.1405 38.741 43.0146 39.0578 43.0145Z" fill="#53CBC8"/>
<path d="M43.7926 44.8251H43.7961C44.1129 44.8252 44.4166 44.9512 44.6406 45.1752C44.8645 45.3992 44.9903 45.7031 44.9903 46.0198V57.6234C44.9903 57.7802 44.9594 57.9355 44.8994 58.0804C44.8394 58.2252 44.7514 58.3569 44.6405 58.4678C44.5296 58.5786 44.398 58.6666 44.2531 58.7266C44.1082 58.7865 43.9529 58.8174 43.7961 58.8174H43.7926C43.6358 58.8174 43.4805 58.7865 43.3356 58.7266C43.1908 58.6666 43.0591 58.5786 42.9483 58.4677C42.8374 58.3569 42.7494 58.2252 42.6894 58.0804C42.6295 57.9355 42.5986 57.7802 42.5986 57.6234V46.0198C42.5986 45.7031 42.7243 45.3993 42.9482 45.1752C43.1721 44.9512 43.4758 44.8252 43.7926 44.8251Z" fill="#53CBC8"/>
<path d="M48.493 45.2744H48.4965C48.8133 45.2744 49.1171 45.4002 49.3412 45.6242C49.5652 45.8481 49.6911 46.1519 49.6913 46.4686V56.3306C49.6912 56.4874 49.6603 56.6427 49.6002 56.7876C49.5401 56.9324 49.4521 57.0641 49.3411 57.1749C49.2302 57.2857 49.0985 57.3737 48.9536 57.4336C48.8087 57.4936 48.6533 57.5244 48.4965 57.5243H48.493C48.3362 57.5244 48.181 57.4936 48.0361 57.4336C47.8912 57.3736 47.7596 57.2857 47.6487 57.1749C47.5378 57.064 47.4499 56.9324 47.3899 56.7875C47.3299 56.6427 47.299 56.4874 47.2991 56.3306V46.4689C47.299 46.3121 47.3298 46.1568 47.3898 46.0118C47.4498 45.8669 47.5377 45.7352 47.6486 45.6243C47.7595 45.5134 47.8911 45.4254 48.036 45.3654C48.1809 45.3053 48.3362 45.2744 48.493 45.2744Z" fill="#53CBC8"/>
<path d="M53.2584 44.1494H53.2619C53.5786 44.1494 53.8824 44.2752 54.1063 44.4992C54.3303 44.7231 54.4561 45.0269 54.4561 45.3436V49.5973C54.4561 49.914 54.3302 50.2177 54.1063 50.4417C53.8823 50.6656 53.5786 50.7915 53.2619 50.7915H53.2584C53.1016 50.7915 52.9463 50.7607 52.8014 50.7006C52.6566 50.6406 52.5249 50.5526 52.4141 50.4417C52.3032 50.3309 52.2152 50.1992 52.1553 50.0543C52.0953 49.9094 52.0644 49.7541 52.0645 49.5973V45.3439C52.0644 45.1871 52.0952 45.0317 52.1552 44.8868C52.2151 44.7419 52.3031 44.6102 52.414 44.4993C52.5248 44.3884 52.6565 44.3004 52.8014 44.2403C52.9463 44.1803 53.1016 44.1494 53.2584 44.1494Z" fill="#53CBC8"/>
</g>
<defs>
<clipPath id="clip0_2528_4655">
<rect width="70.56" height="70.56" fill="white" transform="translate(0.47998 0.960205)"/>
</clipPath>
</defs>
</svg>
