<svg width="84" height="84" viewBox="0 0 84 84" fill="none" xmlns="http://www.w3.org/2000/svg">
<g clip-path="url(#clip0_2528_4688)">
<path d="M48.0864 77.2042C67.6596 73.7121 80.6959 55.014 77.2038 35.4408C73.7116 15.8676 55.0135 2.83134 35.4404 6.32346C15.8672 9.81557 2.83092 28.5137 6.32303 48.0868C9.81514 67.66 28.5132 80.6963 48.0864 77.2042Z" fill="#FCFF52"/>
<path d="M56.6279 20.301L20.2803 26.7859L26.7652 63.1335L63.1128 56.6486L60.8466 43.9468L54.8076 45.0243C53.5624 50.0149 49.4609 54.0817 44.1024 55.0378C36.7308 56.353 29.671 51.3813 28.3659 44.0664C27.0558 36.7231 31.9708 29.6735 39.3424 28.3583C44.8144 27.382 50.0843 29.8646 52.9988 34.2301L58.9244 33.1729L56.6279 20.301Z" fill="black"/>
</g>
<defs>
<clipPath id="clip0_2528_4688">
<rect width="72" height="72" fill="white" transform="translate(0 12.6465) rotate(-10.1159)"/>
</clipPath>
</defs>
</svg>
