<svg width="84" height="84" viewBox="0 0 84 84" fill="none" xmlns="http://www.w3.org/2000/svg">
<g clip-path="url(#clip0_1595_29432)">
<path d="M48.0864 77.2042C67.6596 73.7121 80.6959 55.014 77.2038 35.4408C73.7116 15.8676 55.0135 2.83134 35.4404 6.32346C15.8672 9.81557 2.83092 28.5137 6.32303 48.0868C9.81514 67.66 28.5132 80.6963 48.0864 77.2042Z" fill="#B8F8E5"/>
<path fill-rule="evenodd" clip-rule="evenodd" d="M41.625 65.2501C54.6728 65.2501 65.25 54.6729 65.25 41.6251C65.25 28.5774 54.6728 18.0001 41.625 18.0001C28.5773 18.0001 18 28.5774 18 41.6251C18 54.6729 28.5773 65.2501 41.625 65.2501ZM37.4557 29.4632C37.4557 29.2724 37.6103 29.1177 37.8011 29.1177H45.4484C45.6392 29.1177 45.7938 29.2724 45.7938 29.4632V37.5436H37.4566V45.7063H45.7938V53.7868C45.7938 53.9776 45.6392 54.1322 45.4484 54.1322H37.801C37.6103 54.1322 37.4557 53.9776 37.4557 53.7868V45.9695H29.4638C29.273 45.9695 29.1184 45.8149 29.1184 45.6241V37.889C29.1184 37.6982 29.273 37.5436 29.4638 37.5436H37.4566L37.4557 29.4632ZM45.7938 37.5436H53.7881C53.9788 37.5436 54.1334 37.6982 54.1334 37.889V45.6241C54.1334 45.8149 53.9788 45.9695 53.7881 45.9695H45.7953L45.7938 37.5436Z" fill="#0C0B0B"/>
</g>
<defs>
<clipPath id="clip0_1595_29432">
<rect width="72" height="72" fill="white" transform="translate(0 12.6465) rotate(-10.1159)"/>
</clipPath>
</defs>
</svg>
