<svg width="72" height="72" viewBox="0 0 72 72" fill="none" xmlns="http://www.w3.org/2000/svg">
<rect width="72" height="72" rx="36" fill="#04795B"/>
<g clip-path="url(#clip0_2528_4693)">
<path d="M25.8455 39.8415C27.3204 39.8415 28.6818 39.3579 29.7786 38.5208L20.7778 29.666C19.9268 30.7264 19.4352 32.0657 19.4352 33.5354C19.4163 37.014 22.2905 39.8415 25.8455 39.8415Z" fill="white"/>
<path d="M52.6211 33.5167C52.6211 32.0658 52.1295 30.7265 51.2784 29.6475L42.2776 38.5021C43.3555 39.3392 44.717 39.8229 46.2107 39.8229C49.7468 39.8415 52.6211 37.014 52.6211 33.5167Z" fill="white"/>
<path d="M57.1593 23.8994L53.1694 27.8246C54.493 29.3871 55.2875 31.3589 55.2875 33.5541C55.2875 38.4836 51.2218 42.4831 46.2107 42.4831C43.9984 42.4831 41.9751 41.7018 40.3867 40.3997L36.0186 44.6968L31.6505 40.3997C30.0622 41.7018 28.0577 42.4831 25.8264 42.4831C20.8154 42.4831 16.7499 38.4836 16.7499 33.5541C16.7499 31.3775 17.5441 29.3871 18.8678 27.8246L16.8256 25.8155L14.8778 23.8994C12.6087 27.5827 11.304 31.8799 11.304 36.4932C11.304 49.9239 22.3659 60.7879 35.9997 60.7879C49.6333 60.7879 60.6954 49.9054 60.6954 36.4932C60.7333 31.8613 59.4284 27.5641 57.1593 23.8994Z" fill="white"/>
<path d="M53.888 19.7142C49.4064 15.0822 43.0528 12.1803 36.0186 12.1803C28.9842 12.1803 22.6496 15.0822 18.1491 19.7142C17.544 20.3467 16.9579 21.0165 16.4094 21.7047L35.9996 40.9766L55.5898 21.6861C55.0981 21.0164 54.512 20.3281 53.888 19.7142ZM36.0186 15.3427C41.8048 15.3427 47.1752 17.5378 51.2026 21.5373L36.0186 36.4749L20.8342 21.5373C24.8808 17.5378 30.2323 15.3427 36.0186 15.3427Z" fill="white"/>
</g>
<defs>
<clipPath id="clip0_2528_4693">
<rect width="50" height="49" fill="white" transform="translate(11 12)"/>
</clipPath>
</defs>
</svg>
