<svg width="74" height="80" viewBox="0 0 74 80" fill="none" xmlns="http://www.w3.org/2000/svg">
<path d="M44.2082 35.7524L47.9928 26.2681L65.1198 45.6528L65.7622 49.7792L61.3396 21.3765C61.2707 21.0363 61.1209 20.7177 60.903 20.4476C60.685 20.1774 60.4053 19.9637 60.0873 19.8244L33.0164 9.35289C32.6976 9.2575 32.3614 9.23509 32.0327 9.28732C31.704 9.33955 31.3913 9.46508 31.1178 9.65461C31.0469 9.70491 30.9792 9.75937 30.9148 9.81772L30.8367 9.88575L8.85382 27.5922L8.76635 27.649C8.65017 27.7262 8.54152 27.8142 8.44183 27.9118C8.03895 28.3048 7.80552 28.8397 7.7913 29.4023C7.78901 29.4877 7.79163 29.5731 7.79916 29.6582L11.4041 52.8033L21.197 30.8804C22.4093 27.9869 25.8071 26.5913 29.0903 26.1328L32.9505 25.6398L15.893 65.4633L18.8008 66.5893L35.8985 25.2227L46.0267 23.6245L29.135 65.9352L39.5109 69.9516L40.7505 70.4311C41.2718 70.5506 41.8188 70.4773 42.2903 70.2249L65.2553 51.7261L60.8622 55.263L44.2082 35.7524ZM50.5022 63.6102L38.5494 49.9866L42.8885 39.1116L58.599 57.0876L50.5022 63.6102Z" fill="#2D374B"/>
<path d="M38.5493 49.9868L50.5021 63.6098L58.5994 57.0871L42.8895 39.1115L38.5493 49.9868Z" fill="#28A0F0"/>
<path d="M65.7639 49.7794L65.1215 45.6531L47.9946 26.2683L44.2067 35.7522L60.8633 55.2623L65.2564 51.7255C65.4607 51.5002 65.6153 51.2343 65.71 50.9453C65.8046 50.6562 65.8373 50.3504 65.8058 50.0479L65.7639 49.7794Z" fill="#28A0F0"/>
<path d="M8.48222 62.5917L15.8948 65.4657L32.9523 25.6422L29.0921 26.1352C25.809 26.5937 22.411 27.9888 21.1988 30.8829L11.4059 52.8058L8.10429 60.1224L8.48501 62.5933L8.48222 62.5917Z" fill="white"/>
<path d="M46.0284 23.6278L35.9007 25.2259L18.8029 66.5925L27.5274 69.972L29.1369 65.94L46.0284 23.6278Z" fill="white"/>
<path d="M65.6306 20.5531C65.423 19.5145 64.966 18.5419 64.2989 17.7193C63.6317 16.8966 62.7745 16.2485 61.8012 15.831L34.3761 5.22519C33.4087 4.92181 32.3845 4.84434 31.3825 4.99874C30.3804 5.15314 29.4271 5.53529 28.5958 6.11582C28.4018 6.25415 6.28314 24.0839 6.28314 24.0839C5.97064 24.2979 5.67729 24.5386 5.4064 24.8034C4.70413 25.4858 4.16561 26.3184 3.8313 27.2387C3.49698 28.1591 3.37556 29.1432 3.47615 30.1172L8.09925 60.1216L11.4009 52.805L7.80058 29.6602C7.77192 29.3397 7.8147 29.0168 7.92583 28.7148C8.03696 28.4128 8.21367 28.1392 8.44325 27.9138C8.54498 27.8141 31.0457 9.70813 31.1182 9.65674C31.3917 9.46722 31.7045 9.34169 32.0331 9.28946C32.3618 9.23723 32.698 9.25964 33.0169 9.35503L60.0879 19.8275C60.4059 19.9668 60.6856 20.1805 60.9035 20.4507C61.1215 20.7208 61.2712 21.0395 61.3401 21.3797L65.759 50.0583C65.7988 50.3566 65.7745 50.6599 65.6876 50.948C65.6007 51.2361 65.4534 51.5023 65.2553 51.7288L60.8622 55.2657L58.5981 57.0909L50.5008 63.6136L42.289 70.2288C41.8175 70.4815 41.2705 70.5547 40.7492 70.435L29.1358 65.9429L27.5262 69.9743L37.9641 74.0168C38.3091 74.148 38.6162 74.2646 38.868 74.3591C39.2577 74.5027 39.5234 74.6018 39.6159 74.6303C40.4722 74.8582 41.3669 74.903 42.2416 74.7618C43.0449 74.6392 43.818 74.3667 44.5207 73.9586L68.3736 54.7564C69.0239 54.0678 69.5153 53.245 69.8132 52.3459C70.1111 51.4468 70.2083 50.4934 70.0978 49.5527L65.6306 20.5531Z" fill="#96BEDC"/>
</svg>
