<svg width="101" height="101" viewBox="0 0 101 101" fill="none" xmlns="http://www.w3.org/2000/svg">
<rect y="42.2197" width="72" height="72" rx="36" transform="rotate(-35.9006 0 42.2197)" fill="white"/>
<path d="M40.1479 36.287C41.4658 35.333 43.1737 35.1985 44.6053 35.9357L68.2227 48.0966C69.5336 48.7716 70.3755 50.0538 70.4758 51.5264C70.5752 52.9997 69.9141 54.4005 68.7078 55.2737L49.2661 69.3474C48.0598 70.2207 46.5226 70.4113 45.1541 69.8567C43.7856 69.3021 42.8305 68.102 42.5986 66.6458L38.422 40.4118C38.1688 38.8215 38.83 37.241 40.1479 36.287ZM38.4494 33.9407C36.2398 35.5402 35.1134 38.2341 35.5375 40.9008L39.7141 67.1349C39.9052 68.3347 40.4016 69.4624 41.1562 70.4107C41.9108 71.359 42.8986 72.0966 44.0257 72.5533C45.1529 73.0102 46.3821 73.1711 47.5965 73.0207C48.811 72.8702 49.9704 72.4135 50.9646 71.6938L70.4054 57.6207C71.3996 56.9009 72.1956 55.9422 72.7178 54.8355C73.24 53.7287 73.4711 52.5108 73.3891 51.2973C73.3071 50.0839 72.915 48.9152 72.2498 47.9022C71.5845 46.8891 70.6684 46.0654 69.5882 45.5091L45.9708 33.3482C43.5708 32.1118 40.659 32.3412 38.4494 33.9407Z" fill="#5DEB5A"/>
</svg>
