<svg xmlns="http://www.w3.org/2000/svg" width="49" height="48" viewBox="0 0 49 48" fill="none">
  <g clip-path="url(#clip0_56_1102)">
    <path d="M24.5 48C37.7548 48 48.5 37.2548 48.5 24C48.5 10.7452 37.7548 0 24.5 0C11.2452 0 0.5 10.7452 0.5 24C0.5 37.2548 11.2452 48 24.5 48Z" fill="#F3BA2F"/>
    <path d="M19.8392 22.0848L24.5 17.424L29.1632 22.0872L31.8752 19.3752L24.5 12L17.1272 19.3728L19.8392 22.0848ZM12.5 24L15.212 21.288L17.924 24L15.212 26.712L12.5 24ZM19.8392 25.9152L24.5 30.576L29.1632 25.9128L31.8752 28.6236L24.5 36L17.1272 28.6272L17.1236 28.6236L19.8392 25.9152ZM31.076 24L33.788 21.288L36.5 24L33.788 26.712L31.076 24ZM27.2504 23.9976H27.2528V24L24.5 26.7528L21.7508 24.0048L21.746 24L21.7508 23.9964L22.232 23.514L22.466 23.28L24.5 21.2472L27.2516 23.9988L27.2504 23.9976Z" fill="white"/>
  </g>
  <defs>
    <clipPath id="clip0_56_1102">
      <rect width="48" height="48" fill="white" transform="translate(0.5)"/>
    </clipPath>
  </defs>
</svg>