<svg xmlns="http://www.w3.org/2000/svg" width="49" height="48" viewBox="0 0 49 48" fill="none">
  <g clip-path="url(#clip0_56_1106)">
    <path d="M24.5 48C37.7548 48 48.5 37.2548 48.5 24C48.5 10.7452 37.7548 0 24.5 0C11.2452 0 0.5 10.7452 0.5 24C0.5 37.2548 11.2452 48 24.5 48Z" fill="#F3BA2F"/>
    <path d="M18.0998 15.7L24.5004 12L30.901 15.7L28.5009 16.9999L24.5004 14.6996L20.4001 16.9999L18.0998 15.7ZM30.8002 20.3005L28.4999 19.0006L24.5004 21.3009L20.4001 19.0006L18.0998 20.3005V23.0011L22.1003 25.3013V30.0017L24.4006 31.4014L26.7008 30.0017V25.4012L30.7013 23.1009V20.3005H30.8002ZM30.8002 27.7005V25.0008L28.5009 26.4006V29.0004L30.8002 27.7005ZM32.5004 28.601L28.4999 30.9012V33.6009L34.9005 29.9009V22.5009L32.5004 24.0005V28.601ZM30.2011 18.0002L32.5014 19.4V22.1006L34.8016 20.7008V18.0002L32.5014 16.6005L30.2011 18.0002ZM22.1003 31.9006V34.6003L24.4006 36L26.7008 34.6003V31.9006L24.4006 33.3004L22.1003 31.9006ZM18.0998 27.7005L20.4001 29.0004V26.3007L18.0998 24.901V27.7005ZM22.1003 18.0002L24.4006 19.4L26.8007 18.0002L24.5004 16.6005L22.1003 18.0002ZM16.3996 19.4L18.7997 18.0002L16.3996 16.6005L14.1003 18.0002V20.6999L16.4006 22.0996V19.4H16.3996ZM16.3996 24.0005L14.0994 22.6007V30.0007L20.4999 33.7007V31.0011L16.4995 28.7008V24.0005H16.3996Z" fill="white"/>
  </g>
  <defs>
    <clipPath id="clip0_56_1106">
      <rect width="48" height="48" fill="white" transform="translate(0.5)"/>
    </clipPath>
  </defs>
</svg>