<svg width="24" height="24" viewBox="0 0 24 24" fill="none" xmlns="http://www.w3.org/2000/svg">
<path d="M9.11111 14.6672L11.7778 15.5561C11.7778 15.5561 18.4444 14.2228 19.3333 14.2228C20.2222 14.2228 20.2222 15.1117 19.3333 16.0006C18.4444 16.8894 15.3333 19.5561 12.6667 19.5561C10 19.5561 8.22222 18.2228 6.44444 18.2228H2" stroke="#171717" stroke-width="1.77778" stroke-linecap="round" stroke-linejoin="round"/>
<path d="M2 12.8891C2.88889 12.0002 4.66667 10.6669 6.44444 10.6669C8.22222 10.6669 12.4444 12.4446 13.1111 13.3335C13.7778 14.2224 11.7778 15.5558 11.7778 15.5558" stroke="#171717" stroke-width="1.77778" stroke-linecap="round" stroke-linejoin="round"/>
<path d="M17.5556 6.66687H13.1112C12.3748 6.66687 11.7778 7.26382 11.7778 8.0002C11.7778 8.73658 12.3748 9.33354 13.1112 9.33354H17.5556C18.292 9.33354 18.8889 8.73658 18.8889 8.0002C18.8889 7.26382 18.292 6.66687 17.5556 6.66687Z" stroke="#171717" stroke-width="1.77778"/>
<path d="M11.7778 4.00024H18.8889" stroke="#171717" stroke-width="1.77778" stroke-linecap="round"/>
</svg>
