<svg width="24" height="24" viewBox="0 0 24 24" fill="none" xmlns="http://www.w3.org/2000/svg">
<path d="M6.61932 17.0688C3.90492 14.1504 3.95292 9.57597 6.77292 6.73557C7.87813 5.61753 9.3152 4.88679 10.8697 4.65237L10.7869 2.15997C8.60463 2.42347 6.57575 3.41781 5.03052 4.98117C1.25172 8.78517 1.20612 14.928 4.88292 18.8184L2.79372 20.9208L9.40572 21.282L9.38772 14.2812L6.61932 17.0688ZM14.5957 2.71797L14.6137 9.71877L17.3821 6.93237C20.0965 9.85317 20.0485 14.4276 17.2285 17.2656C16.1235 18.3839 14.6864 19.1147 13.1317 19.3488L13.2145 21.84C15.3968 21.5762 17.4258 20.5824 18.9721 19.02C22.7497 15.2136 22.7953 9.07077 19.1185 5.18277L21.2077 3.07797L14.5957 2.71797Z" fill="#171717"/>
</svg>
