<svg width="24" height="24" viewBox="0 0 24 24" fill="none" xmlns="http://www.w3.org/2000/svg">
<path d="M12 22.7772C11.8148 22.7772 11.6296 22.7539 11.4444 22.7072C11.2593 22.6613 11.0833 22.5921 10.9167 22.4995L3.13889 18.1939C2.78704 17.9902 2.50926 17.7169 2.30556 17.3739C2.10185 17.0317 2 16.6569 2 16.2495V7.74946C2 7.34205 2.10185 6.96687 2.30556 6.6239C2.50926 6.28168 2.78704 6.00872 3.13889 5.80501L10.9167 1.49946C11.0833 1.40686 11.2593 1.33724 11.4444 1.29057C11.6296 1.24464 11.8148 1.22168 12 1.22168C12.1852 1.22168 12.3704 1.24464 12.5556 1.29057C12.7407 1.33724 12.9167 1.40686 13.0833 1.49946L20.8611 5.80501C21.213 6.00872 21.4907 6.28168 21.6944 6.6239C21.8981 6.96687 22 7.34205 22 7.74946V16.2495C22 16.6569 21.8981 17.0317 21.6944 17.3739C21.4907 17.7169 21.213 17.9902 20.8611 18.1939L13.0833 22.4995C12.9167 22.5921 12.7407 22.6613 12.5556 22.7072C12.3704 22.7539 12.1852 22.7772 12 22.7772ZM8.77778 8.9439C9.18519 8.51798 9.66185 8.17983 10.2078 7.92946C10.7544 7.67983 11.3519 7.55501 12 7.55501C12.6481 7.55501 13.2456 7.67983 13.7922 7.92946C14.3381 8.17983 14.8148 8.51798 15.2222 8.9439L18.5556 7.08279L12 3.4439L5.44444 7.08279L8.77778 8.9439ZM10.8889 19.9439V16.305C9.92593 16.0458 9.12963 15.5224 8.5 14.735C7.87037 13.9483 7.55556 13.0365 7.55556 11.9995C7.55556 11.7958 7.56481 11.6013 7.58333 11.4161C7.60185 11.2309 7.63889 11.055 7.69444 10.8883L4.22222 8.9439V16.2495L10.8889 19.9439ZM12 14.2217C12.6111 14.2217 13.1344 14.0039 13.57 13.5683C14.0048 13.1335 14.2222 12.6106 14.2222 11.9995C14.2222 11.3883 14.0048 10.865 13.57 10.4295C13.1344 9.99464 12.6111 9.77724 12 9.77724C11.3889 9.77724 10.8659 9.99464 10.4311 10.4295C9.99556 10.865 9.77778 11.3883 9.77778 11.9995C9.77778 12.6106 9.99556 13.1335 10.4311 13.5683C10.8659 14.0039 11.3889 14.2217 12 14.2217ZM13.1111 19.9439L19.7778 16.2495V8.9439L16.3056 10.8883C16.3611 11.0735 16.3981 11.2543 16.4167 11.4306C16.4352 11.6061 16.4444 11.7958 16.4444 11.9995C16.4444 13.0365 16.1296 13.9483 15.5 14.735C14.8704 15.5224 14.0741 16.0458 13.1111 16.305V19.9439Z" fill="#171717"/>
</svg>
