<svg width="344" height="400" viewBox="0 0 344 400" fill="none" xmlns="http://www.w3.org/2000/svg">
<rect x="-540" width="884" height="400" rx="200" fill="#2B51DA"/>
<g filter="url(#filter0_d_2612_52966)">
<g filter="url(#filter1_d_2612_52966)">
<path d="M-57.71 85.3887H186.035V243.619C186.035 248.396 182.163 252.268 177.386 252.268H-49.0613C-53.8378 252.268 -57.71 248.396 -57.71 243.619V85.3887Z" fill="#D9D9D9"/>
<path d="M-57.7102 80.9653C-57.7102 77.6707 -55.0395 75 -51.7449 75H180.07C183.364 75 186.035 77.6707 186.035 80.9653V85.3894H-57.7102V80.9653Z" fill="#2B51DA"/>
<path d="M-58 85.8105H186.326V243.649C186.326 248.426 182.454 252.298 177.677 252.298H-49.3513C-54.1278 252.298 -58 248.426 -58 243.649V85.8105Z" fill="#E6E8F1"/>
<g clip-path="url(#clip0_2612_52966)">
<rect x="-50.7617" y="95.0684" width="228.858" height="248.214" rx="2.6751" fill="white"/>
<rect x="-46.2095" y="99.623" width="101.335" height="69.4544" fill="#ECECEC"/>
<rect x="57.4056" y="99.623" width="116.137" height="3.41579" fill="#ECECEC"/>
<rect x="-46.2085" y="173.633" width="64.9" height="38.7123" fill="#ECECEC"/>
<rect x="20.9681" y="173.633" width="152.572" height="3.41579" fill="#ECECEC"/>
<rect x="20.9683" y="180.465" width="152.572" height="3.41579" fill="#ECECEC"/>
<rect x="20.9683" y="187.295" width="152.572" height="3.41579" fill="#ECECEC"/>
<rect x="20.9683" y="194.127" width="152.572" height="3.41579" fill="#ECECEC"/>
<rect x="20.9683" y="200.957" width="152.572" height="3.41579" fill="#ECECEC"/>
<rect x="20.9683" y="207.793" width="80.8404" height="3.41579" fill="#ECECEC"/>
<rect x="-46.2086" y="215.762" width="64.9" height="38.7123" fill="#ECECEC"/>
<rect x="20.968" y="215.762" width="152.572" height="3.41579" fill="#ECECEC"/>
<rect x="20.9681" y="222.594" width="152.572" height="3.41579" fill="#ECECEC"/>
<rect x="20.9681" y="229.424" width="152.572" height="3.41579" fill="#ECECEC"/>
<rect x="20.9681" y="236.258" width="152.572" height="3.41579" fill="#ECECEC"/>
<rect x="20.9681" y="243.09" width="152.572" height="3.41579" fill="#ECECEC"/>
<rect x="20.968" y="249.92" width="80.8404" height="3.41579" fill="#ECECEC"/>
<rect x="57.4058" y="106.455" width="116.137" height="3.41579" fill="#ECECEC"/>
<rect x="57.4058" y="113.289" width="116.137" height="3.41579" fill="#ECECEC"/>
<rect x="57.4058" y="120.119" width="116.137" height="3.41579" fill="#ECECEC"/>
<rect x="57.4058" y="126.947" width="116.137" height="3.41579" fill="#ECECEC"/>
<rect x="57.4056" y="133.779" width="116.137" height="3.41579" fill="#ECECEC"/>
<rect x="57.4058" y="140.611" width="116.137" height="3.41579" fill="#ECECEC"/>
<rect x="57.4058" y="147.445" width="116.137" height="3.41579" fill="#ECECEC"/>
<rect x="57.4058" y="154.273" width="54.6527" height="3.41579" fill="#ECECEC"/>
</g>
</g>
</g>
<g filter="url(#filter2_d_2612_52966)">
<g filter="url(#filter3_d_2612_52966)">
<path d="M-19.8701 124.311H223.875V282.541C223.875 287.318 220.003 291.19 215.226 291.19H-11.2214C-15.998 291.19 -19.8701 287.318 -19.8701 282.541V124.311Z" fill="#D9D9D9"/>
<path d="M-19.8704 119.887C-19.8704 116.593 -17.1996 113.922 -13.9051 113.922H217.909C221.204 113.922 223.875 116.593 223.875 119.887V124.311H-19.8704V119.887Z" fill="#2B51DA"/>
<circle cx="5.06021" cy="119.405" r="2.23697" fill="#B6FDCA"/>
<path d="M-20.1602 124.732H224.166V282.571C224.166 287.348 220.293 291.22 215.517 291.22H-11.5115C-16.288 291.22 -20.1602 287.348 -20.1602 282.571V124.732Z" fill="#E6E8F1"/>
<g clip-path="url(#clip1_2612_52966)">
<rect x="-12.9209" y="133.988" width="228.858" height="248.214" rx="2.6751" fill="white"/>
<rect x="-8.36865" y="138.541" width="101.335" height="69.4544" fill="#ECECEC"/>
<rect x="95.2466" y="138.541" width="116.137" height="3.41579" fill="#ECECEC"/>
<rect x="-8.36816" y="212.553" width="64.9" height="38.7123" fill="#ECECEC"/>
<rect x="58.8092" y="212.553" width="152.572" height="3.41579" fill="#ECECEC"/>
<rect x="58.8091" y="219.383" width="152.572" height="3.41579" fill="#ECECEC"/>
<rect x="58.8091" y="226.215" width="152.572" height="3.41579" fill="#ECECEC"/>
<rect x="58.8091" y="233.047" width="152.572" height="3.41579" fill="#ECECEC"/>
<rect x="58.8091" y="239.877" width="152.572" height="3.41579" fill="#ECECEC"/>
<rect x="58.8091" y="246.713" width="80.8404" height="3.41579" fill="#ECECEC"/>
<rect x="-8.36816" y="254.68" width="64.9" height="38.7123" fill="#ECECEC"/>
<rect x="58.8091" y="254.68" width="152.572" height="3.41579" fill="#ECECEC"/>
<rect x="58.8096" y="261.51" width="152.572" height="3.41579" fill="#ECECEC"/>
<rect x="58.8091" y="268.342" width="152.572" height="3.41579" fill="#ECECEC"/>
<rect x="58.8096" y="275.176" width="152.572" height="3.41579" fill="#ECECEC"/>
<rect x="58.8096" y="282.01" width="152.572" height="3.41579" fill="#ECECEC"/>
<rect x="58.8091" y="288.838" width="80.8404" height="3.41579" fill="#ECECEC"/>
<rect x="95.2466" y="145.373" width="116.137" height="3.41579" fill="#ECECEC"/>
<rect x="95.2463" y="152.207" width="116.137" height="3.41579" fill="#ECECEC"/>
<rect x="95.2466" y="159.039" width="116.137" height="3.41579" fill="#ECECEC"/>
<rect x="95.2466" y="165.867" width="116.137" height="3.41579" fill="#ECECEC"/>
<rect x="95.2466" y="172.697" width="116.137" height="3.41579" fill="#ECECEC"/>
<rect x="95.2466" y="179.531" width="116.137" height="3.41579" fill="#ECECEC"/>
<rect x="95.2466" y="186.365" width="116.137" height="3.41579" fill="#ECECEC"/>
<rect x="95.2466" y="193.195" width="54.6527" height="3.41579" fill="#ECECEC"/>
</g>
</g>
</g>
<g filter="url(#filter4_d_2612_52966)">
<g filter="url(#filter5_d_2612_52966)">
<path d="M18.29 163.23H262.035V321.461C262.035 326.238 258.163 330.11 253.386 330.11H26.9387C22.1622 330.11 18.29 326.238 18.29 321.461V163.23Z" fill="#D9D9D9"/>
<path d="M18.2898 158.809C18.2898 155.514 20.9605 152.844 24.2551 152.844H256.07C259.364 152.844 262.035 155.514 262.035 158.809V163.233H18.2898V158.809Z" fill="#2B51DA"/>
<circle cx="28.3073" cy="158.327" r="2.23697" fill="#F4B4D5"/>
<circle cx="35.7638" cy="158.327" r="2.23697" fill="#FAFE7B"/>
<circle cx="43.2204" cy="158.327" r="2.23697" fill="#B6FDCA"/>
<path d="M18 163.654H262.326V321.493C262.326 326.27 258.454 330.142 253.677 330.142H26.6487C21.8722 330.142 18 326.27 18 321.493V163.654Z" fill="#E6E8F1"/>
<g clip-path="url(#clip2_2612_52966)">
<rect x="25.2378" y="172.908" width="228.858" height="248.214" rx="2.6751" fill="white"/>
<rect x="29.79" y="177.461" width="101.335" height="69.4544" fill="#ECECEC"/>
<rect x="133.406" y="177.461" width="116.137" height="3.41579" fill="#ECECEC"/>
<rect x="29.7925" y="251.473" width="64.9" height="38.7123" fill="#ECECEC"/>
<rect x="96.9691" y="251.473" width="152.572" height="3.41579" fill="#ECECEC"/>
<rect x="96.9692" y="258.303" width="152.572" height="3.41579" fill="#ECECEC"/>
<rect x="96.9692" y="265.135" width="152.572" height="3.41579" fill="#ECECEC"/>
<rect x="96.9692" y="271.967" width="152.572" height="3.41579" fill="#ECECEC"/>
<rect x="96.9692" y="278.797" width="152.572" height="3.41579" fill="#ECECEC"/>
<rect x="96.9692" y="285.633" width="80.8404" height="3.41579" fill="#ECECEC"/>
<rect x="29.791" y="293.598" width="64.9" height="38.7123" fill="#ECECEC"/>
<rect x="96.9684" y="293.598" width="152.572" height="3.41579" fill="#ECECEC"/>
<rect x="96.9683" y="300.43" width="152.572" height="3.41579" fill="#ECECEC"/>
<rect x="96.9683" y="307.26" width="152.572" height="3.41579" fill="#ECECEC"/>
<rect x="96.9683" y="314.094" width="152.572" height="3.41579" fill="#ECECEC"/>
<rect x="96.9684" y="320.926" width="152.572" height="3.41579" fill="#ECECEC"/>
<rect x="96.9684" y="327.756" width="80.8404" height="3.41579" fill="#ECECEC"/>
<rect x="133.406" y="184.293" width="116.137" height="3.41579" fill="#ECECEC"/>
<rect x="133.406" y="191.127" width="116.137" height="3.41579" fill="#ECECEC"/>
<rect x="133.406" y="197.959" width="116.137" height="3.41579" fill="#ECECEC"/>
<rect x="133.406" y="204.787" width="116.137" height="3.41579" fill="#ECECEC"/>
<rect x="133.406" y="211.617" width="116.137" height="3.41579" fill="#ECECEC"/>
<rect x="133.406" y="218.451" width="116.137" height="3.41579" fill="#ECECEC"/>
<rect x="133.406" y="225.285" width="116.137" height="3.41579" fill="#ECECEC"/>
<rect x="133.406" y="232.115" width="54.6527" height="3.41579" fill="#ECECEC"/>
</g>
</g>
</g>
<g filter="url(#filter6_d_2612_52966)">
<path d="M80 363C93.2548 363 104 352.255 104 339C104 325.745 93.2548 315 80 315C66.7451 315 56 325.745 56 339C56 352.255 66.7451 363 80 363Z" fill="#627EEA"/>
<path d="M80.0469 321V334.305L91.2924 339.33L80.0469 321Z" fill="white" fill-opacity="0.602"/>
<path d="M80.0517 321L68.8047 339.33L80.0517 334.305V321Z" fill="white"/>
<path d="M80.0469 347.95V356.99L91.2999 341.422L80.0469 347.95Z" fill="white" fill-opacity="0.602"/>
<path d="M80.0517 356.99V347.948L68.8047 341.422L80.0517 356.99Z" fill="white"/>
<path d="M80.0469 345.856L91.2924 339.327L80.0469 334.305V345.856Z" fill="white" fill-opacity="0.2"/>
<path d="M68.8047 339.327L80.0517 345.856V334.305L68.8047 339.327Z" fill="white" fill-opacity="0.602"/>
</g>
<g filter="url(#filter7_d_2612_52966)">
<circle cx="140" cy="339" r="24" fill="#E7BC41"/>
<path d="M133.377 336.018L139.967 329.54L146.561 336.022L150.395 332.252L139.967 322L129.542 332.248L133.377 336.018Z" fill="white"/>
<path d="M130.67 338.68L126.835 334.91L123.001 338.68L126.835 342.45L130.67 338.68Z" fill="white"/>
<path d="M133.377 341.343L139.967 347.821L146.56 341.34L150.397 345.107L150.395 345.109L139.967 355.361L129.542 345.113L129.537 345.108L133.377 341.343Z" fill="white"/>
<path d="M153.101 342.451L156.936 338.682L153.101 334.912L149.266 338.682L153.101 342.451Z" fill="white"/>
<path d="M143.856 338.677H143.857L139.966 334.852L137.091 337.678H137.09L136.76 338.003L136.079 338.673L136.073 338.679L136.079 338.684L139.966 342.506L143.857 338.681L143.859 338.679L143.856 338.677Z" fill="white"/>
</g>
<g filter="url(#filter8_d_2612_52966)">
<circle cx="200" cy="339" r="24" fill="white"/>
</g>
<g filter="url(#filter9_d_2612_52966)">
<path d="M200.495 323C198.807 323 197.136 323.332 195.578 323.978C194.019 324.624 192.602 325.57 191.409 326.764C190.216 327.957 189.269 329.373 188.624 330.932C187.978 332.491 187.645 334.162 187.646 335.85C187.646 336.661 187.722 337.471 187.873 338.269L189.533 337.132C192.451 335.131 197.185 335.131 200.103 337.132L201.845 338.325L202.789 338.974C205.419 340.776 209.68 340.776 212.308 338.974L213.083 338.444C213.465 336.576 213.428 334.647 212.973 332.796C212.518 330.944 211.657 329.217 210.453 327.74C209.249 326.262 207.731 325.071 206.009 324.252C204.288 323.433 202.406 323.007 200.499 323.006L200.495 323Z" fill="#F2B705"/>
<path d="M207.716 343.568C205.78 343.568 203.929 343.042 202.535 342.087L199.851 340.248C198.566 339.365 196.841 338.878 194.998 338.878C193.154 338.878 191.428 339.361 190.144 340.248L188.408 341.436C188.327 341.493 188.235 341.533 188.137 341.554C188.04 341.575 187.94 341.576 187.842 341.558C187.744 341.54 187.651 341.503 187.568 341.449C187.484 341.395 187.413 341.325 187.356 341.243C187.3 341.161 187.261 341.068 187.241 340.971C187.22 340.874 187.219 340.774 187.238 340.676C187.257 340.578 187.294 340.485 187.349 340.402C187.404 340.319 187.474 340.248 187.557 340.192L189.291 339.004C190.825 337.952 192.85 337.373 194.997 337.373C197.144 337.373 199.168 337.952 200.703 339.004L203.386 340.843C204.689 341.641 206.188 342.063 207.715 342.063C209.243 342.063 210.741 341.641 212.044 340.843L213.063 340.146C213.145 340.088 213.237 340.047 213.335 340.026C213.432 340.004 213.533 340.002 213.631 340.02C213.73 340.037 213.824 340.074 213.908 340.129C213.992 340.183 214.064 340.253 214.12 340.336C214.177 340.418 214.216 340.511 214.236 340.609C214.257 340.707 214.257 340.808 214.238 340.906C214.219 341.004 214.181 341.097 214.125 341.18C214.07 341.263 213.998 341.334 213.915 341.39L212.896 342.087C211.496 343.045 209.652 343.568 207.716 343.568Z" fill="#53CBC8"/>
<path d="M194.941 348.963V341.703C194.936 341.55 194.942 341.397 194.961 341.245C194.983 341.045 195.079 340.861 195.229 340.727C195.379 340.593 195.573 340.519 195.774 340.52C195.969 340.525 196.155 340.602 196.296 340.736C196.438 340.87 196.525 341.051 196.541 341.245C196.572 341.497 196.581 341.752 196.567 342.005V356.48C196.524 357.016 196.188 357.371 195.735 357.361C195.282 357.351 194.956 356.984 194.954 356.439V351.615L194.941 348.963Z" fill="#53CBC8"/>
<path d="M193.415 345.313V348.921C193.415 349.538 193.086 349.947 192.619 349.932C192.153 349.918 191.799 349.502 191.797 348.913V341.701C191.797 341.069 192.165 340.643 192.644 340.667C193.123 340.692 193.409 341.074 193.411 341.705C193.418 342.908 193.415 344.11 193.415 345.313Z" fill="#53CBC8"/>
<path d="M198.101 345.306V342.771C198.101 342.182 198.413 341.803 198.878 341.803C199.343 341.803 199.7 342.195 199.706 342.749C199.723 344.475 199.723 346.2 199.706 347.925C199.706 348.513 199.359 348.866 198.883 348.861C198.407 348.857 198.102 348.495 198.097 347.893V345.304L198.101 345.306Z" fill="#53CBC8"/>
<path d="M188.65 345.834V343.298C188.65 342.71 188.962 342.33 189.427 342.33C189.891 342.33 190.249 342.722 190.255 343.276C190.27 345.002 190.27 346.728 190.255 348.452C190.255 349.04 189.906 349.393 189.432 349.389C188.959 349.384 188.651 349.023 188.646 348.421V345.832L188.65 345.834Z" fill="#53CBC8"/>
<path d="M202.041 343.676H202.043C202.254 343.676 202.457 343.76 202.606 343.909C202.755 344.059 202.839 344.261 202.839 344.472V345.851C202.839 346.063 202.755 346.265 202.606 346.414C202.457 346.564 202.254 346.648 202.043 346.648H202.041C201.829 346.648 201.627 346.564 201.478 346.414C201.328 346.265 201.244 346.063 201.244 345.851V344.472C201.244 344.261 201.328 344.058 201.477 343.909C201.627 343.76 201.829 343.676 202.041 343.676Z" fill="#53CBC8"/>
<path d="M205.197 344.883H205.2C205.411 344.883 205.613 344.967 205.763 345.116C205.912 345.266 205.996 345.468 205.996 345.679V353.415C205.996 353.52 205.975 353.623 205.935 353.72C205.895 353.816 205.837 353.904 205.763 353.978C205.689 354.052 205.601 354.11 205.504 354.15C205.408 354.19 205.304 354.211 205.2 354.211H205.197C205.093 354.211 204.989 354.19 204.893 354.15C204.796 354.11 204.708 354.052 204.634 353.978C204.561 353.904 204.502 353.816 204.462 353.72C204.422 353.623 204.401 353.52 204.401 353.415V345.679C204.401 345.468 204.485 345.266 204.634 345.116C204.784 344.967 204.986 344.883 205.197 344.883Z" fill="#53CBC8"/>
<path d="M208.331 345.184H208.333C208.545 345.184 208.747 345.267 208.897 345.417C209.046 345.566 209.13 345.769 209.13 345.98V352.554C209.13 352.659 209.109 352.762 209.069 352.859C209.029 352.956 208.97 353.043 208.897 353.117C208.823 353.191 208.735 353.25 208.638 353.29C208.542 353.33 208.438 353.35 208.333 353.35H208.331C208.227 353.35 208.123 353.33 208.027 353.29C207.93 353.25 207.842 353.191 207.768 353.117C207.694 353.043 207.636 352.956 207.596 352.859C207.556 352.762 207.535 352.659 207.535 352.554V345.98C207.535 345.875 207.556 345.772 207.596 345.675C207.636 345.579 207.694 345.491 207.768 345.417C207.842 345.343 207.93 345.284 208.026 345.244C208.123 345.204 208.227 345.184 208.331 345.184Z" fill="#53CBC8"/>
<path d="M211.508 344.434H211.51C211.721 344.434 211.924 344.517 212.073 344.667C212.222 344.816 212.306 345.019 212.306 345.23V348.066C212.306 348.277 212.222 348.479 212.073 348.628C211.924 348.778 211.721 348.862 211.51 348.862H211.508C211.403 348.862 211.3 348.841 211.203 348.801C211.107 348.761 211.019 348.702 210.945 348.628C210.871 348.555 210.812 348.467 210.772 348.37C210.732 348.274 210.712 348.17 210.712 348.066V345.23C210.712 345.125 210.732 345.022 210.772 344.925C210.812 344.829 210.871 344.741 210.945 344.667C211.019 344.593 211.107 344.534 211.203 344.494C211.3 344.454 211.403 344.434 211.508 344.434Z" fill="#53CBC8"/>
</g>
<path d="M232 97.7313C232 97.7313 244.985 96.6567 247.672 80C248.746 91.606 255.731 95.0448 262 97.7313C262 97.7313 247.672 100.418 247.672 116C247.672 116 244.985 99.8806 232 97.7313Z" fill="white"/>
<defs>
<filter id="filter0_d_2612_52966" x="-74.2163" y="58.7837" width="276.758" height="209.731" filterUnits="userSpaceOnUse" color-interpolation-filters="sRGB">
<feFlood flood-opacity="0" result="BackgroundImageFix"/>
<feColorMatrix in="SourceAlpha" type="matrix" values="0 0 0 0 0 0 0 0 0 0 0 0 0 0 0 0 0 0 127 0" result="hardAlpha"/>
<feOffset/>
<feGaussianBlur stdDeviation="8.10815"/>
<feComposite in2="hardAlpha" operator="out"/>
<feColorMatrix type="matrix" values="0 0 0 0 0 0 0 0 0 0 0 0 0 0 0 0 0 0 0.25 0"/>
<feBlend mode="normal" in2="BackgroundImageFix" result="effect1_dropShadow_2612_52966"/>
<feBlend mode="normal" in="SourceGraphic" in2="effect1_dropShadow_2612_52966" result="shape"/>
</filter>
<filter id="filter1_d_2612_52966" x="-62.8404" y="70.1596" width="254.006" height="186.98" filterUnits="userSpaceOnUse" color-interpolation-filters="sRGB">
<feFlood flood-opacity="0" result="BackgroundImageFix"/>
<feColorMatrix in="SourceAlpha" type="matrix" values="0 0 0 0 0 0 0 0 0 0 0 0 0 0 0 0 0 0 127 0" result="hardAlpha"/>
<feOffset/>
<feGaussianBlur stdDeviation="2.42018"/>
<feComposite in2="hardAlpha" operator="out"/>
<feColorMatrix type="matrix" values="0 0 0 0 0.475 0 0 0 0 0.475 0 0 0 0 0.475 0 0 0 0.1 0"/>
<feBlend mode="normal" in2="BackgroundImageFix" result="effect1_dropShadow_2612_52966"/>
<feBlend mode="normal" in="SourceGraphic" in2="effect1_dropShadow_2612_52966" result="shape"/>
</filter>
<filter id="filter2_d_2612_52966" x="-36.3765" y="97.7056" width="276.758" height="209.731" filterUnits="userSpaceOnUse" color-interpolation-filters="sRGB">
<feFlood flood-opacity="0" result="BackgroundImageFix"/>
<feColorMatrix in="SourceAlpha" type="matrix" values="0 0 0 0 0 0 0 0 0 0 0 0 0 0 0 0 0 0 127 0" result="hardAlpha"/>
<feOffset/>
<feGaussianBlur stdDeviation="8.10815"/>
<feComposite in2="hardAlpha" operator="out"/>
<feColorMatrix type="matrix" values="0 0 0 0 0 0 0 0 0 0 0 0 0 0 0 0 0 0 0.25 0"/>
<feBlend mode="normal" in2="BackgroundImageFix" result="effect1_dropShadow_2612_52966"/>
<feBlend mode="normal" in="SourceGraphic" in2="effect1_dropShadow_2612_52966" result="shape"/>
</filter>
<filter id="filter3_d_2612_52966" x="-25.0005" y="109.082" width="254.006" height="186.98" filterUnits="userSpaceOnUse" color-interpolation-filters="sRGB">
<feFlood flood-opacity="0" result="BackgroundImageFix"/>
<feColorMatrix in="SourceAlpha" type="matrix" values="0 0 0 0 0 0 0 0 0 0 0 0 0 0 0 0 0 0 127 0" result="hardAlpha"/>
<feOffset/>
<feGaussianBlur stdDeviation="2.42018"/>
<feComposite in2="hardAlpha" operator="out"/>
<feColorMatrix type="matrix" values="0 0 0 0 0.475 0 0 0 0 0.475 0 0 0 0 0.475 0 0 0 0.1 0"/>
<feBlend mode="normal" in2="BackgroundImageFix" result="effect1_dropShadow_2612_52966"/>
<feBlend mode="normal" in="SourceGraphic" in2="effect1_dropShadow_2612_52966" result="shape"/>
</filter>
<filter id="filter4_d_2612_52966" x="1.78369" y="136.627" width="276.758" height="209.731" filterUnits="userSpaceOnUse" color-interpolation-filters="sRGB">
<feFlood flood-opacity="0" result="BackgroundImageFix"/>
<feColorMatrix in="SourceAlpha" type="matrix" values="0 0 0 0 0 0 0 0 0 0 0 0 0 0 0 0 0 0 127 0" result="hardAlpha"/>
<feOffset/>
<feGaussianBlur stdDeviation="8.10815"/>
<feComposite in2="hardAlpha" operator="out"/>
<feColorMatrix type="matrix" values="0 0 0 0 0 0 0 0 0 0 0 0 0 0 0 0 0 0 0.25 0"/>
<feBlend mode="normal" in2="BackgroundImageFix" result="effect1_dropShadow_2612_52966"/>
<feBlend mode="normal" in="SourceGraphic" in2="effect1_dropShadow_2612_52966" result="shape"/>
</filter>
<filter id="filter5_d_2612_52966" x="13.1596" y="148.003" width="254.006" height="186.98" filterUnits="userSpaceOnUse" color-interpolation-filters="sRGB">
<feFlood flood-opacity="0" result="BackgroundImageFix"/>
<feColorMatrix in="SourceAlpha" type="matrix" values="0 0 0 0 0 0 0 0 0 0 0 0 0 0 0 0 0 0 127 0" result="hardAlpha"/>
<feOffset/>
<feGaussianBlur stdDeviation="2.42018"/>
<feComposite in2="hardAlpha" operator="out"/>
<feColorMatrix type="matrix" values="0 0 0 0 0.475 0 0 0 0 0.475 0 0 0 0 0.475 0 0 0 0.1 0"/>
<feBlend mode="normal" in2="BackgroundImageFix" result="effect1_dropShadow_2612_52966"/>
<feBlend mode="normal" in="SourceGraphic" in2="effect1_dropShadow_2612_52966" result="shape"/>
</filter>
<filter id="filter6_d_2612_52966" x="41" y="300" width="78" height="78" filterUnits="userSpaceOnUse" color-interpolation-filters="sRGB">
<feFlood flood-opacity="0" result="BackgroundImageFix"/>
<feColorMatrix in="SourceAlpha" type="matrix" values="0 0 0 0 0 0 0 0 0 0 0 0 0 0 0 0 0 0 127 0" result="hardAlpha"/>
<feOffset/>
<feGaussianBlur stdDeviation="7.5"/>
<feComposite in2="hardAlpha" operator="out"/>
<feColorMatrix type="matrix" values="0 0 0 0 0 0 0 0 0 0 0 0 0 0 0 0 0 0 0.25 0"/>
<feBlend mode="normal" in2="BackgroundImageFix" result="effect1_dropShadow_2612_52966"/>
<feBlend mode="normal" in="SourceGraphic" in2="effect1_dropShadow_2612_52966" result="shape"/>
</filter>
<filter id="filter7_d_2612_52966" x="101" y="300" width="78" height="78" filterUnits="userSpaceOnUse" color-interpolation-filters="sRGB">
<feFlood flood-opacity="0" result="BackgroundImageFix"/>
<feColorMatrix in="SourceAlpha" type="matrix" values="0 0 0 0 0 0 0 0 0 0 0 0 0 0 0 0 0 0 127 0" result="hardAlpha"/>
<feOffset/>
<feGaussianBlur stdDeviation="7.5"/>
<feComposite in2="hardAlpha" operator="out"/>
<feColorMatrix type="matrix" values="0 0 0 0 0 0 0 0 0 0 0 0 0 0 0 0 0 0 0.25 0"/>
<feBlend mode="normal" in2="BackgroundImageFix" result="effect1_dropShadow_2612_52966"/>
<feBlend mode="normal" in="SourceGraphic" in2="effect1_dropShadow_2612_52966" result="shape"/>
</filter>
<filter id="filter8_d_2612_52966" x="156" y="295" width="88" height="88" filterUnits="userSpaceOnUse" color-interpolation-filters="sRGB">
<feFlood flood-opacity="0" result="BackgroundImageFix"/>
<feColorMatrix in="SourceAlpha" type="matrix" values="0 0 0 0 0 0 0 0 0 0 0 0 0 0 0 0 0 0 127 0" result="hardAlpha"/>
<feOffset/>
<feGaussianBlur stdDeviation="10"/>
<feComposite in2="hardAlpha" operator="out"/>
<feColorMatrix type="matrix" values="0 0 0 0 0 0 0 0 0 0 0 0 0 0 0 0 0 0 0.25 0"/>
<feBlend mode="normal" in2="BackgroundImageFix" result="effect1_dropShadow_2612_52966"/>
<feBlend mode="normal" in="SourceGraphic" in2="effect1_dropShadow_2612_52966" result="shape"/>
</filter>
<filter id="filter9_d_2612_52966" x="167.225" y="303" width="67.0274" height="74.3613" filterUnits="userSpaceOnUse" color-interpolation-filters="sRGB">
<feFlood flood-opacity="0" result="BackgroundImageFix"/>
<feColorMatrix in="SourceAlpha" type="matrix" values="0 0 0 0 0 0 0 0 0 0 0 0 0 0 0 0 0 0 127 0" result="hardAlpha"/>
<feOffset/>
<feGaussianBlur stdDeviation="10"/>
<feComposite in2="hardAlpha" operator="out"/>
<feColorMatrix type="matrix" values="0 0 0 0 0 0 0 0 0 0 0 0 0 0 0 0 0 0 0.25 0"/>
<feBlend mode="normal" in2="BackgroundImageFix" result="effect1_dropShadow_2612_52966"/>
<feBlend mode="normal" in="SourceGraphic" in2="effect1_dropShadow_2612_52966" result="shape"/>
</filter>
<clipPath id="clip0_2612_52966">
<rect width="228.109" height="157.839" fill="white" transform="translate(-50.4326 94.459)"/>
</clipPath>
<clipPath id="clip1_2612_52966">
<rect width="228.109" height="157.839" fill="white" transform="translate(-12.5928 133.381)"/>
</clipPath>
<clipPath id="clip2_2612_52966">
<rect width="228.109" height="157.839" fill="white" transform="translate(25.5674 172.303)"/>
</clipPath>
</defs>
</svg>
