<svg width="67" height="71" viewBox="0 0 67 71" fill="none" xmlns="http://www.w3.org/2000/svg">
<g clip-path="url(#clip0_2774_5745)">
<path d="M20.55 30.38C22.18 27.43 24.14 24.78 26.3 22.52C28.48 20.24 30.88 18.32 33.37 16.84C35.91 15.34 38.57 14.29 41.2 13.78C43.9 13.26 46.6 13.32 49.13 14.07C51.74 14.84 53.94 16.27 55.66 18.23C57.43 20.24 58.7 22.8 59.39 25.75C60.1 28.76 60.2 32.15 59.64 35.73C59.07 39.36 57.81 43.14 55.84 46.83C53.86 50.54 51.36 53.77 48.57 56.42C45.81 59.04 42.78 61.05 39.71 62.38C36.7 63.68 33.67 64.3 30.82 64.2C28.04 64.1 25.44 63.31 23.17 61.79C20.97 60.32 19.3 58.29 18.14 55.91C17.01 53.59 16.36 50.93 16.18 48.09C16 45.31 16.28 42.34 17.01 39.33C17.75 36.37 18.92 33.34 20.55 30.38ZM52.15 8.53996C48.98 7.71996 45.63 7.73996 42.3 8.45996C39.07 9.14996 35.83 10.5 32.74 12.37C29.72 14.2 26.82 16.56 24.2 19.34C21.6 22.09 19.24 25.29 17.27 28.86C15.29 32.44 13.86 36.1 12.95 39.7C12.03 43.35 11.65 46.97 11.81 50.38C11.97 53.87 12.71 57.18 14.02 60.08C15.38 63.08 17.38 65.67 20.03 67.6C22.78 69.6 25.99 70.7 29.44 70.93C33.01 71.17 36.82 70.48 40.62 68.93C44.52 67.33 48.38 64.84 51.91 61.54C55.49 58.2 58.68 54.09 61.19 49.36C63.7 44.64 65.25 39.83 65.92 35.22C66.58 30.7 66.37 26.43 65.38 22.67C64.42 19.02 62.75 15.87 60.44 13.44C58.24 11.07 55.44 9.38996 52.15 8.53996Z" fill="#E6E8F1"/>
<path d="M24.0001 31.98C25.2701 29.67 26.8001 27.61 28.5001 25.85C30.2001 24.08 32.0801 22.61 34.0301 21.49C36.0001 20.36 38.0601 19.58 40.0901 19.24C42.1601 18.89 44.2101 19 46.1201 19.63C48.0701 20.28 49.7001 21.43 50.9601 22.97C52.2501 24.54 53.1501 26.51 53.6201 28.74C54.1001 31.02 54.1301 33.56 53.6801 36.23C53.2201 38.93 52.2701 41.73 50.8001 44.47C49.3301 47.22 47.4801 49.62 45.4201 51.6C43.3801 53.57 41.1401 55.1 38.8601 56.13C36.6101 57.15 34.3401 57.68 32.1801 57.66C30.0601 57.65 28.0701 57.12 26.3201 56.04C24.6101 54.98 23.2801 53.48 22.3501 51.7C21.4401 49.95 20.8901 47.93 20.7201 45.75C20.5501 43.61 20.7401 41.31 21.2801 38.97C21.8201 36.67 22.7301 34.3 24.0001 31.98ZM49.1401 14.07C46.6001 13.32 43.9101 13.27 41.2101 13.78C38.5701 14.28 35.9101 15.34 33.3801 16.84C30.8801 18.32 28.4801 20.23 26.3101 22.52C24.1501 24.78 22.1901 27.42 20.5601 30.38C18.9301 33.34 17.7601 36.37 17.0401 39.34C16.3101 42.35 16.0301 45.31 16.2101 48.1C16.3901 50.94 17.0401 53.6 18.1701 55.92C19.3301 58.3 21.0001 60.33 23.2001 61.8C25.4601 63.32 28.0701 64.11 30.8501 64.21C33.7101 64.31 36.7301 63.69 39.7401 62.39C42.8101 61.07 45.8301 59.05 48.6001 56.43C51.3901 53.78 53.8901 50.55 55.8701 46.84C57.8501 43.14 59.1001 39.36 59.6701 35.74C60.2301 32.17 60.1301 28.77 59.4201 25.76C58.7301 22.82 57.4601 20.26 55.6901 18.24C53.9501 16.28 51.7501 14.85 49.1401 14.07Z" fill="white"/>
<path d="M27.6101 33.6699C28.5101 32.0399 29.5901 30.5799 30.7901 29.3499C31.9901 28.1099 33.3201 27.0899 34.7001 26.3199C36.0901 25.5499 37.5301 25.0399 38.9401 24.8299C40.3701 24.6299 41.7801 24.7399 43.0801 25.2199C44.4001 25.7099 45.4901 26.5399 46.3201 27.6299C47.1601 28.7299 47.7401 30.0999 48.0301 31.6299C48.3201 33.1899 48.3201 34.9099 47.9901 36.7099C47.6601 38.5199 47.0101 40.3999 46.0201 42.2399C45.0301 44.0799 43.8001 45.6899 42.4201 47.0299C41.0501 48.3599 39.5601 49.4099 38.0201 50.1399C36.5001 50.8599 34.9601 51.2499 33.4901 51.2899C32.0401 51.3299 30.6501 51.0099 29.4301 50.3099C28.2201 49.6199 27.2801 48.6299 26.6001 47.4199C25.9301 46.2299 25.5201 44.8399 25.3801 43.3299C25.2301 41.8399 25.3401 40.2299 25.7201 38.5899C26.0801 36.9699 26.7101 35.2999 27.6101 33.6699ZM46.1201 19.6399C44.2101 18.9999 42.1601 18.8999 40.0901 19.2499C38.0601 19.5899 36.0001 20.3599 34.0301 21.4999C32.0801 22.6199 30.2001 24.0899 28.5001 25.8599C26.8101 27.6199 25.2701 29.6799 24.0001 31.9899C22.7301 34.2999 21.8301 36.6699 21.2801 38.9899C20.7301 41.3299 20.5401 43.6299 20.7201 45.7699C20.8901 47.9499 21.4401 49.9699 22.3501 51.7199C23.2801 53.4999 24.6001 54.9999 26.3201 56.0599C28.0701 57.1499 30.0701 57.6699 32.1801 57.6799C34.3401 57.6899 36.6101 57.1599 38.8601 56.1499C41.1401 55.1199 43.3801 53.5899 45.4201 51.6199C47.4801 49.6399 49.3201 47.2399 50.8001 44.4899C52.2701 41.7499 53.2201 38.9499 53.6801 36.2499C54.1301 33.5799 54.1001 31.0399 53.6201 28.7599C53.1501 26.5199 52.2501 24.5499 50.9601 22.9899C49.7001 21.4399 48.0701 20.2899 46.1201 19.6399Z" fill="#E6E8F1"/>
<path d="M31.3999 35.44C31.8999 34.52 32.5199 33.7 33.1999 33.01C33.8799 32.32 34.6299 31.75 35.3999 31.33C36.1799 30.91 36.9799 30.64 37.7599 30.55C38.5499 30.46 39.3199 30.54 40.0299 30.83C40.7399 31.12 41.3199 31.6 41.7599 32.21C42.1999 32.83 42.4899 33.58 42.6299 34.42C42.7699 35.27 42.7499 36.2 42.5599 37.17C42.3699 38.14 42.0199 39.15 41.4799 40.13C40.9499 41.11 40.2899 41.98 39.5599 42.7C38.8299 43.42 38.0299 43.99 37.2099 44.4C36.3899 44.8 35.5599 45.04 34.7599 45.08C33.9599 45.12 33.1999 44.98 32.5199 44.62C31.8399 44.27 31.3099 43.74 30.9199 43.09C30.5299 42.45 30.2899 41.68 30.1899 40.85C30.0899 40.02 30.1399 39.12 30.3399 38.2C30.5499 37.3 30.8999 36.36 31.3999 35.44ZM43.0799 25.23C41.7799 24.74 40.3699 24.63 38.9399 24.84C37.5299 25.04 36.0899 25.55 34.6999 26.33C33.3299 27.1 31.9999 28.12 30.7899 29.36C29.5899 30.59 28.4999 32.05 27.6099 33.68C26.7099 35.31 26.0899 36.99 25.7199 38.62C25.3499 40.26 25.2399 41.87 25.3799 43.36C25.5299 44.87 25.9299 46.26 26.5999 47.45C27.2799 48.65 28.2199 49.65 29.4299 50.34C30.6599 51.04 32.0399 51.35 33.4899 51.32C34.9599 51.28 36.4999 50.89 38.0199 50.17C39.5499 49.45 41.0499 48.4 42.4199 47.06C43.7899 45.72 45.0299 44.11 46.0199 42.27C47.0099 40.43 47.6599 38.55 47.9899 36.74C48.3199 34.94 48.3199 33.21 48.0299 31.66C47.7399 30.12 47.1599 28.76 46.3199 27.66C45.4899 26.55 44.3999 25.72 43.0799 25.23Z" fill="white"/>
<path d="M40.0304 30.8299C39.3204 30.5399 38.5504 30.4499 37.7604 30.5499C36.9804 30.6399 36.1704 30.9099 35.4004 31.3299C34.6304 31.7499 33.8804 32.3099 33.2004 33.0099C32.5204 33.6999 31.9104 34.5199 31.4004 35.4399C30.9004 36.3599 30.5504 37.2999 30.3504 38.2199C30.1504 39.1399 30.1004 40.0399 30.2004 40.8699C30.3004 41.6999 30.5404 42.4699 30.9304 43.1099C31.3204 43.7599 31.8504 44.2799 32.5304 44.6399C33.2104 44.9999 33.9804 45.1399 34.7704 45.0999C35.5704 45.0599 36.4004 44.8199 37.2204 44.4199C38.0404 44.0199 38.8404 43.4399 39.5704 42.7199C40.3004 41.9999 40.9604 41.1299 41.4904 40.1499C42.0204 39.1699 42.3804 38.1599 42.5704 37.1899C42.7604 36.2199 42.7804 35.2899 42.6404 34.4399C42.5004 33.5999 42.2104 32.8399 41.7704 32.2299C41.3204 31.5999 40.7404 31.1299 40.0304 30.8299Z" fill="#2B51DA"/>
<path d="M16.8897 17.58L6.71973 7.48L7.77973 0L17.5797 10.86L16.8897 17.58Z" fill="#82D8FD"/>
<path d="M0 8.16998L9.63 18.26L16.99 17.67L6.72 7.47998L0 8.16998Z" fill="#82D8FD"/>
<path d="M36.4405 37.95C36.2305 37.95 36.0205 37.87 35.8605 37.71L6.22047 8.06003C5.90047 7.74003 5.90047 7.22003 6.22047 6.90003C6.54047 6.58003 7.06047 6.58003 7.38047 6.90003L37.0305 36.55C37.3505 36.87 37.3505 37.39 37.0305 37.71C36.8705 37.87 36.6505 37.95 36.4405 37.95Z" fill="#2F5363"/>
</g>
<defs>
<clipPath id="clip0_2774_5745">
<rect width="66.32" height="70.96" fill="white"/>
</clipPath>
</defs>
</svg>
