<svg width="72" height="72" viewBox="0 0 72 72" fill="none" xmlns="http://www.w3.org/2000/svg">
<path d="M35.8267 63.9701C51.3864 63.5403 63.6506 50.621 63.2194 35.1139C62.7882 19.6069 49.825 7.38425 34.2652 7.81397C18.7055 8.24369 6.44134 21.163 6.87251 36.6701C7.30369 52.1772 20.2669 64.3998 35.8267 63.9701Z" fill="white" stroke="#E6E8F1" stroke-width="3"/>
<path d="M47.2013 25.6856C43.1535 29.5473 39.1057 33.409 35.0694 37.2707C31.0908 35.4777 27.1007 33.6733 23.1221 31.8804C21.2423 31.0299 19.5932 33.8112 21.496 34.6617C25.8667 36.627 30.2259 38.6039 34.5966 40.5692C35.277 40.8795 35.992 40.8565 36.5571 40.3163C40.8701 36.2018 45.1832 32.0758 49.4962 27.9612C50.9954 26.5246 48.712 24.2489 47.2013 25.6856Z" fill="#82D8FD"/>
<path d="M37.423 13.5969C37.423 14.8278 36.4217 15.8257 35.1866 15.8257C33.9516 15.8257 32.9502 14.8278 32.9502 13.5969C32.9502 12.366 33.9516 11.368 35.1866 11.368C36.4217 11.368 37.423 12.366 37.423 13.5969Z" fill="#2B51DA"/>
<path d="M37.423 58.478C37.423 59.7089 36.4217 60.7068 35.1866 60.7068C33.9516 60.7068 32.9502 59.7089 32.9502 58.478C32.9502 57.2471 33.9516 56.2491 35.1866 56.2491C36.4217 56.2491 37.423 57.2471 37.423 58.478Z" fill="#2B51DA"/>
<path d="M57.7091 38.2608C56.474 38.2608 55.4727 37.2628 55.4727 36.032C55.4727 34.8011 56.474 33.8031 57.7091 33.8031C58.9441 33.8031 59.9455 34.8011 59.9455 36.032C59.9288 37.2628 58.9441 38.2608 57.7091 38.2608Z" fill="#2B51DA"/>
<path d="M12.6769 38.2608C11.4418 38.2608 10.4404 37.2628 10.4404 36.032C10.4404 34.8011 11.4418 33.8031 12.6769 33.8031C13.9119 33.8031 14.9133 34.8011 14.9133 36.032C14.9133 37.2628 13.9119 38.2608 12.6769 38.2608Z" fill="#2B51DA"/>
<path d="M52.7062 21.7476C51.8351 22.6158 50.4112 22.6158 49.5401 21.7476C48.6689 20.8795 48.6689 19.4603 49.5401 18.5922C50.4112 17.724 51.8351 17.724 52.7062 18.5922C53.5773 19.4603 53.5773 20.8795 52.7062 21.7476Z" fill="#2B51DA"/>
<path d="M20.8664 53.4811C19.9953 54.3493 18.5713 54.3493 17.7002 53.4811C16.8291 52.613 16.8291 51.1939 17.7002 50.3257C18.5713 49.4575 19.9953 49.4575 20.8664 50.3257C21.7375 51.2105 21.7375 52.613 20.8664 53.4811Z" fill="#2B51DA"/>
<path d="M49.5401 53.4811C48.6689 52.613 48.6689 51.1939 49.5401 50.3257C50.4112 49.4575 51.8351 49.4575 52.7062 50.3257C53.5773 51.1939 53.5773 52.613 52.7062 53.4811C51.8184 54.3493 50.4112 54.3493 49.5401 53.4811Z" fill="#2B51DA"/>
<path d="M17.6895 21.7476C16.8184 20.8795 16.8184 19.4603 17.6895 18.5922C18.5606 17.724 19.9845 17.724 20.8556 18.5922C21.7268 19.4603 21.7268 20.8795 20.8556 21.7476C19.9845 22.6158 18.5773 22.6158 17.6895 21.7476Z" fill="#2B51DA"/>
</svg>
