<svg width="72" height="72" viewBox="0 0 72 72" fill="none" xmlns="http://www.w3.org/2000/svg">
<path d="M62.6536 69.9452L61.9308 60.9376C61.6899 57.8692 60.6202 54.9137 58.847 52.363L58.8181 52.3253L57.4592 49.3605C55.5318 46.0097 51.7541 44.099 47.8318 44.4755L37.5201 45.4732L25.8496 44.2119C25.8496 44.2119 20.2215 46.3203 28.4227 49.1534C30.3404 49.8122 39.9101 50.7629 41.5002 50.9794L26.2543 50.8664C26.2543 50.8664 20.2889 48.7487 19.5662 48.7016C19.1325 48.6734 17.1183 47.1956 15.5571 46.0097C14.3139 45.0684 12.7238 44.6919 11.1819 44.9837L10.9024 45.0402C9.96762 45.219 9.6785 46.3767 10.4206 46.9603L16.5594 52.3253C16.5594 52.3253 21.6381 55.5444 25.2231 56.1938C28.8081 56.8433 40.8352 58.1422 42.6277 58.6598L50.7518 61.1164L50.2892 69.964H62.6536V69.9452Z" fill="white"/>
<g clip-path="url(#clip0_2774_5826)">
<path d="M47 15.8228C47 9.84507 42.077 5 35.997 5C29.923 5 25 9.84507 25 15.8228C25 19.0252 26.4221 21.8955 28.6637 23.8762C30.0616 26.0526 30.3268 28.2646 30.3268 28.2646H35.997H41.6672C41.6672 28.2646 41.9323 26.0526 43.3303 23.8762C45.5779 21.8955 47 19.0252 47 15.8228Z" fill="white"/>
<path d="M43.0887 29.1186C43.0887 29.593 42.6971 29.9726 42.221 29.9726H29.7779C29.2958 29.9726 28.9102 29.5871 28.9102 29.1186C28.9102 28.6442 29.3018 28.2646 29.7779 28.2646H42.2271C42.7031 28.2646 43.0887 28.6501 43.0887 29.1186Z" fill="#82D8FD"/>
<path d="M43.0887 30.8265C43.0887 31.3009 42.6971 31.6805 42.221 31.6805H29.7779C29.2958 31.6805 28.9102 31.295 28.9102 30.8265C28.9102 30.3521 29.3018 29.9725 29.7779 29.9725H42.2271C42.7031 29.9725 43.0887 30.358 43.0887 30.8265Z" fill="#82D8FD"/>
<path d="M43.0887 32.5395C43.0887 33.0139 42.6971 33.3935 42.221 33.3935H29.7779C29.2958 33.3935 28.9102 33.008 28.9102 32.5395C28.9102 32.0651 29.3018 31.6855 29.7779 31.6855H42.2271C42.7031 31.6855 43.0887 32.0651 43.0887 32.5395Z" fill="#82D8FD"/>
<path d="M31.374 33.3951C31.8681 35.4648 33.7482 37.0008 35.9958 37.0008C38.2434 37.0008 40.1294 35.4589 40.6175 33.3951H31.374Z" fill="#82D8FD"/>
<path d="M30.5731 16.179C33.7909 18.4977 34.2549 23.9358 34.3031 27.411C34.3091 27.8676 35.0322 27.8676 35.0262 27.411C34.9719 23.6156 34.4055 18.0589 30.9407 15.5681C30.5611 15.2953 30.1995 15.9121 30.5731 16.179Z" fill="#2B51DA"/>
<path d="M41.0572 15.5681C37.5924 18.0648 37.0199 23.6156 36.9717 27.411C36.9657 27.8676 37.6888 27.8676 37.6948 27.411C37.743 23.9358 38.207 18.4977 41.4247 16.179C41.7983 15.9121 41.4368 15.2953 41.0572 15.5681Z" fill="#2B51DA"/>
</g>
<defs>
<clipPath id="clip0_2774_5826">
<rect width="22" height="32" fill="white" transform="translate(25 5)"/>
</clipPath>
</defs>
</svg>
