<svg width="72" height="73" viewBox="0 0 72 73" fill="none" xmlns="http://www.w3.org/2000/svg">
<path d="M37.4109 5.05859L25.4243 17.0452V19.8294L40.1951 5.05859H37.4109ZM43.2508 5.58284L25.9485 22.8851L49.6145 46.5508L66.9167 29.2489L43.2506 5.58313L43.2508 5.58284ZM67.4411 32.3044L52.67 47.0752H55.4542L67.4408 35.0886V32.3044H67.4411ZM33.7047 34.2207L32.3125 35.6129L36.8866 40.1871L38.2788 38.7949L33.7047 34.2207ZM30.5228 37.4026L27.2142 40.7111H33.8313L30.5228 37.4026ZM24.6829 43.2424L20.8502 47.0752H29.9984L33.8313 43.2424H24.6829ZM18.3189 49.6065L14.4863 53.4391H23.6345L27.4671 49.6065H18.3189ZM14.4863 55.9703L17.7948 59.2788L21.1033 55.9703H14.4863ZM11.4307 56.4946L10.0388 57.8866L14.6129 62.4607L16.0048 61.0688L11.4307 56.4946ZM5.97908 59.1522L4.92383 62.318L10.1815 67.5757L13.3473 66.5204V64.7747L7.72452 59.1522H5.97908Z" fill="white"/>
</svg>
