<svg width="48" height="48" viewBox="0 0 48 48" fill="none" xmlns="http://www.w3.org/2000/svg">
<rect width="48" height="48" rx="12" fill="#5865F2"/>
<g clip-path="url(#clip0_3115_7186)">
<path d="M32.8509 15.1889C31.1786 14.3895 29.4094 13.8216 27.5901 13.5C27.3635 13.9185 27.0987 14.4815 26.9162 14.9293C24.9546 14.628 23.0112 14.628 21.0857 14.9293C20.9032 14.4816 20.6325 13.9185 20.4038 13.5C18.5827 13.8217 16.812 14.3911 15.1389 15.1931C11.8096 20.3328 10.907 25.3447 11.3583 30.2857C13.5665 31.9703 15.7065 32.9937 17.8105 33.6634C18.3333 32.9288 18.7956 32.1511 19.1923 31.3383C18.4369 31.0445 17.7087 30.6825 17.0163 30.2564C17.1985 30.1184 17.3764 29.9747 17.5498 29.8253C21.7455 31.8301 26.3045 31.8301 30.4502 29.8253C30.6243 29.9737 30.8022 30.1174 30.9836 30.2564C30.2901 30.6836 29.5605 31.0464 28.8036 31.3405C29.2026 32.1566 29.664 32.935 30.1854 33.6654C32.2914 32.9959 34.4334 31.9725 36.6416 30.2857C37.1711 24.5579 35.7372 19.592 32.8509 15.1889ZM19.764 27.2471C18.5044 27.2471 17.4715 26.0458 17.4715 24.5831C17.4715 23.1203 18.4824 21.917 19.764 21.917C21.0457 21.917 22.0785 23.1181 22.0565 24.5831C22.0585 26.0458 21.0457 27.2471 19.764 27.2471ZM28.2359 27.2471C26.9763 27.2471 25.9435 26.0458 25.9435 24.5831C25.9435 23.1203 26.9543 21.917 28.2359 21.917C29.5176 21.917 30.5504 23.1181 30.5284 24.5831C30.5284 26.0458 29.5176 27.2471 28.2359 27.2471Z" fill="white"/>
</g>
<defs>
<clipPath id="clip0_3115_7186">
<rect width="25.5" height="20.25" fill="white" transform="translate(11.25 13.5)"/>
</clipPath>
</defs>
</svg>
