<svg width="64" height="64" viewBox="0 0 64 64" fill="none" xmlns="http://www.w3.org/2000/svg">
<rect width="64" height="64" rx="12" fill="#4BA664"/>
<path d="M46 34.6667V48H36V45.3333H27.3333V48H18V34.6667H46ZM39.966 32.2367C39.5833 30.564 38.72 29.0933 37.3593 27.9693C36.0413 26.874 34.482 26.6667 32.6733 26H32.6667V21.7813L33.016 21.6873L33.7807 21.404C34.0747 21.3047 34.3407 21.2213 34.618 21.1627C34.89 21.098 35.0787 21.0707 35.208 21.0707C35.4593 21.0707 35.7773 21.1107 36.1493 21.192C36.528 21.284 36.9313 21.3833 37.3413 21.496C37.7687 21.6253 38.15 21.7233 38.52 21.8067C38.8727 21.8873 39.168 21.9207 39.4127 21.9207C39.802 21.9213 40 21.8673 40.6667 21.7487V16.9207C40 17.0793 39.882 17.1667 39.412 17.1667C39.1673 17.1667 38.8647 17.1293 38.5113 17.04C38.1427 16.9693 37.7627 16.8593 37.3353 16.7353C36.9543 16.6209 36.5689 16.5218 36.18 16.438C35.818 16.352 35.5827 16.3107 35.3267 16.3107C34.478 16.3107 33.3333 16.5113 32.6667 16.8813V16H31.3333V26H31.2913C29.4967 26.6667 27.9253 26.912 26.6087 28.0073C25.274 29.1327 24.4073 30.508 23.9973 32.1813C23.9973 32.1813 22.7193 32 22.7193 33.3333H41.366C41.366 32 39.966 32.2367 39.966 32.2367Z" fill="white"/>
</svg>
