<svg width="64" height="64" viewBox="0 0 64 64" fill="none" xmlns="http://www.w3.org/2000/svg">
<rect x="0.5" y="0.5" width="63" height="63" rx="11.5" fill="white" stroke="#D7D6D9"/>
<path d="M49.5 32C49.5 36.625 48.75 40.375 47.75 40.375C46.75 40.375 46 36.625 46 32C46 27.375 46.75 23.625 47.75 23.625C48.75 23.625 49.5 27.375 49.5 32ZM45.125 32C45.125 37.125 42.875 41.375 40.25 41.375C37.625 41.375 35.375 37.125 35.375 32C35.375 26.875 37.625 22.625 40.25 22.625C42.875 22.625 45.125 26.875 45.125 32ZM34.25 32C34.25 37.5 29.875 42 24.375 42C18.875 42 14.5 37.5 14.5 32C14.5 26.5 18.875 22 24.375 22C29.875 22 34.25 26.5 34.25 32Z" fill="#171717"/>
</svg>
