<svg width="64" height="64" viewBox="0 0 64 64" fill="none" xmlns="http://www.w3.org/2000/svg">
<rect width="64" height="64" rx="12" fill="#4C98CE"/>
<path d="M46.5158 18.0915C46.5158 18.0915 49.7533 16.829 49.4825 19.8948C49.3933 21.1573 48.5841 25.5765 47.9541 30.3557L45.7958 44.514C45.7958 44.514 45.6158 46.5882 43.9966 46.949C42.3783 47.309 39.95 45.6865 39.5 45.3257C39.14 45.0548 32.755 40.9965 30.5066 39.0132C29.8766 38.4715 29.1566 37.3898 30.5966 36.1273L40.0391 27.109C41.1183 26.0273 42.1975 23.5023 37.7008 26.5682L25.1091 35.1348C25.1091 35.1348 23.67 36.0373 20.9725 35.2257L15.1258 33.4215C15.1258 33.4215 12.9675 32.069 16.655 30.7165C25.6491 26.4782 36.7116 22.1498 46.5141 18.0915H46.5158Z" fill="white"/>
</svg>
