<svg width="64" height="64" viewBox="0 0 64 64" fill="none" xmlns="http://www.w3.org/2000/svg">
<rect width="64" height="64" rx="12" fill="#4A9AE9"/>
<path d="M49.4331 21.9993C48.1497 22.5827 46.7664 22.966 45.3331 23.1493C46.7997 22.266 47.9331 20.866 48.4664 19.1827C47.0831 20.016 45.5497 20.5993 43.9331 20.9327C42.6164 19.4993 40.7664 18.666 38.6664 18.666C34.7497 18.666 31.5497 21.866 31.5497 25.816C31.5497 26.3827 31.6164 26.9327 31.7331 27.4494C25.7997 27.1494 20.5164 24.2993 16.9997 19.9827C16.3831 21.0327 16.0331 22.266 16.0331 23.566C16.0331 26.0493 17.2831 28.2493 19.2164 29.4993C18.0331 29.4993 16.9331 29.166 15.9664 28.666V28.716C15.9664 32.1827 18.4331 35.0827 21.6997 35.7327C20.651 36.0197 19.5499 36.0596 18.4831 35.8493C18.9358 37.2701 19.8223 38.5134 21.0181 39.4042C22.2139 40.2951 23.6588 40.7888 25.1497 40.816C22.6225 42.8167 19.4897 43.8982 16.2664 43.8827C15.6997 43.8827 15.1331 43.8493 14.5664 43.7827C17.7331 45.816 21.4997 46.9993 25.5331 46.9993C38.6664 46.9993 45.8831 36.0993 45.8831 26.6493C45.8831 26.3327 45.8831 26.0327 45.8664 25.716C47.2664 24.716 48.4664 23.4493 49.4331 21.9993Z" fill="white"/>
</svg>
