<svg width="64" height="64" viewBox="0 0 64 64" fill="none" xmlns="http://www.w3.org/2000/svg">
<rect x="0.5" y="0.5" width="63" height="63" rx="11.5" fill="white" stroke="#DCDCDC"/>
<path d="M48.272 23.3193C48.0827 22.588 47.7134 21.9214 47.2009 21.3857C46.6885 20.85 46.0507 20.464 45.3512 20.2662C42.79 19.5361 32.4833 19.5361 32.4833 19.5361C32.4833 19.5361 22.1762 19.5583 19.6155 20.2883C18.916 20.4862 18.2783 20.8722 17.7659 21.4079C17.2534 21.9436 16.8842 22.6102 16.6949 23.3415C15.9203 28.0984 15.6197 35.3463 16.7161 39.9127C16.9054 40.644 17.2746 41.3106 17.7871 41.8463C18.2995 42.3819 18.9372 42.7679 19.6367 42.9658C22.1976 43.6959 32.5045 43.6959 32.5045 43.6959C32.5045 43.6959 42.8114 43.6959 45.3724 42.9658C46.0719 42.7679 46.7096 42.3819 47.222 41.8463C47.7344 41.3106 48.1037 40.644 48.293 39.9127C49.1098 35.1492 49.3617 27.9057 48.2718 23.3195L48.272 23.3193Z" fill="#FF0000"/>
<path d="M29.2031 36.7927L37.7534 31.6157L29.2031 26.4385V36.7927Z" fill="white"/>
</svg>
